<svg width="1080" height="360" viewBox="0 0 1080 360" fill="none" xmlns="http://www.w3.org/2000/svg">
<rect width="1080" height="360" fill="#F4F4F4"/>
<rect width="1080" height="360" fill="#F4F4F4"/>
<rect x="160.5" y="56.5" width="759" height="247" fill="white"/>
<g clip-path="url(#clip0_1113_50353)">
<text fill="black" xml:space="preserve" style="white-space: pre" font-family="IBM Plex Sans" font-size="14" font-weight="600" letter-spacing="0.16px"><tspan x="212" y="85.25">IBM Cloud</tspan></text>
<g clip-path="url(#clip1_1113_50353)">
<path d="M191.363 78.5313C190.742 77.3673 189.759 76.4369 188.563 75.8802C187.367 75.3235 186.022 75.1709 184.731 75.4452C183.441 75.7195 182.275 76.4059 181.408 77.401C180.542 78.396 180.023 79.6457 179.929 80.9617C178.855 81.0771 177.867 81.5995 177.168 82.4213C176.468 83.2431 176.11 84.3019 176.167 85.3797C176.224 86.4576 176.692 87.4725 177.475 88.2157C178.258 88.9589 179.296 89.3738 180.375 89.375H190.375C191.739 89.3759 193.055 88.8663 194.063 87.9466C195.071 87.0268 195.698 85.7633 195.822 84.4044C195.946 83.0455 195.557 81.6894 194.732 80.6026C193.907 79.5159 192.705 78.777 191.363 78.5313ZM190.375 88.4375H180.375C179.543 88.4394 178.742 88.1248 178.134 87.5575C177.526 86.9903 177.157 86.2129 177.101 85.3832C177.046 84.5535 177.308 83.7338 177.835 83.0904C178.362 82.4471 179.113 82.0283 179.938 81.9192C180.004 82.7463 180.239 83.5511 180.628 84.2841C180.656 84.34 180.695 84.3896 180.742 84.4302C180.79 84.4707 180.845 84.5013 180.905 84.5202C180.965 84.539 181.028 84.5457 181.09 84.5399C181.152 84.534 181.213 84.5158 181.268 84.4862C181.323 84.4566 181.372 84.4163 181.411 84.3676C181.45 84.3189 181.479 84.2628 181.497 84.2027C181.514 84.1426 181.519 84.0796 181.512 84.0175C181.504 83.9553 181.484 83.8953 181.453 83.841C180.834 82.6827 180.68 81.3317 181.022 80.0636C181.365 78.7955 182.179 77.7061 183.298 77.0176C184.416 76.3292 185.755 76.0936 187.042 76.359C188.328 76.6244 189.465 77.3708 190.22 78.4458C189.471 78.4665 188.734 78.6408 188.055 78.958C187.376 79.2751 186.77 79.7284 186.273 80.2896C186.231 80.3355 186.198 80.3894 186.177 80.4481C186.156 80.5068 186.146 80.5691 186.15 80.6314C186.153 80.6937 186.168 80.7548 186.196 80.811C186.223 80.8672 186.261 80.9174 186.308 80.9587C186.354 81 186.409 81.0315 186.468 81.0514C186.527 81.0714 186.59 81.0793 186.652 81.0747C186.714 81.0701 186.775 81.0532 186.831 81.0249C186.886 80.9965 186.936 80.9574 186.976 80.9097C187.477 80.3417 188.112 79.9083 188.823 79.649C189.535 79.3897 190.3 79.3128 191.048 79.4254C191.797 79.538 192.506 79.8364 193.11 80.2934C193.713 80.7504 194.193 81.3514 194.505 82.0415C194.816 82.7317 194.95 83.4889 194.893 84.244C194.837 84.9991 194.592 85.728 194.182 86.3641C193.771 87.0003 193.207 87.5233 192.542 87.8855C191.877 88.2477 191.132 88.4375 190.375 88.4375Z" fill="black"/>
<path d="M195.936 76.4093C195.905 76.3553 195.864 76.308 195.814 76.2701C195.765 76.2322 195.709 76.2044 195.648 76.1883C195.588 76.1721 195.526 76.168 195.464 76.1762C195.402 76.1844 195.342 76.2046 195.289 76.2358L193.401 77.3257C193.346 77.356 193.297 77.3971 193.258 77.4465C193.218 77.496 193.189 77.5528 193.172 77.6136C193.155 77.6744 193.15 77.7381 193.158 77.8007C193.166 77.8634 193.186 77.9239 193.218 77.9786C193.249 78.0334 193.292 78.0812 193.342 78.1194C193.392 78.1576 193.45 78.1854 193.511 78.201C193.572 78.2167 193.636 78.22 193.698 78.2107C193.761 78.2014 193.821 78.1797 193.875 78.1469L195.762 77.057C195.871 76.9942 195.951 76.8906 195.983 76.7692C196.016 76.6477 195.999 76.5182 195.936 76.4093Z" fill="black"/>
<path d="M190.173 74.9188C190.227 74.95 190.286 74.9702 190.348 74.9783C190.41 74.9865 190.472 74.9824 190.532 74.9663C190.593 74.9502 190.649 74.9224 190.698 74.8844C190.748 74.8465 190.789 74.7992 190.82 74.7453L191.91 72.8578C191.972 72.7489 191.988 72.6201 191.955 72.4993C191.923 72.3786 191.843 72.2757 191.735 72.2131C191.627 72.1505 191.498 72.1333 191.377 72.1652C191.256 72.1972 191.152 72.2756 191.089 72.3835L189.999 74.271C189.936 74.3799 189.919 74.5094 189.952 74.6308C189.984 74.7523 190.064 74.8559 190.173 74.9188Z" fill="black"/>
<path d="M186 73.8007C186.126 73.8007 186.246 73.7507 186.335 73.6618C186.424 73.5728 186.474 73.4522 186.474 73.3265V71.1467C186.475 71.084 186.463 71.0217 186.44 70.9636C186.416 70.9054 186.381 70.8525 186.337 70.8079C186.293 70.7632 186.241 70.7278 186.183 70.7036C186.125 70.6795 186.063 70.667 186 70.667C185.937 70.667 185.875 70.6795 185.817 70.7036C185.759 70.7278 185.707 70.7632 185.663 70.8079C185.619 70.8525 185.584 70.9054 185.56 70.9636C185.537 71.0217 185.525 71.084 185.526 71.1467V73.3265C185.526 73.4522 185.576 73.5728 185.665 73.6618C185.754 73.7507 185.874 73.8007 186 73.8007Z" fill="black"/>
<path d="M181.179 74.7452C181.243 74.8531 181.346 74.9315 181.467 74.9634C181.588 74.9954 181.717 74.9782 181.825 74.9156C181.934 74.853 182.013 74.7501 182.046 74.6294C182.079 74.5086 182.062 74.3797 182.001 74.2709L180.911 72.3834C180.88 72.329 180.839 72.2812 180.789 72.2429C180.74 72.2045 180.683 72.1763 180.623 72.1599C180.562 72.1435 180.499 72.1392 180.437 72.1472C180.375 72.1553 180.315 72.1755 180.261 72.2068C180.207 72.2381 180.16 72.2798 180.122 72.3295C180.084 72.3792 180.056 72.436 180.04 72.4965C180.024 72.557 180.02 72.62 180.029 72.682C180.037 72.744 180.058 72.8037 180.09 72.8577L181.179 74.7452Z" fill="black"/>
<path d="M178.599 77.3257L176.711 76.2358C176.658 76.2041 176.598 76.1834 176.536 76.1749C176.474 76.1663 176.411 76.1702 176.35 76.1861C176.29 76.2021 176.233 76.2299 176.183 76.2679C176.134 76.3059 176.092 76.3533 176.061 76.4075C176.029 76.4617 176.009 76.5215 176.001 76.5836C175.993 76.6456 175.997 76.7087 176.014 76.769C176.03 76.8294 176.058 76.8859 176.097 76.9354C176.135 76.9848 176.183 77.0261 176.237 77.057L178.125 78.1469C178.179 78.1786 178.239 78.1993 178.301 78.2078C178.363 78.2163 178.426 78.2125 178.486 78.1966C178.547 78.1806 178.603 78.1528 178.653 78.1148C178.703 78.0768 178.744 78.0294 178.776 77.9752C178.807 77.921 178.827 77.8612 178.835 77.7991C178.843 77.7371 178.839 77.674 178.823 77.6137C178.806 77.5533 178.778 77.4967 178.74 77.4473C178.701 77.3979 178.653 77.3565 178.599 77.3257Z" fill="black"/>
</g>
<line x1="162" y1="56" x2="162" y2="104" stroke="#8D8D8D" stroke-width="4"/>
</g>
<rect x="160.5" y="56.5" width="759" height="247" stroke="#8D8D8D"/>
<rect x="617" y="121" width="286" height="166" fill="white"/>
<rect x="617" y="121" width="286" height="166" fill="#EDF5FF"/>
<g clip-path="url(#clip2_1113_50353)">
<text fill="black" xml:space="preserve" style="white-space: pre" font-family="IBM Plex Sans" font-size="14" font-weight="600" letter-spacing="0.16px"><tspan x="680" y="140.25">IBM Cloud Object Storage&#10;</tspan></text>
<text fill="black" xml:space="preserve" style="white-space: pre" font-family="IBM Plex Sans" font-size="14" letter-spacing="0.16px"><tspan x="680" y="158.25">Instance</tspan></text>
<rect width="48" height="48" transform="translate(616 120)" fill="#0F62FE"/>
<path d="M647.5 146.5H646.25V147.75H647.5V151.5H632.5V147.75H638.75V146.5H632.5C632.169 146.5 631.851 146.632 631.617 146.867C631.382 147.101 631.25 147.419 631.25 147.75V151.5C631.25 151.831 631.382 152.149 631.617 152.383C631.851 152.618 632.169 152.75 632.5 152.75H647.5C647.831 152.75 648.149 152.618 648.383 152.383C648.618 152.149 648.75 151.831 648.75 151.5V147.75C648.75 147.419 648.618 147.101 648.383 146.867C648.149 146.632 647.831 146.5 647.5 146.5Z" fill="white"/>
<path d="M634.375 150.25C634.72 150.25 635 149.97 635 149.625C635 149.28 634.72 149 634.375 149C634.03 149 633.75 149.28 633.75 149.625C633.75 149.97 634.03 150.25 634.375 150.25Z" fill="white"/>
<path d="M648.75 139H643.75V142.75H640V147.75H645V144H648.75V139ZM643.75 146.5H641.25V144H643.75V146.5ZM647.5 142.75H645V140.25H647.5V142.75Z" fill="white"/>
<path d="M641.25 140.25H636.25V135.25H641.25V140.25ZM637.5 139H640V136.5H637.5V139Z" fill="white"/>
</g>
<rect x="616.5" y="120.5" width="287" height="167" stroke="#0F62FE"/>
<rect width="192" height="92" transform="translate(224 180)" fill="white" style="mix-blend-mode:multiply"/>
<rect width="48" height="48" transform="translate(296 180)" fill="#1192E8"/>
<path d="M327.5 204V207.75H312.5V197.75H319.375V196.5H312.5C312.168 196.5 311.851 196.632 311.616 196.866C311.382 197.101 311.25 197.418 311.25 197.75V207.75C311.25 208.082 311.382 208.399 311.616 208.634C311.851 208.868 312.168 209 312.5 209H317.5V211.5H315V212.75H325V211.5H322.5V209H327.5C327.832 209 328.149 208.868 328.384 208.634C328.618 208.399 328.75 208.082 328.75 207.75V204H327.5ZM321.25 211.5H318.75V209H321.25V211.5Z" fill="white"/>
<path d="M328.75 196.5H321.25V197.75H328.75V196.5Z" fill="white"/>
<path d="M328.75 199H321.25V200.25H328.75V199Z" fill="white"/>
<path d="M325 201.5H321.25V202.75H325V201.5Z" fill="white"/>
<text fill="black" xml:space="preserve" style="white-space: pre" font-family="IBM Plex Sans" font-size="14" font-weight="600" letter-spacing="0.16px"><tspan x="263.559" y="250.25">IBM Log Analysis</tspan></text>
<text fill="black" xml:space="preserve" style="white-space: pre" font-family="IBM Plex Sans" font-size="14" letter-spacing="0.16px"><tspan x="291.802" y="268.25">Instance</tspan></text>
<rect width="192" height="92" transform="translate(664 180)" fill="white" style="mix-blend-mode:multiply"/>
<rect width="48" height="48" transform="translate(736 180)" fill="#0F62FE"/>
<path d="M767.5 197.75H759.375V199H767.5V197.75Z" fill="white"/>
<path d="M767.5 209H759.375V210.25H767.5V209Z" fill="white"/>
<path d="M760.625 203.375H752.5V204.625H760.625V203.375Z" fill="white"/>
<path d="M754.375 200.875C753.881 200.875 753.397 200.728 752.986 200.454C752.575 200.179 752.255 199.789 752.065 199.332C751.876 198.875 751.827 198.372 751.923 197.887C752.02 197.402 752.258 196.957 752.607 196.607C752.957 196.258 753.402 196.02 753.887 195.923C754.372 195.827 754.875 195.876 755.332 196.065C755.789 196.255 756.179 196.575 756.454 196.986C756.728 197.397 756.875 197.881 756.875 198.375C756.875 199.038 756.612 199.674 756.143 200.143C755.674 200.612 755.038 200.875 754.375 200.875ZM754.375 197.125C754.128 197.125 753.886 197.198 753.681 197.336C753.475 197.473 753.315 197.668 753.22 197.897C753.126 198.125 753.101 198.376 753.149 198.619C753.197 198.861 753.316 199.084 753.491 199.259C753.666 199.434 753.889 199.553 754.131 199.601C754.374 199.649 754.625 199.624 754.853 199.53C755.082 199.435 755.277 199.275 755.414 199.069C755.552 198.864 755.625 198.622 755.625 198.375C755.625 198.043 755.493 197.726 755.259 197.491C755.024 197.257 754.707 197.125 754.375 197.125Z" fill="white"/>
<path d="M754.375 212.125C753.881 212.125 753.397 211.978 752.986 211.704C752.575 211.429 752.255 211.039 752.065 210.582C751.876 210.125 751.827 209.622 751.923 209.137C752.02 208.652 752.258 208.207 752.607 207.857C752.957 207.508 753.402 207.27 753.887 207.173C754.372 207.077 754.875 207.126 755.332 207.315C755.789 207.505 756.179 207.825 756.454 208.236C756.728 208.647 756.875 209.131 756.875 209.625C756.875 210.288 756.612 210.924 756.143 211.393C755.674 211.862 755.038 212.125 754.375 212.125ZM754.375 208.375C754.128 208.375 753.886 208.448 753.681 208.586C753.475 208.723 753.315 208.918 753.22 209.147C753.126 209.375 753.101 209.626 753.149 209.869C753.197 210.111 753.316 210.334 753.491 210.509C753.666 210.684 753.889 210.803 754.131 210.851C754.374 210.899 754.625 210.874 754.853 210.78C755.082 210.685 755.277 210.525 755.414 210.319C755.552 210.114 755.625 209.872 755.625 209.625C755.625 209.293 755.493 208.976 755.259 208.741C755.024 208.507 754.707 208.375 754.375 208.375Z" fill="white"/>
<path d="M765.625 206.5C765.131 206.5 764.647 206.353 764.236 206.079C763.825 205.804 763.505 205.414 763.315 204.957C763.126 204.5 763.077 203.997 763.173 203.512C763.27 203.027 763.508 202.582 763.857 202.232C764.207 201.883 764.652 201.645 765.137 201.548C765.622 201.452 766.125 201.501 766.582 201.69C767.039 201.88 767.429 202.2 767.704 202.611C767.978 203.022 768.125 203.506 768.125 204C768.125 204.663 767.862 205.299 767.393 205.768C766.924 206.237 766.288 206.5 765.625 206.5ZM765.625 202.75C765.378 202.75 765.136 202.823 764.931 202.961C764.725 203.098 764.565 203.293 764.47 203.522C764.376 203.75 764.351 204.001 764.399 204.244C764.447 204.486 764.566 204.709 764.741 204.884C764.916 205.059 765.139 205.178 765.381 205.226C765.624 205.274 765.875 205.249 766.103 205.155C766.332 205.06 766.527 204.9 766.664 204.694C766.802 204.489 766.875 204.247 766.875 204C766.875 203.668 766.743 203.351 766.509 203.116C766.274 202.882 765.957 202.75 765.625 202.75Z" fill="white"/>
<text fill="black" xml:space="preserve" style="white-space: pre" font-family="IBM Plex Sans" font-size="14" font-weight="600" letter-spacing="0.16px"><tspan x="736.973" y="250.25">Bucket</tspan></text>
<text fill="black" xml:space="preserve" style="white-space: pre" font-family="IBM Plex Sans" font-size="14" letter-spacing="0.16px"><tspan x="737.645" y="268.25">json.gz</tspan></text>
<rect width="392" height="48" transform="translate(344 180)" fill="white" style="mix-blend-mode:multiply"/>
<path d="M344 204L728 204" stroke="black"/>
<path d="M728 200L736 204L728 208L728 200Z" fill="black"/>
<rect x="432.5" y="196.5" width="100" height="15" rx="7.5" fill="white"/>
<text fill="black" xml:space="preserve" style="white-space: pre" font-family="IBM Plex Sans" font-size="12" letter-spacing="0.32px"><tspan x="440" y="207.5">COS Service ID</tspan></text>
<rect x="432.5" y="196.5" width="100" height="15" rx="7.5" stroke="black"/>
<defs>
<clipPath id="clip0_1113_50353">
<rect width="760" height="48" fill="white" transform="translate(160 56)"/>
</clipPath>
<clipPath id="clip1_1113_50353">
<rect width="20" height="20" fill="white" transform="translate(176 70)"/>
</clipPath>
<clipPath id="clip2_1113_50353">
<rect width="288" height="48" fill="white" transform="translate(616 120)"/>
</clipPath>
</defs>
</svg>
