<svg width="1080" height="360" viewBox="0 0 1080 360" fill="none" xmlns="http://www.w3.org/2000/svg">
<rect width="1080" height="360" fill="#F4F4F4"/>
<rect width="1080" height="360" fill="#F4F4F4"/>
<rect x="48.5" y="56.5" width="983" height="247" fill="white"/>
<g clip-path="url(#clip0_1113_50362)">
<text fill="black" xml:space="preserve" style="white-space: pre" font-family="IBM Plex Sans" font-size="14" font-weight="600" letter-spacing="0.16px"><tspan x="100" y="85.25">IBM Cloud</tspan></text>
<g clip-path="url(#clip1_1113_50362)">
<path d="M79.3627 78.5313C78.7416 77.3673 77.7588 76.4369 76.5627 75.8802C75.3666 75.3235 74.0219 75.1709 72.7314 75.4452C71.4409 75.7195 70.2746 76.4059 69.4083 77.401C68.542 78.396 68.0227 79.6457 67.9286 80.9617C66.8555 81.0771 65.8673 81.5995 65.1676 82.4213C64.4679 83.2431 64.1097 84.3019 64.1669 85.3797C64.2241 86.4576 64.6922 87.4725 65.4749 88.2157C66.2577 88.9589 67.2955 89.3738 68.3749 89.375H78.3749C79.7394 89.3759 81.055 88.8663 82.063 87.9466C83.0709 87.0268 83.6985 85.7633 83.8223 84.4044C83.9461 83.0455 83.5572 81.6894 82.732 80.6026C81.9068 79.5159 80.705 78.777 79.3627 78.5313ZM78.3749 88.4375H68.3749C67.5434 88.4394 66.7423 88.1248 66.1343 87.5575C65.5263 86.9903 65.157 86.2129 65.1014 85.3832C65.0458 84.5535 65.308 83.7338 65.8348 83.0904C66.3616 82.4471 67.1135 82.0283 67.9378 81.9192C68.0039 82.7463 68.2387 83.5511 68.6276 84.2841C68.6557 84.34 68.6948 84.3896 68.7425 84.4302C68.7901 84.4707 68.8454 84.5013 68.9051 84.5202C68.9648 84.539 69.0276 84.5457 69.0899 84.5399C69.1522 84.534 69.2127 84.5158 69.2678 84.4862C69.323 84.4566 69.3716 84.4163 69.4109 84.3676C69.4502 84.3189 69.4794 84.2628 69.4967 84.2027C69.514 84.1426 69.519 84.0796 69.5116 84.0175C69.5042 83.9553 69.4844 83.8953 69.4534 83.841C68.8338 82.6827 68.6797 81.3317 69.0224 80.0636C69.3651 78.7955 70.1789 77.7061 71.2975 77.0176C72.4162 76.3292 73.7555 76.0936 75.0419 76.359C76.3284 76.6244 77.4651 77.3708 78.2199 78.4458C77.4708 78.4665 76.734 78.6408 76.055 78.958C75.3761 79.2751 74.7696 79.7284 74.273 80.2896C74.2307 80.3355 74.198 80.3894 74.1769 80.4481C74.1557 80.5068 74.1464 80.5691 74.1496 80.6314C74.1529 80.6937 74.1685 80.7548 74.1956 80.811C74.2228 80.8672 74.2608 80.9174 74.3076 80.9587C74.3544 81 74.409 81.0315 74.4681 81.0514C74.5273 81.0714 74.5898 81.0793 74.652 81.0747C74.7143 81.0701 74.775 81.0532 74.8306 81.0249C74.8862 80.9965 74.9356 80.9574 74.9758 80.9097C75.4766 80.3417 76.1117 79.9083 76.8231 79.649C77.5346 79.3897 78.2996 79.3128 79.0484 79.4254C79.7972 79.538 80.5059 79.8364 81.1096 80.2934C81.7133 80.7504 82.1929 81.3514 82.5046 82.0415C82.8162 82.7317 82.9499 83.4889 82.8934 84.244C82.837 84.9991 82.5922 85.728 82.1815 86.3641C81.7708 87.0003 81.2072 87.5233 80.5422 87.8855C79.8772 88.2477 79.1321 88.4375 78.3749 88.4375Z" fill="black"/>
<path d="M83.9363 76.4093C83.9052 76.3553 83.8638 76.308 83.8144 76.2701C83.765 76.2322 83.7086 76.2044 83.6484 76.1883C83.5883 76.1721 83.5255 76.168 83.4638 76.1762C83.402 76.1844 83.3425 76.2046 83.2886 76.2358L81.4011 77.3257C81.3457 77.356 81.2968 77.3971 81.2575 77.4465C81.2182 77.496 81.1891 77.5528 81.1721 77.6136C81.155 77.6744 81.1503 77.7381 81.1582 77.8007C81.166 77.8634 81.1863 77.9239 81.2179 77.9786C81.2495 78.0334 81.2917 78.0812 81.342 78.1194C81.3923 78.1576 81.4498 78.1854 81.511 78.201C81.5722 78.2167 81.6359 78.22 81.6984 78.2107C81.7609 78.2014 81.8209 78.1797 81.8749 78.1469L83.7624 77.057C83.8713 76.9942 83.9509 76.8906 83.9835 76.7692C84.0161 76.6477 83.9992 76.5182 83.9363 76.4093Z" fill="black"/>
<path d="M78.1726 74.9188C78.2266 74.95 78.2861 74.9702 78.3478 74.9783C78.4096 74.9865 78.4723 74.9824 78.5325 74.9663C78.5926 74.9502 78.649 74.9224 78.6984 74.8844C78.7478 74.8465 78.7893 74.7992 78.8204 74.7453L79.9103 72.8578C79.972 72.7489 79.9883 72.6201 79.9554 72.4993C79.9226 72.3786 79.8434 72.2757 79.735 72.2131C79.6266 72.1505 79.4979 72.1333 79.3769 72.1652C79.2559 72.1972 79.1524 72.2756 79.089 72.3835L77.9991 74.271C77.9363 74.3799 77.9192 74.5094 77.9518 74.6308C77.9843 74.7523 78.0638 74.8559 78.1726 74.9188Z" fill="black"/>
<path d="M73.9999 73.8007C74.1257 73.8007 74.2463 73.7507 74.3352 73.6618C74.4241 73.5728 74.4741 73.4522 74.4741 73.3265V71.1467C74.4749 71.084 74.4631 71.0217 74.4396 70.9636C74.4161 70.9054 74.3813 70.8525 74.3372 70.8079C74.2931 70.7632 74.2406 70.7278 74.1827 70.7036C74.1248 70.6795 74.0627 70.667 73.9999 70.667C73.9372 70.667 73.8751 70.6795 73.8172 70.7036C73.7593 70.7278 73.7068 70.7632 73.6627 70.8079C73.6186 70.8525 73.5837 70.9054 73.5602 70.9636C73.5367 71.0217 73.525 71.084 73.5257 71.1467V73.3265C73.5257 73.4522 73.5757 73.5728 73.6646 73.6618C73.7535 73.7507 73.8741 73.8007 73.9999 73.8007Z" fill="black"/>
<path d="M69.1795 74.7452C69.2429 74.8531 69.3463 74.9315 69.4673 74.9634C69.5883 74.9954 69.7171 74.9782 69.8254 74.9156C69.9338 74.853 70.0131 74.7501 70.0459 74.6294C70.0787 74.5086 70.0625 74.3797 70.0007 74.2709L68.9108 72.3834C68.88 72.329 68.8386 72.2812 68.7892 72.2429C68.7397 72.2045 68.6832 72.1763 68.6228 72.1599C68.5625 72.1435 68.4994 72.1392 68.4374 72.1472C68.3753 72.1553 68.3155 72.1755 68.2613 72.2068C68.2071 72.2381 68.1597 72.2798 68.1217 72.3295C68.0837 72.3792 68.0559 72.436 68.0399 72.4965C68.024 72.557 68.0201 72.62 68.0287 72.682C68.0372 72.744 68.0579 72.8037 68.0896 72.8577L69.1795 74.7452Z" fill="black"/>
<path d="M66.599 77.3257L64.7115 76.2358C64.6575 76.2041 64.5978 76.1834 64.5358 76.1749C64.4738 76.1663 64.4108 76.1702 64.3503 76.1861C64.2898 76.2021 64.233 76.2299 64.1833 76.2679C64.1336 76.3059 64.0919 76.3533 64.0606 76.4075C64.0293 76.4617 64.0091 76.5215 64.001 76.5836C63.993 76.6456 63.9973 76.7087 64.0137 76.769C64.0301 76.8294 64.0583 76.8859 64.0967 76.9354C64.135 76.9848 64.1828 77.0261 64.2372 77.057L66.1249 78.1469C66.1788 78.1786 66.2385 78.1993 66.3005 78.2078C66.3625 78.2163 66.4256 78.2125 66.4861 78.1966C66.5466 78.1806 66.6033 78.1528 66.653 78.1148C66.7027 78.0768 66.7444 78.0294 66.7757 77.9752C66.807 77.921 66.8273 77.8612 66.8353 77.7991C66.8434 77.7371 66.8391 77.674 66.8227 77.6137C66.8063 77.5533 66.7781 77.4967 66.7397 77.4473C66.7013 77.3979 66.6534 77.3565 66.599 77.3257Z" fill="black"/>
</g>
<line x1="50" y1="56" x2="50" y2="104" stroke="#8D8D8D" stroke-width="4"/>
</g>
<rect x="48.5" y="56.5" width="983" height="247" stroke="#8D8D8D"/>
<rect width="192" height="92" transform="translate(64 180)" fill="white" style="mix-blend-mode:multiply"/>
<rect width="48" height="48" transform="translate(136 180)" fill="#1192E8"/>
<path d="M167.5 204V207.75H152.5V197.75H159.375V196.5H152.5C152.168 196.5 151.851 196.632 151.616 196.866C151.382 197.101 151.25 197.418 151.25 197.75V207.75C151.25 208.082 151.382 208.399 151.616 208.634C151.851 208.868 152.168 209 152.5 209H157.5V211.5H155V212.75H165V211.5H162.5V209H167.5C167.832 209 168.149 208.868 168.384 208.634C168.618 208.399 168.75 208.082 168.75 207.75V204H167.5ZM161.25 211.5H158.75V209H161.25V211.5Z" fill="white"/>
<path d="M168.75 196.5H161.25V197.75H168.75V196.5Z" fill="white"/>
<path d="M168.75 199H161.25V200.25H168.75V199Z" fill="white"/>
<path d="M165 201.5H161.25V202.75H165V201.5Z" fill="white"/>
<text fill="black" xml:space="preserve" style="white-space: pre" font-family="IBM Plex Sans" font-size="14" font-weight="600" letter-spacing="0.16px"><tspan x="103.559" y="250.25">IBM Log Analysis</tspan></text>
<text fill="black" xml:space="preserve" style="white-space: pre" font-family="IBM Plex Sans" font-size="14" letter-spacing="0.16px"><tspan x="131.802" y="268.25">Instance</tspan></text>
<rect x="397" y="121" width="286" height="166" fill="white"/>
<rect x="397" y="121" width="286" height="166" fill="#EDF5FF"/>
<g clip-path="url(#clip2_1113_50362)">
<text fill="black" xml:space="preserve" style="white-space: pre" font-family="IBM Plex Sans" font-size="14" font-weight="600" letter-spacing="0.16px"><tspan x="460" y="140.25">IBM Cloud Object Storage&#10;</tspan></text>
<text fill="black" xml:space="preserve" style="white-space: pre" font-family="IBM Plex Sans" font-size="14" letter-spacing="0.16px"><tspan x="460" y="158.25">Instance</tspan></text>
<rect width="48" height="48" transform="translate(396 120)" fill="#0F62FE"/>
<path d="M427.5 146.5H426.25V147.75H427.5V151.5H412.5V147.75H418.75V146.5H412.5C412.169 146.5 411.851 146.632 411.617 146.867C411.382 147.101 411.25 147.419 411.25 147.75V151.5C411.25 151.831 411.382 152.149 411.617 152.383C411.851 152.618 412.169 152.75 412.5 152.75H427.5C427.831 152.75 428.149 152.618 428.383 152.383C428.618 152.149 428.75 151.831 428.75 151.5V147.75C428.75 147.419 428.618 147.101 428.383 146.867C428.149 146.632 427.831 146.5 427.5 146.5Z" fill="white"/>
<path d="M414.375 150.25C414.72 150.25 415 149.97 415 149.625C415 149.28 414.72 149 414.375 149C414.03 149 413.75 149.28 413.75 149.625C413.75 149.97 414.03 150.25 414.375 150.25Z" fill="white"/>
<path d="M428.75 139H423.75V142.75H420V147.75H425V144H428.75V139ZM423.75 146.5H421.25V144H423.75V146.5ZM427.5 142.75H425V140.25H427.5V142.75Z" fill="white"/>
<path d="M421.25 140.25H416.25V135.25H421.25V140.25ZM417.5 139H420V136.5H417.5V139Z" fill="white"/>
</g>
<rect x="396.5" y="120.5" width="287" height="167" stroke="#0F62FE"/>
<rect width="48" height="92" transform="translate(516 180)" fill="white" style="mix-blend-mode:multiply"/>
<rect width="48" height="48" transform="translate(516 180)" fill="#0F62FE"/>
<path d="M547.5 197.75H539.375V199H547.5V197.75Z" fill="white"/>
<path d="M547.5 209H539.375V210.25H547.5V209Z" fill="white"/>
<path d="M540.625 203.375H532.5V204.625H540.625V203.375Z" fill="white"/>
<path d="M534.375 200.875C533.881 200.875 533.397 200.728 532.986 200.454C532.575 200.179 532.255 199.789 532.065 199.332C531.876 198.875 531.827 198.372 531.923 197.887C532.02 197.402 532.258 196.957 532.607 196.607C532.957 196.258 533.402 196.02 533.887 195.923C534.372 195.827 534.875 195.876 535.332 196.065C535.789 196.255 536.179 196.575 536.454 196.986C536.728 197.397 536.875 197.881 536.875 198.375C536.875 199.038 536.612 199.674 536.143 200.143C535.674 200.612 535.038 200.875 534.375 200.875ZM534.375 197.125C534.128 197.125 533.886 197.198 533.681 197.336C533.475 197.473 533.315 197.668 533.22 197.897C533.126 198.125 533.101 198.376 533.149 198.619C533.197 198.861 533.316 199.084 533.491 199.259C533.666 199.434 533.889 199.553 534.131 199.601C534.374 199.649 534.625 199.624 534.853 199.53C535.082 199.435 535.277 199.275 535.414 199.069C535.552 198.864 535.625 198.622 535.625 198.375C535.625 198.043 535.493 197.726 535.259 197.491C535.024 197.257 534.707 197.125 534.375 197.125Z" fill="white"/>
<path d="M534.375 212.125C533.881 212.125 533.397 211.978 532.986 211.704C532.575 211.429 532.255 211.039 532.065 210.582C531.876 210.125 531.827 209.622 531.923 209.137C532.02 208.652 532.258 208.207 532.607 207.857C532.957 207.508 533.402 207.27 533.887 207.173C534.372 207.077 534.875 207.126 535.332 207.315C535.789 207.505 536.179 207.825 536.454 208.236C536.728 208.647 536.875 209.131 536.875 209.625C536.875 210.288 536.612 210.924 536.143 211.393C535.674 211.862 535.038 212.125 534.375 212.125ZM534.375 208.375C534.128 208.375 533.886 208.448 533.681 208.586C533.475 208.723 533.315 208.918 533.22 209.147C533.126 209.375 533.101 209.626 533.149 209.869C533.197 210.111 533.316 210.334 533.491 210.509C533.666 210.684 533.889 210.803 534.131 210.851C534.374 210.899 534.625 210.874 534.853 210.78C535.082 210.685 535.277 210.525 535.414 210.319C535.552 210.114 535.625 209.872 535.625 209.625C535.625 209.293 535.493 208.976 535.259 208.741C535.024 208.507 534.707 208.375 534.375 208.375Z" fill="white"/>
<path d="M545.625 206.5C545.131 206.5 544.647 206.353 544.236 206.079C543.825 205.804 543.505 205.414 543.315 204.957C543.126 204.5 543.077 203.997 543.173 203.512C543.27 203.027 543.508 202.582 543.857 202.232C544.207 201.883 544.652 201.645 545.137 201.548C545.622 201.452 546.125 201.501 546.582 201.69C547.039 201.88 547.429 202.2 547.704 202.611C547.978 203.022 548.125 203.506 548.125 204C548.125 204.663 547.862 205.299 547.393 205.768C546.924 206.237 546.288 206.5 545.625 206.5ZM545.625 202.75C545.378 202.75 545.136 202.823 544.931 202.961C544.725 203.098 544.565 203.293 544.47 203.522C544.376 203.75 544.351 204.001 544.399 204.244C544.447 204.486 544.566 204.709 544.741 204.884C544.916 205.059 545.139 205.178 545.381 205.226C545.624 205.274 545.875 205.249 546.103 205.155C546.332 205.06 546.527 204.9 546.664 204.694C546.802 204.489 546.875 204.247 546.875 204C546.875 203.668 546.743 203.351 546.509 203.116C546.274 202.882 545.957 202.75 545.625 202.75Z" fill="white"/>
<text fill="black" xml:space="preserve" style="white-space: pre" font-family="IBM Plex Sans" font-size="14" font-weight="600" letter-spacing="0.16px"><tspan x="516.973" y="250.25">Bucket</tspan></text>
<text fill="black" xml:space="preserve" style="white-space: pre" font-family="IBM Plex Sans" font-size="14" letter-spacing="0.16px"><tspan x="517.645" y="268.25">json.gz</tspan></text>
<rect width="192" height="92" transform="translate(824 180)" fill="white" style="mix-blend-mode:multiply"/>
<rect width="48" height="48" transform="translate(896 180)" fill="#0F62FE"/>
<path d="M925 207.125V199.625H923.75V208.375H928.75V207.125H925Z" fill="white"/>
<path d="M921.25 199.625H918.75C918.418 199.625 918.101 199.757 917.866 199.991C917.632 200.226 917.5 200.543 917.5 200.875V207.125C917.5 207.457 917.632 207.774 917.866 208.009C918.101 208.243 918.418 208.375 918.75 208.375H919.375V209.625C919.375 209.957 919.507 210.274 919.741 210.509C919.976 210.743 920.293 210.875 920.625 210.875H921.875V209.625H920.625V208.375H921.25C921.582 208.375 921.899 208.243 922.134 208.009C922.368 207.774 922.5 207.457 922.5 207.125V200.875C922.5 200.543 922.368 200.226 922.134 199.991C921.899 199.757 921.582 199.625 921.25 199.625ZM918.75 207.125V200.875H921.25V207.125H918.75Z" fill="white"/>
<path d="M915 208.375H911.25V207.125H915V204.625H912.5C912.168 204.625 911.851 204.493 911.616 204.259C911.382 204.024 911.25 203.707 911.25 203.375V200.875C911.25 200.543 911.382 200.226 911.616 199.991C911.851 199.757 912.168 199.625 912.5 199.625H916.25V200.875H912.5V203.375H915C915.332 203.375 915.649 203.507 915.884 203.741C916.118 203.976 916.25 204.293 916.25 204.625V207.125C916.25 207.457 916.118 207.774 915.884 208.009C915.649 208.243 915.332 208.375 915 208.375Z" fill="white"/>
<text fill="black" xml:space="preserve" style="white-space: pre" font-family="IBM Plex Sans" font-size="14" font-weight="600" letter-spacing="0.16px"><tspan x="849.006" y="250.25">IBM Cloud SQL Query </tspan></text>
<text fill="black" xml:space="preserve" style="white-space: pre" font-family="IBM Plex Sans" font-size="14" letter-spacing="0.16px"><tspan x="891.802" y="268.25">Instance</tspan></text>
<rect width="332" height="12" transform="translate(184 198)" fill="white" style="mix-blend-mode:multiply"/>
<path d="M184 204L508 204" stroke="black"/>
<path d="M508 200L516 204L508 208L508 200Z" fill="black"/>
<rect width="332" height="12" transform="translate(564 198)" fill="white" style="mix-blend-mode:multiply"/>
<path d="M572 200L564 204L572 208L572 200Z" fill="black"/>
<path d="M572 204L896 204" stroke="black"/>
<rect x="765.5" y="196.5" width="49" height="15" rx="7.5" fill="white"/>
<text fill="black" xml:space="preserve" style="white-space: pre" font-family="IBM Plex Sans" font-size="12" letter-spacing="0.32px"><tspan x="773" y="207.5">Query</tspan></text>
<rect x="765.5" y="196.5" width="49" height="15" rx="7.5" stroke="black"/>
<defs>
<clipPath id="clip0_1113_50362">
<rect width="984" height="48" fill="white" transform="translate(48 56)"/>
</clipPath>
<clipPath id="clip1_1113_50362">
<rect width="20" height="20" fill="white" transform="translate(64 70)"/>
</clipPath>
<clipPath id="clip2_1113_50362">
<rect width="288" height="48" fill="white" transform="translate(396 120)"/>
</clipPath>
</defs>
</svg>
