<svg width="1080" height="540" viewBox="0 0 1080 540" fill="none" xmlns="http://www.w3.org/2000/svg">
<rect width="1080" height="540" fill="#F4F4F4"/>
<rect width="1080" height="540" fill="#F4F4F4"/>
<rect x="672.5" y="106.5" width="359" height="327" fill="white" style="mix-blend-mode:multiply"/>
<rect x="673" y="107" width="358" height="326" fill="white"/>
<g clip-path="url(#clip0_1113_50284)">
<path d="M729.18 135H724.742V133.516H726.03V126.712H724.742V125.228H729.18V126.712H727.878V133.516H729.18V135ZM731.228 135V125.228H735.75C737.36 125.228 738.34 126.222 738.34 127.734C738.34 129.218 737.486 129.778 736.59 129.834V129.918C737.444 129.932 738.704 130.534 738.704 132.2C738.704 133.768 737.626 135 736.184 135H731.228ZM733.076 130.814V133.432H735.652C736.352 133.432 736.772 133.054 736.772 132.368V131.892C736.772 131.206 736.352 130.814 735.652 130.814H733.076ZM733.076 126.796V129.302H735.358C736.03 129.302 736.422 128.91 736.422 128.266V127.832C736.422 127.174 736.03 126.796 735.358 126.796H733.076ZM740.671 135V125.228H742.757L745.263 130.002H745.319L747.797 125.228H749.799V135H748.049V127.986H747.993L747.237 129.54L745.235 133.236L743.233 129.54L742.477 127.986H742.421V135H740.671ZM759.523 135.168C756.947 135.168 755.309 133.474 755.309 130.184C755.309 126.894 756.947 125.06 759.523 125.06C761.273 125.06 762.407 125.802 763.093 127.314L761.511 128.154C761.231 127.286 760.615 126.698 759.523 126.698C758.151 126.698 757.269 127.692 757.269 129.358V130.898C757.269 132.578 758.151 133.53 759.523 133.53C760.629 133.53 761.315 132.858 761.637 131.976L763.135 132.858C762.435 134.314 761.273 135.168 759.523 135.168ZM767.518 135H766.552C765.334 135 764.76 134.356 764.76 133.236V124.64H766.552V133.572H767.518V135ZM771.933 135.168C769.847 135.168 768.545 133.684 768.545 131.332C768.545 128.994 769.847 127.524 771.933 127.524C774.033 127.524 775.335 128.994 775.335 131.332C775.335 133.684 774.033 135.168 771.933 135.168ZM771.933 133.726C772.871 133.726 773.459 133.124 773.459 132.018V130.66C773.459 129.568 772.871 128.966 771.933 128.966C771.009 128.966 770.421 129.568 770.421 130.66V132.018C770.421 133.124 771.009 133.726 771.933 133.726ZM781.452 135V133.782H781.382C781.13 134.51 780.542 135.168 779.338 135.168C777.84 135.168 777 134.132 777 132.312V127.692H778.792V132.13C778.792 133.138 779.17 133.684 780.024 133.684C780.738 133.684 781.452 133.306 781.452 132.522V127.692H783.244V135H781.452ZM790.01 135V133.782H789.94C789.674 134.608 788.89 135.168 787.924 135.168C786.09 135.168 785.068 133.782 785.068 131.332C785.068 128.896 786.09 127.524 787.924 127.524C788.89 127.524 789.688 128.056 789.94 128.896H790.01V124.64H791.802V135H790.01ZM788.498 133.684C789.352 133.684 790.01 133.25 790.01 132.494V130.17C790.01 129.456 789.352 128.994 788.498 128.994C787.574 128.994 786.944 129.68 786.944 130.716V131.976C786.944 133.012 787.574 133.684 788.498 133.684Z" fill="black"/>
<g clip-path="url(#clip1_1113_50284)">
<path d="M703.363 128.531C702.742 127.367 701.759 126.437 700.563 125.88C699.367 125.324 698.022 125.171 696.731 125.445C695.441 125.719 694.275 126.406 693.408 127.401C692.542 128.396 692.023 129.646 691.929 130.962C690.855 131.077 689.867 131.599 689.168 132.421C688.468 133.243 688.11 134.302 688.167 135.38C688.224 136.458 688.692 137.473 689.475 138.216C690.258 138.959 691.296 139.374 692.375 139.375H702.375C703.739 139.376 705.055 138.866 706.063 137.947C707.071 137.027 707.698 135.763 707.822 134.404C707.946 133.045 707.557 131.689 706.732 130.603C705.907 129.516 704.705 128.777 703.363 128.531ZM702.375 138.438H692.375C691.543 138.439 690.742 138.125 690.134 137.558C689.526 136.99 689.157 136.213 689.101 135.383C689.046 134.554 689.308 133.734 689.835 133.09C690.362 132.447 691.113 132.028 691.938 131.919C692.004 132.746 692.239 133.551 692.628 134.284C692.656 134.34 692.695 134.39 692.742 134.43C692.79 134.471 692.845 134.501 692.905 134.52C692.965 134.539 693.028 134.546 693.09 134.54C693.152 134.534 693.213 134.516 693.268 134.486C693.323 134.457 693.372 134.416 693.411 134.368C693.45 134.319 693.479 134.263 693.497 134.203C693.514 134.143 693.519 134.08 693.512 134.017C693.504 133.955 693.484 133.895 693.453 133.841C692.834 132.683 692.68 131.332 693.022 130.064C693.365 128.796 694.179 127.706 695.298 127.018C696.416 126.329 697.755 126.094 699.042 126.359C700.328 126.624 701.465 127.371 702.22 128.446C701.471 128.466 700.734 128.641 700.055 128.958C699.376 129.275 698.77 129.728 698.273 130.29C698.231 130.335 698.198 130.389 698.177 130.448C698.156 130.507 698.146 130.569 698.15 130.631C698.153 130.694 698.168 130.755 698.196 130.811C698.223 130.867 698.261 130.917 698.308 130.959C698.354 131 698.409 131.032 698.468 131.051C698.527 131.071 698.59 131.079 698.652 131.075C698.714 131.07 698.775 131.053 698.831 131.025C698.886 130.997 698.936 130.957 698.976 130.91C699.477 130.342 700.112 129.908 700.823 129.649C701.535 129.39 702.3 129.313 703.048 129.425C703.797 129.538 704.506 129.836 705.11 130.293C705.713 130.75 706.193 131.351 706.505 132.042C706.816 132.732 706.95 133.489 706.893 134.244C706.837 134.999 706.592 135.728 706.182 136.364C705.771 137 705.207 137.523 704.542 137.886C703.877 138.248 703.132 138.438 702.375 138.438Z" fill="black"/>
<path d="M707.936 126.409C707.905 126.355 707.864 126.308 707.814 126.27C707.765 126.232 707.709 126.204 707.648 126.188C707.588 126.172 707.526 126.168 707.464 126.176C707.402 126.184 707.342 126.205 707.289 126.236L705.401 127.326C705.346 127.356 705.297 127.397 705.258 127.447C705.218 127.496 705.189 127.553 705.172 127.614C705.155 127.674 705.15 127.738 705.158 127.801C705.166 127.863 705.186 127.924 705.218 127.979C705.249 128.033 705.292 128.081 705.342 128.119C705.392 128.158 705.45 128.185 705.511 128.201C705.572 128.217 705.636 128.22 705.698 128.211C705.761 128.201 705.821 128.18 705.875 128.147L707.762 127.057C707.871 126.994 707.951 126.891 707.983 126.769C708.016 126.648 707.999 126.518 707.936 126.409Z" fill="black"/>
<path d="M702.173 124.919C702.227 124.95 702.286 124.97 702.348 124.978C702.41 124.986 702.472 124.982 702.532 124.966C702.593 124.95 702.649 124.922 702.698 124.884C702.748 124.847 702.789 124.799 702.82 124.745L703.91 122.858C703.972 122.749 703.988 122.62 703.955 122.499C703.923 122.379 703.843 122.276 703.735 122.213C703.627 122.151 703.498 122.133 703.377 122.165C703.256 122.197 703.152 122.276 703.089 122.384L701.999 124.271C701.936 124.38 701.919 124.509 701.952 124.631C701.984 124.752 702.064 124.856 702.173 124.919Z" fill="black"/>
<path d="M698 123.801C698.126 123.801 698.246 123.751 698.335 123.662C698.424 123.573 698.474 123.452 698.474 123.326V121.147C698.475 121.084 698.463 121.022 698.44 120.964C698.416 120.905 698.381 120.852 698.337 120.808C698.293 120.763 698.241 120.728 698.183 120.704C698.125 120.679 698.063 120.667 698 120.667C697.937 120.667 697.875 120.679 697.817 120.704C697.759 120.728 697.707 120.763 697.663 120.808C697.619 120.852 697.584 120.905 697.56 120.964C697.537 121.022 697.525 121.084 697.526 121.147V123.326C697.526 123.452 697.576 123.573 697.665 123.662C697.754 123.751 697.874 123.801 698 123.801Z" fill="black"/>
<path d="M693.179 124.745C693.243 124.853 693.346 124.932 693.467 124.963C693.588 124.995 693.717 124.978 693.825 124.916C693.934 124.853 694.013 124.75 694.046 124.629C694.079 124.509 694.062 124.38 694.001 124.271L692.911 122.383C692.88 122.329 692.839 122.281 692.789 122.243C692.74 122.204 692.683 122.176 692.623 122.16C692.562 122.143 692.499 122.139 692.437 122.147C692.375 122.155 692.315 122.176 692.261 122.207C692.207 122.238 692.16 122.28 692.122 122.33C692.084 122.379 692.056 122.436 692.04 122.496C692.024 122.557 692.02 122.62 692.029 122.682C692.037 122.744 692.058 122.804 692.09 122.858L693.179 124.745Z" fill="black"/>
<path d="M690.599 127.326L688.711 126.236C688.658 126.204 688.598 126.183 688.536 126.175C688.474 126.166 688.411 126.17 688.35 126.186C688.29 126.202 688.233 126.23 688.183 126.268C688.134 126.306 688.092 126.353 688.061 126.407C688.029 126.462 688.009 126.522 688.001 126.584C687.993 126.646 687.997 126.709 688.014 126.769C688.03 126.829 688.058 126.886 688.097 126.935C688.135 126.985 688.183 127.026 688.237 127.057L690.125 128.147C690.179 128.179 690.239 128.199 690.301 128.208C690.363 128.216 690.426 128.213 690.486 128.197C690.547 128.181 690.603 128.153 690.653 128.115C690.703 128.077 690.744 128.029 690.776 127.975C690.807 127.921 690.827 127.861 690.835 127.799C690.843 127.737 690.839 127.674 690.823 127.614C690.806 127.553 690.778 127.497 690.74 127.447C690.701 127.398 690.653 127.357 690.599 127.326Z" fill="black"/>
</g>
<line x1="674" y1="106" x2="674" y2="154" stroke="#8D8D8D" stroke-width="4"/>
</g>
<rect x="672.5" y="106.5" width="359" height="327" stroke="#8D8D8D"/>
<rect x="689" y="171" width="326" height="246" fill="white"/>
<rect x="689" y="171" width="326" height="246" fill="#E5F6FF"/>
<g clip-path="url(#clip2_1113_50284)">
<path d="M757.18 190H752.742V188.516H754.03V181.712H752.742V180.228H757.18V181.712H755.878V188.516H757.18V190ZM759.228 190V180.228H763.75C765.36 180.228 766.34 181.222 766.34 182.734C766.34 184.218 765.486 184.778 764.59 184.834V184.918C765.444 184.932 766.704 185.534 766.704 187.2C766.704 188.768 765.626 190 764.184 190H759.228ZM761.076 185.814V188.432H763.652C764.352 188.432 764.772 188.054 764.772 187.368V186.892C764.772 186.206 764.352 185.814 763.652 185.814H761.076ZM761.076 181.796V184.302H763.358C764.03 184.302 764.422 183.91 764.422 183.266V182.832C764.422 182.174 764.03 181.796 763.358 181.796H761.076ZM768.671 190V180.228H770.757L773.263 185.002H773.319L775.797 180.228H777.799V190H776.049V182.986H775.993L775.237 184.54L773.235 188.236L771.233 184.54L770.477 182.986H770.421V190H768.671ZM789.427 190H783.729V180.228H785.577V188.362H789.427V190ZM793.839 190.168C791.753 190.168 790.451 188.684 790.451 186.332C790.451 183.994 791.753 182.524 793.839 182.524C795.939 182.524 797.241 183.994 797.241 186.332C797.241 188.684 795.939 190.168 793.839 190.168ZM793.839 188.726C794.777 188.726 795.365 188.124 795.365 187.018V185.66C795.365 184.568 794.777 183.966 793.839 183.966C792.915 183.966 792.327 184.568 792.327 185.66V187.018C792.327 188.124 792.915 188.726 793.839 188.726ZM805.584 190.616C805.584 192.142 804.548 192.968 801.748 192.968C799.284 192.968 798.346 192.324 798.346 191.246C798.346 190.434 798.836 189.972 799.648 189.846V189.692C799.046 189.538 798.71 189.062 798.71 188.474C798.71 187.718 799.354 187.34 800.054 187.186V187.13C799.172 186.724 798.724 185.968 798.724 185.002C798.724 183.518 799.774 182.524 801.748 182.524C802.196 182.524 802.658 182.58 803.022 182.706V182.468C803.022 181.754 803.386 181.404 804.058 181.404H805.192V182.776H803.638V182.972C804.394 183.392 804.772 184.106 804.772 185.002C804.772 186.472 803.736 187.452 801.748 187.452C801.328 187.452 800.95 187.41 800.628 187.326C800.348 187.452 800.11 187.662 800.11 187.984C800.11 188.348 800.418 188.53 801.062 188.53H803.022C804.814 188.53 805.584 189.3 805.584 190.616ZM803.904 190.826C803.904 190.364 803.568 190.084 802.658 190.084H800.166C799.9 190.28 799.788 190.546 799.788 190.84C799.788 191.4 800.208 191.736 801.328 191.736H802.224C803.386 191.736 803.904 191.442 803.904 190.826ZM801.748 186.234C802.602 186.234 803.064 185.842 803.064 185.114V184.876C803.064 184.134 802.602 183.756 801.748 183.756C800.894 183.756 800.432 184.134 800.432 184.876V185.114C800.432 185.842 800.894 186.234 801.748 186.234ZM818.326 190H816.408L815.624 187.508H812.152L811.382 190H809.506L812.782 180.228H815.078L818.326 190ZM815.176 185.926L813.916 181.908H813.846L812.6 185.926H815.176ZM821.606 190H819.814V182.692H821.606V183.91H821.676C821.97 183.126 822.586 182.524 823.72 182.524C825.218 182.524 826.058 183.56 826.058 185.38V190H824.266V185.562C824.266 184.526 823.916 183.994 823.062 183.994C822.32 183.994 821.606 184.386 821.606 185.17V190ZM830.01 190.168C828.526 190.168 827.686 189.314 827.686 188.012C827.686 186.514 828.82 185.772 830.808 185.772H832.054V185.24C832.054 184.428 831.648 183.952 830.696 183.952C829.856 183.952 829.38 184.372 829.03 184.876L827.966 183.924C828.498 183.084 829.352 182.524 830.822 182.524C832.796 182.524 833.846 183.462 833.846 185.128V188.572H834.574V190H833.58C832.81 190 832.334 189.496 832.222 188.74H832.138C831.9 189.678 831.102 190.168 830.01 190.168ZM830.612 188.866C831.41 188.866 832.054 188.502 832.054 187.816V186.85H830.906C829.968 186.85 829.506 187.172 829.506 187.746V187.984C829.506 188.572 829.912 188.866 830.612 188.866ZM838.943 190H837.977C836.759 190 836.185 189.356 836.185 188.236V179.64H837.977V188.572H838.943V190ZM843.57 186.556L844.844 182.692H846.524L843.584 191.302C843.22 192.352 842.702 192.8 841.498 192.8H840.42V191.372H841.736L842.072 190.35L839.454 182.692H841.232L842.506 186.556L842.982 188.404H843.066L843.57 186.556ZM850.151 190.168C848.765 190.168 847.855 189.664 847.127 188.824L848.219 187.76C848.751 188.376 849.395 188.754 850.221 188.754C851.075 188.754 851.439 188.432 851.439 187.914C851.439 187.494 851.187 187.228 850.543 187.144L849.815 187.046C848.247 186.85 847.379 186.164 847.379 184.834C847.379 183.42 848.485 182.524 850.151 182.524C851.579 182.524 852.307 182.944 853.007 183.672L851.957 184.722C851.537 184.274 850.921 183.938 850.207 183.938C849.437 183.938 849.101 184.246 849.101 184.694C849.101 185.184 849.367 185.408 850.053 185.52L850.795 185.618C852.391 185.842 853.161 186.556 853.161 187.774C853.161 189.188 851.971 190.168 850.151 190.168ZM855.799 181.628C855.057 181.628 854.749 181.25 854.749 180.732V180.452C854.749 179.934 855.057 179.556 855.799 179.556C856.527 179.556 856.849 179.934 856.849 180.452V180.732C856.849 181.25 856.527 181.628 855.799 181.628ZM854.903 190V182.692H856.695V190H854.903ZM861.326 190.168C859.94 190.168 859.03 189.664 858.302 188.824L859.394 187.76C859.926 188.376 860.57 188.754 861.396 188.754C862.25 188.754 862.614 188.432 862.614 187.914C862.614 187.494 862.362 187.228 861.718 187.144L860.99 187.046C859.422 186.85 858.554 186.164 858.554 184.834C858.554 183.42 859.66 182.524 861.326 182.524C862.754 182.524 863.482 182.944 864.182 183.672L863.132 184.722C862.712 184.274 862.096 183.938 861.382 183.938C860.612 183.938 860.276 184.246 860.276 184.694C860.276 185.184 860.542 185.408 861.228 185.52L861.97 185.618C863.566 185.842 864.336 186.556 864.336 187.774C864.336 189.188 863.146 190.168 861.326 190.168Z" fill="black"/>
<path d="M756.76 208H752.84V207.02H754.212V199.208H752.84V198.228H756.76V199.208H755.388V207.02H756.76V208ZM760.075 208H758.955V200.776H760.075V201.952H760.131C760.481 201.14 761.097 200.608 762.175 200.608C763.659 200.608 764.597 201.616 764.597 203.366V208H763.477V203.562C763.477 202.274 762.917 201.616 761.839 201.616C760.943 201.616 760.075 202.064 760.075 202.988V208ZM769.242 208.168C767.912 208.168 767.03 207.608 766.386 206.754L767.184 206.11C767.744 206.81 768.416 207.216 769.326 207.216C770.278 207.216 770.838 206.782 770.838 206.04C770.838 205.48 770.53 205.046 769.578 204.906L769.004 204.822C767.674 204.626 766.68 204.08 766.68 202.736C766.68 201.308 767.786 200.608 769.256 200.608C770.418 200.608 771.188 201.042 771.777 201.77L771.035 202.442C770.713 201.994 770.097 201.56 769.172 201.56C768.248 201.56 767.758 201.994 767.758 202.68C767.758 203.38 768.248 203.66 769.144 203.8L769.704 203.884C771.301 204.122 771.917 204.822 771.917 205.914C771.917 207.314 770.894 208.168 769.242 208.168ZM776.955 208H775.555C774.785 208 774.365 207.51 774.365 206.81V201.756H773.175V200.776H773.847C774.323 200.776 774.477 200.608 774.477 200.118V198.774H775.485V200.776H777.067V201.756H775.485V207.02H776.955V208ZM784.907 208H784.277C783.451 208 783.115 207.496 783.031 206.824H782.961C782.653 207.706 781.883 208.168 780.875 208.168C779.349 208.168 778.453 207.328 778.453 205.984C778.453 204.626 779.433 203.87 781.533 203.87H782.961V203.156C782.961 202.134 782.401 201.574 781.253 201.574C780.385 201.574 779.811 201.994 779.419 202.652L778.747 202.022C779.139 201.252 780.007 200.608 781.309 200.608C783.045 200.608 784.081 201.518 784.081 203.044V207.02H784.907V208ZM781.057 207.216C782.163 207.216 782.961 206.642 782.961 205.9V204.71H781.477C780.203 204.71 779.629 205.102 779.629 205.802V206.096C779.629 206.81 780.189 207.216 781.057 207.216ZM787.786 208H786.666V200.776H787.786V201.952H787.842C788.192 201.14 788.808 200.608 789.886 200.608C791.37 200.608 792.308 201.616 792.308 203.366V208H791.188V203.562C791.188 202.274 790.628 201.616 789.55 201.616C788.654 201.616 787.786 202.064 787.786 202.988V208ZM797.471 208.168C795.441 208.168 794.251 206.698 794.251 204.388C794.251 202.078 795.441 200.608 797.471 200.608C798.899 200.608 799.753 201.308 800.173 202.302L799.235 202.778C798.969 202.036 798.353 201.602 797.471 201.602C796.141 201.602 795.455 202.512 795.455 203.772V205.004C795.455 206.264 796.141 207.174 797.471 207.174C798.381 207.174 799.039 206.74 799.431 205.914L800.243 206.46C799.781 207.496 798.843 208.168 797.471 208.168ZM804.618 208.168C802.658 208.168 801.37 206.684 801.37 204.388C801.37 202.092 802.658 200.608 804.618 200.608C806.55 200.608 807.74 202.092 807.74 204.136V204.668H802.546V205.004C802.546 206.25 803.344 207.188 804.688 207.188C805.598 207.188 806.298 206.74 806.676 205.942L807.474 206.516C807.012 207.496 805.976 208.168 804.618 208.168ZM804.618 201.546C803.4 201.546 802.546 202.47 802.546 203.73V203.828H806.536V203.674C806.536 202.4 805.766 201.546 804.618 201.546Z" fill="black"/>
<rect width="48" height="48" transform="translate(688 170)" fill="#1192E8"/>
<rect width="20" height="20" transform="translate(702 184)" fill="white" style="mix-blend-mode:multiply"/>
<path d="M719.5 194V197.75H704.5V187.75H711.375V186.5H704.5C704.168 186.5 703.851 186.632 703.616 186.866C703.382 187.101 703.25 187.418 703.25 187.75V197.75C703.25 198.082 703.382 198.399 703.616 198.634C703.851 198.868 704.168 199 704.5 199H709.5V201.5H707V202.75H717V201.5H714.5V199H719.5C719.832 199 720.149 198.868 720.384 198.634C720.618 198.399 720.75 198.082 720.75 197.75V194H719.5ZM713.25 201.5H710.75V199H713.25V201.5Z" fill="white"/>
<path d="M720.75 186.5H713.25V187.75H720.75V186.5Z" fill="white"/>
<path d="M720.75 189H713.25V190.25H720.75V189Z" fill="white"/>
<path d="M717 191.5H713.25V192.75H717V191.5Z" fill="white"/>
</g>
<rect x="688.5" y="170.5" width="327" height="247" stroke="#1192E8"/>
<rect width="52" height="92" transform="translate(826 270)" fill="white" style="mix-blend-mode:multiply"/>
<rect width="48" height="48" transform="translate(828 270)" fill="#8D8D8D"/>
<rect width="20" height="20" transform="translate(842 284)" fill="white" style="mix-blend-mode:multiply"/>
<path d="M852 285.25C850.269 285.25 848.578 285.763 847.139 286.725C845.7 287.686 844.578 289.053 843.916 290.652C843.254 292.25 843.081 294.01 843.418 295.707C843.756 297.404 844.589 298.963 845.813 300.187C847.037 301.411 848.596 302.244 850.293 302.582C851.99 302.919 853.75 302.746 855.348 302.084C856.947 301.422 858.314 300.3 859.275 298.861C860.237 297.422 860.75 295.731 860.75 294C860.75 291.679 859.828 289.454 858.187 287.813C856.546 286.172 854.321 285.25 852 285.25ZM859.5 293.375H855.75C855.677 291.073 855.081 288.818 854.006 286.781C855.487 287.186 856.807 288.036 857.79 289.215C858.772 290.394 859.369 291.846 859.5 293.375ZM852 301.5C851.861 301.509 851.721 301.509 851.581 301.5C850.286 299.435 849.568 297.061 849.5 294.625H854.5C854.438 297.06 853.726 299.433 852.438 301.5C852.292 301.51 852.146 301.51 852 301.5ZM849.5 293.375C849.562 290.94 850.274 288.567 851.563 286.5C851.841 286.469 852.122 286.469 852.4 286.5C853.701 288.563 854.427 290.937 854.5 293.375H849.5ZM849.975 286.781C848.907 288.82 848.317 291.075 848.25 293.375H844.5C844.631 291.846 845.228 290.394 846.21 289.215C847.193 288.036 848.513 287.186 849.994 286.781H849.975ZM844.531 294.625H848.281C848.346 296.925 848.934 299.18 850 301.219C848.524 300.809 847.209 299.958 846.232 298.779C845.254 297.601 844.661 296.151 844.531 294.625ZM854.006 301.219C855.081 299.182 855.677 296.927 855.75 294.625H859.5C859.369 296.154 858.772 297.606 857.79 298.785C856.807 299.964 855.487 300.814 854.006 301.219Z" fill="white"/>
<path d="M833.305 340H827.607V330.228H829.455V338.362H833.305V340ZM837.718 340.168C835.632 340.168 834.33 338.684 834.33 336.332C834.33 333.994 835.632 332.524 837.718 332.524C839.818 332.524 841.12 333.994 841.12 336.332C841.12 338.684 839.818 340.168 837.718 340.168ZM837.718 338.726C838.656 338.726 839.244 338.124 839.244 337.018V335.66C839.244 334.568 838.656 333.966 837.718 333.966C836.794 333.966 836.206 334.568 836.206 335.66V337.018C836.206 338.124 836.794 338.726 837.718 338.726ZM849.462 340.616C849.462 342.142 848.426 342.968 845.626 342.968C843.162 342.968 842.224 342.324 842.224 341.246C842.224 340.434 842.714 339.972 843.526 339.846V339.692C842.924 339.538 842.588 339.062 842.588 338.474C842.588 337.718 843.232 337.34 843.932 337.186V337.13C843.05 336.724 842.602 335.968 842.602 335.002C842.602 333.518 843.652 332.524 845.626 332.524C846.074 332.524 846.536 332.58 846.9 332.706V332.468C846.9 331.754 847.264 331.404 847.936 331.404H849.07V332.776H847.516V332.972C848.272 333.392 848.65 334.106 848.65 335.002C848.65 336.472 847.614 337.452 845.626 337.452C845.206 337.452 844.828 337.41 844.506 337.326C844.226 337.452 843.988 337.662 843.988 337.984C843.988 338.348 844.296 338.53 844.94 338.53H846.9C848.692 338.53 849.462 339.3 849.462 340.616ZM847.782 340.826C847.782 340.364 847.446 340.084 846.536 340.084H844.044C843.778 340.28 843.666 340.546 843.666 340.84C843.666 341.4 844.086 341.736 845.206 341.736H846.102C847.264 341.736 847.782 341.442 847.782 340.826ZM845.626 336.234C846.48 336.234 846.942 335.842 846.942 335.114V334.876C846.942 334.134 846.48 333.756 845.626 333.756C844.772 333.756 844.31 334.134 844.31 334.876V335.114C844.31 335.842 844.772 336.234 845.626 336.234ZM857.333 340.616C857.333 342.142 856.297 342.968 853.497 342.968C851.033 342.968 850.095 342.324 850.095 341.246C850.095 340.434 850.585 339.972 851.397 339.846V339.692C850.795 339.538 850.459 339.062 850.459 338.474C850.459 337.718 851.103 337.34 851.803 337.186V337.13C850.921 336.724 850.473 335.968 850.473 335.002C850.473 333.518 851.523 332.524 853.497 332.524C853.945 332.524 854.407 332.58 854.771 332.706V332.468C854.771 331.754 855.135 331.404 855.807 331.404H856.941V332.776H855.387V332.972C856.143 333.392 856.521 334.106 856.521 335.002C856.521 336.472 855.485 337.452 853.497 337.452C853.077 337.452 852.699 337.41 852.377 337.326C852.097 337.452 851.859 337.662 851.859 337.984C851.859 338.348 852.167 338.53 852.811 338.53H854.771C856.563 338.53 857.333 339.3 857.333 340.616ZM855.653 340.826C855.653 340.364 855.317 340.084 854.407 340.084H851.915C851.649 340.28 851.537 340.546 851.537 340.84C851.537 341.4 851.957 341.736 853.077 341.736H853.973C855.135 341.736 855.653 341.442 855.653 340.826ZM853.497 336.234C854.351 336.234 854.813 335.842 854.813 335.114V334.876C854.813 334.134 854.351 333.756 853.497 333.756C852.643 333.756 852.181 334.134 852.181 334.876V335.114C852.181 335.842 852.643 336.234 853.497 336.234ZM859.424 331.628C858.682 331.628 858.374 331.25 858.374 330.732V330.452C858.374 329.934 858.682 329.556 859.424 329.556C860.152 329.556 860.474 329.934 860.474 330.452V330.732C860.474 331.25 860.152 331.628 859.424 331.628ZM858.528 340V332.692H860.32V340H858.528ZM864.349 340H862.557V332.692H864.349V333.91H864.419C864.713 333.126 865.329 332.524 866.463 332.524C867.961 332.524 868.801 333.56 868.801 335.38V340H867.009V335.562C867.009 334.526 866.659 333.994 865.805 333.994C865.063 333.994 864.349 334.386 864.349 335.17V340ZM877.542 340.616C877.542 342.142 876.506 342.968 873.706 342.968C871.242 342.968 870.304 342.324 870.304 341.246C870.304 340.434 870.794 339.972 871.606 339.846V339.692C871.004 339.538 870.668 339.062 870.668 338.474C870.668 337.718 871.312 337.34 872.012 337.186V337.13C871.13 336.724 870.682 335.968 870.682 335.002C870.682 333.518 871.732 332.524 873.706 332.524C874.154 332.524 874.616 332.58 874.98 332.706V332.468C874.98 331.754 875.344 331.404 876.016 331.404H877.15V332.776H875.596V332.972C876.352 333.392 876.73 334.106 876.73 335.002C876.73 336.472 875.694 337.452 873.706 337.452C873.286 337.452 872.908 337.41 872.586 337.326C872.306 337.452 872.068 337.662 872.068 337.984C872.068 338.348 872.376 338.53 873.02 338.53H874.98C876.772 338.53 877.542 339.3 877.542 340.616ZM875.862 340.826C875.862 340.364 875.526 340.084 874.616 340.084H872.124C871.858 340.28 871.746 340.546 871.746 340.84C871.746 341.4 872.166 341.736 873.286 341.736H874.182C875.344 341.736 875.862 341.442 875.862 340.826ZM873.706 336.234C874.56 336.234 875.022 335.842 875.022 335.114V334.876C875.022 334.134 874.56 333.756 873.706 333.756C872.852 333.756 872.39 334.134 872.39 334.876V335.114C872.39 335.842 872.852 336.234 873.706 336.234Z" fill="black"/>
<path d="M832.327 358H831.025L828.645 348.228H829.891L830.941 352.932L831.753 356.586H831.781L832.691 352.932L833.923 348.228H835.267L836.457 352.932L837.367 356.572H837.409L838.249 352.932L839.355 348.228H840.559L838.053 358H836.751L835.477 353.128L834.581 349.544H834.553L833.629 353.128L832.327 358ZM844.694 358.168C842.734 358.168 841.446 356.684 841.446 354.388C841.446 352.092 842.734 350.608 844.694 350.608C846.626 350.608 847.816 352.092 847.816 354.136V354.668H842.622V355.004C842.622 356.25 843.42 357.188 844.764 357.188C845.674 357.188 846.374 356.74 846.752 355.942L847.55 356.516C847.088 357.496 846.052 358.168 844.694 358.168ZM844.694 351.546C843.476 351.546 842.622 352.47 842.622 353.73V353.828H846.612V353.674C846.612 352.4 845.842 351.546 844.694 351.546ZM849.822 358V347.64H850.942V351.952H850.998C851.376 351.042 852.118 350.608 853.112 350.608C854.918 350.608 856.052 352.078 856.052 354.388C856.052 356.698 854.918 358.168 853.112 358.168C852.118 358.168 851.432 357.72 850.998 356.824H850.942V358H849.822ZM852.804 357.16C854.064 357.16 854.848 356.292 854.848 355.004V353.772C854.848 352.484 854.064 351.616 852.804 351.616C851.782 351.616 850.942 352.204 850.942 353.002V355.69C850.942 356.628 851.782 357.16 852.804 357.16ZM861.614 348.228H862.79V354.276C862.79 356.138 863.392 357.118 865.128 357.118C866.864 357.118 867.466 356.138 867.466 354.276V348.228H868.642V353.996C868.642 356.838 867.69 358.168 865.086 358.168C862.482 358.168 861.614 356.838 861.614 353.996V348.228ZM874.79 358H870.87V357.02H872.242V349.208H870.87V348.228H874.79V349.208H873.418V357.02H874.79V358Z" fill="black"/>
<rect x="432.5" y="254.5" width="100" height="15" rx="7.5" fill="white"/>
<path d="M444.068 266.144C441.956 266.144 440.696 264.656 440.696 261.86C440.696 259.064 441.956 257.48 444.068 257.48C445.46 257.48 446.42 258.152 446.948 259.316L446.132 259.808C445.796 258.944 445.1 258.38 444.068 258.38C442.628 258.38 441.776 259.52 441.776 261.236V262.484C441.776 264.2 442.628 265.244 444.068 265.244C445.136 265.244 445.868 264.644 446.204 263.732L447.008 264.236C446.48 265.412 445.46 266.144 444.068 266.144ZM451.869 266.144C449.709 266.144 448.317 264.62 448.317 261.812C448.317 259.004 449.709 257.48 451.869 257.48C454.029 257.48 455.421 259.004 455.421 261.812C455.421 264.62 454.029 266.144 451.869 266.144ZM451.869 265.244C453.321 265.244 454.341 264.164 454.341 262.508V261.116C454.341 259.46 453.321 258.38 451.869 258.38C450.417 258.38 449.397 259.46 449.397 261.116V262.508C449.397 264.164 450.417 265.244 451.869 265.244ZM459.905 266.144C458.561 266.144 457.613 265.592 456.941 264.68L457.685 264.056C458.273 264.836 458.969 265.256 459.941 265.256C461.141 265.256 461.789 264.632 461.789 263.672C461.789 262.88 461.345 262.484 460.241 262.232L459.557 262.076C458.033 261.728 457.193 261.056 457.193 259.772C457.193 258.284 458.321 257.48 459.965 257.48C461.225 257.48 462.113 257.96 462.737 258.848L461.981 259.4C461.525 258.764 460.889 258.368 459.917 258.368C458.849 258.368 458.189 258.836 458.189 259.736C458.189 260.528 458.705 260.888 459.761 261.128L460.445 261.284C462.077 261.656 462.785 262.376 462.785 263.624C462.785 265.16 461.705 266.144 459.905 266.144ZM470.353 266.144C469.009 266.144 468.061 265.592 467.389 264.68L468.133 264.056C468.721 264.836 469.417 265.256 470.389 265.256C471.589 265.256 472.237 264.632 472.237 263.672C472.237 262.88 471.793 262.484 470.689 262.232L470.005 262.076C468.481 261.728 467.641 261.056 467.641 259.772C467.641 258.284 468.769 257.48 470.413 257.48C471.673 257.48 472.561 257.96 473.185 258.848L472.429 259.4C471.973 258.764 471.337 258.368 470.365 258.368C469.297 258.368 468.637 258.836 468.637 259.736C468.637 260.528 469.153 260.888 470.209 261.128L470.893 261.284C472.525 261.656 473.233 262.376 473.233 263.624C473.233 265.16 472.153 266.144 470.353 266.144ZM477.526 266.144C475.846 266.144 474.742 264.872 474.742 262.904C474.742 260.936 475.846 259.664 477.526 259.664C479.182 259.664 480.202 260.936 480.202 262.688V263.144H475.75V263.432C475.75 264.5 476.434 265.304 477.586 265.304C478.366 265.304 478.966 264.92 479.29 264.236L479.974 264.728C479.578 265.568 478.69 266.144 477.526 266.144ZM477.526 260.468C476.482 260.468 475.75 261.26 475.75 262.34V262.424H479.17V262.292C479.17 261.2 478.51 260.468 477.526 260.468ZM483.064 266H482.104V259.808H483.064V260.948H483.124C483.34 260.36 483.904 259.808 484.912 259.808H485.284V260.768H484.72C483.688 260.768 483.064 261.212 483.064 261.8V266ZM489.432 266H488.316L486.144 259.808H487.104L488.184 262.88L488.856 264.992H488.916L489.588 262.88L490.692 259.808H491.616L489.432 266ZM493.654 258.356C493.246 258.356 493.066 258.14 493.066 257.816V257.66C493.066 257.336 493.246 257.12 493.654 257.12C494.062 257.12 494.242 257.336 494.242 257.66V257.816C494.242 258.14 494.062 258.356 493.654 258.356ZM493.174 266V259.808H494.134V266H493.174ZM498.798 266.144C497.058 266.144 496.038 264.884 496.038 262.904C496.038 260.924 497.058 259.664 498.798 259.664C500.022 259.664 500.754 260.264 501.114 261.116L500.31 261.524C500.082 260.888 499.554 260.516 498.798 260.516C497.658 260.516 497.07 261.296 497.07 262.376V263.432C497.07 264.512 497.658 265.292 498.798 265.292C499.578 265.292 500.142 264.92 500.478 264.212L501.174 264.68C500.778 265.568 499.974 266.144 498.798 266.144ZM505.107 266.144C503.427 266.144 502.323 264.872 502.323 262.904C502.323 260.936 503.427 259.664 505.107 259.664C506.763 259.664 507.783 260.936 507.783 262.688V263.144H503.331V263.432C503.331 264.5 504.015 265.304 505.167 265.304C505.947 265.304 506.547 264.92 506.871 264.236L507.555 264.728C507.159 265.568 506.271 266.144 505.107 266.144ZM505.107 260.468C504.063 260.468 503.331 261.26 503.331 262.34V262.424H506.751V262.292C506.751 261.2 506.091 260.468 505.107 260.468ZM515.9 266H512.54V265.16H513.716V258.464H512.54V257.624H515.9V258.464H514.724V265.16H515.9V266ZM518.061 266V257.624H520.869C522.957 257.624 524.301 259.016 524.301 261.812C524.301 264.608 522.957 266 520.869 266H518.061ZM519.069 265.112H520.869C522.249 265.112 523.221 264.152 523.221 262.496V261.128C523.221 259.472 522.249 258.512 520.869 258.512H519.069V265.112Z" fill="black"/>
<rect x="432.5" y="254.5" width="100" height="15" rx="7.5" stroke="black"/>
<rect x="264.5" y="106.5" width="359" height="327" fill="white"/>
<rect x="265" y="107" width="358" height="326" fill="white"/>
<g clip-path="url(#clip3_1113_50284)">
<path d="M320.732 135H318.632L316.364 125.228H318.212L319.178 129.918L319.78 132.914H319.822L320.522 129.918L321.642 125.228H323.686L324.806 129.918L325.492 132.914H325.534L326.15 129.918L327.144 125.228H328.908L326.57 135H324.484L323.238 129.834L322.636 127.258H322.608L321.978 129.834L320.732 135ZM331.381 126.628C330.639 126.628 330.331 126.25 330.331 125.732V125.452C330.331 124.934 330.639 124.556 331.381 124.556C332.109 124.556 332.431 124.934 332.431 125.452V125.732C332.431 126.25 332.109 126.628 331.381 126.628ZM330.485 135V127.692H332.277V135H330.485ZM336.306 135H334.514V127.692H336.306V128.91H336.376C336.67 128.126 337.286 127.524 338.42 127.524C339.918 127.524 340.758 128.56 340.758 130.38V135H338.966V130.562C338.966 129.526 338.616 128.994 337.762 128.994C337.02 128.994 336.306 129.386 336.306 130.17V135ZM347.441 135V133.782H347.371C347.105 134.608 346.321 135.168 345.355 135.168C343.521 135.168 342.499 133.782 342.499 131.332C342.499 128.896 343.521 127.524 345.355 127.524C346.321 127.524 347.119 128.056 347.371 128.896H347.441V124.64H349.233V135H347.441ZM345.929 133.684C346.783 133.684 347.441 133.25 347.441 132.494V130.17C347.441 129.456 346.783 128.994 345.929 128.994C345.005 128.994 344.375 129.68 344.375 130.716V131.976C344.375 133.012 345.005 133.684 345.929 133.684ZM354.357 135.168C352.271 135.168 350.969 133.684 350.969 131.332C350.969 128.994 352.271 127.524 354.357 127.524C356.457 127.524 357.759 128.994 357.759 131.332C357.759 133.684 356.457 135.168 354.357 135.168ZM354.357 133.726C355.295 133.726 355.883 133.124 355.883 132.018V130.66C355.883 129.568 355.295 128.966 354.357 128.966C353.433 128.966 352.845 129.568 352.845 130.66V132.018C352.845 133.124 353.433 133.726 354.357 133.726ZM360.687 135L358.671 127.692H360.393L361.135 130.702L361.709 133.208H361.765L362.437 130.702L363.291 127.692H364.915L365.797 130.702L366.483 133.208H366.539L367.113 130.702L367.841 127.692H369.507L367.505 135H365.573L364.635 131.78L364.089 129.792H364.047L363.515 131.78L362.591 135H360.687ZM373.369 135.168C371.983 135.168 371.073 134.664 370.345 133.824L371.437 132.76C371.969 133.376 372.613 133.754 373.439 133.754C374.293 133.754 374.657 133.432 374.657 132.914C374.657 132.494 374.405 132.228 373.761 132.144L373.033 132.046C371.465 131.85 370.597 131.164 370.597 129.834C370.597 128.42 371.703 127.524 373.369 127.524C374.797 127.524 375.525 127.944 376.225 128.672L375.175 129.722C374.755 129.274 374.139 128.938 373.425 128.938C372.655 128.938 372.319 129.246 372.319 129.694C372.319 130.184 372.585 130.408 373.271 130.52L374.013 130.618C375.609 130.842 376.379 131.556 376.379 132.774C376.379 134.188 375.189 135.168 373.369 135.168ZM383.983 135.168C382.597 135.168 381.687 134.664 380.959 133.824L382.051 132.76C382.583 133.376 383.227 133.754 384.053 133.754C384.907 133.754 385.271 133.432 385.271 132.914C385.271 132.494 385.019 132.228 384.375 132.144L383.647 132.046C382.079 131.85 381.211 131.164 381.211 129.834C381.211 128.42 382.317 127.524 383.983 127.524C385.411 127.524 386.139 127.944 386.839 128.672L385.789 129.722C385.369 129.274 384.753 128.938 384.039 128.938C383.269 128.938 382.933 129.246 382.933 129.694C382.933 130.184 383.199 130.408 383.885 130.52L384.627 130.618C386.223 130.842 386.993 131.556 386.993 132.774C386.993 134.188 385.803 135.168 383.983 135.168ZM391.69 135.168C389.534 135.168 388.246 133.67 388.246 131.332C388.246 129.022 389.492 127.524 391.634 127.524C393.916 127.524 394.966 129.204 394.966 131.206V131.794H390.108V131.976C390.108 133.026 390.71 133.74 391.886 133.74C392.768 133.74 393.3 133.32 393.748 132.746L394.714 133.824C394.112 134.65 393.048 135.168 391.69 135.168ZM391.662 128.868C390.724 128.868 390.108 129.568 390.108 130.576V130.688H393.104V130.562C393.104 129.554 392.586 128.868 391.662 128.868ZM398.494 135H396.702V127.692H398.494V129.204H398.564C398.746 128.434 399.334 127.692 400.496 127.692H400.888V129.386H400.328C399.124 129.386 398.494 129.722 398.494 130.52V135ZM406.164 135H404.036L401.6 127.692H403.364L404.386 130.842L405.1 133.446H405.198L405.912 130.842L406.906 127.692H408.614L406.164 135ZM412.814 135.168C410.658 135.168 409.37 133.67 409.37 131.332C409.37 129.022 410.616 127.524 412.758 127.524C415.04 127.524 416.09 129.204 416.09 131.206V131.794H411.232V131.976C411.232 133.026 411.834 133.74 413.01 133.74C413.892 133.74 414.424 133.32 414.872 132.746L415.838 133.824C415.236 134.65 414.172 135.168 412.814 135.168ZM412.786 128.868C411.848 128.868 411.232 129.568 411.232 130.576V130.688H414.228V130.562C414.228 129.554 413.71 128.868 412.786 128.868ZM419.619 135H417.827V127.692H419.619V129.204H419.689C419.871 128.434 420.459 127.692 421.621 127.692H422.013V129.386H421.453C420.249 129.386 419.619 129.722 419.619 130.52V135Z" fill="black"/>
<rect width="20" height="20" transform="translate(280 120)" fill="white" style="mix-blend-mode:multiply"/>
<path d="M285.625 124.375C285.97 124.375 286.25 124.095 286.25 123.75C286.25 123.405 285.97 123.125 285.625 123.125C285.28 123.125 285 123.405 285 123.75C285 124.095 285.28 124.375 285.625 124.375Z" fill="black"/>
<path d="M296.25 126.25H283.75C283.419 126.25 283.101 126.118 282.867 125.884C282.632 125.649 282.5 125.331 282.5 125V122.5C282.5 122.169 282.632 121.851 282.867 121.617C283.101 121.382 283.419 121.25 283.75 121.25H296.25C296.581 121.25 296.899 121.382 297.133 121.617C297.368 121.851 297.5 122.169 297.5 122.5V125C297.5 125.331 297.368 125.649 297.133 125.884C296.899 126.118 296.581 126.25 296.25 126.25ZM283.75 122.5V125H296.25V122.5H283.75Z" fill="black"/>
<path d="M285.625 130.625C285.97 130.625 286.25 130.345 286.25 130C286.25 129.655 285.97 129.375 285.625 129.375C285.28 129.375 285 129.655 285 130C285 130.345 285.28 130.625 285.625 130.625Z" fill="black"/>
<path d="M296.25 132.5H283.75C283.419 132.5 283.101 132.368 282.867 132.133C282.632 131.899 282.5 131.581 282.5 131.25V128.75C282.5 128.419 282.632 128.101 282.867 127.866C283.101 127.632 283.419 127.5 283.75 127.5H296.25C296.581 127.5 296.899 127.632 297.133 127.866C297.368 128.101 297.5 128.419 297.5 128.75V131.25C297.5 131.581 297.368 131.899 297.133 132.133C296.899 132.368 296.581 132.5 296.25 132.5ZM283.75 128.75V131.25H296.25V128.75H283.75Z" fill="black"/>
<path d="M285.625 136.875C285.97 136.875 286.25 136.595 286.25 136.25C286.25 135.905 285.97 135.625 285.625 135.625C285.28 135.625 285 135.905 285 136.25C285 136.595 285.28 136.875 285.625 136.875Z" fill="black"/>
<path d="M296.25 138.75H283.75C283.419 138.75 283.101 138.618 282.867 138.383C282.632 138.149 282.5 137.831 282.5 137.5V135C282.5 134.669 282.632 134.351 282.867 134.117C283.101 133.882 283.419 133.75 283.75 133.75H296.25C296.581 133.75 296.899 133.882 297.133 134.117C297.368 134.351 297.5 134.669 297.5 135V137.5C297.5 137.831 297.368 138.149 297.133 138.383C296.899 138.618 296.581 138.75 296.25 138.75ZM283.75 135V137.5H296.25V135H283.75Z" fill="black"/>
<line x1="266" y1="106" x2="266" y2="154" stroke="#8D8D8D" stroke-width="4"/>
</g>
<rect x="264.5" y="106.5" width="359" height="327" stroke="#8D8D8D"/>
<rect width="48" height="48" transform="translate(420 270)" fill="#8D8D8D"/>
<rect width="20" height="20" transform="translate(434 284)" fill="white" style="mix-blend-mode:multiply"/>
<path d="M451.5 290.25H436.5C436.169 290.25 435.851 290.118 435.617 289.883C435.382 289.649 435.25 289.331 435.25 289V286.5C435.25 286.169 435.382 285.851 435.617 285.616C435.851 285.382 436.169 285.25 436.5 285.25H451.5C451.831 285.25 452.149 285.382 452.383 285.616C452.618 285.851 452.75 286.169 452.75 286.5V289C452.75 289.331 452.618 289.649 452.383 289.883C452.149 290.118 451.831 290.25 451.5 290.25ZM436.5 286.5V289H451.5V286.5H436.5Z" fill="white"/>
<path d="M451.5 302.75H436.5C436.169 302.75 435.851 302.618 435.617 302.383C435.382 302.149 435.25 301.831 435.25 301.5V299C435.25 298.669 435.382 298.351 435.617 298.116C435.851 297.882 436.169 297.75 436.5 297.75H451.5C451.831 297.75 452.149 297.882 452.383 298.116C452.618 298.351 452.75 298.669 452.75 299V301.5C452.75 301.831 452.618 302.149 452.383 302.383C452.149 302.618 451.831 302.75 451.5 302.75ZM436.5 299V301.5H451.5V299H436.5Z" fill="white"/>
<path d="M451.5 296.5H436.5C436.169 296.5 435.851 296.368 435.617 296.133C435.382 295.899 435.25 295.581 435.25 295.25V292.75C435.25 292.419 435.382 292.101 435.617 291.866C435.851 291.632 436.169 291.5 436.5 291.5H451.5C451.831 291.5 452.149 291.632 452.383 291.866C452.618 292.101 452.75 292.419 452.75 292.75V295.25C452.75 295.581 452.618 295.899 452.383 296.133C452.149 296.368 451.831 296.5 451.5 296.5ZM436.5 292.75V295.25H451.5V292.75H436.5Z" fill="white"/>
<path d="M429.609 340L426.669 334.988L425.661 332.958H425.619V340H423.869V330.228H425.899L428.839 335.24L429.847 337.27H429.889V330.228H431.639V340H429.609ZM433.196 340L436.36 334.988L433.336 330.228H435.492L437.564 333.7H437.606L439.706 330.228H441.722L438.67 334.988L441.862 340H439.706L437.466 336.248H437.424L435.212 340H433.196ZM449.123 340H443.425V330.228H445.273V338.362H449.123V340ZM453.535 340.168C451.449 340.168 450.147 338.684 450.147 336.332C450.147 333.994 451.449 332.524 453.535 332.524C455.635 332.524 456.937 333.994 456.937 336.332C456.937 338.684 455.635 340.168 453.535 340.168ZM453.535 338.726C454.473 338.726 455.061 338.124 455.061 337.018V335.66C455.061 334.568 454.473 333.966 453.535 333.966C452.611 333.966 452.023 334.568 452.023 335.66V337.018C452.023 338.124 452.611 338.726 453.535 338.726ZM465.28 340.616C465.28 342.142 464.244 342.968 461.444 342.968C458.98 342.968 458.042 342.324 458.042 341.246C458.042 340.434 458.532 339.972 459.344 339.846V339.692C458.742 339.538 458.406 339.062 458.406 338.474C458.406 337.718 459.05 337.34 459.75 337.186V337.13C458.868 336.724 458.42 335.968 458.42 335.002C458.42 333.518 459.47 332.524 461.444 332.524C461.892 332.524 462.354 332.58 462.718 332.706V332.468C462.718 331.754 463.082 331.404 463.754 331.404H464.888V332.776H463.334V332.972C464.09 333.392 464.468 334.106 464.468 335.002C464.468 336.472 463.432 337.452 461.444 337.452C461.024 337.452 460.646 337.41 460.324 337.326C460.044 337.452 459.806 337.662 459.806 337.984C459.806 338.348 460.114 338.53 460.758 338.53H462.718C464.51 338.53 465.28 339.3 465.28 340.616ZM463.6 340.826C463.6 340.364 463.264 340.084 462.354 340.084H459.862C459.596 340.28 459.484 340.546 459.484 340.84C459.484 341.4 459.904 341.736 461.024 341.736H461.92C463.082 341.736 463.6 341.442 463.6 340.826ZM461.444 336.234C462.298 336.234 462.76 335.842 462.76 335.114V334.876C462.76 334.134 462.298 333.756 461.444 333.756C460.59 333.756 460.128 334.134 460.128 334.876V335.114C460.128 335.842 460.59 336.234 461.444 336.234Z" fill="black"/>
<rect width="48" height="48" transform="translate(96 198)" fill="#8D8D8D"/>
<rect width="20" height="20" transform="translate(110 212)" fill="white" style="mix-blend-mode:multiply"/>
<path d="M127.5 227.625H118.75V228.875H127.5V227.625Z" fill="white"/>
<path d="M114.481 228.25L112.869 229.862L113.75 230.75L116.25 228.25L113.75 225.75L112.863 226.631L114.481 228.25Z" fill="white"/>
<path d="M127.5 221.375H118.75V222.625H127.5V221.375Z" fill="white"/>
<path d="M114.481 222L112.869 223.613L113.75 224.5L116.25 222L113.75 219.5L112.863 220.381L114.481 222Z" fill="white"/>
<path d="M127.5 215.125H118.75V216.375H127.5V215.125Z" fill="white"/>
<path d="M114.481 215.75L112.869 217.363L113.75 218.25L116.25 215.75L113.75 213.25L112.863 214.131L114.481 215.75Z" fill="white"/>
<path d="M48.0475 268.168C45.8915 268.168 44.6735 266.684 44.6735 264.332C44.6735 261.994 45.8915 260.524 48.0475 260.524C49.5175 260.524 50.4835 261.224 50.9175 262.372L49.4475 263.03C49.2795 262.414 48.8175 261.966 48.0475 261.966C47.0535 261.966 46.5495 262.666 46.5495 263.688V265.018C46.5495 266.04 47.0535 266.726 48.0475 266.726C48.9015 266.726 49.3215 266.236 49.5875 265.578L50.9595 266.236C50.4835 267.524 49.4615 268.168 48.0475 268.168ZM53.6913 268.154C52.9353 268.154 52.5713 267.72 52.5713 267.132V266.88C52.5713 266.278 52.9353 265.844 53.6913 265.844C54.4613 265.844 54.8113 266.278 54.8113 266.88V267.132C54.8113 267.72 54.4613 268.154 53.6913 268.154ZM53.6913 262.848C52.9353 262.848 52.5713 262.414 52.5713 261.826V261.574C52.5713 260.972 52.9353 260.538 53.6913 260.538C54.4613 260.538 54.8113 260.972 54.8113 261.574V261.826C54.8113 262.414 54.4613 262.848 53.6913 262.848ZM62.1163 270.114H60.6183L56.6003 257.64H58.0983L62.1163 270.114ZM68.3876 270.114H66.8896L62.8716 257.64H64.3696L68.3876 270.114ZM71.621 268H69.773V258.228H74.169C75.975 258.228 77.067 259.446 77.067 261.252C77.067 263.072 75.975 264.276 74.169 264.276H71.621V268ZM71.621 259.838V262.68H74.001C74.715 262.68 75.149 262.288 75.149 261.574V260.93C75.149 260.216 74.715 259.838 74.001 259.838H71.621ZM80.445 268H78.653V260.692H80.445V262.204H80.515C80.697 261.434 81.285 260.692 82.447 260.692H82.839V262.386H82.279C81.075 262.386 80.445 262.722 80.445 263.52V268ZM87.1387 268.168C85.0527 268.168 83.7507 266.684 83.7507 264.332C83.7507 261.994 85.0527 260.524 87.1387 260.524C89.2387 260.524 90.5407 261.994 90.5407 264.332C90.5407 266.684 89.2387 268.168 87.1387 268.168ZM87.1387 266.726C88.0767 266.726 88.6647 266.124 88.6647 265.018V263.66C88.6647 262.568 88.0767 261.966 87.1387 261.966C86.2147 261.966 85.6267 262.568 85.6267 263.66V265.018C85.6267 266.124 86.2147 266.726 87.1387 266.726ZM98.8834 268.616C98.8834 270.142 97.8474 270.968 95.0474 270.968C92.5834 270.968 91.6454 270.324 91.6454 269.246C91.6454 268.434 92.1354 267.972 92.9474 267.846V267.692C92.3454 267.538 92.0094 267.062 92.0094 266.474C92.0094 265.718 92.6534 265.34 93.3534 265.186V265.13C92.4714 264.724 92.0234 263.968 92.0234 263.002C92.0234 261.518 93.0734 260.524 95.0474 260.524C95.4954 260.524 95.9574 260.58 96.3214 260.706V260.468C96.3214 259.754 96.6854 259.404 97.3574 259.404H98.4914V260.776H96.9374V260.972C97.6934 261.392 98.0714 262.106 98.0714 263.002C98.0714 264.472 97.0354 265.452 95.0474 265.452C94.6274 265.452 94.2494 265.41 93.9274 265.326C93.6474 265.452 93.4094 265.662 93.4094 265.984C93.4094 266.348 93.7174 266.53 94.3614 266.53H96.3214C98.1134 266.53 98.8834 267.3 98.8834 268.616ZM97.2034 268.826C97.2034 268.364 96.8674 268.084 95.9574 268.084H93.4654C93.1994 268.28 93.0874 268.546 93.0874 268.84C93.0874 269.4 93.5074 269.736 94.6274 269.736H95.5234C96.6854 269.736 97.2034 269.442 97.2034 268.826ZM95.0474 264.234C95.9014 264.234 96.3634 263.842 96.3634 263.114V262.876C96.3634 262.134 95.9014 261.756 95.0474 261.756C94.1934 261.756 93.7314 262.134 93.7314 262.876V263.114C93.7314 263.842 94.1934 264.234 95.0474 264.234ZM101.87 268H100.078V260.692H101.87V262.204H101.94C102.122 261.434 102.71 260.692 103.872 260.692H104.264V262.386H103.704C102.5 262.386 101.87 262.722 101.87 263.52V268ZM107.39 268.168C105.906 268.168 105.066 267.314 105.066 266.012C105.066 264.514 106.2 263.772 108.188 263.772H109.434V263.24C109.434 262.428 109.028 261.952 108.076 261.952C107.236 261.952 106.76 262.372 106.41 262.876L105.346 261.924C105.878 261.084 106.732 260.524 108.202 260.524C110.176 260.524 111.226 261.462 111.226 263.128V266.572H111.954V268H110.96C110.19 268 109.714 267.496 109.602 266.74H109.518C109.28 267.678 108.482 268.168 107.39 268.168ZM107.992 266.866C108.79 266.866 109.434 266.502 109.434 265.816V264.85H108.286C107.348 264.85 106.886 265.172 106.886 265.746V265.984C106.886 266.572 107.292 266.866 107.992 266.866ZM115.356 268H113.564V260.692H115.356V261.91H115.426C115.706 261.14 116.294 260.524 117.386 260.524C118.38 260.524 119.15 261.014 119.5 261.994H119.528C119.794 261.182 120.606 260.524 121.768 260.524C123.196 260.524 124.008 261.56 124.008 263.38V268H122.216V263.562C122.216 262.512 121.838 261.994 121.04 261.994C120.34 261.994 119.682 262.386 119.682 263.17V268H117.89V263.562C117.89 262.512 117.512 261.994 116.714 261.994C116.028 261.994 115.356 262.386 115.356 263.17V268ZM126.264 268V258.228H129.82C132.368 258.228 134.034 259.866 134.034 263.114C134.034 266.362 132.368 268 129.82 268H126.264ZM128.112 266.362H129.82C131.192 266.362 132.074 265.55 132.074 263.884V262.344C132.074 260.678 131.192 259.866 129.82 259.866H128.112V266.362ZM137.77 268.168C136.286 268.168 135.446 267.314 135.446 266.012C135.446 264.514 136.58 263.772 138.568 263.772H139.814V263.24C139.814 262.428 139.408 261.952 138.456 261.952C137.616 261.952 137.14 262.372 136.79 262.876L135.726 261.924C136.258 261.084 137.112 260.524 138.582 260.524C140.556 260.524 141.606 261.462 141.606 263.128V266.572H142.334V268H141.34C140.57 268 140.094 267.496 139.982 266.74H139.898C139.66 267.678 138.862 268.168 137.77 268.168ZM138.372 266.866C139.17 266.866 139.814 266.502 139.814 265.816V264.85H138.666C137.728 264.85 137.266 265.172 137.266 265.746V265.984C137.266 266.572 137.672 266.866 138.372 266.866ZM146.172 268C144.94 268 144.282 267.328 144.282 266.138V262.12H143.204V260.692H143.764C144.296 260.692 144.464 260.44 144.464 259.936V258.69H146.074V260.692H147.572V262.12H146.074V266.572H147.46V268H146.172ZM151.092 268.168C149.608 268.168 148.768 267.314 148.768 266.012C148.768 264.514 149.902 263.772 151.89 263.772H153.136V263.24C153.136 262.428 152.73 261.952 151.778 261.952C150.938 261.952 150.462 262.372 150.112 262.876L149.048 261.924C149.58 261.084 150.434 260.524 151.904 260.524C153.878 260.524 154.928 261.462 154.928 263.128V266.572H155.656V268H154.662C153.892 268 153.416 267.496 153.304 266.74H153.22C152.982 267.678 152.184 268.168 151.092 268.168ZM151.694 266.866C152.492 266.866 153.136 266.502 153.136 265.816V264.85H151.988C151.05 264.85 150.588 265.172 150.588 265.746V265.984C150.588 266.572 150.994 266.866 151.694 266.866ZM162.265 270.114H160.767L156.749 257.64H158.247L162.265 270.114ZM168.536 270.114H167.038L163.02 257.64H164.518L168.536 270.114ZM172.567 268H171.601C170.383 268 169.809 267.356 169.809 266.236V257.64H171.601V266.572H172.567V268ZM176.983 268.168C174.897 268.168 173.595 266.684 173.595 264.332C173.595 261.994 174.897 260.524 176.983 260.524C179.083 260.524 180.385 261.994 180.385 264.332C180.385 266.684 179.083 268.168 176.983 268.168ZM176.983 266.726C177.921 266.726 178.509 266.124 178.509 265.018V263.66C178.509 262.568 177.921 261.966 176.983 261.966C176.059 261.966 175.471 262.568 175.471 263.66V265.018C175.471 266.124 176.059 266.726 176.983 266.726ZM188.727 268.616C188.727 270.142 187.691 270.968 184.891 270.968C182.427 270.968 181.489 270.324 181.489 269.246C181.489 268.434 181.979 267.972 182.791 267.846V267.692C182.189 267.538 181.853 267.062 181.853 266.474C181.853 265.718 182.497 265.34 183.197 265.186V265.13C182.315 264.724 181.867 263.968 181.867 263.002C181.867 261.518 182.917 260.524 184.891 260.524C185.339 260.524 185.801 260.58 186.165 260.706V260.468C186.165 259.754 186.529 259.404 187.201 259.404H188.335V260.776H186.781V260.972C187.537 261.392 187.915 262.106 187.915 263.002C187.915 264.472 186.879 265.452 184.891 265.452C184.471 265.452 184.093 265.41 183.771 265.326C183.491 265.452 183.253 265.662 183.253 265.984C183.253 266.348 183.561 266.53 184.205 266.53H186.165C187.957 266.53 188.727 267.3 188.727 268.616ZM187.047 268.826C187.047 268.364 186.711 268.084 185.801 268.084H183.309C183.043 268.28 182.931 268.546 182.931 268.84C182.931 269.4 183.351 269.736 184.471 269.736H185.367C186.529 269.736 187.047 269.442 187.047 268.826ZM184.891 264.234C185.745 264.234 186.207 263.842 186.207 263.114V262.876C186.207 262.134 185.745 261.756 184.891 261.756C184.037 261.756 183.575 262.134 183.575 262.876V263.114C183.575 263.842 184.037 264.234 184.891 264.234ZM192.316 268.168C190.93 268.168 190.02 267.664 189.292 266.824L190.384 265.76C190.916 266.376 191.56 266.754 192.386 266.754C193.24 266.754 193.604 266.432 193.604 265.914C193.604 265.494 193.352 265.228 192.708 265.144L191.98 265.046C190.412 264.85 189.544 264.164 189.544 262.834C189.544 261.42 190.65 260.524 192.316 260.524C193.744 260.524 194.472 260.944 195.172 261.672L194.122 262.722C193.702 262.274 193.086 261.938 192.372 261.938C191.602 261.938 191.266 262.246 191.266 262.694C191.266 263.184 191.532 263.408 192.218 263.52L192.96 263.618C194.556 263.842 195.326 264.556 195.326 265.774C195.326 267.188 194.136 268.168 192.316 268.168Z" fill="black"/>
<rect width="48" height="48" transform="translate(96 342)" fill="#8D8D8D"/>
<rect width="20" height="20" transform="translate(110 356)" fill="white" style="mix-blend-mode:multiply"/>
<path d="M127.5 372.25H121.76C121.667 371.989 121.516 371.751 121.32 371.555C121.124 371.358 120.886 371.208 120.625 371.115V367.875H125C125.331 367.875 125.649 367.743 125.883 367.508C126.118 367.274 126.25 366.956 126.25 366.625V358.5C126.25 358.169 126.118 357.851 125.883 357.617C125.649 357.382 125.331 357.25 125 357.25H115C114.669 357.25 114.351 357.382 114.117 357.617C113.882 357.851 113.75 358.169 113.75 358.5V366.625C113.75 366.956 113.882 367.274 114.117 367.508C114.351 367.743 114.669 367.875 115 367.875H119.375V371.115C119.114 371.208 118.876 371.358 118.68 371.555C118.484 371.751 118.333 371.989 118.24 372.25H112.5V373.5H118.24C118.368 373.865 118.605 374.182 118.921 374.406C119.236 374.63 119.613 374.75 120 374.75C120.387 374.75 120.764 374.63 121.079 374.406C121.395 374.182 121.632 373.865 121.76 373.5H127.5V372.25ZM125 363.5H115V361.625H125V363.5ZM125 358.5V360.375H115V358.5H125ZM115 364.75H125V366.625H115V364.75ZM120 373.5C119.876 373.5 119.756 373.463 119.653 373.395C119.55 373.326 119.47 373.228 119.423 373.114C119.375 373 119.363 372.874 119.387 372.753C119.411 372.632 119.471 372.52 119.558 372.433C119.645 372.346 119.757 372.286 119.878 372.262C119.999 372.238 120.125 372.25 120.239 372.298C120.353 372.345 120.451 372.425 120.52 372.528C120.588 372.631 120.625 372.751 120.625 372.875C120.625 373.041 120.559 373.2 120.442 373.317C120.325 373.434 120.166 373.5 120 373.5Z" fill="white"/>
<path d="M62.1816 412.168C59.6056 412.168 57.9676 410.474 57.9676 407.184C57.9676 403.894 59.6056 402.06 62.1816 402.06C63.9316 402.06 65.0656 402.802 65.7516 404.314L64.1696 405.154C63.8896 404.286 63.2736 403.698 62.1816 403.698C60.8096 403.698 59.9276 404.692 59.9276 406.358V407.898C59.9276 409.578 60.8096 410.53 62.1816 410.53C63.2876 410.53 63.9736 409.858 64.2956 408.976L65.7936 409.858C65.0936 411.314 63.9316 412.168 62.1816 412.168ZM71.786 412V410.782H71.716C71.464 411.51 70.876 412.168 69.672 412.168C68.174 412.168 67.334 411.132 67.334 409.312V404.692H69.126V409.13C69.126 410.138 69.504 410.684 70.358 410.684C71.072 410.684 71.786 410.306 71.786 409.522V404.692H73.578V412H71.786ZM78.2025 412.168C76.8165 412.168 75.9065 411.664 75.1785 410.824L76.2705 409.76C76.8025 410.376 77.4465 410.754 78.2725 410.754C79.1265 410.754 79.4905 410.432 79.4905 409.914C79.4905 409.494 79.2385 409.228 78.5945 409.144L77.8665 409.046C76.2985 408.85 75.4305 408.164 75.4305 406.834C75.4305 405.42 76.5365 404.524 78.2025 404.524C79.6305 404.524 80.3585 404.944 81.0585 405.672L80.0085 406.722C79.5885 406.274 78.9725 405.938 78.2585 405.938C77.4885 405.938 77.1525 406.246 77.1525 406.694C77.1525 407.184 77.4185 407.408 78.1045 407.52L78.8465 407.618C80.4425 407.842 81.2125 408.556 81.2125 409.774C81.2125 411.188 80.0225 412.168 78.2025 412.168ZM85.1275 412C83.8955 412 83.2375 411.328 83.2375 410.138V406.12H82.1595V404.692H82.7195C83.2515 404.692 83.4195 404.44 83.4195 403.936V402.69H85.0295V404.692H86.5275V406.12H85.0295V410.572H86.4155V412H85.1275ZM91.0851 412.168C88.9991 412.168 87.6971 410.684 87.6971 408.332C87.6971 405.994 88.9991 404.524 91.0851 404.524C93.1851 404.524 94.4871 405.994 94.4871 408.332C94.4871 410.684 93.1851 412.168 91.0851 412.168ZM91.0851 410.726C92.0231 410.726 92.6111 410.124 92.6111 409.018V407.66C92.6111 406.568 92.0231 405.966 91.0851 405.966C90.1611 405.966 89.5731 406.568 89.5731 407.66V409.018C89.5731 410.124 90.1611 410.726 91.0851 410.726ZM98.0278 412H96.2358V404.692H98.0278V405.91H98.0978C98.3778 405.14 98.9658 404.524 100.058 404.524C101.052 404.524 101.822 405.014 102.172 405.994H102.2C102.466 405.182 103.278 404.524 104.44 404.524C105.868 404.524 106.68 405.56 106.68 407.38V412H104.888V407.562C104.888 406.512 104.51 405.994 103.712 405.994C103.012 405.994 102.354 406.386 102.354 407.17V412H100.562V407.562C100.562 406.512 100.184 405.994 99.3858 405.994C98.6998 405.994 98.0278 406.386 98.0278 407.17V412ZM116.828 412V410.782H116.758C116.492 411.608 115.708 412.168 114.742 412.168C112.908 412.168 111.886 410.782 111.886 408.332C111.886 405.896 112.908 404.524 114.742 404.524C115.708 404.524 116.506 405.056 116.758 405.896H116.828V401.64H118.62V412H116.828ZM115.316 410.684C116.17 410.684 116.828 410.25 116.828 409.494V407.17C116.828 406.456 116.17 405.994 115.316 405.994C114.392 405.994 113.762 406.68 113.762 407.716V408.976C113.762 410.012 114.392 410.684 115.316 410.684ZM121.743 403.628C121.001 403.628 120.693 403.25 120.693 402.732V402.452C120.693 401.934 121.001 401.556 121.743 401.556C122.471 401.556 122.793 401.934 122.793 402.452V402.732C122.793 403.25 122.471 403.628 121.743 403.628ZM120.847 412V404.692H122.639V412H120.847ZM126.668 412H124.876V404.692H126.668V406.204H126.738C126.92 405.434 127.508 404.692 128.67 404.692H129.062V406.386H128.502C127.298 406.386 126.668 406.722 126.668 407.52V412ZM133.417 412.168C131.261 412.168 129.973 410.67 129.973 408.332C129.973 406.022 131.219 404.524 133.361 404.524C135.643 404.524 136.693 406.204 136.693 408.206V408.794H131.835V408.976C131.835 410.026 132.437 410.74 133.613 410.74C134.495 410.74 135.027 410.32 135.475 409.746L136.441 410.824C135.839 411.65 134.775 412.168 133.417 412.168ZM133.389 405.868C132.451 405.868 131.835 406.568 131.835 407.576V407.688H134.831V407.562C134.831 406.554 134.313 405.868 133.389 405.868ZM141.314 412.168C139.158 412.168 137.94 410.684 137.94 408.332C137.94 405.994 139.158 404.524 141.314 404.524C142.784 404.524 143.75 405.224 144.184 406.372L142.714 407.03C142.546 406.414 142.084 405.966 141.314 405.966C140.32 405.966 139.816 406.666 139.816 407.688V409.018C139.816 410.04 140.32 410.726 141.314 410.726C142.168 410.726 142.588 410.236 142.854 409.578L144.226 410.236C143.75 411.524 142.728 412.168 141.314 412.168ZM148.05 412C146.818 412 146.16 411.328 146.16 410.138V406.12H145.082V404.692H145.642C146.174 404.692 146.342 404.44 146.342 403.936V402.69H147.952V404.692H149.45V406.12H147.952V410.572H149.338V412H148.05ZM154.008 412.168C151.922 412.168 150.62 410.684 150.62 408.332C150.62 405.994 151.922 404.524 154.008 404.524C156.108 404.524 157.41 405.994 157.41 408.332C157.41 410.684 156.108 412.168 154.008 412.168ZM154.008 410.726C154.946 410.726 155.534 410.124 155.534 409.018V407.66C155.534 406.568 154.946 405.966 154.008 405.966C153.084 405.966 152.496 406.568 152.496 407.66V409.018C152.496 410.124 153.084 410.726 154.008 410.726ZM160.95 412H159.158V404.692H160.95V406.204H161.02C161.202 405.434 161.79 404.692 162.952 404.692H163.344V406.386H162.784C161.58 406.386 160.95 406.722 160.95 407.52V412ZM165.71 403.628C164.968 403.628 164.66 403.25 164.66 402.732V402.452C164.66 401.934 164.968 401.556 165.71 401.556C166.438 401.556 166.76 401.934 166.76 402.452V402.732C166.76 403.25 166.438 403.628 165.71 403.628ZM164.814 412V404.692H166.606V412H164.814ZM171.797 412.168C169.641 412.168 168.353 410.67 168.353 408.332C168.353 406.022 169.599 404.524 171.741 404.524C174.023 404.524 175.073 406.204 175.073 408.206V408.794H170.215V408.976C170.215 410.026 170.817 410.74 171.993 410.74C172.875 410.74 173.407 410.32 173.855 409.746L174.821 410.824C174.219 411.65 173.155 412.168 171.797 412.168ZM171.769 405.868C170.831 405.868 170.215 406.568 170.215 407.576V407.688H173.211V407.562C173.211 406.554 172.693 405.868 171.769 405.868ZM179.204 412.168C177.818 412.168 176.908 411.664 176.18 410.824L177.272 409.76C177.804 410.376 178.448 410.754 179.274 410.754C180.128 410.754 180.492 410.432 180.492 409.914C180.492 409.494 180.24 409.228 179.596 409.144L178.868 409.046C177.3 408.85 176.432 408.164 176.432 406.834C176.432 405.42 177.538 404.524 179.204 404.524C180.632 404.524 181.36 404.944 182.06 405.672L181.01 406.722C180.59 406.274 179.974 405.938 179.26 405.938C178.49 405.938 178.154 406.246 178.154 406.694C178.154 407.184 178.42 407.408 179.106 407.52L179.848 407.618C181.444 407.842 182.214 408.556 182.214 409.774C182.214 411.188 181.024 412.168 179.204 412.168Z" fill="black"/>
<rect width="358" height="48" transform="translate(468 270)" fill="white" style="mix-blend-mode:multiply"/>
<rect width="351" height="0" transform="translate(468 294)" fill="white" style="mix-blend-mode:multiply"/>
<path d="M468 294H819" stroke="black"/>
<rect width="8" height="8" transform="translate(818 290)" fill="white" style="mix-blend-mode:multiply"/>
<path d="M818 290L826 294L818 298L818 290Z" fill="black"/>
<rect x="492.5" y="286.5" width="92" height="15" rx="7.5" fill="white"/>
<path d="M504.08 298H500.72V297.16H501.896V290.464H500.72V289.624H504.08V290.464H502.904V297.16H504.08V298ZM507.105 298H506.145V291.808H507.105V292.816H507.153C507.453 292.12 507.981 291.664 508.905 291.664C510.177 291.664 510.981 292.528 510.981 294.028V298H510.021V294.196C510.021 293.092 509.541 292.528 508.617 292.528C507.849 292.528 507.105 292.912 507.105 293.704V298ZM518.505 298.684C518.505 299.956 517.497 300.544 515.505 300.544C513.573 300.544 512.781 299.992 512.781 299.02C512.781 298.348 513.153 297.988 513.765 297.82V297.688C513.417 297.52 513.213 297.244 513.213 296.824C513.213 296.2 513.657 295.9 514.281 295.744V295.696C513.549 295.348 513.117 294.664 513.117 293.8C513.117 292.54 514.041 291.664 515.445 291.664C515.889 291.664 516.285 291.748 516.621 291.904V291.796C516.621 291.316 516.825 290.968 517.341 290.968H518.265V291.808H517.089V292.204C517.533 292.588 517.797 293.14 517.797 293.8C517.797 295.06 516.873 295.936 515.457 295.936C515.253 295.936 515.037 295.912 514.857 295.876C514.449 295.984 514.041 296.188 514.041 296.572C514.041 296.944 514.425 297.04 514.989 297.04H516.309C517.845 297.04 518.505 297.664 518.505 298.684ZM517.605 298.756C517.605 298.264 517.281 297.94 516.321 297.94H514.257C513.861 298.12 513.681 298.396 513.681 298.78C513.681 299.32 514.053 299.764 515.025 299.764H515.913C516.981 299.764 517.605 299.428 517.605 298.756ZM515.457 295.168C516.273 295.168 516.789 294.784 516.789 293.968V293.632C516.789 292.816 516.273 292.432 515.457 292.432C514.641 292.432 514.125 292.816 514.125 293.632V293.968C514.125 294.784 514.641 295.168 515.457 295.168ZM522.203 298.144C520.523 298.144 519.419 296.872 519.419 294.904C519.419 292.936 520.523 291.664 522.203 291.664C523.859 291.664 524.879 292.936 524.879 294.688V295.144H520.427V295.432C520.427 296.5 521.111 297.304 522.263 297.304C523.043 297.304 523.643 296.92 523.967 296.236L524.651 296.728C524.255 297.568 523.367 298.144 522.203 298.144ZM522.203 292.468C521.159 292.468 520.427 293.26 520.427 294.34V294.424H523.847V294.292C523.847 293.2 523.187 292.468 522.203 292.468ZM528.64 298.144C527.5 298.144 526.744 297.664 526.192 296.932L526.876 296.38C527.356 296.98 527.932 297.328 528.712 297.328C529.528 297.328 530.008 296.956 530.008 296.32C530.008 295.84 529.744 295.468 528.928 295.348L528.436 295.276C527.296 295.108 526.444 294.64 526.444 293.488C526.444 292.264 527.392 291.664 528.652 291.664C529.648 291.664 530.308 292.036 530.812 292.66L530.176 293.236C529.9 292.852 529.372 292.48 528.58 292.48C527.788 292.48 527.368 292.852 527.368 293.44C527.368 294.04 527.788 294.28 528.556 294.4L529.036 294.472C530.404 294.676 530.932 295.276 530.932 296.212C530.932 297.412 530.056 298.144 528.64 298.144ZM535.434 298H534.234C533.574 298 533.214 297.58 533.214 296.98V292.648H532.194V291.808H532.77C533.178 291.808 533.31 291.664 533.31 291.244V290.092H534.174V291.808H535.53V292.648H534.174V297.16H535.434V298ZM537.873 290.356C537.465 290.356 537.285 290.14 537.285 289.816V289.66C537.285 289.336 537.465 289.12 537.873 289.12C538.281 289.12 538.461 289.336 538.461 289.66V289.816C538.461 290.14 538.281 290.356 537.873 290.356ZM537.393 298V291.808H538.353V298H537.393ZM543.053 298.144C541.397 298.144 540.257 296.872 540.257 294.904C540.257 292.936 541.397 291.664 543.053 291.664C544.709 291.664 545.849 292.936 545.849 294.904C545.849 296.872 544.709 298.144 543.053 298.144ZM543.053 297.292C544.085 297.292 544.817 296.656 544.817 295.348V294.46C544.817 293.152 544.085 292.516 543.053 292.516C542.021 292.516 541.289 293.152 541.289 294.46V295.348C541.289 296.656 542.021 297.292 543.053 297.292ZM548.708 298H547.748V291.808H548.708V292.816H548.756C549.056 292.12 549.584 291.664 550.508 291.664C551.78 291.664 552.584 292.528 552.584 294.028V298H551.624V294.196C551.624 293.092 551.144 292.528 550.22 292.528C549.452 292.528 548.708 292.912 548.708 293.704V298ZM558.044 298V289.12H559.004V294.748H559.052L560 293.692L561.752 291.808H562.916L560.624 294.256L563.144 298H561.98L559.928 294.844L559.004 295.792V298H558.044ZM566.821 298.144C565.141 298.144 564.037 296.872 564.037 294.904C564.037 292.936 565.141 291.664 566.821 291.664C568.477 291.664 569.497 292.936 569.497 294.688V295.144H565.045V295.432C565.045 296.5 565.729 297.304 566.881 297.304C567.661 297.304 568.261 296.92 568.585 296.236L569.269 296.728C568.873 297.568 567.985 298.144 566.821 298.144ZM566.821 292.468C565.777 292.468 565.045 293.26 565.045 294.34V294.424H568.465V294.292C568.465 293.2 567.805 292.468 566.821 292.468ZM573.656 296.02L575.156 291.808H576.104L573.332 299.44C573.056 300.184 572.804 300.4 571.892 300.4H571.4V299.56H572.372L572.84 298.24L570.524 291.808H571.484L572.972 296.02L573.26 297.028H573.32L573.656 296.02Z" fill="black"/>
<rect x="492.5" y="286.5" width="92" height="15" rx="7.5" stroke="black"/>
<rect width="180" height="48" transform="translate(240 270)" fill="white" style="mix-blend-mode:multiply"/>
<rect width="173" height="0" transform="translate(240 294)" fill="white" style="mix-blend-mode:multiply"/>
<path d="M240 294H413" stroke="black"/>
<rect width="8" height="8" transform="translate(412 290)" fill="white" style="mix-blend-mode:multiply"/>
<path d="M412 290L420 294L412 298L412 290Z" fill="black"/>
<rect width="72" height="24" transform="translate(216 366) rotate(180)" fill="white" style="mix-blend-mode:multiply"/>
<path d="M144 366L208 366C212.418 366 216 362.418 216 358L216 342" stroke="black"/>
<rect width="48" height="48" transform="translate(216 294)" fill="white" style="mix-blend-mode:multiply"/>
<path d="M264 294L224 294C219.582 294 216 297.582 216 302L216 342" stroke="black"/>
<rect width="72" height="24" transform="matrix(-1 1.39587e-08 6.84945e-07 1 216 222)" fill="white" style="mix-blend-mode:multiply"/>
<path d="M144 222L208 222C212.418 222 216 225.582 216 230L216 246" stroke="black"/>
<rect width="48" height="48" transform="matrix(1 -1.39587e-08 -6.84945e-07 -1 216 294)" fill="white" style="mix-blend-mode:multiply"/>
<path d="M264 294L224 294C219.582 294 216 290.418 216 286L216 246" stroke="black"/>
<defs>
<clipPath id="clip0_1113_50284">
<rect width="360" height="48" fill="white" transform="translate(672 106)"/>
</clipPath>
<clipPath id="clip1_1113_50284">
<rect width="20" height="20" fill="white" transform="translate(688 120)"/>
</clipPath>
<clipPath id="clip2_1113_50284">
<rect width="328" height="48" fill="white" transform="translate(688 170)"/>
</clipPath>
<clipPath id="clip3_1113_50284">
<rect width="175" height="48" fill="white" transform="translate(264 106)"/>
</clipPath>
</defs>
</svg>
