<svg width="1080" height="540" viewBox="0 0 1080 540" fill="none" xmlns="http://www.w3.org/2000/svg">
<rect width="1080" height="540" fill="#F4F4F4"/>
<rect width="1080" height="540" fill="#F4F4F4"/>
<rect x="48.5" y="48.5" width="983" height="376" fill="white" style="mix-blend-mode:multiply"/>
<rect x="49" y="49" width="982" height="375" fill="white"/>
<g clip-path="url(#clip0_1113_50241)">
<text fill="black" xml:space="preserve" style="white-space: pre" font-family="IBM Plex Sans" font-size="14" font-weight="600" letter-spacing="0.16px"><tspan x="100" y="77.25">IBM Cloud</tspan></text>
<g clip-path="url(#clip1_1113_50241)">
<path d="M79.3627 70.5313C78.7416 69.3673 77.7588 68.4369 76.5627 67.8802C75.3666 67.3235 74.0219 67.1709 72.7314 67.4452C71.4409 67.7195 70.2746 68.4059 69.4083 69.401C68.542 70.396 68.0227 71.6457 67.9286 72.9617C66.8555 73.0771 65.8673 73.5995 65.1676 74.4213C64.4679 75.2431 64.1097 76.3019 64.1669 77.3797C64.2241 78.4576 64.6922 79.4725 65.4749 80.2157C66.2577 80.9589 67.2955 81.3738 68.3749 81.375H78.3749C79.7394 81.3759 81.055 80.8663 82.063 79.9466C83.0709 79.0268 83.6985 77.7633 83.8223 76.4044C83.9461 75.0455 83.5572 73.6894 82.732 72.6026C81.9068 71.5159 80.705 70.777 79.3627 70.5313ZM78.3749 80.4375H68.3749C67.5434 80.4394 66.7423 80.1248 66.1343 79.5575C65.5263 78.9903 65.157 78.2129 65.1014 77.3832C65.0458 76.5535 65.308 75.7338 65.8348 75.0904C66.3616 74.4471 67.1135 74.0283 67.9378 73.9192C68.0039 74.7463 68.2387 75.5511 68.6276 76.2841C68.6557 76.34 68.6948 76.3896 68.7425 76.4302C68.7901 76.4707 68.8454 76.5013 68.9051 76.5202C68.9648 76.539 69.0276 76.5457 69.0899 76.5399C69.1522 76.534 69.2127 76.5158 69.2678 76.4862C69.323 76.4566 69.3716 76.4163 69.4109 76.3676C69.4502 76.3189 69.4794 76.2628 69.4967 76.2027C69.514 76.1426 69.519 76.0796 69.5116 76.0175C69.5042 75.9553 69.4844 75.8953 69.4534 75.841C68.8338 74.6827 68.6797 73.3317 69.0224 72.0636C69.3651 70.7955 70.1789 69.7061 71.2975 69.0176C72.4162 68.3292 73.7555 68.0936 75.0419 68.359C76.3284 68.6244 77.4651 69.3708 78.2199 70.4458C77.4708 70.4665 76.734 70.6408 76.055 70.958C75.3761 71.2751 74.7696 71.7284 74.273 72.2896C74.2307 72.3355 74.198 72.3894 74.1769 72.4481C74.1557 72.5068 74.1464 72.5691 74.1496 72.6314C74.1529 72.6937 74.1685 72.7548 74.1956 72.811C74.2228 72.8672 74.2608 72.9174 74.3076 72.9587C74.3544 73 74.409 73.0315 74.4681 73.0514C74.5273 73.0714 74.5898 73.0793 74.652 73.0747C74.7143 73.0701 74.775 73.0532 74.8306 73.0249C74.8862 72.9965 74.9356 72.9574 74.9758 72.9097C75.4766 72.3417 76.1117 71.9083 76.8231 71.649C77.5346 71.3897 78.2996 71.3128 79.0484 71.4254C79.7972 71.538 80.5059 71.8364 81.1096 72.2934C81.7133 72.7504 82.1929 73.3514 82.5046 74.0415C82.8162 74.7317 82.9499 75.4889 82.8934 76.244C82.837 76.9991 82.5922 77.728 82.1815 78.3641C81.7708 79.0003 81.2072 79.5233 80.5422 79.8855C79.8772 80.2477 79.1321 80.4375 78.3749 80.4375Z" fill="black"/>
<path d="M83.9363 68.4093C83.9052 68.3553 83.8638 68.308 83.8144 68.2701C83.765 68.2322 83.7086 68.2044 83.6484 68.1883C83.5883 68.1721 83.5255 68.168 83.4638 68.1762C83.402 68.1844 83.3425 68.2046 83.2886 68.2358L81.4011 69.3257C81.3457 69.356 81.2968 69.3971 81.2575 69.4465C81.2182 69.496 81.1891 69.5528 81.1721 69.6136C81.155 69.6744 81.1503 69.7381 81.1582 69.8007C81.166 69.8634 81.1863 69.9239 81.2179 69.9786C81.2495 70.0334 81.2917 70.0812 81.342 70.1194C81.3923 70.1576 81.4498 70.1854 81.511 70.201C81.5722 70.2167 81.6359 70.22 81.6984 70.2107C81.7609 70.2014 81.8209 70.1797 81.8749 70.1469L83.7624 69.057C83.8713 68.9942 83.9509 68.8906 83.9835 68.7692C84.0161 68.6477 83.9992 68.5182 83.9363 68.4093Z" fill="black"/>
<path d="M78.1726 66.9188C78.2266 66.95 78.2861 66.9702 78.3478 66.9783C78.4096 66.9865 78.4723 66.9824 78.5325 66.9663C78.5926 66.9502 78.649 66.9224 78.6984 66.8844C78.7478 66.8465 78.7893 66.7992 78.8204 66.7453L79.9103 64.8578C79.972 64.7489 79.9883 64.6201 79.9554 64.4993C79.9226 64.3786 79.8434 64.2757 79.735 64.2131C79.6266 64.1505 79.4979 64.1333 79.3769 64.1652C79.2559 64.1972 79.1524 64.2756 79.089 64.3835L77.9991 66.271C77.9363 66.3799 77.9192 66.5094 77.9518 66.6308C77.9843 66.7523 78.0638 66.8559 78.1726 66.9188Z" fill="black"/>
<path d="M73.9999 65.8007C74.1257 65.8007 74.2463 65.7507 74.3352 65.6618C74.4241 65.5728 74.4741 65.4522 74.4741 65.3265V63.1467C74.4749 63.084 74.4631 63.0217 74.4396 62.9636C74.4161 62.9054 74.3813 62.8525 74.3372 62.8079C74.2931 62.7632 74.2406 62.7278 74.1827 62.7036C74.1248 62.6795 74.0627 62.667 73.9999 62.667C73.9372 62.667 73.8751 62.6795 73.8172 62.7036C73.7593 62.7278 73.7068 62.7632 73.6627 62.8079C73.6186 62.8525 73.5837 62.9054 73.5602 62.9636C73.5367 63.0217 73.525 63.084 73.5257 63.1467V65.3265C73.5257 65.4522 73.5757 65.5728 73.6646 65.6618C73.7535 65.7507 73.8741 65.8007 73.9999 65.8007Z" fill="black"/>
<path d="M69.1795 66.7452C69.2429 66.8531 69.3463 66.9315 69.4673 66.9634C69.5883 66.9954 69.7171 66.9782 69.8254 66.9156C69.9338 66.853 70.0131 66.7501 70.0459 66.6294C70.0787 66.5086 70.0625 66.3797 70.0007 66.2709L68.9108 64.3834C68.88 64.329 68.8386 64.2812 68.7892 64.2429C68.7397 64.2045 68.6832 64.1763 68.6228 64.1599C68.5625 64.1435 68.4994 64.1392 68.4374 64.1472C68.3753 64.1553 68.3155 64.1755 68.2613 64.2068C68.2071 64.2381 68.1597 64.2798 68.1217 64.3295C68.0837 64.3792 68.0559 64.436 68.0399 64.4965C68.024 64.557 68.0201 64.62 68.0287 64.682C68.0372 64.744 68.0579 64.8037 68.0896 64.8577L69.1795 66.7452Z" fill="black"/>
<path d="M66.599 69.3257L64.7115 68.2358C64.6575 68.2041 64.5978 68.1834 64.5358 68.1749C64.4738 68.1663 64.4108 68.1702 64.3503 68.1861C64.2898 68.2021 64.233 68.2299 64.1833 68.2679C64.1336 68.3059 64.0919 68.3533 64.0606 68.4075C64.0293 68.4617 64.0091 68.5215 64.001 68.5836C63.993 68.6456 63.9973 68.7087 64.0137 68.769C64.0301 68.8294 64.0583 68.8859 64.0967 68.9354C64.135 68.9848 64.1828 69.0261 64.2372 69.057L66.1249 70.1469C66.1788 70.1786 66.2385 70.1993 66.3005 70.2078C66.3625 70.2163 66.4256 70.2125 66.4861 70.1966C66.5466 70.1806 66.6033 70.1528 66.653 70.1148C66.7027 70.0768 66.7444 70.0294 66.7757 69.9752C66.807 69.921 66.8273 69.8612 66.8353 69.7991C66.8434 69.7371 66.8391 69.674 66.8227 69.6137C66.8063 69.5533 66.7781 69.4967 66.7397 69.4473C66.7013 69.3979 66.6534 69.3565 66.599 69.3257Z" fill="black"/>
</g>
<line x1="50" y1="48" x2="50" y2="96" stroke="#8D8D8D" stroke-width="4"/>
</g>
<rect x="48.5" y="48.5" width="983" height="376" stroke="#8D8D8D"/>
<rect x="673" y="113" width="342" height="245" fill="white"/>
<rect x="673" y="113" width="342" height="245" fill="#E5F6FF"/>
<g clip-path="url(#clip2_1113_50241)">
<text fill="black" xml:space="preserve" style="white-space: pre" font-family="IBM Plex Sans" font-size="14" font-weight="600" letter-spacing="0.16px"><tspan x="736" y="132.25">IBM Log Analysis</tspan></text>
<text fill="black" xml:space="preserve" style="white-space: pre" font-family="IBM Plex Sans" font-size="14" letter-spacing="0.16px"><tspan x="736" y="150.25">Instance</tspan></text>
<rect width="48" height="48" transform="translate(672 112)" fill="#1192E8"/>
<rect width="20" height="20" transform="translate(686 126)" fill="white" style="mix-blend-mode:multiply"/>
<path d="M703.5 136V139.75H688.5V129.75H695.375V128.5H688.5C688.168 128.5 687.851 128.632 687.616 128.866C687.382 129.101 687.25 129.418 687.25 129.75V139.75C687.25 140.082 687.382 140.399 687.616 140.634C687.851 140.868 688.168 141 688.5 141H693.5V143.5H691V144.75H701V143.5H698.5V141H703.5C703.832 141 704.149 140.868 704.384 140.634C704.618 140.399 704.75 140.082 704.75 139.75V136H703.5ZM697.25 143.5H694.75V141H697.25V143.5Z" fill="white"/>
<path d="M704.75 128.5H697.25V129.75H704.75V128.5Z" fill="white"/>
<path d="M704.75 131H697.25V132.25H704.75V131Z" fill="white"/>
<path d="M701 133.5H697.25V134.75H701V133.5Z" fill="white"/>
</g>
<rect x="672.5" y="112.5" width="343" height="246" stroke="#1192E8"/>
<rect width="64" height="92" transform="translate(812 240)" fill="white" style="mix-blend-mode:multiply"/>
<rect width="48" height="48" transform="translate(820 240)" fill="#8D8D8D"/>
<rect width="20" height="20" transform="translate(834 254)" fill="white" style="mix-blend-mode:multiply"/>
<path d="M844 255.25C842.269 255.25 840.578 255.763 839.139 256.725C837.7 257.686 836.578 259.053 835.916 260.652C835.254 262.25 835.081 264.01 835.418 265.707C835.756 267.404 836.589 268.963 837.813 270.187C839.037 271.411 840.596 272.244 842.293 272.582C843.99 272.919 845.75 272.746 847.348 272.084C848.947 271.422 850.314 270.3 851.275 268.861C852.237 267.422 852.75 265.731 852.75 264C852.75 261.679 851.828 259.454 850.187 257.813C848.546 256.172 846.321 255.25 844 255.25V255.25ZM851.5 263.375H847.75C847.677 261.073 847.081 258.818 846.006 256.781C847.487 257.186 848.807 258.036 849.79 259.215C850.772 260.394 851.369 261.846 851.5 263.375V263.375ZM844 271.5C843.861 271.509 843.721 271.509 843.581 271.5C842.286 269.435 841.568 267.061 841.5 264.625H846.5C846.438 267.06 845.726 269.433 844.438 271.5C844.292 271.51 844.146 271.51 844 271.5ZM841.5 263.375C841.562 260.94 842.274 258.567 843.563 256.5C843.841 256.469 844.122 256.469 844.4 256.5C845.701 258.563 846.427 260.937 846.5 263.375H841.5ZM841.975 256.781C840.907 258.82 840.317 261.075 840.25 263.375H836.5C836.631 261.846 837.228 260.394 838.21 259.215C839.193 258.036 840.513 257.186 841.994 256.781H841.975ZM836.531 264.625H840.281C840.346 266.925 840.934 269.18 842 271.219C840.524 270.809 839.209 269.958 838.232 268.779C837.254 267.601 836.661 266.151 836.531 264.625V264.625ZM846.006 271.219C847.081 269.182 847.677 266.927 847.75 264.625H851.5C851.369 266.154 850.772 267.606 849.79 268.785C848.807 269.964 847.487 270.814 846.006 271.219Z" fill="white"/>
<text fill="black" xml:space="preserve" style="white-space: pre" font-family="IBM Plex Sans" font-size="14" font-weight="600" letter-spacing="0.16px"><tspan x="818.459" y="310.25">Logging</tspan></text>
<text fill="black" xml:space="preserve" style="white-space: pre" font-family="IBM Plex Sans" font-size="14" letter-spacing="0.16px"><tspan x="820.365" y="328.25">Web UI</tspan></text>
<rect x="240.5" y="112.5" width="383" height="247" fill="white"/>
<rect x="241" y="113" width="382" height="246" fill="white"/>
<g clip-path="url(#clip3_1113_50241)">
<text fill="black" xml:space="preserve" style="white-space: pre" font-family="IBM Plex Sans" font-size="14" font-weight="600" letter-spacing="0.16px"><tspan x="292" y="141.25">Kubernetes cluster</tspan></text>
<rect width="20" height="20" transform="translate(256 126)" fill="white" style="mix-blend-mode:multiply"/>
<path d="M266 140.375C265.875 140.375 265.75 140.375 265.688 140.312L262.562 138.437C262.375 138.312 262.25 138.125 262.25 137.875V134.125C262.25 133.875 262.375 133.688 262.562 133.563L265.688 131.688C265.75 131.625 265.875 131.625 266 131.625C266.125 131.625 266.25 131.625 266.312 131.688L269.438 133.563C269.625 133.688 269.75 133.875 269.75 134.125V137.875C269.75 138.125 269.625 138.312 269.438 138.437L266.312 140.312C266.25 140.375 266.125 140.375 266 140.375ZM263.5 137.5L266 139L268.5 137.5V134.438L266 132.938L263.5 134.438V137.5Z" fill="black"/>
<path d="M266 145.375C265.875 145.375 265.813 145.375 265.688 145.312L258.188 140.937C258 140.812 257.875 140.625 257.875 140.375V131.625C257.875 131.375 258 131.188 258.188 131.063L265.688 126.688C265.813 126.625 265.875 126.625 266 126.625C266.125 126.625 266.187 126.625 266.312 126.688L273.812 131.063L273.188 132.125L266 128L259.125 132V140.062L266 144.062L272.875 140.062V135.375H274.125V140.375C274.125 140.625 274 140.812 273.812 140.937L266.312 145.312C266.187 145.375 266.125 145.375 266 145.375Z" fill="black"/>
<line x1="242" y1="112" x2="242" y2="160" stroke="#8D8D8D" stroke-width="4"/>
</g>
<rect x="240.5" y="112.5" width="383" height="247" stroke="#8D8D8D"/>
<rect x="256.5" y="176.5" width="351" height="167" fill="white"/>
<rect x="257" y="177" width="350" height="166" fill="white"/>
<rect x="257" y="177" width="350" height="166" fill="#F4F4F4"/>
<g clip-path="url(#clip4_1113_50241)">
<text fill="black" xml:space="preserve" style="white-space: pre" font-family="IBM Plex Sans" font-size="14" font-weight="600" letter-spacing="0.16px"><tspan x="272" y="205.25">Worker node</tspan></text>
<line x1="258" y1="176" x2="258" y2="224" stroke="#8D8D8D" stroke-width="4"/>
</g>
<rect x="256.5" y="176.5" width="351" height="167" stroke="#8D8D8D"/>
<rect width="48" height="48" transform="translate(272 240)" fill="#8D8D8D"/>
<rect width="20" height="20" transform="translate(286 254)" fill="white" style="mix-blend-mode:multiply"/>
<path d="M303.5 261.5H298.5V256.5H303.5V261.5ZM299.75 260.25H302.25V257.75H299.75V260.25Z" fill="white"/>
<path d="M296.625 263.375V259.625H291.625V268.375H300.375V263.375H296.625ZM292.875 260.875H295.375V263.375H292.875V260.875ZM295.375 267.125H292.875V264.625H295.375V267.125ZM299.125 267.125H296.625V264.625H299.125V267.125Z" fill="white"/>
<path d="M302.25 271.5H289.75C289.419 271.5 289.101 271.368 288.867 271.133C288.632 270.899 288.5 270.581 288.5 270.25V257.75C288.5 257.419 288.632 257.101 288.867 256.867C289.101 256.632 289.419 256.5 289.75 256.5H296V257.75H289.75V270.25H302.25V264H303.5V270.25C303.5 270.581 303.368 270.899 303.133 271.133C302.899 271.368 302.581 271.5 302.25 271.5Z" fill="white"/>
<text fill="black" xml:space="preserve" style="white-space: pre" font-family="IBM Plex Sans" font-size="14" font-weight="600" letter-spacing="0.16px"><tspan x="283.351" y="310.25">Pod</tspan></text>
<rect width="48" height="48" transform="translate(381 240)" fill="#8D8D8D"/>
<rect width="20" height="20" transform="translate(395 254)" fill="white" style="mix-blend-mode:multiply"/>
<path d="M412.5 261.5H407.5V256.5H412.5V261.5ZM408.75 260.25H411.25V257.75H408.75V260.25Z" fill="white"/>
<path d="M405.625 263.375V259.625H400.625V268.375H409.375V263.375H405.625ZM401.875 260.875H404.375V263.375H401.875V260.875ZM404.375 267.125H401.875V264.625H404.375V267.125ZM408.125 267.125H405.625V264.625H408.125V267.125Z" fill="white"/>
<path d="M411.25 271.5H398.75C398.419 271.5 398.101 271.368 397.867 271.133C397.632 270.899 397.5 270.581 397.5 270.25V257.75C397.5 257.419 397.632 257.101 397.867 256.867C398.101 256.632 398.419 256.5 398.75 256.5H405V257.75H398.75V270.25H411.25V264H412.5V270.25C412.5 270.581 412.368 270.899 412.133 271.133C411.899 271.368 411.581 271.5 411.25 271.5Z" fill="white"/>
<text fill="black" xml:space="preserve" style="white-space: pre" font-family="IBM Plex Sans" font-size="14" font-weight="600" letter-spacing="0.16px"><tspan x="392.351" y="310.25">Pod</tspan></text>
<rect width="48" height="48" transform="translate(490 240)" fill="#1192E8"/>
<rect width="20" height="20" transform="translate(504 254)" fill="white" style="mix-blend-mode:multiply"/>
<path d="M514 265.25C514.69 265.25 515.25 264.69 515.25 264C515.25 263.31 514.69 262.75 514 262.75C513.31 262.75 512.75 263.31 512.75 264C512.75 264.69 513.31 265.25 514 265.25Z" fill="white"/>
<path d="M518.861 263.674C518.474 262.69 517.808 261.841 516.944 261.233C516.08 260.624 515.056 260.282 514 260.25C512.944 260.282 511.92 260.624 511.056 261.233C510.192 261.841 509.526 262.69 509.139 263.674L509 264L509.139 264.326C509.526 265.31 510.192 266.158 511.056 266.767C511.92 267.376 512.944 267.717 514 267.75C515.056 267.717 516.08 267.376 516.944 266.767C517.808 266.158 518.474 265.31 518.861 264.326L519 264L518.861 263.674ZM514 266.5C513.506 266.5 513.022 266.353 512.611 266.079C512.2 265.804 511.88 265.413 511.69 264.957C511.501 264.5 511.452 263.997 511.548 263.512C511.644 263.027 511.883 262.582 512.232 262.232C512.582 261.883 513.027 261.644 513.512 261.548C513.997 261.452 514.5 261.501 514.957 261.69C515.414 261.879 515.804 262.2 516.079 262.611C516.353 263.022 516.5 263.506 516.5 264C516.499 264.663 516.236 265.298 515.767 265.767C515.298 266.236 514.663 266.499 514 266.5Z" fill="white"/>
<path d="M521.815 259.085L514.315 254.71C514.219 254.654 514.111 254.625 514 254.625C513.889 254.625 513.781 254.654 513.685 254.71L506.185 259.085C506.091 259.14 506.012 259.219 505.958 259.314C505.904 259.408 505.875 259.516 505.875 259.625V268.375C505.875 268.484 505.904 268.592 505.958 268.686C506.012 268.781 506.091 268.86 506.185 268.915L513.685 273.29C513.781 273.346 513.889 273.375 514 273.375C514.111 273.375 514.219 273.346 514.315 273.29L521.815 268.915C521.909 268.86 521.988 268.781 522.042 268.686C522.096 268.592 522.125 268.484 522.125 268.375V259.625C522.125 259.516 522.096 259.408 522.042 259.314C521.988 259.219 521.909 259.14 521.815 259.085ZM520.875 268.016L514 272.026L507.125 268.016V259.984L514 255.974L520.875 259.984V268.016Z" fill="white"/>
<text fill="black" xml:space="preserve" style="white-space: pre" font-family="IBM Plex Sans" font-size="14" font-weight="600" letter-spacing="0.16px"><tspan x="486.725" y="310.25">Logging &#10;</tspan><tspan x="494.567" y="328.25">Agent</tspan></text>
<rect width="282" height="48" transform="translate(538 240)" fill="white" style="mix-blend-mode:multiply"/>
<path d="M538 264H812" stroke="black"/>
<path d="M812 260L820 264L812 268L812 260Z" fill="black"/>
<rect x="562.5" y="256.5" width="92" height="15" rx="7.5" fill="white"/>
<text fill="black" xml:space="preserve" style="white-space: pre" font-family="IBM Plex Sans" font-size="12" letter-spacing="0.32px"><tspan x="570" y="267.5">Ingestion key</tspan></text>
<rect x="562.5" y="256.5" width="92" height="15" rx="7.5" stroke="black"/>
<rect width="48" height="48" transform="translate(95.5 240)" fill="#8D8D8D"/>
<rect width="20" height="20" transform="translate(109.5 254)" fill="white" style="mix-blend-mode:multiply"/>
<path d="M127 266.5H125.75V267.75H127V271.5H112V267.75H113.25V266.5H112C111.669 266.5 111.351 266.632 111.117 266.867C110.882 267.101 110.75 267.419 110.75 267.75V271.5C110.75 271.831 110.882 272.149 111.117 272.383C111.351 272.618 111.669 272.75 112 272.75H127C127.331 272.75 127.649 272.618 127.883 272.383C128.118 272.149 128.25 271.831 128.25 271.5V267.75C128.25 267.419 128.118 267.101 127.883 266.867C127.649 266.632 127.331 266.5 127 266.5Z" fill="white"/>
<path d="M113.875 270.25C114.22 270.25 114.5 269.97 114.5 269.625C114.5 269.28 114.22 269 113.875 269C113.53 269 113.25 269.28 113.25 269.625C113.25 269.97 113.53 270.25 113.875 270.25Z" fill="white"/>
<path d="M123.692 258.558L120.567 255.433C120.45 255.316 120.291 255.25 120.125 255.25H116.375C116.044 255.25 115.726 255.382 115.492 255.617C115.257 255.851 115.125 256.169 115.125 256.5V266.5C115.125 266.831 115.257 267.149 115.492 267.383C115.726 267.618 116.044 267.75 116.375 267.75H122.625C122.956 267.75 123.274 267.618 123.508 267.383C123.743 267.149 123.875 266.831 123.875 266.5V259C123.875 258.834 123.809 258.675 123.692 258.558ZM122.366 259H120.125V256.759L122.366 259ZM116.375 266.5V256.5H118.875V259C118.875 259.331 119.007 259.649 119.242 259.883C119.476 260.118 119.794 260.25 120.125 260.25H122.625V266.5H116.375Z" fill="white"/>
<text fill="black" xml:space="preserve" style="white-space: pre" font-family="IBM Plex Sans" font-size="14" font-weight="600" letter-spacing="0.16px"><tspan x="65.0822" y="310.25">External storage</tspan></text>
<rect width="72" height="24" transform="matrix(-4.48545e-08 -1 -1 9.36845e-07 296 392)" fill="white" style="mix-blend-mode:multiply"/>
<path d="M296 320L296 384C296 388.418 292.418 392 288 392L272 392" stroke="black"/>
<rect width="72" height="24" transform="matrix(-4.48545e-08 -1 -1 9.36845e-07 405 392)" fill="white" style="mix-blend-mode:multiply"/>
<path d="M405 320L405 384C405 388.418 401.418 392 397 392L381 392" stroke="black"/>
<rect width="63.9998" height="264" transform="translate(120 392) rotate(-90)" fill="white" style="mix-blend-mode:multiply"/>
<path d="M120 328L120 384C120 388.418 123.582 392 128 392L384 392" stroke="black"/>
<rect width="8" height="8" transform="translate(116 328) rotate(-90)" fill="white" style="mix-blend-mode:multiply"/>
<path d="M116 328L120 320L124 328L116 328Z" fill="black"/>
<rect x="216.5" y="384.5" width="159" height="15" rx="7.5" fill="white"/>
<text fill="black" xml:space="preserve" style="white-space: pre" font-family="IBM Plex Sans" font-size="12" letter-spacing="0.32px"><tspan x="224" y="395.5">STDOUT STDERR /var/log</tspan></text>
<rect x="216.5" y="384.5" width="159" height="15" rx="7.5" stroke="black"/>
<defs>
<clipPath id="clip0_1113_50241">
<rect width="984" height="48" fill="white" transform="translate(48 48)"/>
</clipPath>
<clipPath id="clip1_1113_50241">
<rect width="20" height="20" fill="white" transform="translate(64 62)"/>
</clipPath>
<clipPath id="clip2_1113_50241">
<rect width="344" height="48" fill="white" transform="translate(672 112)"/>
</clipPath>
<clipPath id="clip3_1113_50241">
<rect width="384" height="48" fill="white" transform="translate(240 112)"/>
</clipPath>
<clipPath id="clip4_1113_50241">
<rect width="352" height="48" fill="white" transform="translate(256 176)"/>
</clipPath>
</defs>
</svg>
