<svg width="1080" height="608" viewBox="0 0 1080 608" fill="none" xmlns="http://www.w3.org/2000/svg">
<rect width="1080" height="608" fill="#F4F4F4"/>
<rect x="316.5" y="70.5" width="447" height="465" fill="white"/>
<g clip-path="url(#clip0_704_36456)">
<path d="M373.18 90V88.516H371.878V81.712H373.18V80.228H368.742V81.712H370.03V88.516H368.742V90H373.18ZM375.228 90H380.184C381.626 90 382.704 88.768 382.704 87.2C382.704 85.534 381.444 84.932 380.59 84.918V84.834C381.486 84.778 382.34 84.218 382.34 82.734C382.34 81.222 381.36 80.228 379.75 80.228H375.228V90ZM377.076 85.814H379.652C380.352 85.814 380.772 86.206 380.772 86.892V87.368C380.772 88.054 380.352 88.432 379.652 88.432H377.076V85.814ZM377.076 81.796H379.358C380.03 81.796 380.422 82.174 380.422 82.832V83.266C380.422 83.91 380.03 84.302 379.358 84.302H377.076V81.796ZM384.671 90H386.421V82.986H386.477L387.233 84.54L389.235 88.236L391.237 84.54L391.993 82.986H392.049V90H393.799V80.228H391.797L389.319 85.002H389.263L386.757 80.228H384.671V90ZM403.523 90.168C405.273 90.168 406.435 89.314 407.135 87.858L405.637 86.976C405.315 87.858 404.629 88.53 403.523 88.53C402.151 88.53 401.269 87.578 401.269 85.898V84.358C401.269 82.692 402.151 81.698 403.523 81.698C404.615 81.698 405.231 82.286 405.511 83.154L407.093 82.314C406.407 80.802 405.273 80.06 403.523 80.06C400.947 80.06 399.309 81.894 399.309 85.184C399.309 88.474 400.947 90.168 403.523 90.168ZM411.518 90V88.572H410.552V79.64H408.76V88.236C408.76 89.356 409.334 90 410.552 90H411.518ZM415.933 90.168C418.033 90.168 419.335 88.684 419.335 86.332C419.335 83.994 418.033 82.524 415.933 82.524C413.847 82.524 412.545 83.994 412.545 86.332C412.545 88.684 413.847 90.168 415.933 90.168ZM415.933 88.726C415.009 88.726 414.421 88.124 414.421 87.018V85.66C414.421 84.568 415.009 83.966 415.933 83.966C416.871 83.966 417.459 84.568 417.459 85.66V87.018C417.459 88.124 416.871 88.726 415.933 88.726ZM425.452 90H427.244V82.692H425.452V87.522C425.452 88.306 424.738 88.684 424.024 88.684C423.17 88.684 422.792 88.138 422.792 87.13V82.692H421V87.312C421 89.132 421.84 90.168 423.338 90.168C424.542 90.168 425.13 89.51 425.382 88.782H425.452V90ZM434.01 90H435.802V79.64H434.01V83.896H433.94C433.688 83.056 432.89 82.524 431.924 82.524C430.09 82.524 429.068 83.896 429.068 86.332C429.068 88.782 430.09 90.168 431.924 90.168C432.89 90.168 433.674 89.608 433.94 88.782H434.01V90ZM432.498 88.684C431.574 88.684 430.944 88.012 430.944 86.976V85.716C430.944 84.68 431.574 83.994 432.498 83.994C433.352 83.994 434.01 84.456 434.01 85.17V87.494C434.01 88.25 433.352 88.684 432.498 88.684Z" fill="black"/>
<path d="M376.652 108L373.236 98.228H371.738L368.322 108H369.512L370.492 105.116H374.44L375.42 108H376.652ZM374.146 104.08H370.772L372.424 99.32H372.494L374.146 104.08ZM381.007 108.168C382.379 108.168 383.317 107.496 383.779 106.46L382.967 105.914C382.575 106.74 381.917 107.174 381.007 107.174C379.677 107.174 378.991 106.264 378.991 105.004V103.772C378.991 102.512 379.677 101.602 381.007 101.602C381.889 101.602 382.505 102.036 382.771 102.778L383.709 102.302C383.289 101.308 382.435 100.608 381.007 100.608C378.977 100.608 377.787 102.078 377.787 104.388C377.787 106.698 378.977 108.168 381.007 108.168ZM388.126 108.168C389.498 108.168 390.436 107.496 390.898 106.46L390.086 105.914C389.694 106.74 389.036 107.174 388.126 107.174C386.796 107.174 386.11 106.264 386.11 105.004V103.772C386.11 102.512 386.796 101.602 388.126 101.602C389.008 101.602 389.624 102.036 389.89 102.778L390.828 102.302C390.408 101.308 389.554 100.608 388.126 100.608C386.096 100.608 384.906 102.078 384.906 104.388C384.906 106.698 386.096 108.168 388.126 108.168ZM395.287 108.168C397.219 108.168 398.549 106.684 398.549 104.388C398.549 102.092 397.219 100.608 395.287 100.608C393.355 100.608 392.025 102.092 392.025 104.388C392.025 106.684 393.355 108.168 395.287 108.168ZM395.287 107.174C394.083 107.174 393.229 106.432 393.229 104.906V103.87C393.229 102.344 394.083 101.602 395.287 101.602C396.491 101.602 397.345 102.344 397.345 103.87V104.906C397.345 106.432 396.491 107.174 395.287 107.174ZM405.003 108H406.123V100.776H405.003V105.774C405.003 106.726 404.135 107.16 403.253 107.16C402.175 107.16 401.601 106.502 401.601 105.214V100.776H400.481V105.41C400.481 107.16 401.433 108.168 402.917 108.168C404.121 108.168 404.667 107.51 404.947 106.824H405.003V108ZM409.788 108V102.988C409.788 102.064 410.656 101.616 411.552 101.616C412.63 101.616 413.19 102.274 413.19 103.562V108H414.31V103.366C414.31 101.616 413.372 100.608 411.888 100.608C410.81 100.608 410.194 101.14 409.844 101.952H409.788V100.776H408.668V108H409.788ZM419.781 108V107.02H418.311V101.756H419.893V100.776H418.311V98.774H417.303V100.118C417.303 100.608 417.149 100.776 416.673 100.776H416.001V101.756H417.191V106.81C417.191 107.51 417.611 108 418.381 108H419.781Z" fill="black"/>
<g clip-path="url(#clip1_704_36456)">
<rect width="20" height="20" transform="translate(332 84)" fill="white" style="mix-blend-mode:multiply"/>
<path d="M347.363 92.5312C346.742 91.3673 345.759 90.4368 344.563 89.8802C343.367 89.3235 342.022 89.1708 340.732 89.4451C339.441 89.7194 338.275 90.4059 337.408 91.4009C336.542 92.396 336.023 93.6457 335.929 94.9617C334.856 95.0771 333.867 95.5995 333.168 96.4213C332.468 97.2431 332.11 98.3019 332.167 99.3797C332.224 100.458 332.692 101.472 333.475 102.216C334.258 102.959 335.296 103.374 336.375 103.375H346.375C347.74 103.376 349.055 102.866 350.063 101.947C351.071 101.027 351.699 99.7633 351.822 98.4044C351.946 97.0454 351.557 95.6894 350.732 94.6026C349.907 93.5158 348.705 92.777 347.363 92.5312ZM346.375 102.437H336.375C335.543 102.439 334.742 102.125 334.134 101.558C333.526 100.99 333.157 100.213 333.102 99.3832C333.046 98.5535 333.308 97.7338 333.835 97.0904C334.362 96.4471 335.114 96.0283 335.938 95.9192C336.004 96.7463 336.239 97.5511 336.628 98.2841C336.656 98.3399 336.695 98.3896 336.743 98.4302C336.79 98.4707 336.846 98.5013 336.905 98.5201C336.965 98.539 337.028 98.5457 337.09 98.5398C337.152 98.534 337.213 98.5157 337.268 98.4862C337.323 98.4566 337.372 98.4162 337.411 98.3676C337.45 98.3189 337.48 98.2628 337.497 98.2027C337.514 98.1425 337.519 98.0796 337.512 98.0174C337.504 97.9553 337.485 97.8953 337.454 97.8409C336.834 96.6827 336.68 95.3316 337.023 94.0636C337.365 92.7955 338.179 91.7061 339.298 91.0176C340.416 90.3291 341.756 90.0936 343.042 90.359C344.329 90.6244 345.465 91.3708 346.22 92.4458C345.471 92.4665 344.734 92.6408 344.055 92.9579C343.376 93.2751 342.77 93.7283 342.273 94.2896C342.231 94.3355 342.198 94.3893 342.177 94.448C342.156 94.5067 342.147 94.5691 342.15 94.6314C342.153 94.6937 342.169 94.7548 342.196 94.811C342.223 94.8672 342.261 94.9174 342.308 94.9587C342.355 95 342.409 95.0315 342.468 95.0514C342.527 95.0713 342.59 95.0792 342.652 95.0747C342.714 95.0701 342.775 95.0532 342.831 95.0248C342.886 94.9965 342.936 94.9574 342.976 94.9097C343.477 94.3417 344.112 93.9082 344.823 93.649C345.535 93.3897 346.3 93.3128 347.049 93.4254C347.797 93.5379 348.506 93.8363 349.11 94.2934C349.713 94.7504 350.193 95.3514 350.505 96.0415C350.816 96.7316 350.95 97.4888 350.894 98.244C350.837 98.9991 350.592 99.728 350.182 100.364C349.771 101 349.207 101.523 348.542 101.886C347.877 102.248 347.132 102.437 346.375 102.437Z" fill="black"/>
<path d="M351.936 90.4092C351.905 90.3553 351.864 90.308 351.815 90.2701C351.765 90.2322 351.709 90.2043 351.649 90.1882C351.588 90.1721 351.526 90.168 351.464 90.1762C351.402 90.1843 351.343 90.2046 351.289 90.2357L349.401 91.3256C349.346 91.3559 349.297 91.397 349.258 91.4465C349.218 91.4959 349.189 91.5527 349.172 91.6136C349.155 91.6744 349.15 91.738 349.158 91.8007C349.166 91.8634 349.186 91.9239 349.218 91.9786C349.25 92.0333 349.292 92.0812 349.342 92.1194C349.392 92.1576 349.45 92.1853 349.511 92.201C349.572 92.2167 349.636 92.22 349.699 92.2107C349.761 92.2014 349.821 92.1797 349.875 92.1469L351.763 91.057C351.871 90.9942 351.951 90.8906 351.984 90.7691C352.016 90.6477 351.999 90.5182 351.936 90.4092Z" fill="black"/>
<path d="M346.173 88.9187C346.227 88.9499 346.286 88.9702 346.348 88.9783C346.41 88.9865 346.472 88.9824 346.533 88.9662C346.593 88.9501 346.649 88.9223 346.699 88.8844C346.748 88.8465 346.789 88.7992 346.821 88.7452L347.91 86.8577C347.972 86.7489 347.988 86.6201 347.956 86.4993C347.923 86.3785 347.843 86.2756 347.735 86.2131C347.627 86.1505 347.498 86.1333 347.377 86.1652C347.256 86.1971 347.153 86.2756 347.089 86.3835L345.999 88.271C345.936 88.3799 345.919 88.5093 345.952 88.6308C345.984 88.7523 346.064 88.8558 346.173 88.9187Z" fill="black"/>
<path d="M342 87.8007C342.126 87.8007 342.246 87.7507 342.335 87.6617C342.424 87.5728 342.474 87.4522 342.474 87.3264V85.1467C342.475 85.084 342.463 85.0217 342.44 84.9635C342.416 84.9054 342.381 84.8524 342.337 84.8078C342.293 84.7632 342.241 84.7278 342.183 84.7036C342.125 84.6794 342.063 84.667 342 84.667C341.937 84.667 341.875 84.6794 341.817 84.7036C341.759 84.7278 341.707 84.7632 341.663 84.8078C341.619 84.8524 341.584 84.9054 341.56 84.9635C341.537 85.0217 341.525 85.084 341.526 85.1467V87.3264C341.526 87.4522 341.576 87.5728 341.665 87.6617C341.754 87.7507 341.874 87.8007 342 87.8007Z" fill="black"/>
<path d="M337.18 88.7451C337.243 88.853 337.346 88.9315 337.467 88.9634C337.588 88.9953 337.717 88.9781 337.826 88.9156C337.934 88.853 338.013 88.7501 338.046 88.6293C338.079 88.5086 338.063 88.3797 338.001 88.2709L336.911 86.3834C336.88 86.329 336.839 86.2812 336.789 86.2428C336.74 86.2045 336.683 86.1763 336.623 86.1598C336.563 86.1434 336.5 86.1391 336.437 86.1472C336.375 86.1552 336.316 86.1755 336.261 86.2068C336.207 86.2381 336.16 86.2798 336.122 86.3295C336.084 86.3792 336.056 86.436 336.04 86.4965C336.024 86.557 336.02 86.62 336.029 86.682C336.037 86.744 336.058 86.8037 336.09 86.8576L337.18 88.7451Z" fill="black"/>
<path d="M334.599 91.3256L332.712 90.2357C332.658 90.2041 332.598 90.1833 332.536 90.1748C332.474 90.1663 332.411 90.1701 332.35 90.1861C332.29 90.2021 332.233 90.2298 332.183 90.2678C332.134 90.3058 332.092 90.3533 332.061 90.4075C332.029 90.4616 332.009 90.5215 332.001 90.5835C331.993 90.6456 331.997 90.7086 332.014 90.769C332.03 90.8294 332.058 90.8859 332.097 90.9353C332.135 90.9848 332.183 91.0261 332.237 91.057L334.125 92.1469C334.179 92.1786 334.239 92.1993 334.301 92.2078C334.363 92.2163 334.426 92.2125 334.486 92.1965C334.547 92.1806 334.603 92.1528 334.653 92.1148C334.703 92.0768 334.745 92.0293 334.776 91.9752C334.807 91.921 334.827 91.8611 334.835 91.7991C334.844 91.737 334.839 91.674 334.823 91.6136C334.806 91.5532 334.778 91.4967 334.74 91.4473C334.701 91.3979 334.653 91.3565 334.599 91.3256Z" fill="black"/>
</g>
<line x1="318" y1="70" x2="318" y2="118" stroke="#8D8D8D" stroke-width="4"/>
</g>
<rect x="316.5" y="70.5" width="447" height="465" stroke="#8D8D8D"/>
<rect width="184" height="92" transform="translate(344 136)" fill="white" style="mix-blend-mode:multiply"/>
<rect width="48" height="48" transform="translate(412 136)" fill="#8D8D8D"/>
<g clip-path="url(#clip2_704_36456)">
<rect width="20" height="20" transform="translate(426 150)" fill="white" style="mix-blend-mode:multiply"/>
<path d="M438.5 158.125H433.5C433.169 158.125 432.851 158.257 432.617 158.492C432.382 158.726 432.25 159.044 432.25 159.375V167.5C432.25 167.831 432.382 168.149 432.617 168.383C432.851 168.618 433.169 168.75 433.5 168.75H438.5C438.831 168.75 439.149 168.618 439.383 168.383C439.618 168.149 439.75 167.831 439.75 167.5V159.375C439.75 159.044 439.618 158.726 439.383 158.492C439.149 158.257 438.831 158.125 438.5 158.125ZM438.5 159.375V161.25H433.5V159.375H438.5ZM438.5 162.5V164.375H433.5V162.5H438.5ZM433.5 167.5V165.625H438.5V167.5H433.5Z" fill="white"/>
<path d="M442.194 156.331C442.179 156.329 442.165 156.321 442.154 156.311C442.144 156.3 442.136 156.287 442.133 156.272C441.888 155.054 441.287 153.938 440.405 153.063C439.523 152.189 438.401 151.598 437.181 151.364C435.561 151.051 433.883 151.391 432.512 152.31C431.142 153.23 430.191 154.654 429.866 156.272C429.863 156.287 429.856 156.3 429.845 156.311C429.834 156.321 429.821 156.329 429.806 156.332C428.661 156.551 427.638 157.19 426.938 158.122C426.238 159.055 425.911 160.215 426.021 161.376C426.13 162.537 426.668 163.616 427.53 164.402C428.392 165.187 429.516 165.623 430.682 165.625H431V164.375H430.685C430.191 164.374 429.704 164.266 429.256 164.06C428.808 163.855 428.409 163.555 428.087 163.181C427.765 162.808 427.526 162.37 427.388 161.897C427.25 161.423 427.215 160.926 427.285 160.438C427.411 159.705 427.763 159.031 428.291 158.509C428.82 157.986 429.498 157.642 430.232 157.525L430.867 157.41C430.883 157.407 430.898 157.399 430.91 157.388C430.921 157.376 430.929 157.361 430.932 157.345L431.045 156.761C431.231 155.7 431.743 154.725 432.511 153.969C433.278 153.214 434.261 152.717 435.324 152.547C435.917 152.465 436.52 152.492 437.104 152.624C438.072 152.86 438.95 153.372 439.633 154.099C440.315 154.825 440.771 155.734 440.946 156.715L441.067 157.345C441.07 157.361 441.078 157.376 441.09 157.388C441.101 157.399 441.116 157.407 441.132 157.41L441.793 157.53C442.522 157.645 443.199 157.98 443.732 158.491C444.215 158.971 444.545 159.583 444.681 160.251C444.816 160.918 444.75 161.61 444.492 162.24C444.233 162.87 443.794 163.41 443.228 163.79C442.663 164.17 441.998 164.373 441.317 164.375H441V165.625H441.317C442.484 165.624 443.608 165.188 444.47 164.402C445.332 163.617 445.871 162.538 445.98 161.377C446.09 160.215 445.762 159.055 445.062 158.122C444.362 157.189 443.339 156.551 442.194 156.331Z" fill="white"/>
</g>
<path d="M351.946 206L355.138 196.228H353.304L351.806 200.988L350.952 204.236H350.91L350.042 200.988L348.544 196.228H346.654L349.846 206H351.946ZM357.449 197.628C358.177 197.628 358.499 197.25 358.499 196.732V196.452C358.499 195.934 358.177 195.556 357.449 195.556C356.707 195.556 356.399 195.934 356.399 196.452V196.732C356.399 197.25 356.707 197.628 357.449 197.628ZM356.553 206H358.345V198.692H356.553V206ZM362.374 206V201.52C362.374 200.722 363.004 200.386 364.208 200.386H364.768V198.692H364.376C363.214 198.692 362.626 199.434 362.444 200.204H362.374V198.692H360.582V206H362.374ZM368.575 206H369.863V204.572H368.477V200.12H369.975V198.692H368.477V196.69H366.867V197.936C366.867 198.44 366.699 198.692 366.167 198.692H365.607V200.12H366.685V204.138C366.685 205.328 367.343 206 368.575 206ZM376.058 206H377.85V198.692H376.058V203.522C376.058 204.306 375.344 204.684 374.63 204.684C373.776 204.684 373.398 204.138 373.398 203.13V198.692H371.606V203.312C371.606 205.132 372.446 206.168 373.944 206.168C375.148 206.168 375.736 205.51 375.988 204.782H376.058V206ZM381.886 206.168C382.978 206.168 383.776 205.678 384.014 204.74H384.098C384.21 205.496 384.686 206 385.456 206H386.45V204.572H385.722V201.128C385.722 199.462 384.672 198.524 382.698 198.524C381.228 198.524 380.374 199.084 379.842 199.924L380.906 200.876C381.256 200.372 381.732 199.952 382.572 199.952C383.524 199.952 383.93 200.428 383.93 201.24V201.772H382.684C380.696 201.772 379.562 202.514 379.562 204.012C379.562 205.314 380.402 206.168 381.886 206.168ZM382.488 204.866C381.788 204.866 381.382 204.572 381.382 203.984V203.746C381.382 203.172 381.844 202.85 382.782 202.85H383.93V203.816C383.93 204.502 383.286 204.866 382.488 204.866ZM390.818 206V204.572H389.852V195.64H388.06V204.236C388.06 205.356 388.634 206 389.852 206H390.818ZM393.232 197.628C393.96 197.628 394.282 197.25 394.282 196.732V196.452C394.282 195.934 393.96 195.556 393.232 195.556C392.49 195.556 392.182 195.934 392.182 196.452V196.732C392.182 197.25 392.49 197.628 393.232 197.628ZM392.336 206H394.128V198.692H392.336V206ZM401.839 206V204.572H397.919L401.741 200.078V198.692H395.973V200.106H399.641L395.847 204.572V206H401.839ZM405.358 206.168C406.45 206.168 407.248 205.678 407.486 204.74H407.57C407.682 205.496 408.158 206 408.928 206H409.922V204.572H409.194V201.128C409.194 199.462 408.144 198.524 406.17 198.524C404.7 198.524 403.846 199.084 403.314 199.924L404.378 200.876C404.728 200.372 405.204 199.952 406.044 199.952C406.996 199.952 407.402 200.428 407.402 201.24V201.772H406.156C404.168 201.772 403.034 202.514 403.034 204.012C403.034 205.314 403.874 206.168 405.358 206.168ZM405.96 204.866C405.26 204.866 404.854 204.572 404.854 203.984V203.746C404.854 203.172 405.316 202.85 406.254 202.85H407.402V203.816C407.402 204.502 406.758 204.866 405.96 204.866ZM413.76 206H415.048V204.572H413.662V200.12H415.16V198.692H413.662V196.69H412.052V197.936C412.052 198.44 411.884 198.692 411.352 198.692H410.792V200.12H411.87V204.138C411.87 205.328 412.528 206 413.76 206ZM417.77 197.628C418.498 197.628 418.82 197.25 418.82 196.732V196.452C418.82 195.934 418.498 195.556 417.77 195.556C417.028 195.556 416.72 195.934 416.72 196.452V196.732C416.72 197.25 417.028 197.628 417.77 197.628ZM416.874 206H418.666V198.692H416.874V206ZM423.801 206.168C425.901 206.168 427.203 204.684 427.203 202.332C427.203 199.994 425.901 198.524 423.801 198.524C421.715 198.524 420.413 199.994 420.413 202.332C420.413 204.684 421.715 206.168 423.801 206.168ZM423.801 204.726C422.877 204.726 422.289 204.124 422.289 203.018V201.66C422.289 200.568 422.877 199.966 423.801 199.966C424.739 199.966 425.327 200.568 425.327 201.66V203.018C425.327 204.124 424.739 204.726 423.801 204.726ZM430.744 206V201.17C430.744 200.386 431.458 199.994 432.2 199.994C433.054 199.994 433.404 200.526 433.404 201.562V206H435.196V201.38C435.196 199.56 434.356 198.524 432.858 198.524C431.724 198.524 431.108 199.126 430.814 199.91H430.744V198.692H428.952V206H430.744ZM440.923 206H442.673V198.986H442.729L443.485 200.54L445.487 204.236L447.489 200.54L448.245 198.986H448.301V206H450.051V196.228H448.049L445.571 201.002H445.515L443.009 196.228H440.923V206ZM454.207 206.168C455.299 206.168 456.097 205.678 456.335 204.74H456.419C456.531 205.496 457.007 206 457.777 206H458.771V204.572H458.043V201.128C458.043 199.462 456.993 198.524 455.019 198.524C453.549 198.524 452.695 199.084 452.163 199.924L453.227 200.876C453.577 200.372 454.053 199.952 454.893 199.952C455.845 199.952 456.251 200.428 456.251 201.24V201.772H455.005C453.017 201.772 451.883 202.514 451.883 204.012C451.883 205.314 452.723 206.168 454.207 206.168ZM454.809 204.866C454.109 204.866 453.703 204.572 453.703 203.984V203.746C453.703 203.172 454.165 202.85 455.103 202.85H456.251V203.816C456.251 204.502 455.607 204.866 454.809 204.866ZM462.173 206V201.17C462.173 200.386 462.887 199.994 463.629 199.994C464.483 199.994 464.833 200.526 464.833 201.562V206H466.625V201.38C466.625 199.56 465.785 198.524 464.287 198.524C463.153 198.524 462.537 199.126 462.243 199.91H462.173V198.692H460.381V206H462.173ZM470.577 206.168C471.669 206.168 472.467 205.678 472.705 204.74H472.789C472.901 205.496 473.377 206 474.147 206H475.141V204.572H474.413V201.128C474.413 199.462 473.363 198.524 471.389 198.524C469.919 198.524 469.065 199.084 468.533 199.924L469.597 200.876C469.947 200.372 470.423 199.952 471.263 199.952C472.215 199.952 472.621 200.428 472.621 201.24V201.772H471.375C469.387 201.772 468.253 202.514 468.253 204.012C468.253 205.314 469.093 206.168 470.577 206.168ZM471.179 204.866C470.479 204.866 470.073 204.572 470.073 203.984V203.746C470.073 203.172 470.535 202.85 471.473 202.85H472.621V203.816C472.621 204.502 471.977 204.866 471.179 204.866ZM483.346 206.616C483.346 205.3 482.576 204.53 480.784 204.53H478.824C478.18 204.53 477.872 204.348 477.872 203.984C477.872 203.662 478.11 203.452 478.39 203.326C478.712 203.41 479.09 203.452 479.51 203.452C481.498 203.452 482.534 202.472 482.534 201.002C482.534 200.106 482.156 199.392 481.4 198.972V198.776H482.954V197.404H481.82C481.148 197.404 480.784 197.754 480.784 198.468V198.706C480.42 198.58 479.958 198.524 479.51 198.524C477.536 198.524 476.486 199.518 476.486 201.002C476.486 201.968 476.934 202.724 477.816 203.13V203.186C477.116 203.34 476.472 203.718 476.472 204.474C476.472 205.062 476.808 205.538 477.41 205.692V205.846C476.598 205.972 476.108 206.434 476.108 207.246C476.108 208.324 477.046 208.968 479.51 208.968C482.31 208.968 483.346 208.142 483.346 206.616ZM481.666 206.826C481.666 207.442 481.148 207.736 479.986 207.736H479.09C477.97 207.736 477.55 207.4 477.55 206.84C477.55 206.546 477.662 206.28 477.928 206.084H480.42C481.33 206.084 481.666 206.364 481.666 206.826ZM479.51 202.234C478.656 202.234 478.194 201.842 478.194 201.114V200.876C478.194 200.134 478.656 199.756 479.51 199.756C480.364 199.756 480.826 200.134 480.826 200.876V201.114C480.826 201.842 480.364 202.234 479.51 202.234ZM487.413 206.168C488.771 206.168 489.835 205.65 490.437 204.824L489.471 203.746C489.023 204.32 488.491 204.74 487.609 204.74C486.433 204.74 485.831 204.026 485.831 202.976V202.794H490.689V202.206C490.689 200.204 489.639 198.524 487.357 198.524C485.215 198.524 483.969 200.022 483.969 202.332C483.969 204.67 485.257 206.168 487.413 206.168ZM487.385 199.868C488.309 199.868 488.827 200.554 488.827 201.562V201.688H485.831V201.576C485.831 200.568 486.447 199.868 487.385 199.868ZM494.217 206V201.17C494.217 200.386 494.889 199.994 495.575 199.994C496.373 199.994 496.751 200.512 496.751 201.562V206H498.543V201.17C498.543 200.386 499.201 199.994 499.901 199.994C500.699 199.994 501.077 200.512 501.077 201.562V206H502.869V201.38C502.869 199.56 502.057 198.524 500.629 198.524C499.467 198.524 498.655 199.182 498.389 199.994H498.361C498.011 199.014 497.241 198.524 496.247 198.524C495.155 198.524 494.567 199.14 494.287 199.91H494.217V198.692H492.425V206H494.217ZM507.967 206.168C509.325 206.168 510.389 205.65 510.991 204.824L510.025 203.746C509.577 204.32 509.045 204.74 508.163 204.74C506.987 204.74 506.385 204.026 506.385 202.976V202.794H511.243V202.206C511.243 200.204 510.193 198.524 507.911 198.524C505.769 198.524 504.523 200.022 504.523 202.332C504.523 204.67 505.811 206.168 507.967 206.168ZM507.939 199.868C508.863 199.868 509.381 200.554 509.381 201.562V201.688H506.385V201.576C506.385 200.568 507.001 199.868 507.939 199.868ZM514.772 206V201.17C514.772 200.386 515.486 199.994 516.228 199.994C517.082 199.994 517.432 200.526 517.432 201.562V206H519.224V201.38C519.224 199.56 518.384 198.524 516.886 198.524C515.752 198.524 515.136 199.126 514.842 199.91H514.772V198.692H512.98V206H514.772ZM523.652 206H524.94V204.572H523.554V200.12H525.052V198.692H523.554V196.69H521.944V197.936C521.944 198.44 521.776 198.692 521.244 198.692H520.684V200.12H521.762V204.138C521.762 205.328 522.42 206 523.652 206Z" fill="black"/>
<path d="M365.87 224L369.16 214.228H367.942L366.318 219.156L365.212 222.824H365.142L364.064 219.156L362.454 214.228H361.194L364.442 224H365.87ZM370.907 224H372.055V215.768H372.125L372.951 217.406L375.289 221.662L377.627 217.406L378.453 215.768H378.523V224H379.671V214.228H378.159L375.345 219.492H375.275L372.475 214.228H370.907V224ZM383.492 224H384.85L385.858 220.528L386.474 218.33H386.502L387.132 220.528L388.14 224H389.526L391.444 216.776H390.394L389.61 219.898L388.868 223.062H388.84L387.944 219.898L387.006 216.776H386.012L385.102 219.898L384.22 223.062H384.192L383.422 219.898L382.652 216.776H381.56L383.492 224ZM398.979 224V223.02H398.153V219.044C398.153 217.518 397.117 216.608 395.381 216.608C394.079 216.608 393.211 217.252 392.819 218.022L393.491 218.652C393.883 217.994 394.457 217.574 395.325 217.574C396.473 217.574 397.033 218.134 397.033 219.156V219.87H395.605C393.505 219.87 392.525 220.626 392.525 221.984C392.525 223.328 393.421 224.168 394.947 224.168C395.955 224.168 396.725 223.706 397.033 222.824H397.103C397.187 223.496 397.523 224 398.349 224H398.979ZM395.129 223.216C394.261 223.216 393.701 222.81 393.701 222.096V221.802C393.701 221.102 394.275 220.71 395.549 220.71H397.033V221.9C397.033 222.642 396.235 223.216 395.129 223.216ZM401.858 224V219.1C401.858 218.414 402.586 217.896 403.79 217.896H404.448V216.776H404.014C402.838 216.776 402.18 217.42 401.928 218.106H401.858V216.776H400.738V224H401.858ZM408.686 224.168C410.044 224.168 411.08 223.496 411.542 222.516L410.744 221.942C410.366 222.74 409.666 223.188 408.756 223.188C407.412 223.188 406.614 222.25 406.614 221.004V220.668H411.808V220.136C411.808 218.092 410.618 216.608 408.686 216.608C406.726 216.608 405.438 218.092 405.438 220.388C405.438 222.684 406.726 224.168 408.686 224.168ZM408.686 217.546C409.834 217.546 410.604 218.4 410.604 219.674V219.828H406.614V219.73C406.614 218.47 407.468 217.546 408.686 217.546ZM420.18 224L422.728 216.776H421.65L420.362 220.36L419.578 222.824H419.508L418.724 220.36L417.464 216.776H416.344L418.878 224H420.18ZM427.889 224.168C429.513 224.168 430.703 223.314 431.319 221.942L430.381 221.354C429.989 222.418 429.135 223.118 427.889 223.118C426.209 223.118 425.215 221.9 425.215 219.898V218.442C425.215 216.44 426.209 215.11 427.889 215.11C429.093 215.11 429.905 215.768 430.297 216.776L431.249 216.202C430.633 214.844 429.513 214.06 427.889 214.06C425.425 214.06 423.955 215.908 423.955 219.17C423.955 222.432 425.425 224.168 427.889 224.168ZM435.904 224.168C437.262 224.168 438.298 223.496 438.76 222.516L437.962 221.942C437.584 222.74 436.884 223.188 435.974 223.188C434.63 223.188 433.832 222.25 433.832 221.004V220.668H439.026V220.136C439.026 218.092 437.836 216.608 435.904 216.608C433.944 216.608 432.656 218.092 432.656 220.388C432.656 222.684 433.944 224.168 435.904 224.168ZM435.904 217.546C437.052 217.546 437.822 218.4 437.822 219.674V219.828H433.832V219.73C433.832 218.47 434.686 217.546 435.904 217.546ZM442.152 224V218.988C442.152 218.064 443.02 217.616 443.916 217.616C444.994 217.616 445.554 218.274 445.554 219.562V224H446.674V219.366C446.674 217.616 445.736 216.608 444.252 216.608C443.174 216.608 442.558 217.14 442.208 217.952H442.152V216.776H441.032V224H442.152ZM452.145 224V223.02H450.675V217.756H452.257V216.776H450.675V214.774H449.667V216.118C449.667 216.608 449.513 216.776 449.037 216.776H448.365V217.756H449.555V222.81C449.555 223.51 449.975 224 450.745 224H452.145ZM456.878 224.168C458.236 224.168 459.272 223.496 459.734 222.516L458.936 221.942C458.558 222.74 457.858 223.188 456.948 223.188C455.604 223.188 454.806 222.25 454.806 221.004V220.668H460V220.136C460 218.092 458.81 216.608 456.878 216.608C454.918 216.608 453.63 218.092 453.63 220.388C453.63 222.684 454.918 224.168 456.878 224.168ZM456.878 217.546C458.026 217.546 458.796 218.4 458.796 219.674V219.828H454.806V219.73C454.806 218.47 455.66 217.546 456.878 217.546ZM463.126 224V219.1C463.126 218.414 463.854 217.896 465.058 217.896H465.716V216.776H465.282C464.106 216.776 463.448 217.42 463.196 218.106H463.126V216.776H462.006V224H463.126ZM473.631 224.168C475.731 224.168 476.991 223.02 476.991 221.228C476.991 219.772 476.165 218.932 474.261 218.498L473.463 218.316C472.231 218.036 471.629 217.616 471.629 216.692C471.629 215.642 472.399 215.096 473.645 215.096C474.779 215.096 475.521 215.558 476.053 216.3L476.935 215.656C476.207 214.62 475.171 214.06 473.701 214.06C471.783 214.06 470.467 214.998 470.467 216.734C470.467 218.232 471.447 219.016 473.225 219.422L474.023 219.604C475.311 219.898 475.829 220.36 475.829 221.284C475.829 222.404 475.073 223.132 473.673 223.132C472.539 223.132 471.727 222.642 471.041 221.732L470.173 222.46C470.957 223.524 472.063 224.168 473.631 224.168ZM481.786 224.168C483.144 224.168 484.18 223.496 484.642 222.516L483.844 221.942C483.466 222.74 482.766 223.188 481.856 223.188C480.512 223.188 479.714 222.25 479.714 221.004V220.668H484.908V220.136C484.908 218.092 483.718 216.608 481.786 216.608C479.826 216.608 478.538 218.092 478.538 220.388C478.538 222.684 479.826 224.168 481.786 224.168ZM481.786 217.546C482.934 217.546 483.704 218.4 483.704 219.674V219.828H479.714V219.73C479.714 218.47 480.568 217.546 481.786 217.546ZM488.034 224V219.1C488.034 218.414 488.762 217.896 489.966 217.896H490.624V216.776H490.19C489.014 216.776 488.356 217.42 488.104 218.106H488.034V216.776H486.914V224H488.034ZM495.249 224L497.797 216.776H496.719L495.431 220.36L494.647 222.824H494.577L493.793 220.36L492.533 216.776H491.413L493.947 224H495.249ZM502.008 224.168C503.366 224.168 504.402 223.496 504.864 222.516L504.066 221.942C503.688 222.74 502.988 223.188 502.078 223.188C500.734 223.188 499.936 222.25 499.936 221.004V220.668H505.13V220.136C505.13 218.092 503.94 216.608 502.008 216.608C500.048 216.608 498.76 218.092 498.76 220.388C498.76 222.684 500.048 224.168 502.008 224.168ZM502.008 217.546C503.156 217.546 503.926 218.4 503.926 219.674V219.828H499.936V219.73C499.936 218.47 500.79 217.546 502.008 217.546ZM508.256 224V219.1C508.256 218.414 508.984 217.896 510.188 217.896H510.846V216.776H510.412C509.236 216.776 508.578 217.42 508.326 218.106H508.256V216.776H507.136V224H508.256Z" fill="black"/>
<rect width="152" height="92" transform="translate(560 136)" fill="white" style="mix-blend-mode:multiply"/>
<rect width="48" height="48" transform="translate(612 136)" fill="#8D8D8D"/>
<rect width="20" height="20" transform="translate(626 150)" fill="white" style="mix-blend-mode:multiply"/>
<path d="M642.875 162.759L641.991 161.875L640.375 163.492L638.759 161.875L637.875 162.759L639.491 164.375L637.875 165.991L638.759 166.875L640.375 165.259L641.991 166.875L642.875 165.991L641.259 164.375L642.875 162.759Z" fill="white"/>
<path d="M641 152.5C640.337 152.501 639.702 152.764 639.233 153.233C638.764 153.702 638.501 154.337 638.5 155C638.502 155.445 638.625 155.881 638.854 156.262L632.262 162.854C631.881 162.625 631.445 162.502 631 162.5C630.506 162.5 630.022 162.647 629.611 162.921C629.2 163.196 628.88 163.586 628.69 164.043C628.501 164.5 628.452 165.003 628.548 165.488C628.645 165.973 628.883 166.418 629.232 166.768C629.582 167.117 630.027 167.356 630.512 167.452C630.997 167.548 631.5 167.499 631.957 167.31C632.414 167.12 632.804 166.8 633.079 166.389C633.353 165.978 633.5 165.494 633.5 165C633.498 164.555 633.375 164.119 633.146 163.738L639.738 157.146C640.119 157.375 640.555 157.498 641 157.5C641.663 157.5 642.299 157.237 642.768 156.768C643.237 156.299 643.5 155.663 643.5 155C643.5 154.337 643.237 153.701 642.768 153.232C642.299 152.763 641.663 152.5 641 152.5ZM631 166.25C630.753 166.25 630.511 166.177 630.306 166.039C630.1 165.902 629.94 165.707 629.845 165.478C629.751 165.25 629.726 164.999 629.774 164.756C629.822 164.514 629.941 164.291 630.116 164.116C630.291 163.941 630.514 163.822 630.756 163.774C630.999 163.726 631.25 163.751 631.478 163.845C631.707 163.94 631.902 164.1 632.039 164.306C632.177 164.511 632.25 164.753 632.25 165C632.25 165.331 632.118 165.649 631.883 165.883C631.649 166.118 631.331 166.25 631 166.25ZM641 156.25C640.753 156.25 640.511 156.177 640.306 156.039C640.1 155.902 639.94 155.707 639.845 155.478C639.751 155.25 639.726 154.999 639.774 154.756C639.822 154.514 639.941 154.291 640.116 154.116C640.291 153.941 640.514 153.822 640.756 153.774C640.999 153.726 641.25 153.751 641.478 153.845C641.707 153.94 641.902 154.1 642.039 154.306C642.177 154.511 642.25 154.753 642.25 155C642.25 155.331 642.118 155.649 641.883 155.883C641.649 156.118 641.331 156.25 641 156.25Z" fill="white"/>
<path d="M631 156.988L629.381 155.369L628.5 156.25L631 158.75L635.375 154.375L634.494 153.494L631 156.988Z" fill="white"/>
<path d="M569.846 206H571.876V196.228H570.126V203.27H570.084L569.076 201.24L566.136 196.228H564.106V206H565.856V198.958H565.898L566.906 200.988L569.846 206ZM577.171 206.168C578.529 206.168 579.593 205.65 580.195 204.824L579.229 203.746C578.781 204.32 578.249 204.74 577.367 204.74C576.191 204.74 575.589 204.026 575.589 202.976V202.794H580.447V202.206C580.447 200.204 579.397 198.524 577.115 198.524C574.973 198.524 573.727 200.022 573.727 202.332C573.727 204.67 575.015 206.168 577.171 206.168ZM577.143 199.868C578.067 199.868 578.585 200.554 578.585 201.562V201.688H575.589V201.576C575.589 200.568 576.205 199.868 577.143 199.868ZM584.465 206H585.753V204.572H584.367V200.12H585.865V198.692H584.367V196.69H582.757V197.936C582.757 198.44 582.589 198.692 582.057 198.692H581.497V200.12H582.575V204.138C582.575 205.328 583.233 206 584.465 206ZM588.882 206H590.786L591.71 202.78L592.242 200.792H592.284L592.83 202.78L593.768 206H595.7L597.702 198.692H596.036L595.308 201.702L594.734 204.208H594.678L593.992 201.702L593.11 198.692H591.486L590.632 201.702L589.96 204.208H589.904L589.33 201.702L588.588 198.692H586.866L588.882 206ZM601.985 206.168C604.085 206.168 605.387 204.684 605.387 202.332C605.387 199.994 604.085 198.524 601.985 198.524C599.899 198.524 598.597 199.994 598.597 202.332C598.597 204.684 599.899 206.168 601.985 206.168ZM601.985 204.726C601.061 204.726 600.473 204.124 600.473 203.018V201.66C600.473 200.568 601.061 199.966 601.985 199.966C602.923 199.966 603.511 200.568 603.511 201.66V203.018C603.511 204.124 602.923 204.726 601.985 204.726ZM608.928 206V201.52C608.928 200.722 609.558 200.386 610.762 200.386H611.322V198.692H610.93C609.768 198.692 609.18 199.434 608.998 200.204H608.928V198.692H607.136V206H608.928ZM612.792 206H614.584V203.774L615.55 202.724L617.426 206H619.554L616.768 201.52L619.288 198.692H617.258L615.62 200.568L614.654 201.884H614.584V195.64H612.792V206ZM624.394 206H626.144V198.986H626.2L626.956 200.54L628.958 204.236L630.96 200.54L631.716 198.986H631.772V206H633.522V196.228H631.52L629.042 201.002H628.986L626.48 196.228H624.394V206ZM637.678 206.168C638.77 206.168 639.568 205.678 639.806 204.74H639.89C640.002 205.496 640.478 206 641.248 206H642.242V204.572H641.514V201.128C641.514 199.462 640.464 198.524 638.49 198.524C637.02 198.524 636.166 199.084 635.634 199.924L636.698 200.876C637.048 200.372 637.524 199.952 638.364 199.952C639.316 199.952 639.722 200.428 639.722 201.24V201.772H638.476C636.488 201.772 635.354 202.514 635.354 204.012C635.354 205.314 636.194 206.168 637.678 206.168ZM638.28 204.866C637.58 204.866 637.174 204.572 637.174 203.984V203.746C637.174 203.172 637.636 202.85 638.574 202.85H639.722V203.816C639.722 204.502 639.078 204.866 638.28 204.866ZM645.644 206V201.17C645.644 200.386 646.358 199.994 647.1 199.994C647.954 199.994 648.304 200.526 648.304 201.562V206H650.096V201.38C650.096 199.56 649.256 198.524 647.758 198.524C646.624 198.524 646.008 199.126 645.714 199.91H645.644V198.692H643.852V206H645.644ZM654.049 206.168C655.141 206.168 655.939 205.678 656.177 204.74H656.261C656.373 205.496 656.849 206 657.619 206H658.613V204.572H657.885V201.128C657.885 199.462 656.835 198.524 654.861 198.524C653.391 198.524 652.537 199.084 652.005 199.924L653.069 200.876C653.419 200.372 653.895 199.952 654.735 199.952C655.687 199.952 656.093 200.428 656.093 201.24V201.772H654.847C652.859 201.772 651.725 202.514 651.725 204.012C651.725 205.314 652.565 206.168 654.049 206.168ZM654.651 204.866C653.951 204.866 653.545 204.572 653.545 203.984V203.746C653.545 203.172 654.007 202.85 654.945 202.85H656.093V203.816C656.093 204.502 655.449 204.866 654.651 204.866ZM666.817 206.616C666.817 205.3 666.047 204.53 664.255 204.53H662.295C661.651 204.53 661.343 204.348 661.343 203.984C661.343 203.662 661.581 203.452 661.861 203.326C662.183 203.41 662.561 203.452 662.981 203.452C664.969 203.452 666.005 202.472 666.005 201.002C666.005 200.106 665.627 199.392 664.871 198.972V198.776H666.425V197.404H665.291C664.619 197.404 664.255 197.754 664.255 198.468V198.706C663.891 198.58 663.429 198.524 662.981 198.524C661.007 198.524 659.957 199.518 659.957 201.002C659.957 201.968 660.405 202.724 661.287 203.13V203.186C660.587 203.34 659.943 203.718 659.943 204.474C659.943 205.062 660.279 205.538 660.881 205.692V205.846C660.069 205.972 659.579 206.434 659.579 207.246C659.579 208.324 660.517 208.968 662.981 208.968C665.781 208.968 666.817 208.142 666.817 206.616ZM665.137 206.826C665.137 207.442 664.619 207.736 663.457 207.736H662.561C661.441 207.736 661.021 207.4 661.021 206.84C661.021 206.546 661.133 206.28 661.399 206.084H663.891C664.801 206.084 665.137 206.364 665.137 206.826ZM662.981 202.234C662.127 202.234 661.665 201.842 661.665 201.114V200.876C661.665 200.134 662.127 199.756 662.981 199.756C663.835 199.756 664.297 200.134 664.297 200.876V201.114C664.297 201.842 663.835 202.234 662.981 202.234ZM670.884 206.168C672.242 206.168 673.306 205.65 673.908 204.824L672.942 203.746C672.494 204.32 671.962 204.74 671.08 204.74C669.904 204.74 669.302 204.026 669.302 202.976V202.794H674.16V202.206C674.16 200.204 673.11 198.524 670.828 198.524C668.686 198.524 667.44 200.022 667.44 202.332C667.44 204.67 668.728 206.168 670.884 206.168ZM670.856 199.868C671.78 199.868 672.298 200.554 672.298 201.562V201.688H669.302V201.576C669.302 200.568 669.918 199.868 670.856 199.868ZM677.688 206V201.17C677.688 200.386 678.36 199.994 679.046 199.994C679.844 199.994 680.222 200.512 680.222 201.562V206H682.014V201.17C682.014 200.386 682.672 199.994 683.372 199.994C684.17 199.994 684.548 200.512 684.548 201.562V206H686.34V201.38C686.34 199.56 685.528 198.524 684.1 198.524C682.938 198.524 682.126 199.182 681.86 199.994H681.832C681.482 199.014 680.712 198.524 679.718 198.524C678.626 198.524 678.038 199.14 677.758 199.91H677.688V198.692H675.896V206H677.688ZM691.438 206.168C692.796 206.168 693.86 205.65 694.462 204.824L693.496 203.746C693.048 204.32 692.516 204.74 691.634 204.74C690.458 204.74 689.856 204.026 689.856 202.976V202.794H694.714V202.206C694.714 200.204 693.664 198.524 691.382 198.524C689.24 198.524 687.994 200.022 687.994 202.332C687.994 204.67 689.282 206.168 691.438 206.168ZM691.41 199.868C692.334 199.868 692.852 200.554 692.852 201.562V201.688H689.856V201.576C689.856 200.568 690.472 199.868 691.41 199.868ZM698.243 206V201.17C698.243 200.386 698.957 199.994 699.699 199.994C700.553 199.994 700.903 200.526 700.903 201.562V206H702.695V201.38C702.695 199.56 701.855 198.524 700.357 198.524C699.223 198.524 698.607 199.126 698.313 199.91H698.243V198.692H696.451V206H698.243ZM707.123 206H708.411V204.572H707.025V200.12H708.523V198.692H707.025V196.69H705.415V197.936C705.415 198.44 705.247 198.692 704.715 198.692H704.155V200.12H705.233V204.138C705.233 205.328 705.891 206 707.123 206Z" fill="black"/>
<path d="M570.396 224L573.686 214.228H572.468L570.844 219.156L569.738 222.824H569.668L568.59 219.156L566.98 214.228H565.72L568.968 224H570.396ZM575.433 224H576.581V215.768H576.651L577.477 217.406L579.815 221.662L582.153 217.406L582.979 215.768H583.049V224H584.197V214.228H582.685L579.871 219.492H579.801L577.001 214.228H575.433V224ZM588.018 224H589.376L590.384 220.528L591 218.33H591.028L591.658 220.528L592.666 224H594.052L595.97 216.776H594.92L594.136 219.898L593.394 223.062H593.366L592.47 219.898L591.532 216.776H590.538L589.628 219.898L588.746 223.062H588.718L587.948 219.898L587.178 216.776H586.086L588.018 224ZM603.505 224V223.02H602.679V219.044C602.679 217.518 601.643 216.608 599.907 216.608C598.605 216.608 597.737 217.252 597.345 218.022L598.017 218.652C598.409 217.994 598.983 217.574 599.851 217.574C600.999 217.574 601.559 218.134 601.559 219.156V219.87H600.131C598.031 219.87 597.051 220.626 597.051 221.984C597.051 223.328 597.947 224.168 599.473 224.168C600.481 224.168 601.251 223.706 601.559 222.824H601.629C601.713 223.496 602.049 224 602.875 224H603.505ZM599.655 223.216C598.787 223.216 598.227 222.81 598.227 222.096V221.802C598.227 221.102 598.801 220.71 600.075 220.71H601.559V221.9C601.559 222.642 600.761 223.216 599.655 223.216ZM606.384 224V219.1C606.384 218.414 607.112 217.896 608.316 217.896H608.974V216.776H608.54C607.364 216.776 606.706 217.42 606.454 218.106H606.384V216.776H605.264V224H606.384ZM613.212 224.168C614.57 224.168 615.606 223.496 616.068 222.516L615.27 221.942C614.892 222.74 614.192 223.188 613.282 223.188C611.938 223.188 611.14 222.25 611.14 221.004V220.668H616.334V220.136C616.334 218.092 615.144 216.608 613.212 216.608C611.252 216.608 609.964 218.092 609.964 220.388C609.964 222.684 611.252 224.168 613.212 224.168ZM613.212 217.546C614.36 217.546 615.13 218.4 615.13 219.674V219.828H611.14V219.73C611.14 218.47 611.994 217.546 613.212 217.546ZM627.856 224H629.214V214.228H628.066V222.362H628.024L626.848 220.192L623.278 214.228H621.92V224H623.068V215.866H623.11L624.286 218.036L627.856 224ZM634.723 224.168C636.823 224.168 638.083 223.02 638.083 221.228C638.083 219.772 637.257 218.932 635.353 218.498L634.555 218.316C633.323 218.036 632.721 217.616 632.721 216.692C632.721 215.642 633.491 215.096 634.737 215.096C635.871 215.096 636.613 215.558 637.145 216.3L638.027 215.656C637.299 214.62 636.263 214.06 634.793 214.06C632.875 214.06 631.559 214.998 631.559 216.734C631.559 218.232 632.539 219.016 634.317 219.422L635.115 219.604C636.403 219.898 636.921 220.36 636.921 221.284C636.921 222.404 636.165 223.132 634.765 223.132C633.631 223.132 632.819 222.642 632.133 221.732L631.265 222.46C632.049 223.524 633.155 224.168 634.723 224.168ZM639.308 224H640.652L643.214 219.898H643.242L645.804 224H647.218L643.998 218.988L647.134 214.228H645.79L643.284 218.12H643.256L640.806 214.228H639.392L642.5 219.03L639.308 224ZM652.488 224H653.636V215.768H653.706L654.532 217.406L656.87 221.662L659.208 217.406L660.034 215.768H660.104V224H661.252V214.228H659.74L656.926 219.492H656.856L654.056 214.228H652.488V224ZM669.777 224V223.02H668.951V219.044C668.951 217.518 667.915 216.608 666.179 216.608C664.877 216.608 664.009 217.252 663.617 218.022L664.289 218.652C664.681 217.994 665.255 217.574 666.123 217.574C667.271 217.574 667.831 218.134 667.831 219.156V219.87H666.403C664.303 219.87 663.323 220.626 663.323 221.984C663.323 223.328 664.219 224.168 665.745 224.168C666.753 224.168 667.523 223.706 667.831 222.824H667.901C667.985 223.496 668.321 224 669.147 224H669.777ZM665.927 223.216C665.059 223.216 664.499 222.81 664.499 222.096V221.802C664.499 221.102 665.073 220.71 666.347 220.71H667.831V221.9C667.831 222.642 667.033 223.216 665.927 223.216ZM672.656 224V218.988C672.656 218.064 673.524 217.616 674.42 217.616C675.498 217.616 676.058 218.274 676.058 219.562V224H677.178V219.366C677.178 217.616 676.24 216.608 674.756 216.608C673.678 216.608 673.062 217.14 672.712 217.952H672.656V216.776H671.536V224H672.656ZM685.533 224V223.02H684.707V219.044C684.707 217.518 683.671 216.608 681.935 216.608C680.633 216.608 679.765 217.252 679.373 218.022L680.045 218.652C680.437 217.994 681.011 217.574 681.879 217.574C683.027 217.574 683.587 218.134 683.587 219.156V219.87H682.159C680.059 219.87 679.079 220.626 679.079 221.984C679.079 223.328 679.975 224.168 681.501 224.168C682.509 224.168 683.279 223.706 683.587 222.824H683.657C683.741 223.496 684.077 224 684.903 224H685.533ZM681.683 223.216C680.815 223.216 680.255 222.81 680.255 222.096V221.802C680.255 221.102 680.829 220.71 682.103 220.71H683.587V221.9C683.587 222.642 682.789 223.216 681.683 223.216ZM693.382 224.798C693.382 223.608 692.612 222.88 690.82 222.88H689.28C688.622 222.88 688.174 222.768 688.174 222.334C688.174 221.886 688.65 221.648 689.126 221.522C689.336 221.564 689.588 221.592 689.826 221.592C691.478 221.592 692.556 220.57 692.556 219.1C692.556 218.33 692.248 217.686 691.73 217.238V216.776H693.102V215.796H692.024C691.422 215.796 691.184 216.202 691.184 216.762V216.888C690.792 216.706 690.33 216.608 689.812 216.608C688.174 216.608 687.096 217.63 687.096 219.1C687.096 220.108 687.6 220.906 688.454 221.312V221.368C687.726 221.55 687.208 221.9 687.208 222.628C687.208 223.118 687.446 223.44 687.852 223.636V223.79C687.138 223.986 686.704 224.406 686.704 225.19C686.704 226.324 687.628 226.968 689.882 226.968C692.206 226.968 693.382 226.282 693.382 224.798ZM692.332 224.882C692.332 225.666 691.604 226.058 690.358 226.058H689.322C688.188 226.058 687.754 225.54 687.754 224.91C687.754 224.462 687.964 224.14 688.426 223.93H690.834C691.954 223.93 692.332 224.308 692.332 224.882ZM689.826 220.696C688.874 220.696 688.272 220.248 688.272 219.296V218.904C688.272 217.952 688.874 217.504 689.826 217.504C690.778 217.504 691.38 217.952 691.38 218.904V219.296C691.38 220.248 690.778 220.696 689.826 220.696ZM697.482 224.168C698.84 224.168 699.876 223.496 700.338 222.516L699.54 221.942C699.162 222.74 698.462 223.188 697.552 223.188C696.208 223.188 695.41 222.25 695.41 221.004V220.668H700.604V220.136C700.604 218.092 699.414 216.608 697.482 216.608C695.522 216.608 694.234 218.092 694.234 220.388C694.234 222.684 695.522 224.168 697.482 224.168ZM697.482 217.546C698.63 217.546 699.4 218.4 699.4 219.674V219.828H695.41V219.73C695.41 218.47 696.264 217.546 697.482 217.546ZM703.73 224V219.1C703.73 218.414 704.458 217.896 705.662 217.896H706.32V216.776H705.886C704.71 216.776 704.052 217.42 703.8 218.106H703.73V216.776H702.61V224H703.73Z" fill="black"/>
<rect width="184" height="92" transform="translate(344 252)" fill="white" style="mix-blend-mode:multiply"/>
<rect width="48" height="48" transform="translate(412 252)" fill="#8D8D8D"/>
<g clip-path="url(#clip3_704_36456)">
<rect width="20" height="20" transform="translate(426 266)" fill="white" style="mix-blend-mode:multiply"/>
<path d="M438.5 274.125H433.5C433.169 274.125 432.851 274.257 432.617 274.492C432.382 274.726 432.25 275.044 432.25 275.375V283.5C432.25 283.831 432.382 284.149 432.617 284.383C432.851 284.618 433.169 284.75 433.5 284.75H438.5C438.831 284.75 439.149 284.618 439.383 284.383C439.618 284.149 439.75 283.831 439.75 283.5V275.375C439.75 275.044 439.618 274.726 439.383 274.492C439.149 274.257 438.831 274.125 438.5 274.125ZM438.5 275.375V277.25H433.5V275.375H438.5ZM438.5 278.5V280.375H433.5V278.5H438.5ZM433.5 283.5V281.625H438.5V283.5H433.5Z" fill="white"/>
<path d="M442.194 272.331C442.179 272.329 442.165 272.321 442.154 272.311C442.144 272.3 442.136 272.287 442.133 272.272C441.888 271.054 441.287 269.938 440.405 269.063C439.523 268.189 438.401 267.598 437.181 267.364C435.561 267.051 433.883 267.391 432.512 268.31C431.142 269.23 430.191 270.654 429.866 272.272C429.863 272.287 429.856 272.3 429.845 272.311C429.834 272.321 429.821 272.329 429.806 272.332C428.661 272.551 427.638 273.19 426.938 274.122C426.238 275.055 425.911 276.215 426.021 277.376C426.13 278.537 426.668 279.616 427.53 280.402C428.392 281.187 429.516 281.623 430.682 281.625H431V280.375H430.685C430.191 280.374 429.704 280.266 429.256 280.06C428.808 279.855 428.409 279.555 428.087 279.181C427.765 278.808 427.526 278.37 427.388 277.897C427.25 277.423 427.215 276.926 427.285 276.438C427.411 275.705 427.763 275.031 428.291 274.509C428.82 273.986 429.498 273.642 430.232 273.525L430.867 273.41C430.883 273.407 430.898 273.399 430.91 273.388C430.921 273.376 430.929 273.361 430.932 273.345L431.045 272.761C431.231 271.7 431.743 270.725 432.511 269.969C433.278 269.214 434.261 268.717 435.324 268.547C435.917 268.465 436.52 268.492 437.104 268.624C438.072 268.86 438.95 269.372 439.633 270.099C440.315 270.825 440.771 271.734 440.946 272.715L441.067 273.345C441.07 273.361 441.078 273.376 441.09 273.388C441.101 273.399 441.116 273.407 441.132 273.41L441.793 273.53C442.522 273.645 443.199 273.98 443.732 274.491C444.215 274.971 444.545 275.583 444.681 276.251C444.816 276.918 444.75 277.61 444.492 278.24C444.233 278.87 443.794 279.41 443.228 279.79C442.663 280.17 441.998 280.373 441.317 280.375H441V281.625H441.317C442.484 281.624 443.608 281.188 444.47 280.402C445.332 279.617 445.871 278.538 445.98 277.377C446.09 276.215 445.762 275.055 445.062 274.122C444.362 273.189 443.339 272.551 442.194 272.331Z" fill="white"/>
</g>
<path d="M364.333 322.168C366.083 322.168 367.245 321.314 367.945 319.858L366.447 318.976C366.125 319.858 365.439 320.53 364.333 320.53C362.961 320.53 362.079 319.578 362.079 317.898V316.358C362.079 314.692 362.961 313.698 364.333 313.698C365.425 313.698 366.041 314.286 366.321 315.154L367.903 314.314C367.217 312.802 366.083 312.06 364.333 312.06C361.757 312.06 360.119 313.894 360.119 317.184C360.119 320.474 361.757 322.168 364.333 322.168ZM372.468 322.168C374.568 322.168 375.87 320.684 375.87 318.332C375.87 315.994 374.568 314.524 372.468 314.524C370.382 314.524 369.08 315.994 369.08 318.332C369.08 320.684 370.382 322.168 372.468 322.168ZM372.468 320.726C371.544 320.726 370.956 320.124 370.956 319.018V317.66C370.956 316.568 371.544 315.966 372.468 315.966C373.406 315.966 373.994 316.568 373.994 317.66V319.018C373.994 320.124 373.406 320.726 372.468 320.726ZM379.41 322V317.17C379.41 316.386 380.082 315.994 380.768 315.994C381.566 315.994 381.944 316.512 381.944 317.562V322H383.736V317.17C383.736 316.386 384.394 315.994 385.094 315.994C385.892 315.994 386.27 316.512 386.27 317.562V322H388.062V317.38C388.062 315.56 387.25 314.524 385.822 314.524C384.66 314.524 383.848 315.182 383.582 315.994H383.554C383.204 315.014 382.434 314.524 381.44 314.524C380.348 314.524 379.76 315.14 379.48 315.91H379.41V314.692H377.618V322H379.41ZM390.206 324.8H391.998V320.782H392.054C392.334 321.608 393.104 322.168 394.07 322.168C395.918 322.168 396.94 320.782 396.94 318.332C396.94 315.896 395.918 314.524 394.07 314.524C393.104 314.524 392.32 315.056 392.054 315.896H391.998V314.692H390.206V324.8ZM393.496 320.684C392.642 320.684 391.998 320.25 391.998 319.494V317.17C391.998 316.456 392.642 315.994 393.496 315.994C394.42 315.994 395.064 316.68 395.064 317.716V318.976C395.064 320.012 394.42 320.684 393.496 320.684ZM403.129 322H404.921V314.692H403.129V319.522C403.129 320.306 402.415 320.684 401.701 320.684C400.847 320.684 400.469 320.138 400.469 319.13V314.692H398.677V319.312C398.677 321.132 399.517 322.168 401.015 322.168C402.219 322.168 402.807 321.51 403.059 320.782H403.129V322ZM409.433 322H410.721V320.572H409.335V316.12H410.833V314.692H409.335V312.69H407.725V313.936C407.725 314.44 407.557 314.692 407.025 314.692H406.465V316.12H407.543V320.138C407.543 321.328 408.201 322 409.433 322ZM415.447 322.168C416.805 322.168 417.869 321.65 418.471 320.824L417.505 319.746C417.057 320.32 416.525 320.74 415.643 320.74C414.467 320.74 413.865 320.026 413.865 318.976V318.794H418.723V318.206C418.723 316.204 417.673 314.524 415.391 314.524C413.249 314.524 412.003 316.022 412.003 318.332C412.003 320.67 413.291 322.168 415.447 322.168ZM415.419 315.868C416.343 315.868 416.861 316.554 416.861 317.562V317.688H413.865V317.576C413.865 316.568 414.481 315.868 415.419 315.868ZM428.408 322L431.6 312.228H429.766L428.268 316.988L427.414 320.236H427.372L426.504 316.988L425.006 312.228H423.116L426.308 322H428.408ZM433.912 313.628C434.64 313.628 434.962 313.25 434.962 312.732V312.452C434.962 311.934 434.64 311.556 433.912 311.556C433.17 311.556 432.862 311.934 432.862 312.452V312.732C432.862 313.25 433.17 313.628 433.912 313.628ZM433.016 322H434.808V314.692H433.016V322ZM438.837 322V317.52C438.837 316.722 439.467 316.386 440.671 316.386H441.231V314.692H440.839C439.677 314.692 439.089 315.434 438.907 316.204H438.837V314.692H437.045V322H438.837ZM445.038 322H446.326V320.572H444.94V316.12H446.438V314.692H444.94V312.69H443.33V313.936C443.33 314.44 443.162 314.692 442.63 314.692H442.07V316.12H443.148V320.138C443.148 321.328 443.806 322 445.038 322ZM452.52 322H454.312V314.692H452.52V319.522C452.52 320.306 451.806 320.684 451.092 320.684C450.238 320.684 449.86 320.138 449.86 319.13V314.692H448.068V319.312C448.068 321.132 448.908 322.168 450.406 322.168C451.61 322.168 452.198 321.51 452.45 320.782H452.52V322ZM458.348 322.168C459.44 322.168 460.238 321.678 460.476 320.74H460.56C460.672 321.496 461.148 322 461.918 322H462.912V320.572H462.184V317.128C462.184 315.462 461.134 314.524 459.16 314.524C457.69 314.524 456.836 315.084 456.304 315.924L457.368 316.876C457.718 316.372 458.194 315.952 459.034 315.952C459.986 315.952 460.392 316.428 460.392 317.24V317.772H459.146C457.158 317.772 456.024 318.514 456.024 320.012C456.024 321.314 456.864 322.168 458.348 322.168ZM458.95 320.866C458.25 320.866 457.844 320.572 457.844 319.984V319.746C457.844 319.172 458.306 318.85 459.244 318.85H460.392V319.816C460.392 320.502 459.748 320.866 458.95 320.866ZM467.281 322V320.572H466.315V311.64H464.523V320.236C464.523 321.356 465.097 322 466.315 322H467.281ZM469.694 313.628C470.422 313.628 470.744 313.25 470.744 312.732V312.452C470.744 311.934 470.422 311.556 469.694 311.556C468.952 311.556 468.644 311.934 468.644 312.452V312.732C468.644 313.25 468.952 313.628 469.694 313.628ZM468.798 322H470.59V314.692H468.798V322ZM478.301 322V320.572H474.381L478.203 316.078V314.692H472.435V316.106H476.103L472.309 320.572V322H478.301ZM481.82 322.168C482.912 322.168 483.71 321.678 483.948 320.74H484.032C484.144 321.496 484.62 322 485.39 322H486.384V320.572H485.656V317.128C485.656 315.462 484.606 314.524 482.632 314.524C481.162 314.524 480.308 315.084 479.776 315.924L480.84 316.876C481.19 316.372 481.666 315.952 482.506 315.952C483.458 315.952 483.864 316.428 483.864 317.24V317.772H482.618C480.63 317.772 479.496 318.514 479.496 320.012C479.496 321.314 480.336 322.168 481.82 322.168ZM482.422 320.866C481.722 320.866 481.316 320.572 481.316 319.984V319.746C481.316 319.172 481.778 318.85 482.716 318.85H483.864V319.816C483.864 320.502 483.22 320.866 482.422 320.866ZM490.222 322H491.51V320.572H490.124V316.12H491.622V314.692H490.124V312.69H488.514V313.936C488.514 314.44 488.346 314.692 487.814 314.692H487.254V316.12H488.332V320.138C488.332 321.328 488.99 322 490.222 322ZM494.232 313.628C494.96 313.628 495.282 313.25 495.282 312.732V312.452C495.282 311.934 494.96 311.556 494.232 311.556C493.49 311.556 493.182 311.934 493.182 312.452V312.732C493.182 313.25 493.49 313.628 494.232 313.628ZM493.336 322H495.128V314.692H493.336V322ZM500.264 322.168C502.364 322.168 503.666 320.684 503.666 318.332C503.666 315.994 502.364 314.524 500.264 314.524C498.178 314.524 496.876 315.994 496.876 318.332C496.876 320.684 498.178 322.168 500.264 322.168ZM500.264 320.726C499.34 320.726 498.752 320.124 498.752 319.018V317.66C498.752 316.568 499.34 315.966 500.264 315.966C501.202 315.966 501.79 316.568 501.79 317.66V319.018C501.79 320.124 501.202 320.726 500.264 320.726ZM507.206 322V317.17C507.206 316.386 507.92 315.994 508.662 315.994C509.516 315.994 509.866 316.526 509.866 317.562V322H511.658V317.38C511.658 315.56 510.818 314.524 509.32 314.524C508.186 314.524 507.57 315.126 507.276 315.91H507.206V314.692H505.414V322H507.206Z" fill="black"/>
<path d="M387.115 340L390.405 330.228H389.187L387.563 335.156L386.457 338.824H386.387L385.309 335.156L383.699 330.228H382.439L385.687 340H387.115ZM392.152 340H393.3V331.768H393.37L394.196 333.406L396.534 337.662L398.872 333.406L399.698 331.768H399.768V340H400.916V330.228H399.404L396.59 335.492H396.52L393.72 330.228H392.152V340ZM404.738 340H406.096L407.104 336.528L407.72 334.33H407.748L408.378 336.528L409.386 340H410.772L412.69 332.776H411.64L410.856 335.898L410.114 339.062H410.086L409.19 335.898L408.252 332.776H407.258L406.348 335.898L405.466 339.062H405.438L404.668 335.898L403.898 332.776H402.806L404.738 340ZM420.225 340V339.02H419.399V335.044C419.399 333.518 418.363 332.608 416.627 332.608C415.325 332.608 414.457 333.252 414.065 334.022L414.737 334.652C415.129 333.994 415.703 333.574 416.571 333.574C417.719 333.574 418.279 334.134 418.279 335.156V335.87H416.851C414.751 335.87 413.771 336.626 413.771 337.984C413.771 339.328 414.667 340.168 416.193 340.168C417.201 340.168 417.971 339.706 418.279 338.824H418.349C418.433 339.496 418.769 340 419.595 340H420.225ZM416.375 339.216C415.507 339.216 414.947 338.81 414.947 338.096V337.802C414.947 337.102 415.521 336.71 416.795 336.71H418.279V337.9C418.279 338.642 417.481 339.216 416.375 339.216ZM423.103 340V335.1C423.103 334.414 423.831 333.896 425.035 333.896H425.693V332.776H425.259C424.083 332.776 423.425 333.42 423.173 334.106H423.103V332.776H421.983V340H423.103ZM429.932 340.168C431.29 340.168 432.326 339.496 432.788 338.516L431.99 337.942C431.612 338.74 430.912 339.188 430.002 339.188C428.658 339.188 427.86 338.25 427.86 337.004V336.668H433.054V336.136C433.054 334.092 431.864 332.608 429.932 332.608C427.972 332.608 426.684 334.092 426.684 336.388C426.684 338.684 427.972 340.168 429.932 340.168ZM429.932 333.546C431.08 333.546 431.85 334.4 431.85 335.674V335.828H427.86V335.73C427.86 334.47 428.714 333.546 429.932 333.546ZM441.426 340L443.974 332.776H442.896L441.608 336.36L440.824 338.824H440.754L439.97 336.36L438.71 332.776H437.59L440.124 340H441.426ZM448.434 340.168C450.534 340.168 451.794 339.02 451.794 337.228C451.794 335.772 450.968 334.932 449.064 334.498L448.266 334.316C447.034 334.036 446.432 333.616 446.432 332.692C446.432 331.642 447.202 331.096 448.448 331.096C449.582 331.096 450.324 331.558 450.856 332.3L451.738 331.656C451.01 330.62 449.974 330.06 448.504 330.06C446.586 330.06 445.27 330.998 445.27 332.734C445.27 334.232 446.25 335.016 448.028 335.422L448.826 335.604C450.114 335.898 450.632 336.36 450.632 337.284C450.632 338.404 449.876 339.132 448.476 339.132C447.342 339.132 446.53 338.642 445.844 337.732L444.976 338.46C445.76 339.524 446.866 340.168 448.434 340.168ZM453.873 342.8H454.993V338.824H455.049C455.483 339.72 456.169 340.168 457.163 340.168C458.969 340.168 460.103 338.698 460.103 336.388C460.103 334.078 458.969 332.608 457.163 332.608C456.169 332.608 455.427 333.042 455.049 333.952H454.993V332.776H453.873V342.8ZM456.855 339.16C455.833 339.16 454.993 338.628 454.993 337.69V335.002C454.993 334.204 455.833 333.616 456.855 333.616C458.115 333.616 458.899 334.484 458.899 335.772V337.004C458.899 338.292 458.115 339.16 456.855 339.16ZM462.154 340H463.274V334.988C463.274 334.064 464.142 333.616 465.038 333.616C466.116 333.616 466.676 334.274 466.676 335.562V340H467.796V335.366C467.796 333.616 466.858 332.608 465.374 332.608C464.296 332.608 463.68 333.14 463.33 333.952H463.274V329.64H462.154V340ZM472.987 340.168C474.345 340.168 475.381 339.496 475.843 338.516L475.045 337.942C474.667 338.74 473.967 339.188 473.057 339.188C471.713 339.188 470.915 338.25 470.915 337.004V336.668H476.109V336.136C476.109 334.092 474.919 332.608 472.987 332.608C471.027 332.608 469.739 334.092 469.739 336.388C469.739 338.684 471.027 340.168 472.987 340.168ZM472.987 333.546C474.135 333.546 474.905 334.4 474.905 335.674V335.828H470.915V335.73C470.915 334.47 471.769 333.546 472.987 333.546ZM479.235 340V335.1C479.235 334.414 479.963 333.896 481.167 333.896H481.825V332.776H481.391C480.215 332.776 479.557 333.42 479.305 334.106H479.235V332.776H478.115V340H479.235ZM486.063 340.168C487.421 340.168 488.457 339.496 488.919 338.516L488.121 337.942C487.743 338.74 487.043 339.188 486.133 339.188C484.789 339.188 483.991 338.25 483.991 337.004V336.668H489.185V336.136C489.185 334.092 487.995 332.608 486.063 332.608C484.103 332.608 482.815 334.092 482.815 336.388C482.815 338.684 484.103 340.168 486.063 340.168ZM486.063 333.546C487.211 333.546 487.981 334.4 487.981 335.674V335.828H483.991V335.73C483.991 334.47 484.845 333.546 486.063 333.546Z" fill="black"/>
<rect width="152" height="92" transform="translate(560 252)" fill="white" style="mix-blend-mode:multiply"/>
<rect width="48" height="48" transform="translate(612 252)" fill="#8D8D8D"/>
<rect width="20" height="20" transform="translate(626 266)" fill="white" style="mix-blend-mode:multiply"/>
<path d="M642.875 278.759L641.991 277.875L640.375 279.492L638.759 277.875L637.875 278.759L639.491 280.375L637.875 281.991L638.759 282.875L640.375 281.259L641.991 282.875L642.875 281.991L641.259 280.375L642.875 278.759Z" fill="white"/>
<path d="M641 268.5C640.337 268.501 639.702 268.764 639.233 269.233C638.764 269.702 638.501 270.337 638.5 271C638.502 271.445 638.625 271.881 638.854 272.262L632.262 278.854C631.881 278.625 631.445 278.502 631 278.5C630.506 278.5 630.022 278.647 629.611 278.921C629.2 279.196 628.88 279.586 628.69 280.043C628.501 280.5 628.452 281.003 628.548 281.488C628.645 281.973 628.883 282.418 629.232 282.768C629.582 283.117 630.027 283.356 630.512 283.452C630.997 283.548 631.5 283.499 631.957 283.31C632.414 283.12 632.804 282.8 633.079 282.389C633.353 281.978 633.5 281.494 633.5 281C633.498 280.555 633.375 280.119 633.146 279.738L639.738 273.146C640.119 273.375 640.555 273.498 641 273.5C641.663 273.5 642.299 273.237 642.768 272.768C643.237 272.299 643.5 271.663 643.5 271C643.5 270.337 643.237 269.701 642.768 269.232C642.299 268.763 641.663 268.5 641 268.5ZM631 282.25C630.753 282.25 630.511 282.177 630.306 282.039C630.1 281.902 629.94 281.707 629.845 281.478C629.751 281.25 629.726 280.999 629.774 280.756C629.822 280.514 629.941 280.291 630.116 280.116C630.291 279.941 630.514 279.822 630.756 279.774C630.999 279.726 631.25 279.751 631.478 279.845C631.707 279.94 631.902 280.1 632.039 280.306C632.177 280.511 632.25 280.753 632.25 281C632.25 281.331 632.118 281.649 631.883 281.883C631.649 282.118 631.331 282.25 631 282.25ZM641 272.25C640.753 272.25 640.511 272.177 640.306 272.039C640.1 271.902 639.94 271.707 639.845 271.478C639.751 271.25 639.726 270.999 639.774 270.756C639.822 270.514 639.941 270.291 640.116 270.116C640.291 269.941 640.514 269.822 640.756 269.774C640.999 269.726 641.25 269.751 641.478 269.845C641.707 269.94 641.902 270.1 642.039 270.306C642.177 270.511 642.25 270.753 642.25 271C642.25 271.331 642.118 271.649 641.883 271.883C641.649 272.118 641.331 272.25 641 272.25Z" fill="white"/>
<path d="M631 272.988L629.381 271.369L628.5 272.25L631 274.75L635.375 270.375L634.494 269.494L631 272.988Z" fill="white"/>
<path d="M569.846 322H571.876V312.228H570.126V319.27H570.084L569.076 317.24L566.136 312.228H564.106V322H565.856V314.958H565.898L566.906 316.988L569.846 322ZM577.171 322.168C578.529 322.168 579.593 321.65 580.195 320.824L579.229 319.746C578.781 320.32 578.249 320.74 577.367 320.74C576.191 320.74 575.589 320.026 575.589 318.976V318.794H580.447V318.206C580.447 316.204 579.397 314.524 577.115 314.524C574.973 314.524 573.727 316.022 573.727 318.332C573.727 320.67 575.015 322.168 577.171 322.168ZM577.143 315.868C578.067 315.868 578.585 316.554 578.585 317.562V317.688H575.589V317.576C575.589 316.568 576.205 315.868 577.143 315.868ZM584.465 322H585.753V320.572H584.367V316.12H585.865V314.692H584.367V312.69H582.757V313.936C582.757 314.44 582.589 314.692 582.057 314.692H581.497V316.12H582.575V320.138C582.575 321.328 583.233 322 584.465 322ZM588.882 322H590.786L591.71 318.78L592.242 316.792H592.284L592.83 318.78L593.768 322H595.7L597.702 314.692H596.036L595.308 317.702L594.734 320.208H594.678L593.992 317.702L593.11 314.692H591.486L590.632 317.702L589.96 320.208H589.904L589.33 317.702L588.588 314.692H586.866L588.882 322ZM601.985 322.168C604.085 322.168 605.387 320.684 605.387 318.332C605.387 315.994 604.085 314.524 601.985 314.524C599.899 314.524 598.597 315.994 598.597 318.332C598.597 320.684 599.899 322.168 601.985 322.168ZM601.985 320.726C601.061 320.726 600.473 320.124 600.473 319.018V317.66C600.473 316.568 601.061 315.966 601.985 315.966C602.923 315.966 603.511 316.568 603.511 317.66V319.018C603.511 320.124 602.923 320.726 601.985 320.726ZM608.928 322V317.52C608.928 316.722 609.558 316.386 610.762 316.386H611.322V314.692H610.93C609.768 314.692 609.18 315.434 608.998 316.204H608.928V314.692H607.136V322H608.928ZM612.792 322H614.584V319.774L615.55 318.724L617.426 322H619.554L616.768 317.52L619.288 314.692H617.258L615.62 316.568L614.654 317.884H614.584V311.64H612.792V322ZM624.394 322H626.144V314.986H626.2L626.956 316.54L628.958 320.236L630.96 316.54L631.716 314.986H631.772V322H633.522V312.228H631.52L629.042 317.002H628.986L626.48 312.228H624.394V322ZM637.678 322.168C638.77 322.168 639.568 321.678 639.806 320.74H639.89C640.002 321.496 640.478 322 641.248 322H642.242V320.572H641.514V317.128C641.514 315.462 640.464 314.524 638.49 314.524C637.02 314.524 636.166 315.084 635.634 315.924L636.698 316.876C637.048 316.372 637.524 315.952 638.364 315.952C639.316 315.952 639.722 316.428 639.722 317.24V317.772H638.476C636.488 317.772 635.354 318.514 635.354 320.012C635.354 321.314 636.194 322.168 637.678 322.168ZM638.28 320.866C637.58 320.866 637.174 320.572 637.174 319.984V319.746C637.174 319.172 637.636 318.85 638.574 318.85H639.722V319.816C639.722 320.502 639.078 320.866 638.28 320.866ZM645.644 322V317.17C645.644 316.386 646.358 315.994 647.1 315.994C647.954 315.994 648.304 316.526 648.304 317.562V322H650.096V317.38C650.096 315.56 649.256 314.524 647.758 314.524C646.624 314.524 646.008 315.126 645.714 315.91H645.644V314.692H643.852V322H645.644ZM654.049 322.168C655.141 322.168 655.939 321.678 656.177 320.74H656.261C656.373 321.496 656.849 322 657.619 322H658.613V320.572H657.885V317.128C657.885 315.462 656.835 314.524 654.861 314.524C653.391 314.524 652.537 315.084 652.005 315.924L653.069 316.876C653.419 316.372 653.895 315.952 654.735 315.952C655.687 315.952 656.093 316.428 656.093 317.24V317.772H654.847C652.859 317.772 651.725 318.514 651.725 320.012C651.725 321.314 652.565 322.168 654.049 322.168ZM654.651 320.866C653.951 320.866 653.545 320.572 653.545 319.984V319.746C653.545 319.172 654.007 318.85 654.945 318.85H656.093V319.816C656.093 320.502 655.449 320.866 654.651 320.866ZM666.817 322.616C666.817 321.3 666.047 320.53 664.255 320.53H662.295C661.651 320.53 661.343 320.348 661.343 319.984C661.343 319.662 661.581 319.452 661.861 319.326C662.183 319.41 662.561 319.452 662.981 319.452C664.969 319.452 666.005 318.472 666.005 317.002C666.005 316.106 665.627 315.392 664.871 314.972V314.776H666.425V313.404H665.291C664.619 313.404 664.255 313.754 664.255 314.468V314.706C663.891 314.58 663.429 314.524 662.981 314.524C661.007 314.524 659.957 315.518 659.957 317.002C659.957 317.968 660.405 318.724 661.287 319.13V319.186C660.587 319.34 659.943 319.718 659.943 320.474C659.943 321.062 660.279 321.538 660.881 321.692V321.846C660.069 321.972 659.579 322.434 659.579 323.246C659.579 324.324 660.517 324.968 662.981 324.968C665.781 324.968 666.817 324.142 666.817 322.616ZM665.137 322.826C665.137 323.442 664.619 323.736 663.457 323.736H662.561C661.441 323.736 661.021 323.4 661.021 322.84C661.021 322.546 661.133 322.28 661.399 322.084H663.891C664.801 322.084 665.137 322.364 665.137 322.826ZM662.981 318.234C662.127 318.234 661.665 317.842 661.665 317.114V316.876C661.665 316.134 662.127 315.756 662.981 315.756C663.835 315.756 664.297 316.134 664.297 316.876V317.114C664.297 317.842 663.835 318.234 662.981 318.234ZM670.884 322.168C672.242 322.168 673.306 321.65 673.908 320.824L672.942 319.746C672.494 320.32 671.962 320.74 671.08 320.74C669.904 320.74 669.302 320.026 669.302 318.976V318.794H674.16V318.206C674.16 316.204 673.11 314.524 670.828 314.524C668.686 314.524 667.44 316.022 667.44 318.332C667.44 320.67 668.728 322.168 670.884 322.168ZM670.856 315.868C671.78 315.868 672.298 316.554 672.298 317.562V317.688H669.302V317.576C669.302 316.568 669.918 315.868 670.856 315.868ZM677.688 322V317.17C677.688 316.386 678.36 315.994 679.046 315.994C679.844 315.994 680.222 316.512 680.222 317.562V322H682.014V317.17C682.014 316.386 682.672 315.994 683.372 315.994C684.17 315.994 684.548 316.512 684.548 317.562V322H686.34V317.38C686.34 315.56 685.528 314.524 684.1 314.524C682.938 314.524 682.126 315.182 681.86 315.994H681.832C681.482 315.014 680.712 314.524 679.718 314.524C678.626 314.524 678.038 315.14 677.758 315.91H677.688V314.692H675.896V322H677.688ZM691.438 322.168C692.796 322.168 693.86 321.65 694.462 320.824L693.496 319.746C693.048 320.32 692.516 320.74 691.634 320.74C690.458 320.74 689.856 320.026 689.856 318.976V318.794H694.714V318.206C694.714 316.204 693.664 314.524 691.382 314.524C689.24 314.524 687.994 316.022 687.994 318.332C687.994 320.67 689.282 322.168 691.438 322.168ZM691.41 315.868C692.334 315.868 692.852 316.554 692.852 317.562V317.688H689.856V317.576C689.856 316.568 690.472 315.868 691.41 315.868ZM698.243 322V317.17C698.243 316.386 698.957 315.994 699.699 315.994C700.553 315.994 700.903 316.526 700.903 317.562V322H702.695V317.38C702.695 315.56 701.855 314.524 700.357 314.524C699.223 314.524 698.607 315.126 698.313 315.91H698.243V314.692H696.451V322H698.243ZM707.123 322H708.411V320.572H707.025V316.12H708.523V314.692H707.025V312.69H705.415V313.936C705.415 314.44 705.247 314.692 704.715 314.692H704.155V316.12H705.233V320.138C705.233 321.328 705.891 322 707.123 322Z" fill="black"/>
<path d="M599.897 340L603.187 330.228H601.969L600.345 335.156L599.239 338.824H599.169L598.091 335.156L596.481 330.228H595.221L598.469 340H599.897ZM604.934 340H606.082V331.768H606.152L606.978 333.406L609.316 337.662L611.654 333.406L612.48 331.768H612.55V340H613.698V330.228H612.186L609.372 335.492H609.302L606.502 330.228H604.934V340ZM617.52 340H618.878L619.886 336.528L620.502 334.33H620.53L621.16 336.528L622.168 340H623.554L625.472 332.776H624.422L623.638 335.898L622.896 339.062H622.868L621.972 335.898L621.034 332.776H620.04L619.13 335.898L618.248 339.062H618.22L617.45 335.898L616.68 332.776H615.588L617.52 340ZM633.007 340V339.02H632.181V335.044C632.181 333.518 631.145 332.608 629.409 332.608C628.107 332.608 627.239 333.252 626.847 334.022L627.519 334.652C627.911 333.994 628.485 333.574 629.353 333.574C630.501 333.574 631.061 334.134 631.061 335.156V335.87H629.633C627.533 335.87 626.553 336.626 626.553 337.984C626.553 339.328 627.449 340.168 628.975 340.168C629.983 340.168 630.753 339.706 631.061 338.824H631.131C631.215 339.496 631.551 340 632.377 340H633.007ZM629.157 339.216C628.289 339.216 627.729 338.81 627.729 338.096V337.802C627.729 337.102 628.303 336.71 629.577 336.71H631.061V337.9C631.061 338.642 630.263 339.216 629.157 339.216ZM635.885 340V335.1C635.885 334.414 636.613 333.896 637.817 333.896H638.475V332.776H638.041C636.865 332.776 636.207 333.42 635.955 334.106H635.885V332.776H634.765V340H635.885ZM642.714 340.168C644.072 340.168 645.108 339.496 645.57 338.516L644.772 337.942C644.394 338.74 643.694 339.188 642.784 339.188C641.44 339.188 640.642 338.25 640.642 337.004V336.668H645.836V336.136C645.836 334.092 644.646 332.608 642.714 332.608C640.754 332.608 639.466 334.092 639.466 336.388C639.466 338.684 640.754 340.168 642.714 340.168ZM642.714 333.546C643.862 333.546 644.632 334.4 644.632 335.674V335.828H640.642V335.73C640.642 334.47 641.496 333.546 642.714 333.546ZM657.358 340H658.716V330.228H657.568V338.362H657.526L656.35 336.192L652.78 330.228H651.422V340H652.57V331.866H652.612L653.788 334.036L657.358 340ZM664.224 340.168C666.324 340.168 667.584 339.02 667.584 337.228C667.584 335.772 666.758 334.932 664.854 334.498L664.056 334.316C662.824 334.036 662.222 333.616 662.222 332.692C662.222 331.642 662.992 331.096 664.238 331.096C665.372 331.096 666.114 331.558 666.646 332.3L667.528 331.656C666.8 330.62 665.764 330.06 664.294 330.06C662.376 330.06 661.06 330.998 661.06 332.734C661.06 334.232 662.04 335.016 663.818 335.422L664.616 335.604C665.904 335.898 666.422 336.36 666.422 337.284C666.422 338.404 665.666 339.132 664.266 339.132C663.132 339.132 662.32 338.642 661.634 337.732L660.766 338.46C661.55 339.524 662.656 340.168 664.224 340.168ZM668.809 340H670.153L672.715 335.898H672.743L675.305 340H676.719L673.499 334.988L676.635 330.228H675.291L672.785 334.12H672.757L670.307 330.228H668.893L672.001 335.03L668.809 340Z" fill="black"/>
<rect x="332.5" y="366.5" width="415" height="153" fill="white"/>
<rect x="333" y="367" width="414" height="152" fill="#F4F4F4"/>
<g clip-path="url(#clip4_704_36456)">
<path d="M386.996 395V391.276H389.544C391.35 391.276 392.442 390.072 392.442 388.252C392.442 386.446 391.35 385.228 389.544 385.228H385.148V395H386.996ZM386.996 386.838H389.376C390.09 386.838 390.524 387.216 390.524 387.93V388.574C390.524 389.288 390.09 389.68 389.376 389.68H386.996V386.838ZM394.165 395H395.957V390.17C395.957 389.386 396.671 388.994 397.413 388.994C398.267 388.994 398.617 389.526 398.617 390.562V395H400.409V390.38C400.409 388.56 399.569 387.524 398.071 387.524C396.937 387.524 396.321 388.126 396.027 388.91H395.957V384.64H394.165V395ZM405.652 391.556L405.148 393.404H405.064L404.588 391.556L403.314 387.692H401.536L404.154 395.35L403.818 396.372H402.502V397.8H403.58C404.784 397.8 405.302 397.352 405.666 396.302L408.606 387.692H406.926L405.652 391.556ZM412.232 395.168C414.052 395.168 415.242 394.188 415.242 392.774C415.242 391.556 414.472 390.842 412.876 390.618L412.134 390.52C411.448 390.408 411.182 390.184 411.182 389.694C411.182 389.246 411.518 388.938 412.288 388.938C413.002 388.938 413.618 389.274 414.038 389.722L415.088 388.672C414.388 387.944 413.66 387.524 412.232 387.524C410.566 387.524 409.46 388.42 409.46 389.834C409.46 391.164 410.328 391.85 411.896 392.046L412.624 392.144C413.268 392.228 413.52 392.494 413.52 392.914C413.52 393.432 413.156 393.754 412.302 393.754C411.476 393.754 410.832 393.376 410.3 392.76L409.208 393.824C409.936 394.664 410.846 395.168 412.232 395.168ZM417.881 386.628C418.609 386.628 418.931 386.25 418.931 385.732V385.452C418.931 384.934 418.609 384.556 417.881 384.556C417.139 384.556 416.831 384.934 416.831 385.452V385.732C416.831 386.25 417.139 386.628 417.881 386.628ZM416.985 395H418.777V387.692H416.985V395ZM423.898 395.168C425.312 395.168 426.334 394.524 426.81 393.236L425.438 392.578C425.172 393.236 424.752 393.726 423.898 393.726C422.904 393.726 422.4 393.04 422.4 392.018V390.688C422.4 389.666 422.904 388.966 423.898 388.966C424.668 388.966 425.13 389.414 425.298 390.03L426.768 389.372C426.334 388.224 425.368 387.524 423.898 387.524C421.742 387.524 420.524 388.994 420.524 391.332C420.524 393.684 421.742 395.168 423.898 395.168ZM430.157 395.168C431.249 395.168 432.047 394.678 432.285 393.74H432.369C432.481 394.496 432.957 395 433.727 395H434.721V393.572H433.993V390.128C433.993 388.462 432.943 387.524 430.969 387.524C429.499 387.524 428.645 388.084 428.113 388.924L429.177 389.876C429.527 389.372 430.003 388.952 430.843 388.952C431.795 388.952 432.201 389.428 432.201 390.24V390.772H430.955C428.967 390.772 427.833 391.514 427.833 393.012C427.833 394.314 428.673 395.168 430.157 395.168ZM430.759 393.866C430.059 393.866 429.653 393.572 429.653 392.984V392.746C429.653 392.172 430.115 391.85 431.053 391.85H432.201V392.816C432.201 393.502 431.557 393.866 430.759 393.866ZM439.09 395V393.572H438.124V384.64H436.332V393.236C436.332 394.356 436.906 395 438.124 395H439.09ZM444.972 386.628C445.7 386.628 446.022 386.25 446.022 385.732V385.452C446.022 384.934 445.7 384.556 444.972 384.556C444.23 384.556 443.922 384.934 443.922 385.452V385.732C443.922 386.25 444.23 386.628 444.972 386.628ZM444.076 395H445.868V387.692H444.076V395ZM449.897 395V390.17C449.897 389.386 450.611 388.994 451.353 388.994C452.207 388.994 452.557 389.526 452.557 390.562V395H454.349V390.38C454.349 388.56 453.509 387.524 452.011 387.524C450.877 387.524 450.261 388.126 449.967 388.91H449.897V387.692H448.105V395H449.897ZM456.859 395H458.651V389.106H460.149V387.692H458.651V386.068H460.149V384.64H458.875C457.559 384.64 456.859 385.354 456.859 386.642V387.692H455.781V389.106H456.859V395ZM463.342 395V390.52C463.342 389.722 463.972 389.386 465.176 389.386H465.736V387.692H465.344C464.182 387.692 463.594 388.434 463.412 389.204H463.342V387.692H461.55V395H463.342ZM468.861 395.168C469.953 395.168 470.751 394.678 470.989 393.74H471.073C471.185 394.496 471.661 395 472.431 395H473.425V393.572H472.697V390.128C472.697 388.462 471.647 387.524 469.673 387.524C468.203 387.524 467.349 388.084 466.817 388.924L467.881 389.876C468.231 389.372 468.707 388.952 469.547 388.952C470.499 388.952 470.905 389.428 470.905 390.24V390.772H469.659C467.671 390.772 466.537 391.514 466.537 393.012C466.537 394.314 467.377 395.168 468.861 395.168ZM469.463 393.866C468.763 393.866 468.357 393.572 468.357 392.984V392.746C468.357 392.172 468.819 391.85 469.757 391.85H470.905V392.816C470.905 393.502 470.261 393.866 469.463 393.866ZM477.43 395.168C479.25 395.168 480.44 394.188 480.44 392.774C480.44 391.556 479.67 390.842 478.074 390.618L477.332 390.52C476.646 390.408 476.38 390.184 476.38 389.694C476.38 389.246 476.716 388.938 477.486 388.938C478.2 388.938 478.816 389.274 479.236 389.722L480.286 388.672C479.586 387.944 478.858 387.524 477.43 387.524C475.764 387.524 474.658 388.42 474.658 389.834C474.658 391.164 475.526 391.85 477.094 392.046L477.822 392.144C478.466 392.228 478.718 392.494 478.718 392.914C478.718 393.432 478.354 393.754 477.5 393.754C476.674 393.754 476.03 393.376 475.498 392.76L474.406 393.824C475.134 394.664 476.044 395.168 477.43 395.168ZM484.355 395H485.643V393.572H484.257V389.12H485.755V387.692H484.257V385.69H482.647V386.936C482.647 387.44 482.479 387.692 481.947 387.692H481.387V389.12H482.465V393.138C482.465 394.328 483.123 395 484.355 395ZM489.261 395V390.52C489.261 389.722 489.891 389.386 491.095 389.386H491.655V387.692H491.263C490.101 387.692 489.513 388.434 489.331 389.204H489.261V387.692H487.469V395H489.261ZM497.493 395H499.285V387.692H497.493V392.522C497.493 393.306 496.779 393.684 496.065 393.684C495.211 393.684 494.833 393.138 494.833 392.13V387.692H493.041V392.312C493.041 394.132 493.881 395.168 495.379 395.168C496.583 395.168 497.171 394.51 497.423 393.782H497.493V395ZM504.4 395.168C505.814 395.168 506.836 394.524 507.312 393.236L505.94 392.578C505.674 393.236 505.254 393.726 504.4 393.726C503.406 393.726 502.902 393.04 502.902 392.018V390.688C502.902 389.666 503.406 388.966 504.4 388.966C505.17 388.966 505.632 389.414 505.8 390.03L507.27 389.372C506.836 388.224 505.87 387.524 504.4 387.524C502.244 387.524 501.026 388.994 501.026 391.332C501.026 393.684 502.244 395.168 504.4 395.168ZM511.135 395H512.423V393.572H511.037V389.12H512.535V387.692H511.037V385.69H509.427V386.936C509.427 387.44 509.259 387.692 508.727 387.692H508.167V389.12H509.245V393.138C509.245 394.328 509.903 395 511.135 395ZM518.618 395H520.41V387.692H518.618V392.522C518.618 393.306 517.904 393.684 517.19 393.684C516.336 393.684 515.958 393.138 515.958 392.13V387.692H514.166V392.312C514.166 394.132 515.006 395.168 516.504 395.168C517.708 395.168 518.296 394.51 518.548 393.782H518.618V395ZM524.432 395V390.52C524.432 389.722 525.062 389.386 526.266 389.386H526.826V387.692H526.434C525.272 387.692 524.684 388.434 524.502 389.204H524.432V387.692H522.64V395H524.432ZM531.182 395.168C532.54 395.168 533.604 394.65 534.206 393.824L533.24 392.746C532.792 393.32 532.26 393.74 531.378 393.74C530.202 393.74 529.6 393.026 529.6 391.976V391.794H534.458V391.206C534.458 389.204 533.408 387.524 531.126 387.524C528.984 387.524 527.738 389.022 527.738 391.332C527.738 393.67 529.026 395.168 531.182 395.168ZM531.154 388.868C532.078 388.868 532.596 389.554 532.596 390.562V390.688H529.6V390.576C529.6 389.568 530.216 388.868 531.154 388.868Z" fill="black"/>
<rect width="20" height="20" transform="translate(348 380)" fill="white" style="mix-blend-mode:multiply"/>
<path d="M366.75 396.25H359.25V397.5H366.75V396.25Z" fill="black"/>
<path d="M366.75 393.125H359.25V394.375H366.75V393.125Z" fill="black"/>
<path d="M366.75 390H359.25V391.25H366.75V390Z" fill="black"/>
<path d="M356.75 395.625H353.937C352.766 395.626 351.637 395.187 350.773 394.397C349.909 393.606 349.372 392.521 349.268 391.354C349.165 390.188 349.502 389.025 350.213 388.094C350.924 387.164 351.958 386.533 353.111 386.327C353.404 384.8 354.255 383.436 355.499 382.503C356.743 381.569 358.291 381.133 359.839 381.28C361.387 381.426 362.825 382.145 363.872 383.295C364.919 384.445 365.499 385.945 365.5 387.5H364.25C364.25 386.221 363.76 384.991 362.881 384.062C362.002 383.133 360.8 382.577 359.523 382.507C358.246 382.437 356.991 382.86 356.016 383.687C355.041 384.515 354.42 385.685 354.281 386.956L354.225 387.477L353.702 387.512C352.812 387.572 351.981 387.976 351.383 388.637C350.786 389.299 350.469 390.167 350.499 391.058C350.53 391.949 350.906 392.793 351.547 393.412C352.189 394.031 353.046 394.376 353.937 394.375H356.75V395.625Z" fill="black"/>
<line x1="334" y1="366" x2="334" y2="414" stroke="#8D8D8D" stroke-width="4"/>
</g>
<rect x="332.5" y="366.5" width="415" height="153" stroke="#8D8D8D"/>
<rect width="76" height="74" transform="translate(350 430)" fill="white" style="mix-blend-mode:multiply"/>
<rect width="48" height="48" transform="translate(364 430)" fill="#8D8D8D"/>
<g clip-path="url(#clip5_704_36456)">
<rect width="20" height="20" transform="translate(378 444)" fill="white" style="mix-blend-mode:multiply"/>
<path d="M390.5 452.125H385.5C385.169 452.125 384.851 452.257 384.617 452.492C384.382 452.726 384.25 453.044 384.25 453.375V461.5C384.25 461.831 384.382 462.149 384.617 462.383C384.851 462.618 385.169 462.75 385.5 462.75H390.5C390.831 462.75 391.149 462.618 391.383 462.383C391.618 462.149 391.75 461.831 391.75 461.5V453.375C391.75 453.044 391.618 452.726 391.383 452.492C391.149 452.257 390.831 452.125 390.5 452.125ZM390.5 453.375V455.25H385.5V453.375H390.5ZM390.5 456.5V458.375H385.5V456.5H390.5ZM385.5 461.5V459.625H390.5V461.5H385.5Z" fill="white"/>
<path d="M394.194 450.331C394.179 450.329 394.165 450.321 394.154 450.311C394.144 450.3 394.136 450.287 394.133 450.272C393.888 449.054 393.287 447.938 392.405 447.063C391.523 446.189 390.401 445.598 389.181 445.364C387.561 445.051 385.883 445.391 384.512 446.31C383.142 447.23 382.191 448.654 381.866 450.272C381.863 450.287 381.856 450.3 381.845 450.311C381.834 450.321 381.821 450.329 381.806 450.332C380.661 450.551 379.638 451.19 378.938 452.122C378.238 453.055 377.911 454.215 378.021 455.376C378.13 456.537 378.668 457.616 379.53 458.402C380.392 459.187 381.516 459.623 382.682 459.625H383V458.375H382.685C382.191 458.374 381.704 458.266 381.256 458.06C380.808 457.855 380.409 457.555 380.087 457.181C379.765 456.808 379.526 456.37 379.388 455.897C379.25 455.423 379.215 454.926 379.285 454.438C379.411 453.705 379.763 453.031 380.291 452.509C380.82 451.986 381.498 451.642 382.232 451.525L382.867 451.41C382.883 451.407 382.898 451.399 382.91 451.388C382.921 451.376 382.929 451.361 382.932 451.345L383.045 450.761C383.231 449.7 383.743 448.725 384.511 447.969C385.278 447.214 386.261 446.717 387.324 446.547C387.917 446.465 388.52 446.492 389.104 446.624C390.072 446.86 390.95 447.372 391.633 448.099C392.315 448.825 392.771 449.734 392.946 450.715L393.067 451.345C393.07 451.361 393.078 451.376 393.09 451.388C393.101 451.399 393.116 451.407 393.132 451.41L393.793 451.53C394.522 451.645 395.199 451.98 395.732 452.491C396.215 452.971 396.545 453.583 396.681 454.251C396.816 454.918 396.75 455.61 396.492 456.24C396.233 456.87 395.794 457.41 395.228 457.79C394.663 458.17 393.998 458.373 393.317 458.375H393V459.625H393.317C394.484 459.624 395.608 459.188 396.47 458.402C397.332 457.617 397.871 456.538 397.98 455.377C398.09 454.215 397.762 453.055 397.062 452.122C396.362 451.189 395.339 450.551 394.194 450.331Z" fill="white"/>
</g>
<path d="M363.006 500.168C364.756 500.168 365.918 499.314 366.618 497.858L365.12 496.976C364.798 497.858 364.112 498.53 363.006 498.53C361.634 498.53 360.752 497.578 360.752 495.898V494.358C360.752 492.692 361.634 491.698 363.006 491.698C364.098 491.698 364.714 492.286 364.994 493.154L366.576 492.314C365.89 490.802 364.756 490.06 363.006 490.06C360.43 490.06 358.792 491.894 358.792 495.184C358.792 498.474 360.43 500.168 363.006 500.168ZM371.14 500.168C373.24 500.168 374.542 498.684 374.542 496.332C374.542 493.994 373.24 492.524 371.14 492.524C369.054 492.524 367.752 493.994 367.752 496.332C367.752 498.684 369.054 500.168 371.14 500.168ZM371.14 498.726C370.216 498.726 369.628 498.124 369.628 497.018V495.66C369.628 494.568 370.216 493.966 371.14 493.966C372.078 493.966 372.666 494.568 372.666 495.66V497.018C372.666 498.124 372.078 498.726 371.14 498.726ZM378.083 500V495.17C378.083 494.386 378.755 493.994 379.441 493.994C380.239 493.994 380.617 494.512 380.617 495.562V500H382.409V495.17C382.409 494.386 383.067 493.994 383.767 493.994C384.565 493.994 384.943 494.512 384.943 495.562V500H386.735V495.38C386.735 493.56 385.923 492.524 384.495 492.524C383.333 492.524 382.521 493.182 382.255 493.994H382.227C381.877 493.014 381.107 492.524 380.113 492.524C379.021 492.524 378.433 493.14 378.153 493.91H378.083V492.692H376.291V500H378.083ZM388.879 502.8H390.671V498.782H390.727C391.007 499.608 391.777 500.168 392.743 500.168C394.591 500.168 395.613 498.782 395.613 496.332C395.613 493.896 394.591 492.524 392.743 492.524C391.777 492.524 390.993 493.056 390.727 493.896H390.671V492.692H388.879V502.8ZM392.169 498.684C391.315 498.684 390.671 498.25 390.671 497.494V495.17C390.671 494.456 391.315 493.994 392.169 493.994C393.093 493.994 393.737 494.68 393.737 495.716V496.976C393.737 498.012 393.093 498.684 392.169 498.684ZM401.801 500H403.593V492.692H401.801V497.522C401.801 498.306 401.087 498.684 400.373 498.684C399.519 498.684 399.141 498.138 399.141 497.13V492.692H397.349V497.312C397.349 499.132 398.189 500.168 399.687 500.168C400.891 500.168 401.479 499.51 401.731 498.782H401.801V500ZM408.106 500H409.394V498.572H408.008V494.12H409.506V492.692H408.008V490.69H406.398V491.936C406.398 492.44 406.23 492.692 405.698 492.692H405.138V494.12H406.216V498.138C406.216 499.328 406.874 500 408.106 500ZM414.119 500.168C415.477 500.168 416.541 499.65 417.143 498.824L416.177 497.746C415.729 498.32 415.197 498.74 414.315 498.74C413.139 498.74 412.537 498.026 412.537 496.976V496.794H417.395V496.206C417.395 494.204 416.345 492.524 414.063 492.524C411.921 492.524 410.675 494.022 410.675 496.332C410.675 498.67 411.963 500.168 414.119 500.168ZM414.091 493.868C415.015 493.868 415.533 494.554 415.533 495.562V495.688H412.537V495.576C412.537 494.568 413.153 493.868 414.091 493.868Z" fill="black"/>
<rect width="76" height="74" transform="translate(503 430)" fill="white" style="mix-blend-mode:multiply"/>
<rect width="48" height="48" transform="translate(517 430)" fill="#8D8D8D"/>
<rect width="20" height="20" transform="translate(531 444)" fill="white" style="mix-blend-mode:multiply"/>
<path d="M536.625 448.375C536.97 448.375 537.25 448.095 537.25 447.75C537.25 447.405 536.97 447.125 536.625 447.125C536.28 447.125 536 447.405 536 447.75C536 448.095 536.28 448.375 536.625 448.375Z" fill="white"/>
<path d="M547.25 450.25H534.75C534.419 450.25 534.101 450.118 533.867 449.883C533.632 449.649 533.5 449.331 533.5 449V446.5C533.5 446.169 533.632 445.851 533.867 445.617C534.101 445.382 534.419 445.25 534.75 445.25H547.25C547.581 445.25 547.899 445.382 548.133 445.617C548.368 445.851 548.5 446.169 548.5 446.5V449C548.5 449.331 548.368 449.649 548.133 449.883C547.899 450.118 547.581 450.25 547.25 450.25ZM534.75 446.5V449H547.25V446.5H534.75Z" fill="white"/>
<path d="M536.625 454.625C536.97 454.625 537.25 454.345 537.25 454C537.25 453.655 536.97 453.375 536.625 453.375C536.28 453.375 536 453.655 536 454C536 454.345 536.28 454.625 536.625 454.625Z" fill="white"/>
<path d="M547.25 456.5H534.75C534.419 456.5 534.101 456.368 533.867 456.133C533.632 455.899 533.5 455.581 533.5 455.25V452.75C533.5 452.419 533.632 452.101 533.867 451.867C534.101 451.632 534.419 451.5 534.75 451.5H547.25C547.581 451.5 547.899 451.632 548.133 451.867C548.368 452.101 548.5 452.419 548.5 452.75V455.25C548.5 455.581 548.368 455.899 548.133 456.133C547.899 456.368 547.581 456.5 547.25 456.5ZM534.75 452.75V455.25H547.25V452.75H534.75Z" fill="white"/>
<path d="M536.625 460.875C536.97 460.875 537.25 460.595 537.25 460.25C537.25 459.905 536.97 459.625 536.625 459.625C536.28 459.625 536 459.905 536 460.25C536 460.595 536.28 460.875 536.625 460.875Z" fill="white"/>
<path d="M547.25 462.75H534.75C534.419 462.75 534.101 462.618 533.867 462.383C533.632 462.149 533.5 461.831 533.5 461.5V459C533.5 458.669 533.632 458.351 533.867 458.117C534.101 457.882 534.419 457.75 534.75 457.75H547.25C547.581 457.75 547.899 457.882 548.133 458.117C548.368 458.351 548.5 458.669 548.5 459V461.5C548.5 461.831 548.368 462.149 548.133 462.383C547.899 462.618 547.581 462.75 547.25 462.75ZM534.75 459V461.5H547.25V459H534.75Z" fill="white"/>
<path d="M519.659 500.168C521.997 500.168 523.327 498.908 523.327 497.06C523.327 495.45 522.403 494.568 520.429 494.218L519.519 494.05C518.581 493.882 518.161 493.574 518.161 492.832C518.161 492.104 518.707 491.684 519.757 491.684C520.793 491.684 521.465 492.09 521.941 492.692L523.201 491.502C522.417 490.564 521.325 490.06 519.855 490.06C517.671 490.06 516.313 491.194 516.313 492.944C516.313 494.54 517.265 495.478 519.239 495.786L520.163 495.926C521.185 496.108 521.493 496.514 521.493 497.172C521.493 497.998 520.905 498.544 519.771 498.544C518.763 498.544 517.937 498.124 517.265 497.34L516.019 498.544C516.845 499.51 517.993 500.168 519.659 500.168ZM527.455 500H528.743V498.572H527.357V494.12H528.855V492.692H527.357V490.69H525.747V491.936C525.747 492.44 525.579 492.692 525.047 492.692H524.487V494.12H525.565V498.138C525.565 499.328 526.223 500 527.455 500ZM533.413 500.168C535.513 500.168 536.815 498.684 536.815 496.332C536.815 493.994 535.513 492.524 533.413 492.524C531.327 492.524 530.025 493.994 530.025 496.332C530.025 498.684 531.327 500.168 533.413 500.168ZM533.413 498.726C532.489 498.726 531.901 498.124 531.901 497.018V495.66C531.901 494.568 532.489 493.966 533.413 493.966C534.351 493.966 534.939 494.568 534.939 495.66V497.018C534.939 498.124 534.351 498.726 533.413 498.726ZM540.355 500V495.52C540.355 494.722 540.985 494.386 542.189 494.386H542.749V492.692H542.357C541.195 492.692 540.607 493.434 540.425 494.204H540.355V492.692H538.563V500H540.355ZM545.875 500.168C546.967 500.168 547.765 499.678 548.003 498.74H548.087C548.199 499.496 548.675 500 549.445 500H550.439V498.572H549.711V495.128C549.711 493.462 548.661 492.524 546.687 492.524C545.217 492.524 544.363 493.084 543.831 493.924L544.895 494.876C545.245 494.372 545.721 493.952 546.561 493.952C547.513 493.952 547.919 494.428 547.919 495.24V495.772H546.673C544.685 495.772 543.551 496.514 543.551 498.012C543.551 499.314 544.391 500.168 545.875 500.168ZM546.477 498.866C545.777 498.866 545.371 498.572 545.371 497.984V497.746C545.371 497.172 545.833 496.85 546.771 496.85H547.919V497.816C547.919 498.502 547.275 498.866 546.477 498.866ZM558.643 500.616C558.643 499.3 557.873 498.53 556.081 498.53H554.121C553.477 498.53 553.169 498.348 553.169 497.984C553.169 497.662 553.407 497.452 553.687 497.326C554.009 497.41 554.387 497.452 554.807 497.452C556.795 497.452 557.831 496.472 557.831 495.002C557.831 494.106 557.453 493.392 556.697 492.972V492.776H558.251V491.404H557.117C556.445 491.404 556.081 491.754 556.081 492.468V492.706C555.717 492.58 555.255 492.524 554.807 492.524C552.833 492.524 551.783 493.518 551.783 495.002C551.783 495.968 552.231 496.724 553.113 497.13V497.186C552.413 497.34 551.769 497.718 551.769 498.474C551.769 499.062 552.105 499.538 552.707 499.692V499.846C551.895 499.972 551.405 500.434 551.405 501.246C551.405 502.324 552.343 502.968 554.807 502.968C557.607 502.968 558.643 502.142 558.643 500.616ZM556.963 500.826C556.963 501.442 556.445 501.736 555.283 501.736H554.387C553.267 501.736 552.847 501.4 552.847 500.84C552.847 500.546 552.959 500.28 553.225 500.084H555.717C556.627 500.084 556.963 500.364 556.963 500.826ZM554.807 496.234C553.953 496.234 553.491 495.842 553.491 495.114V494.876C553.491 494.134 553.953 493.756 554.807 493.756C555.661 493.756 556.123 494.134 556.123 494.876V495.114C556.123 495.842 555.661 496.234 554.807 496.234ZM562.71 500.168C564.068 500.168 565.132 499.65 565.734 498.824L564.768 497.746C564.32 498.32 563.788 498.74 562.906 498.74C561.73 498.74 561.128 498.026 561.128 496.976V496.794H565.986V496.206C565.986 494.204 564.936 492.524 562.654 492.524C560.512 492.524 559.266 494.022 559.266 496.332C559.266 498.67 560.554 500.168 562.71 500.168ZM562.682 493.868C563.606 493.868 564.124 494.554 564.124 495.562V495.688H561.128V495.576C561.128 494.568 561.744 493.868 562.682 493.868Z" fill="black"/>
<rect width="76" height="74" transform="translate(656 430)" fill="white" style="mix-blend-mode:multiply"/>
<rect width="48" height="48" transform="translate(670 430)" fill="#8D8D8D"/>
<rect width="20" height="20" transform="translate(684 444)" fill="white" style="mix-blend-mode:multiply"/>
<path d="M698.062 452.125C695.125 452.125 692.75 454.5 692.75 457.438C692.75 460.375 695.125 462.75 698.062 462.75C701 462.75 703.375 460.375 703.375 457.438C703.375 454.5 701 452.125 698.062 452.125ZM702.125 457.125H700.25C700.25 455.875 700.063 454.625 699.688 453.688C701 454.312 702 455.562 702.125 457.125ZM698.062 461.5C697.813 461.375 697.25 460.375 697.125 458.375H698.937C698.812 460.375 698.312 461.375 698.062 461.5ZM697.125 457.125C697.187 454.75 697.812 453.5 698 453.375C698.25 453.5 698.875 454.75 698.937 457.125H697.125ZM696.437 453.688C696.062 454.625 695.937 455.875 695.875 457.125H694C694.125 455.562 695.125 454.312 696.437 453.688ZM694.125 458.375H695.875C695.937 459.375 696.125 460.375 696.437 461.188C695.312 460.687 694.438 459.625 694.125 458.375ZM699.688 461.188C700 460.375 700.187 459.437 700.25 458.375H702.062C701.687 459.625 700.813 460.687 699.688 461.188Z" fill="white"/>
<path d="M700.125 450.25C699.562 447.375 697 445.25 694 445.25C691 445.25 688.437 447.375 687.875 450.313C685.687 450.75 684 452.625 684 454.938C684 457.5 686.125 459.625 688.688 459.625H690.875V458.375H688.688C686.812 458.375 685.25 456.812 685.25 454.938C685.25 453.125 686.625 451.625 688.437 451.5H689V450.938C689.312 448.438 691.437 446.5 694 446.5C696.313 446.5 698.25 448.125 698.813 450.25H700.125Z" fill="white"/>
<path d="M672.558 500H674.588V490.228H672.838V497.27H672.796L671.788 495.24L668.848 490.228H666.818V500H668.568V492.958H668.61L669.618 494.988L672.558 500ZM679.883 500.168C681.241 500.168 682.305 499.65 682.907 498.824L681.941 497.746C681.493 498.32 680.961 498.74 680.079 498.74C678.903 498.74 678.301 498.026 678.301 496.976V496.794H683.159V496.206C683.159 494.204 682.109 492.524 679.827 492.524C677.685 492.524 676.439 494.022 676.439 496.332C676.439 498.67 677.727 500.168 679.883 500.168ZM679.855 493.868C680.779 493.868 681.297 494.554 681.297 495.562V495.688H678.301V495.576C678.301 494.568 678.917 493.868 679.855 493.868ZM687.178 500H688.466V498.572H687.08V494.12H688.578V492.692H687.08V490.69H685.47V491.936C685.47 492.44 685.302 492.692 684.77 492.692H684.21V494.12H685.288V498.138C685.288 499.328 685.946 500 687.178 500ZM691.594 500H693.498L694.422 496.78L694.954 494.792H694.996L695.542 496.78L696.48 500H698.412L700.414 492.692H698.748L698.02 495.702L697.446 498.208H697.39L696.704 495.702L695.822 492.692H694.198L693.344 495.702L692.672 498.208H692.616L692.042 495.702L691.3 492.692H689.578L691.594 500ZM704.698 500.168C706.798 500.168 708.1 498.684 708.1 496.332C708.1 493.994 706.798 492.524 704.698 492.524C702.612 492.524 701.31 493.994 701.31 496.332C701.31 498.684 702.612 500.168 704.698 500.168ZM704.698 498.726C703.774 498.726 703.186 498.124 703.186 497.018V495.66C703.186 494.568 703.774 493.966 704.698 493.966C705.636 493.966 706.224 494.568 706.224 495.66V497.018C706.224 498.124 705.636 498.726 704.698 498.726ZM711.64 500V495.52C711.64 494.722 712.27 494.386 713.474 494.386H714.034V492.692H713.642C712.48 492.692 711.892 493.434 711.71 494.204H711.64V492.692H709.848V500H711.64ZM715.504 500H717.296V497.774L718.262 496.724L720.138 500H722.266L719.48 495.52L722 492.692H719.97L718.332 494.568L717.366 495.884H717.296V489.64H715.504V500Z" fill="black"/>
<defs>
<clipPath id="clip0_704_36456">
<rect width="448" height="48" fill="white" transform="translate(316 70)"/>
</clipPath>
<clipPath id="clip1_704_36456">
<rect width="20" height="20" fill="white" transform="translate(332 84)"/>
</clipPath>
<clipPath id="clip2_704_36456">
<rect width="20" height="20" fill="white" transform="translate(426 150)"/>
</clipPath>
<clipPath id="clip3_704_36456">
<rect width="20" height="20" fill="white" transform="translate(426 266)"/>
</clipPath>
<clipPath id="clip4_704_36456">
<rect width="416" height="48" fill="white" transform="translate(332 366)"/>
</clipPath>
<clipPath id="clip5_704_36456">
<rect width="20" height="20" fill="white" transform="translate(378 444)"/>
</clipPath>
</defs>
</svg>
