<?xml version="1.0" encoding="UTF-8"?><svg xmlns="http://www.w3.org/2000/svg" viewBox="0 0 811.1 339.56"><defs><style>.cls-1,.cls-13{font-size:18px;}.cls-1,.cls-13,.cls-8{font-family:IBMPlexSerif, IBM Plex Serif;}.cls-2{letter-spacing:-0.05em;}.cls-3{letter-spacing:-0.01em;}.cls-4{letter-spacing:0em;}.cls-5{letter-spacing:-0.01em;}.cls-6{letter-spacing:-0.01em;}.cls-7{letter-spacing:0em;}.cls-8{font-size:22px;}.cls-13,.cls-8{fill:blue;}.cls-21,.cls-8{stroke:#000;}.cls-17,.cls-18,.cls-19,.cls-20,.cls-21,.cls-32,.cls-34,.cls-35,.cls-36,.cls-37,.cls-8{stroke-miterlimit:10;}.cls-9{letter-spacing:-0.02em;}.cls-10{letter-spacing:-0.01em;}.cls-11{letter-spacing:-0.01em;}.cls-12{letter-spacing:0em;}.cls-14{letter-spacing:0em;}.cls-15{letter-spacing:0.03em;}.cls-16{letter-spacing:-0.01em;}.cls-17,.cls-18,.cls-19,.cls-20,.cls-32,.cls-34,.cls-35,.cls-36,.cls-37{fill:none;}.cls-17{stroke:#3e70b2;stroke-width:4px;opacity:0.36;}.cls-18,.cls-19,.cls-20,.cls-32,.cls-34,.cls-35,.cls-36,.cls-37{stroke:#5b6872;}.cls-18,.cls-19,.cls-20,.cls-34,.cls-35,.cls-36,.cls-37{stroke-width:2px;}.cls-19{stroke-dasharray:11.98 11.98;}.cls-20{stroke-dasharray:11.83 11.83;}.cls-21{fill:#fff;}.cls-22{fill:#dfe3e5;}.cls-23{fill:#e61f33;}.cls-24{fill:#edc01b;}.cls-25{fill:#5aa745;}.cls-26{fill:#85cec7;}.cls-27{fill:#f37736;}.cls-28{fill:#8dc63f;}.cls-29{fill:#152935;}.cls-30{fill:#42535c;}.cls-31{fill:#8c9ba5;}.cls-33{fill:#5b6872;}.cls-34{stroke-dasharray:11.49 11.49;}.cls-35{stroke-dasharray:8.74 8.74;}.cls-36{stroke-dasharray:11.48 11.48;}.cls-37{stroke-dasharray:12.58 12.58;}</style></defs><g id="Text"><text class="cls-1" transform="translate(596.78 176.72)"><tspan class="cls-2">W</tspan><tspan x="16.96" y="0">eb UI</tspan></text><text class="cls-1" transform="translate(93.64 220.09)">NXLog</text><text class="cls-1" transform="translate(415.55 130.96)">IBM Log Anal<tspan class="cls-3" x="114.55" y="0">y</tspan><tspan class="cls-4" x="124.29" y="0">sis in</tspan><tspan class="cls-5" x="169.88" y="0">s</tspan><tspan x="178.74" y="0">tan</tspan><tspan class="cls-6" x="207.11" y="0">c</tspan><tspan class="cls-7" x="216.45" y="0">e</tspan></text><text class="cls-8" transform="translate(325.65 33.35)">IBM Cloud</text><text class="cls-1" transform="translate(408.57 75.88)"><tspan class="cls-9">R</tspan><tspan x="12.11" y="0">esour</tspan><tspan class="cls-6" x="61.06" y="0">c</tspan><tspan x="70.4" y="0">e Group</tspan></text><text class="cls-1" x="-99.35" y="-18.4"><tspan x="240.19" y="214.82" xml:space="preserve">     In</tspan><tspan class="cls-10" x="279.27" y="214.82">g</tspan><tspan x="289.22" y="214.82">e</tspan><tspan class="cls-11" x="299.1" y="214.82">s</tspan><tspan class="cls-7" x="307.96" y="214.82">tion </tspan><tspan class="cls-9" x="346.69" y="214.82">k</tspan><tspan class="cls-12" x="357.2" y="214.82">e</tspan><tspan x="367" y="214.82">y</tspan></text><text class="cls-13" transform="translate(19.82 94.47)"><tspan class="cls-9">W</tspan><tspan class="cls-4" x="17.5" y="0">ind</tspan><tspan class="cls-11" x="46.33" y="0">o</tspan><tspan class="cls-14" x="56.61" y="0">w</tspan><tspan x="70.88" y="0">s Se</tspan><tspan class="cls-15" x="104.74" y="0">r</tspan><tspan class="cls-16" x="113.52" y="0">v</tspan><tspan x="123.23" y="0">er</tspan></text><text x="-99.35" y="-18.4"/><text class="cls-1" transform="translate(36.17 281.68)">C:\\<tspan class="cls-6" x="30.56" y="0">P</tspan><tspan class="cls-7" x="41.89" y="0">rogramD</tspan><tspan class="cls-6" x="119.45" y="0">a</tspan><tspan class="cls-7" x="129.31" y="0">ta\\logs</tspan></text><text class="cls-1" transform="translate(58.04 156.72)">Cu<tspan class="cls-11" x="23.35" y="0">s</tspan><tspan class="cls-7" x="32.2" y="0">tom directories</tspan></text></g><g id="Lines_and_images" data-name="Lines and images"><rect class="cls-17" x="408.57" y="100.03" width="364.8" height="200.11"/><polyline class="cls-18" points="810.1 326.38 810.1 332.38 804.1 332.38"/><line class="cls-19" x1="792.12" y1="332.38" x2="318.98" y2="332.38"/><polyline class="cls-18" points="312.99 332.38 306.99 332.38 306.99 326.38"/><line class="cls-20" x1="306.99" y1="314.55" x2="306.99" y2="12.91"/><polyline class="cls-18" points="306.99 7 306.99 1 312.99 1"/><line class="cls-19" x1="324.96" y1="1" x2="798.11" y2="1"/><polyline class="cls-18" points="804.1 1 810.1 1 810.1 7"/><line class="cls-20" x1="810.1" y1="18.83" x2="810.1" y2="320.47"/><rect class="cls-21" x="596.78" y="185.07" width="62.88" height="49.76"/><rect class="cls-22" x="597.27" y="185.69" width="61.91" height="7.72"/><path class="cls-23" d="M702.18,207.55a2,2,0,1,1-2-2A2,2,0,0,1,702.18,207.55Z" transform="translate(-99.35 -18.4)"/><circle class="cls-24" cx="606.79" cy="189.2" r="2.03"/><path class="cls-25" d="M714,207.55a2,2,0,1,1-2-2A2,2,0,0,1,714,207.55Z" transform="translate(-99.35 -18.4)"/><ellipse class="cls-26" cx="615.09" cy="215.02" rx="11.72" ry="11.52"/><path class="cls-24" d="M714.44,233.9l4.56-11a11.65,11.65,0,0,1,5.88,5.38Z" transform="translate(-99.35 -18.4)"/><path class="cls-27" d="M714.44,233.79l10.44-5.55c1.65,2.53,1.69,7.12.21,10Z" transform="translate(-99.35 -18.4)"/><path class="cls-28" d="M714.62,233.74,713,222a12.19,12.19,0,0,1,6,.86Z" transform="translate(-99.35 -18.4)"/><rect class="cls-29" x="629.72" y="206.63" width="22.61" height="1.37"/><rect class="cls-29" x="629.72" y="209.97" width="22.61" height="1.37"/><rect class="cls-29" x="629.72" y="213.32" width="22.61" height="1.37"/><rect class="cls-29" x="629.72" y="216.67" width="22.61" height="1.37"/><rect class="cls-29" x="629.72" y="220.02" width="22.61" height="1.37"/><rect class="cls-29" x="629.72" y="223.37" width="22.61" height="1.37"/><path class="cls-30" d="M601.39,214.23H535.3v34.71l.17.1a6.83,6.83,0,0,0-.17,1.5c0,8.19,14.8,14.83,33.05,14.83s33-6.64,33-14.83a6.42,6.42,0,0,0-.17-1.51l.17-.09Z" transform="translate(-99.35 -18.4)"/><ellipse class="cls-31" cx="469" cy="195.83" rx="33.04" ry="14.83"/><line class="cls-32" x1="581.64" y1="205.97" x2="513.23" y2="205.97"/><polygon class="cls-33" points="580.18 200.98 588.82 205.97 580.18 210.95 580.18 200.98"/><rect class="cls-17" x="389.89" y="49.11" width="406.53" height="267.26"/><rect class="cls-17" x="2" y="64.21" width="251.43" height="273.35"/><line class="cls-32" x1="412.81" y1="218.09" x2="221.66" y2="218.09"/><polygon class="cls-33" points="411.35 213.1 419.98 218.09 411.35 223.07 411.35 213.1"/><polyline class="cls-18" points="206.39 226.93 206.39 232.93 200.39 232.93"/><line class="cls-34" x1="188.9" y1="232.93" x2="56.78" y2="232.93"/><polyline class="cls-18" points="51.04 232.93 45.04 232.93 45.04 226.93"/><line class="cls-35" x1="45.04" y1="218.2" x2="45.04" y2="205.09"/><polyline class="cls-18" points="45.04 200.72 45.04 194.72 51.04 194.72"/><line class="cls-34" x1="62.53" y1="194.72" x2="194.64" y2="194.72"/><polyline class="cls-18" points="200.39 194.72 206.39 194.72 206.39 200.72"/><line class="cls-35" x1="206.39" y1="209.46" x2="206.39" y2="222.57"/><polyline class="cls-18" points="244.8 310.37 244.8 316.37 238.8 316.37"/><line class="cls-36" x1="227.32" y1="316.37" x2="26.51" y2="316.37"/><polyline class="cls-18" points="20.77 316.37 14.77 316.37 14.77 310.37"/><line class="cls-37" x1="14.77" y1="297.79" x2="14.77" y2="127.89"/><polyline class="cls-18" points="14.77 121.6 14.77 115.6 20.77 115.6"/><line class="cls-36" x1="32.25" y1="115.6" x2="233.06" y2="115.6"/><polyline class="cls-18" points="238.8 115.6 244.8 115.6 244.8 121.6"/><line class="cls-37" x1="244.8" y1="134.18" x2="244.8" y2="304.08"/><rect class="cls-17" x="33.42" y="260.97" width="201.51" height="30.42"/><rect class="cls-17" x="45.04" y="134.09" width="189.89" height="31.69"/><line class="cls-32" x1="183.84" y1="181.24" x2="183.8" y2="166.02"/><polygon class="cls-33" points="188.82 179.77 183.86 188.41 178.85 179.79 188.82 179.77"/><line class="cls-32" x1="87.93" y1="244.99" x2="87.92" y2="260.41"/><polygon class="cls-33" points="82.94 246.45 87.93 237.81 92.91 246.45 82.94 246.45"/></g></svg>