<?xml version="1.0" encoding="utf-8"?>
<!-- Generator: Adobe Illustrator 21.0.0, SVG Export Plug-In . SVG Version: 6.00 Build 0)  -->
<svg version="1.1" id="_x38_3f4f5ec-2379-4569-9c2d-58c6b5478579"
	 xmlns="http://www.w3.org/2000/svg" xmlns:xlink="http://www.w3.org/1999/xlink" x="0px" y="0px" viewBox="0 0 784.1 458.6"
	 style="enable-background:new 0 0 784.1 458.6;" xml:space="preserve">
<style type="text/css">
	.st0{fill:#EDE9E7;}
	.st1{fill:#B9B4B4;}
	.st2{fill:#EDF5FF;stroke:#000F5E;stroke-width:0.75;stroke-miterlimit:10;stroke-dasharray:1,1;}
	.st3{fill:none;stroke:#6E177D;stroke-width:0.75;stroke-miterlimit:10;}
	.st4{fill:#FFFFFF;}
	.st5{fill:#6E177D;}
	.st6{font-family:'IBMPlexSans-Bold';}
	.st7{font-size:9px;}
</style>
<title>world-map_min</title>
<path id="_x33_989d687-79c1-4f58-8e49-7e4ea1b7c4ea" class="st0" d="M481.9,261.2l3.5,2.4l1,0l8.8-3l1,3.2l-0.7,2.7l-1.9,1.5
	l-4.7-0.3l-6.8-4.2L481.9,261.2L481.9,261.2z"/>
<path id="_x34_10a01f2-9ae7-4c0b-9d4d-f7439b25a87b" class="st0" d="M497.7,226.5l0.8,3l8.5,0.8l0.6-6.2l1.6-0.9l0.5-2.3l-2.7,0.8
	l-3,4.5L497.7,226.5L497.7,226.5z"/>
<path id="_x32_ab57ef6-5a6f-42dd-867e-5074112947b5" class="st0" d="M515.1,193.8l1.4,10.8l3.4,0.8l0.3,1.9l-2.5,2l4.6,3.7l8.9-3.2
	l0.7-3.8l5.6-3.5l2.2-8.1l1.6-1.7l-1.7-2.9l5.4-3.4l-0.7-1l-2.5,0.1l-0.2,2.3h-3.3l-0.1-3.1l-1.1-1.3l-1.8,1.6l0,1.5l-2.7,1
	l-5.1-0.3l-6.5,7L515.1,193.8L515.1,193.8z"/>
<path id="_x37_447d8fb-7d84-4b4d-82ba-d39cc833b6e0" class="st0" d="M419.9,178.9v4l1.1,2.1l0.8-0.1l1.4-2.6l-0.8-1.1l-0.3-2.8
	l-1.1-1L419.9,178.9L419.9,178.9z"/>
<path id="_x34_2d060e2-6456-424a-9270-aecc18fdb196" class="st0" d="M476.7,179l4.1,5.4l-1.2,1.4l-2.9-0.5L473,182l0.2-2.1
	L476.7,179L476.7,179z"/>
<g id="_x37_43f2cec-dcd3-444c-b098-6cc57cfd0359">
	<path class="st0" d="M406.6,305.9l3,11l-0.1,3.5l-4.3,4.6l-0.6,7.5l16.6,0.1l5.4,2l4.5-0.7l-2.6-3.2v-9.2l5.1-0.2v-3.6l-4.1-0.2
		l-0.8-8.6h-1.8l-0.9-0.9l-1,0l-1.4,2.6h-5.3l-1.2-1.2l0.4-1.7l-1.4-2.1L406.6,305.9L406.6,305.9z"/>
	<path class="st0" d="M404.8,302.9l1.5,2l2-1.8l-0.6-1.9h-0.5L404.8,302.9L404.8,302.9z"/>
</g>
<g id="_x39_524258e-8447-4a98-ab6c-a67d26f2ccc6">
	<path class="st0" d="M248.3,359l1.7,1.6l-6.4,9.5l-2.2,2.5l0.8,10.8l4.9,6l-4.1,7.2l-3.1,1.4h-3.6l1,5.6l-5.6,1.9l1.3,4.7
		l-3.4,10.7l4.1,3.4l-2.2,5.5l-3.8,6l2,4.2l-4.9,0.8l-4-5l-0.7-15.4l-6.3-26.2l1.9-9.2l-4-11.7l2.7-15.2l2.5-2.9l-0.6-2.2l3.1-2.9
		l7.1,0.5l3.9,4.2l4.6,0.1l4.7,2.9l-1.4,3.2l0.3,3.2l6.6-0.3L248.3,359L248.3,359z"/>
	<path class="st0" d="M234,446l0.2,5l3.8-0.3l3.2-2.1l-5.5-1.1L234,446z"/>
</g>
<path id="_x32_64a7099-cb34-4856-b0bb-75e734e5a4c3" class="st0" d="M399.7,161.9l-0.6,1.2l0.5,0.8l2-0.4h1.7l1.9,1.6l4-0.7l2.9-1.7
	l0.7-1.2l-0.1-1.5l-2.6-2h-3.5l-0.3,2l-3.7,1.8L399.7,161.9L399.7,161.9z"/>
<g id="d09bb008-d794-4d36-8892-fe930a1ffa6c">
	<path class="st1" d="M642.2,367.5l-0.3,21.9l-3.4,2.5l-0.3,2.2l4.6,3.1l11.3-2.1h5.8l2.2-3.1l12.8-2.5l9.2,2.8l-0.6,3.7l1.2,3.7
		l7-1.2l0.3,1.9l-4.6,3.4l1.5,1.2l3.4-1.2l-0.9,10.2l6.4,4.9l3.7-1.2l1.8,1.9l10.7-1.5l10.1-16.4l3.7-0.9l7.4-13.6l1.8-11.7
		l-4.6-5.9l1.8-1.2l-3.7-11.4l-4-2.8l0.6-15.5l-3.7-2.8l-0.9-8.6H721l-6.1,20.4l-3.4,0.3l-7.6-7.7l4.3-11.4l-8-1.5l-8.9,2.5
		l-2.5,7.1l-4,0.9l-0.3-4.9l-16.2,9.9l0.3,3.7l-2.5,3.4H660l-13.2,5.6L642.2,367.5L642.2,367.5z"/>
	<path class="st1" d="M698,426.5l-1.5,6.2l0.3,4.3l4.6-0.3l5.2-8L698,426.5z"/>
</g>
<path id="f98b420b-237b-4fc6-8083-f4e2d5fc0e4e" class="st0" d="M478.2,177.1l-0.9,1.5l4.1,5.3l1.4-0.5l2.3,2.4l1-4.3l2.5,0.4
	l-0.1-1.2l-4.2-3.6l-0.8,2.1L478.2,177.1L478.2,177.1z"/>
<path id="_x37_d37e6ae-e568-4e86-99f2-3b32634fec11" class="st0" d="M411.9,169.5l-0.3,0.5l5.8,6l2.1-3.1l-0.1-1.2l-1.9-2.3
	L411.9,169.5L411.9,169.5z"/>
<path id="_x33_4abe1eb-ee22-4506-90fb-e8ea8dd3766d" class="st0" d="M585.5,216.3l-1.1,2l2.9,5.6l0.1,4.4l0.5,1.2l3.5,0.1l2-1.9
	l1.4,0.9l0.3,2.6l1.1-0.7l0.1-3.4l-1-0.1l-0.6-2.9l-2.4-0.1l-0.6-1.6l1.5-2v-1h-4.2l-3.4-3.1L585.5,216.3z"/>
<path id="_x39_283bd24-f5a0-4538-99fc-78b845fd6161" class="st0" d="M383.2,150.1l-0.5,1.4l6,3.9l0.4,0.1l0.4-1.1l0.8-0.6l-1.3-1.5
	H388l-1.3-1.4L383.2,150.1L383.2,150.1z"/>
<path id="cc55204a-0e53-4333-abd1-5412939bf805" class="st0" d="M373.7,251.9l3.1-0.2l5.1,7.4l-4.8,3.6l-3.5-0.9l-4.7,0.1l-0.8,2.7
	l-3.9,0.2l-1.1-1.5l1.4-4.4L373.7,251.9L373.7,251.9z"/>
<path id="_x32_537239f-e14c-45f3-93e4-c8cd216388e5" class="st0" d="M426.3,172.5l0.1,4.3l1.5,3l5.5,0.1l2.5-1.7l2.4-1l-0.6-2.8
	l0.5-1.5l-1.2-0.6l-1.7,0.1l-1.3,1.4h-5.5L426.3,172.5L426.3,172.5z"/>
<path id="_x38_78ae025-8197-4f41-96f4-d84cb79cbcf7" class="st0" d="M447.7,296.8l3.7-0.1l-1,3.2l-0.9,0.8h-1.1l-0.8-2.2
	L447.7,296.8L447.7,296.8z"/>
<path id="_x38_213aa95-7eed-4a5e-9438-ddd22a023ea8" class="st0" d="M380.7,273.7h1.8l0.1-5.2l2.3-3.4l-0.1-5.9l-2.1,0l-3.6,2.8
	l1.5,2.9L380.7,273.7L380.7,273.7z"/>
<path id="_x37_e600809-58ab-41d3-a1e7-d95bdd46fcd5" class="st0" d="M658.3,273.5l-2.5,3l2,0.6l1.2-1.6L658.3,273.5L658.3,273.5z"/>
<path id="_x33_f7d6a64-7d7b-44a6-80be-1f0abee9f9ff" class="st0" d="M207.9,319.8l7.1-3.1l2.4,0.2l1.6,6.5l10.8,3.6l1.8,5.5l4.5,0.6
	l1.9,4.7l-1.3,4.3l-7.3,0.6l-2.7,6.9l-5.7-0.1l-1.8-0.3l-3.3,3.2l-1.6-0.2l-5.6-13l1.6-2.3l0.5-9.2l-1.4-5.5L207.9,319.8
	L207.9,319.8z"/>
<path id="f867b9c0-6857-40d2-8ee3-a8324e0b1489" class="st0" d="M255.9,376.9l5.4-10.4l0.2-8.7l10.1-6.5h5.6l4.4-7.5l0.8-14.4
	l-1.8-3.9l10.7-9.8l0.4-10.7l-14.5-7.1l-17.5-5.5l-8.3-0.8l2.2-4.7l-0.6-7.1l-1.8-0.6l-2.7,5.3l-1.4,1.8l-3.6-1.6l-12.1,4.3l-4-5.1
	l0.6-5.3l-3.8,3.9l-4.2-2.3l-0.4,0.6v1.8l3.6,2l-5.4,5.7h-3.4l-3.5-3.5l-3.9,0.1l-0.5,4.2l2.3,2.7l-2.7,8.5l-3.1,0.2l-5,3.1
	l-1.2,6.1l4.3,4.6l0.8-0.9l3-0.8l2.6,4.2l7.4-3.2l2.9,0.2l2,7l10.5,3.3l1.8,5.6l4.5,0.5l2.1,5.3l-1.4,4.7l1.9,2.5l-0.3,3.7l5-0.5
	l4.6,5.8l-0.4,4.1l2.7,2.3l-6.6,10L255.9,376.9L255.9,376.9z"/>
<g id="c93db297-84e1-497c-9bee-9a9999df6707">
	<path class="st0" d="M191.4,221.5l-1.1-0.3l-0.1,2.1l1.3,1.4l0.9-1.4L191.4,221.5L191.4,221.5z"/>
	<path class="st0" d="M193.5,224.8l-1.5,0.8l1.4,2l0.8-1L193.5,224.8L193.5,224.8z"/>
	<path class="st0" d="M198.4,226.3l-1.6-0.1l0.2,1l1.2,1.7l1-1.1L198.4,226.3L198.4,226.3z"/>
	<path class="st0" d="M197.6,224.3l-2.6-1.1l-0.5-2.6l1-0.4l1,2l1,0.8L197.6,224.3L197.6,224.3z"/>
	<path class="st0" d="M195.1,219l-1.3-0.3l-0.2-1.7l-1.4-0.5l0.9-0.9l1.7,0.6l1.2,0.8L195.1,219L195.1,219z"/>
</g>
<path id="_x30_a75cd8e-fc62-466b-8e32-1a44fbfa26e0" class="st0" d="M585.3,212l1.3,1.8h4.5l-0.5-2.5L585.3,212L585.3,212z"/>
<path id="e5f080c7-c4c3-435a-b099-3b9099e0ca8d" class="st0" d="M423.8,353l1.9,0.6l-0.3,5.3l1.9,0.3l4.4-4l5.3,0.6l1.4-3.5l6.7-6.1
	l-8-9.2l-0.1-1.5l-0.9-0.3l-2.4,2.2l-6.3,0.1l-0.9,7.9l-2.5,0.6L423.8,353L423.8,353z"/>
<path id="c6e4b45a-ed55-44e8-94b8-3916c80f1050" class="st0" d="M425.6,141.3l1.3,2.1l-0.5,1.7l0.1,1.4l0.5,1.6l2.7-1.5l3.3,0.1
	l2.3,1h5.9l1.7-4.1l1-1.6v-1l-3.7-5.2l-3.3-1.3l-2.7-0.3l-2.3,0.7l0.1,2.4l-3.2,4.1l-3.2,0.1L425.6,141.3z"/>
<path id="_x30_b11c039-ac3f-41f8-82ae-e510008b5918" class="st0" d="M161.1,241.6v3.1h0.7l2.5-4.6h-1.7L161.1,241.6L161.1,241.6z"/>
<g id="_x37_ee91148-0bd9-4518-b8e4-2e8cde8d00c8">
	<path class="st0" d="M121,39.6l1.7,2.6l0.9,3.5l4.3,1.1l3-3.2l2.6,1.3l7.3,0.7l5.2-2.2l0.9,7.2h3v-3l3,0.2l7.5,8.9l5,3l-2.6,4.1
		l1.1,1.1l9.7,2l0.2,4.3l2.6,0.4L177,65l4.1-1.1l3,4.6l6.5,3l3.2,0.7l2.1-2.6l0.2-4.1L200,63l1.3,3.5l-3.4,6.1l0.4,3l1.9-3l3.9-3.5
		l0.2-4.6l-2.1-3.5l0.6-2.8l5.2-2.6l2.4,1.7l0.4,15.2l3.7-3.2l2.1,1.3l-3,5.2l3.9,0.9L223,68l4.7,5l-1.9,8.9l-4.7,2.6l-4.5-2.2
		l-8.2,1.7l0.9,2.8l-2.1,3.5l-6.7,1.5l-7.5,5.9l-6.7,8.9l-0.9,2.8l4.5,1.7l1.7,4.3l6.2,6.3l9.9,4.3l-2.1,10l-0.2,2.8l2.6,1.7
		l3.4-4.6l0.4-8.7l5.4-0.2l2.6-5l0.4-7.6l6.9-13.4l8.6,3l4.5,6.3l-1.9,6.3l3.4,2l8.4-5.7l2.4,15.4l7.8,9.3l0.2,4.8l-8.6,2.2
		l-4.1,4.3l-8.6-2l-4.3-0.2l-7.5,5.9l4.5-1.1l5.6-1.1l1.1,1.3l-1.5,4.8l0.2,4.3l2.6,1.7l2.6-0.6l1.3-2h1.7l-2.8,5.2l-5.4,0.2
		l-2.4,3.5h-3l-0.9-2.6l4.3-4.3l-5.2,1.7l-0.2-7.4l-1.5-0.9l-4.5,2l-0.4,3.7h-10.3l-8.8,6.1l-11.8,3.9l-1.3-1.7l6-8.9l-3.4-3.3
		l-2.1-4.1l-4.4-3.4l-4.7-0.4l-8.4-5.9l-61.2-10l-1-4.1l-5.6-5.2v-4.3l0.9-3.9l-0.4-2.2l-2.2-2.2l-0.4-3.5l5.6-3.9l-3.4-18.7
		l-4.7-0.2l-4.3-5.6L121,39.6z"/>
	<path class="st0" d="M99.9,108.5l-1.5,2.8l0.5,2l1,0.6l-0.2,0.8l-1,0.3l0.3,3l1.1,1.1l0.9-1l-1.1-2.9l0.7-2.3l1.6-2.2l-1.2-2
		L99.9,108.5L99.9,108.5z"/>
	<path class="st0" d="M104.8,125.4l-1.3,0.5l2.4,2.8l0.6,3.3l2.4,2.6l2.1-0.4v-3.4l-2.5-1.6L104.8,125.4L104.8,125.4z"/>
	<path class="st0" d="M237.4,54.2l-1.5,1.5l1.3,2.1l6.3,0.8l-4-4.2L237.4,54.2L237.4,54.2z"/>
	<path class="st0" d="M160.3,28.5l0.2,3.5l-6.9,7.2l1.7,5.8l5-1.3l2.9-4.2l7.3-2.7l5.9-0.4l-4.6-5l-2.3,1.7l-1.7-0.6l-1-2.1
		l-2.1-2.1L160.3,28.5L160.3,28.5z"/>
	<path class="st0" d="M169.4,18.3l-1.5,2.7l7.5,2.7l2.7-4l1.1,2.7h1.9l3.6-4l-4.4-1.2l-1.7-1.4l-2.3,2.3L169.4,18.3L169.4,18.3z"/>
	<path class="st0" d="M182.4,23.7l-5.9,2.5v1.9l7.7,2.9l-1.7,1.9l1.1,2.5l4.8-2.1h4l1.9,3.1l3.3-3.3l-0.8-3.1l-2.7,1l-0.4-3.9
		l1.3-2.4h-1.3l-2.1,1.4l-1,0.8l0.6,2.7l-1.5,1.2l-2.3-0.2l-0.6-3.5L182.4,23.7L182.4,23.7z"/>
	<path class="st0" d="M190.2,17.7l-0.6,1.9l3.6,1.7l2.7-1.5l-0.2-1.2L190.2,17.7L190.2,17.7z"/>
	<path class="st0" d="M193.1,14.4l-2.7,1l0.2,1.3l5.9-0.4l-0.2-1.4L193.1,14.4L193.1,14.4z"/>
	<path class="st0" d="M206,17.7l-0.4,1.4l-1,1.4v1.9l3.6-0.6l3.8,3.3h1.3v-3.3l-3.8-4.2L206,17.7L206,17.7z"/>
	<path class="st0" d="M215.7,21.6l1.5,1.7l-1.3,2.3l1,2.5l4.2-2.3v-1.7l-2.5-2.9L215.7,21.6L215.7,21.6z"/>
	<path class="st0" d="M221.3,17.2l0.2,3.1h5.2l1.3,1.1l-0.2,1.4l-4.6,0.6l3.3,4.4l4.4,0.8l6.1-2.7l-8.8-13.3l-2.7,1.7l0.2,2.3
		l-3.1-1.2L221.3,17.2L221.3,17.2z"/>
	<path class="st0" d="M176.6,39l-7.3,1.9l-4.2,3.7l0.4,4l7.7,2.4l-1.7,3.9l-5.6-3.5l-1.5,2.9l3.6,2.5l-0.2,4l5.6,1.5l6.7-0.4
		l1.1-2.1l5,5.6l3.4-1.2l0.6-3.9l2.5,1.7l0.4-3.9l-3.1-1.9l0.2-12.2l-2.7-2.1l-2.9,3.9L176.6,39L176.6,39z"/>
	<path class="st0" d="M200,47.5l-2.5-1.2l-1.3,1.7l2.7,4.2l0.2,4l5.8-3.5v-5l2.1-2.1l-2.1-1.5h-3.4L200,47.5z"/>
	<path class="st0" d="M212.3,45.7l-4,3.3l1,4h2.5l1.1-2.1l1.7,1.7l1.7-0.2l4.6-3.9L212.3,45.7L212.3,45.7z"/>
	<path class="st0" d="M211.9,39.4l-1,1.9l4.2,1.5l1.1-1.7L211.9,39.4L211.9,39.4z"/>
	<path class="st0" d="M209.4,32l-4.2,0.6l-2.5,2.3l4.6,0.2l-1.3,3.5l1,1.5l1.3-0.2l3.3-5.2L209.4,32z"/>
	<path class="st0" d="M216.7,30.7l-2.3,0.8l0.4,3.1l3.8,2.5l0.2,1.9l-1.1,1.2l0.6,3.9l14.8,4.9l4,1.3l4-3.5l-4.8-3.9l-4.4,1.2
		l-6.1-0.6l-2.3-2.3l-0.6-6.4l-3.8-1.9L216.7,30.7z"/>
	<path class="st0" d="M228.8,50.8l-4.2-0.4l-5,1.9l-2.7,3.7l0.8,10l8.2,0.4l7.9,3.9l5.6,6.4l4.2-0.2l-1.1,6l-3.8,6.4l-4.2,1.9
		l-3.1-0.6l-1.5-1.3l-2.3,3.1l1,3.1l3.3,0.2l4-1.9l3.4,8.9l8.6,5.6l5.9-7.5l-5-8.1l2.9-3.3l4,6.8l7.3-6.4l-1.3-2.9l-5,1.6l-3.4-9.5
		l3.3-5.4l-6.5-7l-3.6,2.5l-3.4-7.5l-7.3,1l-1.9-9.1l-5.9,4l-0.6,5h-3.2l0.4-4.4L228.8,50.8L228.8,50.8z"/>
	<path class="st0" d="M231.2,32.4v1.7l-4.2,1l1.1,1.8l4.8,2l5.4,0.6l3.8,2.7l3.8-2.2l-2.7-2.7h3.4l2.1-2.3l5.2-0.8v-1.2l-2.9-1.9
		l0.4-2.1l8,1.4l11.9-4.6l-4.4-1.4l1.1-1.5h9.2l1.6-1.5l-18.6-6.6l-4.4-1.5l-4.8,3.5l-5.4-4.4l-2.9-0.2l-0.6,3.7l-3.6-3.3l-4.2,1.4
		l0.8,2.1l6.3,1.4l-0.4,3.1l3.4,2.1l8.4-2.1l0.2,2.9l-6.9,3.3l-4.2-3.3l-3.8,0.4l3.8,5.4l-1.9,1l-2.9-2.5l-2.1,1.4l1.9,3.7h3.3
		l-0.8,3.5l-2.7-0.4l-3.5-3.7L231.2,32.4L231.2,32.4z"/>
	<path class="st0" d="M214.2,85.6l-3.7,4.6l-0.2,5.1l3.2-1.8h3.9l2.7,2.5l2.5-2.1L214.2,85.6L214.2,85.6z"/>
	<path class="st0" d="M258.7,145.4l-9.1,8.8l0.9,2.1l11.2,4.1l1.6-2.8l-0.9-4.6l-3.7,0.5l-2.1-2.3l3.4-3.4L258.7,145.4L258.7,145.4z
		"/>
</g>
<path id="c376e1c9-c9ac-4ff6-bdf9-c1292b95ef03" class="st0" d="M407.3,305l8.9-0.2l1.8,2.6l-0.1,1.9l0.7,0.6h4.4l1.3-2.5h1.8
	l0.7,0.7l2.5-0.1l0.7,8.7l4.3,0.1v0.7l11.5,5.2l0.5,1h2.4l-0.3-3.6l-4.4-2.1l0.3-2.8l1.9-4.4l4.3-0.1l-3.7-12.2l0.1-5.2l5.8-9.1
	l0.1-1.3l-0.9-0.5V280l-1.1-0.1l-1.1-1.4l-17.6-0.8l-3.2,3.1l-5.3-3.5l-1.9,1.1l-1.4,11.4l-3.3,2.6l-1,2.3l0.2,3.4l-6,4.9l-1.6-0.7
	l0.2,0.9L407.3,305L407.3,305z"/>
<path id="c353c7c5-0f9a-41e4-bb42-23c88841bb67" class="st0" d="M412.7,277.6l4,4.4l1.6-2.1l2.5,0.1l0.5-2l2.5-1.6l5.2,3.5l3-3
	l11.6,0.5l-10.7-11.1l1.4-0.9l0.2-2l-2.4-1.1h-3.6l-5.8,5.7l-0.2,2.4l-4.6-0.1l-0.1,1l-3-0.3l-2.7,5.1l0.6,1.4L412.7,277.6z"/>
<path id="_x35_9482471-5acc-477d-a6cc-ea34b19ee481" class="st0" d="M408.7,285l0,1.3l4.1,0.1l0.1,10.7l-3.8-0.1l-2.2-1.7l-1.7,1
	l-0.1,0.5l0.9,0.4l0.2,2.2l-2.3,2l0.5,1.1l2.6-2h1.2l0.4,1.2l1.6,0.7l5.3-4.5l-0.1-3.3l1.1-2.6l3.4-2.5l0.9-8.5h-2.4l-2.8,3.8
	L408.7,285L408.7,285z"/>
<path id="d110e63f-f5a2-4f5c-bc18-dc5f6110ea68" class="st0" d="M393,161.2l-3.8,4l0.1,0.4l1.5-0.5l1.4,1.9l2.4-0.8l1.6,1.3l0.7-0.4
	l2-3.1l-0.5-0.5l-2-0.1l-1-2L393,161.2L393,161.2z"/>
<path id="e2183f42-e9d8-42b5-b8a5-d323f0ba284e" class="st0" d="M357.7,280l3.7-2.6l4.6-0.8l4.7,1l-2.4-3.6l-0.7-2.2l0.7-6.5
	l-4.2,0.2l-1.9-1.8l-4,0.1l-1.9,0.3l0.2,4.4l-1,0.4l-1.2,2.2l3.1,3.6L357.7,280L357.7,280z"/>
<g id="f78bc219-ad94-4eee-a05d-63efb07c691e">
	<path class="st0" d="M230.6,441.9l-3.7,8.1l6.4,0.7l0.1-5.4L230.6,441.9L230.6,441.9z"/>
	<path class="st0" d="M229.4,440.6l-2.8,3.1l-0.3,3.6l-5.4-3l-5.7-8.2l-1.7-2.9l2.4-3l-0.2-3.8l-2.6-1.2l-2.1-1.6l0.4-2.1l2.8-0.8
		l0.6-12.4l-4.4-2.5l-2.8-64.5l0.7-1.3l5.6,12.8h1.8l0.6,2l-2.4,2.9l-2.8,15.5l3.9,11.9l-1.8,9l6.3,26.5l0.7,15.5l4.5,5.2
		L229.4,440.6L229.4,440.6z"/>
	<path class="st0" d="M210.9,408.2l-1.1,1.7l0.6,2.9l1.1,0.1l0.6-3.7L210.9,408.2L210.9,408.2z"/>
</g>
<path id="_x34_538208a-9580-4099-90a1-601d5a71b819" class="st0" d="M397.3,277.8l2.7,2.6l-0.2,4l15.3-0.4l1.2-1.4l-4.3-4.8
	l-0.6-1.7l2.8-5.2l-1.9-3.5l-1.6-0.9v-1.8l1.8-1.2l0.1-5.5l-1.5-0.2v2.9l-6.4,12l-3.9,0.2l-2.7,1.8L397.3,277.8L397.3,277.8z"/>
<g id="_x39_84ede72-833e-4908-8531-f1f376ef8bcf">
	<path class="st0" d="M563.7,144.5l-3,7.5l-4.1-0.2l-4.3,9.5l3.7,4.7l-7.6,10.5l-3.9-0.7l-2.6,3.3l0.7,2l3,0.2l1.5,3.5l3,0.7l9.3,12
		v6.1l4.6,2.8l5-0.9l6.3,3.7l7.6,2.2l3.7-0.4l4.1-0.4l8.7-5.7l2.8,0.4l1.1,2.6l2.4,0.7l3.3,4.8l-2.2,4.8l1.3,3.3l3.8,1.4l0.7,3.9
		l4.3,0.4l0.7-2l6.3-3.3l3.9,0.2l4.6,5l3-1.3l2,0.2l0.9,2.4l1.5,0.2l2.2-3.1l8.7-3.3l7.8-9.4l2.6-9l-0.2-5.9l-3.3-0.7l2-2.2
		l-0.4-3.5l-8.3-8.3v-4.2l2.4-3.1l2.4-1.1l0.2-2.4h-6.1l-1.1,3.3l-2.8-0.7l-3.5-3.7l2.2-5.7l3-3.3l2.8,0.2l-0.4,5l1.5,1.3l3.7-3.7
		l1.3-0.2l-0.4-2.8l3.5-4.2l2.6,0.2l1.5-4.8l1.8-0.9l0.2-3l-1.8-1.8l-0.2-4.7l3.3-0.2l-0.2-12.2l-2.3,1.4l-0.9,3.1h-3.9l-11.3-6.4
		l-8.2-9.8l-8.3-0.1l-2.1,1.9l2.7,6.1l-0.9,5.8l-3.3,1.4l-1.9-0.1l-0.1,5.7l2,0.4l3.5-1.5l4.6,2.2v2.2l-3.3,0.2l-2.7,5.7l-2.4,0.2
		l-8.5,11.2l-8.9,3.9l-6.1,0.4l-4.1-2.8l-5.9,3.1l-6.3-2l-1.5-4.2l-10.6-0.7l-5.7-9.2h-2.4l-1.9-4.3L563.7,144.5z"/>
	<path class="st0" d="M641,231.1l-2.1,0.6l-1.5,1.8l1.2,2.4l1.8,0.2l2.1-1.8l0.5-2.4L641,231.1z"/>
</g>
<path id="_x34_01fb69f-6b99-400e-8707-b8fc972372c3" class="st0" d="M203.6,256.7l-1.8-0.2l-11.8,9.7l-1.2,3.4l-1.6,0.2l0.7,7.5
	l-4.1,10.1l4.5,3.8l5.7,0.4l3.9,5.8l5.7,0.2l-0.2,4.3h2.1l2.3-7.9l-2.1-2.7l0.5-5l4.5-0.4l-0.5-11.7l-10-3.2l-2.3-6.3L203.6,256.7
	L203.6,256.7z"/>
<path id="adb4c2dc-7aff-4915-86ab-a1910fc53151" class="st0" d="M172.1,261.1l1.2,2.4l1,1.3l-1.3,3.9l-2.5-1.8l-4.1-3.8v-2.5
	L172.1,261.1L172.1,261.1z"/>
<path id="_x30_40efa95-23b3-473c-ae5b-cbc413ddb842" class="st0" d="M175.1,228.3v1.1l4.6,0.1l2.2-1.3l0.3,0.9l4.5,1.1l4,3.6
	l-0.9,1.3l0.2,1.4l3.4,0.8l3.4-1.5l1.5-1.5l-2.2-1.1l-11.2-6.6l-3.9-0.4L175.1,228.3L175.1,228.3z"/>
<g id="_x38_39992b2-f2f5-4c0c-9991-4dd62b7e5771">
	<path class="st0" d="M319.2,248.7l-1.6,0.9l1.2,0.9l1.4-0.7L319.2,248.7z"/>
	<path class="st0" d="M323.3,250.6l-1.1,1l0.8,1.4l1.8-0.8L323.3,250.6L323.3,250.6z"/>
	<path class="st0" d="M320.9,253.2l-1.4,0.8l1.5,2l1.2-0.6L320.9,253.2L320.9,253.2z"/>
</g>
<path id="d51dcace-7ccd-4f2a-8522-4c403f1aece0" class="st0" d="M453.8,196.2l1.1,0.8l-3.3,3.1L450,200l-1.2-0.8l0.2-1.5l2.4-0.1
	L453.8,196.2L453.8,196.2z"/>
<path id="a4127af9-5bf3-4dce-954e-7115856e335a" class="st0" d="M406.4,157.3h3.8l2,1.5l3.8-3.1l-3.6-2.6l-3.6-1.8l-2.5,0.4
	l-3.4,2.2L406.4,157.3L406.4,157.3z"/>
<path id="_x30_e2fcbdb-018f-4e9c-8dce-d04aa1282b2c" class="st1" d="M391.5,142.6l3.1-0.5V140l2.6-0.4l1.4,1.4l1.5,0.2l2.3-1
	l2.1,0.6l1.8,1.6l0.2,6l1.8,2.4L406,151l-4,2.5l0.3,0.8l3.6,3.4l-0.2,1.7l-3.3,1.7l-3.1,0.1l-0.8,1.6h-1.6l-0.8-1.7l-2.8-0.7
	l-0.1-2.8l-1.4-0.8l0-1.9l-0.4-1.3l-2-1.8l0.4-2.9l2.2-1L391.5,142.6L391.5,142.6z"/>
<g id="_x33_edc1686-1507-4871-85f1-f4da849da7a0">
	<path class="st0" d="M396.4,128.5l-3.6,4l-0.1,2.6l1.6,4.3l2.6-0.5l-0.3-3.5l1.8-2v-1.6l-1.3-3.2L396.4,128.5z"/>
	<path class="st0" d="M398.2,135.8l-1.1,0.2v1.6l1.1,0.9l1-0.2l-0.2-1.5L398.2,135.8z"/>
	<path class="st0" d="M401.5,134.3l-1,0.2l-1.1,1l0.5,2l1.3,0.5l-1.3,0.5l-0.3,0.7h2l0.6-1.1l-0.8-0.4l0.2-1l0.9-1.2l-0.2-1
		L401.5,134.3z"/>
</g>
<path id="bcf72535-7242-41a1-9e41-e8484053267e" class="st0" d="M478.2,258.2l-0.5,2.9l3.4,0l0-4.3L480,256L478.2,258.2L478.2,258.2
	z"/>
<path id="_x35_e49de5a-3adb-4f20-b9c3-736de756e952" class="st0" d="M225.5,243.8l-0.8,1.6l0.9,1.2l1.1-1L225.5,243.8L225.5,243.8z"
	/>
<path id="da73d97f-c79f-418d-b450-983a3fd50c42" class="st0" d="M211.7,239.9l-4.6-3l-2.9-1l-0.6,5.5h0.6l0.8,1.5l1-1.1l2.9-0.8
	l2.5,0.5L211.7,239.9L211.7,239.9z"/>
<path id="_x32_96a9759-a6cb-44c4-bc1a-cf6320b493f4" class="st0" d="M393.9,194.2l-3.5-1.2l-14.7,2.8l-3.2,2.4l2,10.1l-5.8,0.2
	l-3.5,5.6l-8.4,2v4.1l27.5,21l4.7,0.4l15.6-12.2l-1.6-2l-2.9-0.4l-1.8-3v-12.1l-1.2-1.2l0.2-3.1l-3.1-3.1l-0.4-3.4l1.4-1l-0.6-3.6
	L393.9,194.2L393.9,194.2z"/>
<g id="e6797df3-d0d1-4f7d-a4d1-455c4ec6542d">
	<path class="st0" d="M183.2,287.8l-4.1,2.5l-0.3,3.8l-0.8,1.2l2.6,2.5l-1.1,1.2l0.3,3.1l4.6,1.1l7-8.3v-2.9l-3.4-0.2L183.2,287.8
		L183.2,287.8z"/>
	<path class="st0" d="M152.8,289.9l-0.5,2.4l-1,1l0.7,1.2l1.8-0.7l0.8-1.5l-0.5-1.5L152.8,289.9L152.8,289.9z"/>
</g>
<g id="f7879d00-13fe-41b5-a092-3672b13f15f8">
	<path class="st0" d="M431.8,121.7l-4.8-0.2l-3.1,1.9v1.4l2,1.9l6.2,1L431.8,121.7L431.8,121.7z"/>
	<path class="st0" d="M421.5,122.4l-1.3,0.4l1.3,0.2l0.6,0.7l0.7-0.8l-0.7-1.2L421.5,122.4z"/>
	<path class="st0" d="M422,124.2l-1.9,0.8l-0.6,1.1l0.6,0.7l2.4-0.9l1.1-0.8L422,124.2z"/>
</g>
<path id="_x32_0006b6a-affa-4945-883a-86a2241c091e" class="st0" d="M435.4,207.6l2.3,0.1l4.5,1.2l2.1,0.1l2.6-2.2h1.2l2.2,1.2h2.9
	h0.5l1.8,5.2l0.5,1.7l0.5,2.5l-0.9,0.6l-1.5-0.7l-1.7-5.5l-1.5-0.1l-0.1,1.9l1,3.2l8.1,10l0.2,4.3l-2.4,2.7l-22.2-0.2L435.4,207.6
	L435.4,207.6z"/>
<path id="_x33_def12ed-9fb2-4524-8ba9-b73811d3dd80" class="st0" d="M465.5,252.3l-0.2-5.1l3.4-4l0.9,0.7l1.7,5.6l8.1,6l-1.5,1.8
	l-5.9-5.1H465.5z"/>
<g id="_x37_64c4599-1b26-44cc-8036-69307c423ed1">
	<path class="st0" d="M371.8,174.7h-11l-2.2-1l-1.1,0.1l-1.3,2.7l0.5,2.8l4.2,0.4l0.5,1.8l-1.8,10.3l0.1,1.9l3,1.6l3.4,0.2l6.9-1.7
		l3.4-4.2l0.1-4.3l6-5.4l0.3-2.4l-5.4-0.1L371.8,174.7L371.8,174.7z"/>
	<path class="st0" d="M343.5,216.9l-1.5,0.9l0.7,0.7L343.5,216.9z"/>
	<path class="st0" d="M338.2,217l-1.9,0.5l0.9,1.4h1.4L338.2,217L338.2,217z"/>
	<path class="st0" d="M333.8,215.6l-1.2,1.2l1.6,1.4l0.9-2.1L333.8,215.6L333.8,215.6z"/>
	<path class="st0" d="M382.8,185.3l-1.4,0.5l0.3,1.2h2l0.8-0.9L382.8,185.3L382.8,185.3z"/>
</g>
<path id="_x31_2328aa0-5a3b-47e1-8c3f-6569953611ec" class="st0" d="M459.2,267l6.3-14h6.2l5.5,4.8l-0.4,4h4.3l0.4,2.4l7,4.2
	l4.3,0.2l-8.1,8.8l-11.2,3.5h-2.8l-4.9-4.2l-2-0.8l-3.8-5.6h-2.5l-0.3-2.6L459.2,267L459.2,267z"/>
<path id="a37b7494-efbd-41b9-96a1-98765bbc5daf" class="st0" d="M422.3,98.6l1.8,0.8l1.1,2.1l-1.1,1.4l-5.5,6.1l-1,3.2l1.3,4.6
	l4.3,3.2l5.7-2.7l4.6-0.6l4.3-6.9l-3.2-7.5l-3-7.2l0.5-4.6l-1.9-0.3l-0.5-3.4l-2.6-4.2l-2.8,2l-1.1,4.6l-3-1.8l-4.2-1l-0.9,1
	l1.6,1.4l2.9-0.1l2.4,3.8L422.3,98.6L422.3,98.6z"/>
<g id="_x30_f6edc2f-f97b-47e9-820b-d92f298df984">
	<path class="st0" d="M250.4,436.8l-2.3-0.2l-2.3,1.5l1.6,1.8L250.4,436.8L250.4,436.8z"/>
	<path class="st0" d="M252.7,435.7l-0.8,2.4l-2.1,1.9l0.1,0.6l3.6-1.4l1.5-1.9L252.7,435.7L252.7,435.7z"/>
</g>
<g id="a4974755-c441-49d6-a5d8-64cb7f6bba76">
	<path class="st0" d="M382.2,152l-1.9,0.5l-3.8,4.2l-1.1,0.1l-1.5-1.1l-1,0.2l-0.8,2.4l-5.6,0.1l0.2,1.2l3.8,2.5l4.4,3.5l-0.1,4.2
		l-2.4,4.2l5.1,2.5l5.2,0.1l1.6-1.9l3.3,0.1l0.9,0.9l3.3-0.2l1.7-2.2l-2.1-2.5l-0.1-1.6l0.5-1.8l-1.1-1.5l-1.8,0.5l-0.2-1.4l4-4.5
		v-2.7l-2.4-0.8l-1.4-1L382.2,152z"/>
	<path class="st0" d="M245.4,275.7l5.1,3.1l-2.6,5.3l-1,1.2l-2.8-1.6l0.1-5.7L245.4,275.7L245.4,275.7z"/>
	<path class="st0" d="M509.3,345.3l-2,0.1l-0.1,1.7l1.3,0.3l2-0.9L509.3,345.3L509.3,345.3z"/>
	<path class="st0" d="M486.1,321.1l0.7,1.5h1l0.5-1.9L486.1,321.1z"/>
	<path class="st0" d="M228.1,248.2l-0.9,0.9l0.7,1.4l1.3-0.4L228.1,248.2z"/>
	<path class="st0" d="M397.3,176.4l-1.7,1.7l-0.1,1.5l1.4,0.9l0.5-0.1l0.3-2.2L397.3,176.4L397.3,176.4z"/>
	<path class="st0" d="M223.3,242.5L222,243l0.5,1.1l1.5-1l-0.3-0.3L223.3,242.5L223.3,242.5z"/>
</g>
<path id="b9f9552c-3fbb-48dd-8bb5-a520ace19a07" class="st0" d="M404.7,285l-0.1,2.1l-4.9-0.1l-3,5.8l7,7.7l1.7-1.5l0-1.5l-1.2-0.5
	v-1l2.7-1.7l2.4,1.8l2.6,0l0-9.1l-4.2-0.2l0-1.9L404.7,285L404.7,285z"/>
<g id="_x38_5887794-1f0a-4365-bdd9-42e8767bef36">
	<path class="st1" d="M369.9,126.4l-1.6,2.4l0.6,1h3.6v1.6l-1,1.3l0.6,3.4l2.1,4l1.6,3.7l2.5,1l1.1,1.9l-0.1,1.8l-1.6,1l-0.2,0.8
		l1.1,0.6l-1,1.3l-2.2,1l-4.3-0.5l-6.7,3l-2.2-1.1l6.4-3.7l-0.8-0.5l-3.3-0.3l2.1-3l0.3-2.6l2.7-0.3l-0.5-5L366,139l-1-1.1l0.1-3.7
		l-1.9,0.2l1.9-6.4l3.5-2.6l1.1,1.1L369.9,126.4z"/>
	<path class="st1" d="M363.2,137.1l-2.9,0.3l-0.2,2.6l1.9,1.3l2.1-0.5l0.8-1.4L363.2,137.1L363.2,137.1z"/>
</g>
<path id="_x37_1de5f75-72f0-4671-bf7c-b1b741261024" class="st0" d="M464.4,174l2.8,3.7l3.5,1.6h2.2l3.7-1l0.9-1.5l-11-4.1
	L464.4,174z"/>
<path id="f0c28bbe-e75a-43d7-87ca-90a782916152" class="st0" d="M368.3,271.6l1,2.3l2.5,4l1.4,0l3.8-2.2l-0.3-12.4l-3-0.9l-4.1,0.1
	L368.3,271.6L368.3,271.6z"/>
<g id="_x38_ef12abc-7b82-464f-8a82-38af6e0f4118">
	<path class="st0" d="M261.8,40.8l-1.2,1.9l2.1,2.1l-0.9,2.1l3.1,4l3.8-1.2l4.9-0.5l5.6,6.1l3.8,10.1l-3,6.3l4.2-0.7l2.4,1.4
		l0.2,3.1l-5.2,0.2l2.8,2.8l3.5,0.7l-7.8,10.3l-1,6.3l1.6,5.2l-1.2,3.1l2.1,6.6l4,4.5l1.2-0.2l2.6-0.7l0.2,3.8l1.6,2.3l3-0.2
		l2.4-8.7l7-8.7l10.6-4.2l6.6-8.2l3,1.4h6.4l5.2-5.2l6.4-2.5l0.7-4l-4-3.5l-3.5-1.2l-1.9-4.9l4.5-2.6l7,3.8l2.3-2.6l-3.8-2.1l8-10.8
		l-1.4-4.7l-3.8-0.2l1.4-4.2l4.7-2.1l9.6-8.5l-2.8-3l-10.8,0.9l-5.6,5.7l3.3-7.3l-3.8-0.9l-2.1,3.8l-3.1-2.6l-8.5,0.9l2.4-3.8
		l13.9-0.5l-3.5-4.7l-15-2.8l-6.1,0.9l0.2,3.1l-6.4-2.1l0.2-2.1l-4.5,0.9l-0.9,2.4l4.7,1.6l-4.9,3.5l-3.5-4l-4.9-1.4l-0.7,3.8h-4.9
		l-1.9-4l-7.8-1.2l-4.2,2.1l-0.2,2.8l-5.4-0.7l-3.3,1.4l0.2,3.3V34l-6.1,1.2l-2.8-1.9l-1.9,3l2.8,3.1l5.9-0.7l0.5,1.9l-4.5,2.1
		L261.8,40.8L261.8,40.8z"/>
	<path class="st0" d="M280.6,77.5l1.4,2.1l-0.7,2.6h-1.4l-1.9-2.1l0.5-1.6L280.6,77.5L280.6,77.5z"/>
	<path class="st0" d="M339.4,71.6l4,1.2l-0.2,3.3l-4.2-2.1l-0.9-1.2L339.4,71.6L339.4,71.6z"/>
</g>
<path id="d0a67419-a8f5-417d-9a81-73d161ff6001" class="st0" d="M336,255.4l-0.1,1l6-0.1l0.3-0.9l-0.1-0.9l-1.7,0.7L336,255.4
	L336,255.4z"/>
<path id="_x30_7c53fee-bec2-4385-89e1-bfa771710d98" class="st0" d="M339,263.7l2.6,4l3.4-3l3.5-0.1l2.9,3.9l2.5,1.6l0.9-1.8
	l0.8-0.5l-0.1-4l-1.7-4.7l-5.1,0.6l-6.3-0.5v1.6L339,263.7z"/>
<g id="cc527a12-260a-4820-9f3d-6a3e0e825de3">
	<path class="st0" d="M396.4,280.5l-0.4,1.7l1.2,0.6l1.1-0.9l-0.4-1.8L396.4,280.5L396.4,280.5z"/>
	<path class="st0" d="M400,285.1l0,1.2l3.9,0.2l0-1.4L400,285.1L400,285.1z"/>
</g>
<g id="_x39_84786bc-a7bc-4488-9c2a-ef00ff613e7c">
	<path class="st0" d="M422.2,185.6l-0.1,1.1l4,2l1.9,0.7l-1,1.1l-2.2,0.2l-0.3,1l0.8,1.7l2.5,1.3l1.1,0.1l0.1-3l1.6-2l-4.5-5.3
		l0.6-1.8h1l1.6,1.3l1-0.5l0.3-1.8l3.7,0.5l1.1-3.2l-2,1.4l-5.7-0.1l-3.7,1.9l-1.9,3.3L422.2,185.6z"/>
	<path class="st0" d="M430.9,196.9h1.4l0.6,0.9h2l1.4-0.5l0.5,0.6l-0.9,1.2l-4,0.1l-0.7-1l-0.8-0.5L430.9,196.9L430.9,196.9z"/>
</g>
<path id="f6f91a9c-2156-4160-a057-66c14b35726a" class="st0" d="M152.7,249.5l5.1,3.8l5.2-6.4l-0.9-1.3l-1.8-0.1v-3.8l-1.3-0.8
	l-4,1.2l1.5,3.5L152.7,249.5L152.7,249.5z"/>
<path id="eac54f62-29be-47db-9e4d-7a98735382c0" class="st0" d="M337.4,260.8l1.2,2.4l3.4-2.9v-0.9l-4-0.6L337.4,260.8L337.4,260.8z
	"/>
<path id="dfdcd345-2763-41ce-9854-35354943c4e8" class="st0" d="M230.6,269.1l6.2,5.6l-2.5,2.9l-0.2,1.7l3.3,3.4l-0.1,3.2l-5.7,2.1
	l-3.4-4.6l0.7-5.5l-1.4-4.1L230.6,269.1L230.6,269.1z"/>
<path id="_x34_a481305-18be-4706-951c-91a29f386dc1" class="st0" d="M163.6,247.1l8-0.3l2.4,2.8l-1.5-0.3l-2.8,0.1l-3.7,3.5
	l-1.6,3.5l-1-0.6V252l-2.3-1.5l2.6-3.4L163.6,247.1z"/>
<path id="d5cf4c94-1678-46f2-803c-c2a6c901304e" class="st0" d="M412.6,166.2l-3,2.5h-3.1l-0.4,2.2l1.4,0.4l0.7-1.1l1.1,1l0.9,3.1
	l6.1,2.9l0.6-0.7l-6.2-6.4l0.6-1.2l5.9-0.2l0.6-1.9l-3.8,0.1L412.6,166.2L412.6,166.2z"/>
<path id="_x37_adb9b0b-6f5b-4943-bf55-8b4d2622a614" class="st0" d="M201.1,235.6l3,0.3l-0.4,3.6l-0.3,1.9l-3.5-0.2l-0.6,0.9
	l-1.1-0.1l-0.4-2l3.7-0.3l-0.2-2.1l-1.7-0.7L201.1,235.6L201.1,235.6z"/>
<path id="adeddce2-2600-4cfa-bb1d-15bd46d57e82" class="st0" d="M413.6,161.4l-1,1.6l0.1,2.4l1.6,0.8l4.9,0.1l6.9-5.8v-1.3l-0.7-0.4
	l-5,2.2L413.6,161.4L413.6,161.4z"/>
<g id="bea58a68-37e0-4fc2-8f27-0518d2d33c77">
	<path class="st0" d="M608.8,272l-0.2,2l5.9,9.9h1.7l12.2,20.5l4.9,0.5l2.5-7.1l-3.9-2.5l-0.7-3.9L608.8,272z"/>
	<path class="st0" d="M666.7,299.3l2,2.4l-1.3,3.6v0.7h2.9l1-9l0.9,0.3l1.7,8.2l1.6,0.4l1.5-3.5l-1.5-5.3l-1.3-2.3l4-2.9l-0.9-1.3
		l-3.8,2.4h-1l-1.9-2.7l0.6-1.2l3.2-1.5l4.8,1.5l1.4-0.1l3.6-3.3l-1.4-1.5l-3.3,2.6h-2.1l-3.3-1.5l-2.3,0.1l-2.5,4.1l-1.6,7.1
		L666.7,299.3L666.7,299.3z"/>
	<path class="st0" d="M688,283.2l-1.6,3.9l2.5,3.3h0.8l1.1-2.2l0.6-0.8l-1.1-1.2l-1.6-0.6L688,283.2L688,283.2z"/>
	<path class="st0" d="M693,296.1l-3.5,0.8l-1,1.1l0.8,1.5l2.3-0.9l1.4-0.9l2.1,1.7l0.9-0.8l-1.7-2.1L693,296.1L693,296.1z"/>
	<path class="st0" d="M635.3,307.3l-2.4,1.6l0.5,1.4l7.6,1.8l3.8,0.7l1.6,1.7l4.3,0.3l2,1.7l1.9-0.4l1.7-1.5l-3.1-1.5l-2.7-2.3
		l-7-1.7L635.3,307.3L635.3,307.3z"/>
	<path class="st0" d="M660,314.7l-1.9,1l1.1,1.2l2.7-1L660,314.7L660,314.7z"/>
	<path class="st0" d="M663.2,313.9l0.3,1.6l2,0.5l0.8-0.9l-0.8-1.3L663.2,313.9L663.2,313.9z"/>
	<path class="st0" d="M667.9,318.2l-2.4,0.4l2.1,1.8h1.7L667.9,318.2L667.9,318.2z"/>
	<path class="st0" d="M668.6,315.4l-0.5,1l3.8,0.6l3-1.7l-1.7-0.5l-2.7,0.8l-1-0.9L668.6,315.4L668.6,315.4z"/>
	<path class="st0" d="M681.1,316l-4.4,3.7l0.4,0.9l1.9-0.3l2.2-2.1l4.3-0.6l-0.8-1.5L681.1,316L681.1,316z"/>
	<path class="st0" d="M703.4,290.9l-3.6,0.4l-2.3,1.7l1,1.9l3.9,0.7v0.7l-2.5,2l1.2,4.2l1.2,0.1l1-4.1h1.9l0.8,4l9.4,7.8l0.2,6
		l3.2,3.5l1.4-0.1l0.3-21.4l-5.4-3.8L710,298l-1.8,1.1l-3-1.9l-0.1-6.1L703.4,290.9L703.4,290.9z"/>
	<path class="st0" d="M659.9,277.9l-2,7.5l-10.8,3.7l-3.2-3.8l-1.6,0.4l2.9,11.3l4.4,0.5l5.9,2.2v2.2l2.7-0.5l3.9-5.4v-4.4l2.2-4.4
		l2.5,0.5l-2.9-6.2l-0.5-4L659.9,277.9L659.9,277.9z"/>
</g>
<path id="_x37_fdcd1ff-50d0-4e7e-8723-4eddf9e5a12e" class="st0" d="M364.1,141.5l-0.8,5.2l-7,2.6h-2.2l-1.6-1.1v-1l3.5-2.2l-1-1.9
	l0.2-2.7l3,0.1l1.4-3.2l-0.2,2.9l2.3,1.9L364.1,141.5L364.1,141.5z"/>
<path id="_x37_990086e-cfb9-4e9f-9686-25dca0a2fe8e" class="st0" d="M455.6,203.3l-1.4,4.4l1.8,5.2l2-7.6v-1.6L455.6,203.3
	L455.6,203.3z"/>
<path id="_x33_22e3fa2-3326-48bb-8e07-5d9f39295e51" class="st0" d="M564.2,268.1l4-1.9l2.3-8.5l-0.1-10.4l13.5-14.5v-3.4l2.8-1.1
	l-0.1-4l-3-5.8l1.7-3.1l3.7,3.4l4.8,0.2v1.9l-1.5,1.6l0.3,0.9l2.6,0.1l0.5,2.9h0.8l1.9-3.4l1-9l3.2-2.3l0.1-3.1l-1.4-2.4l-2-0.1
	l-8,5.3l0.5,3.4h-5.6l-2-2.4l-1.1,0.1l0.4,3.4l-12.1-0.9l-7.5-3.3l-0.4-4.1l-5-3.1l-0.1-6.4l-3.4-3.9l-7.9,0.8l0.8,3.4l3.8,3.1
	l-6.7,13.6l-4.5,0.3l-0.7,1.6l4.4,4.1l-0.2,4.1l-4.5-0.1l-0.5,2l3.7-0.2l0.1,1.6l-2.7,1.4l1.7,3.2l3.3,1.1l2-1.5l1-2.7l1.2-0.5
	l1.4,1.4l-0.4,3.4l-1,1.6l0.2,2.8L564.2,268.1L564.2,268.1z"/>
<path id="_x34_ddd6d10-b62c-4f5e-90b0-5a7fa6cd1860" class="st0" d="M472,192l-1.4,6.7l-5.6,4.6l0.4,2.2l5.5,0.4l8.7,7.1l4.9-0.1
	l0.1-1.6l1.8-1.9l2.5,1.4l0.3-0.3l-4.8-6.4l-2.3-0.1l-3-3.9l0.6-2.9l0.9-0.1l0.3-1.3l-4.1-4.4L472,192z"/>
<path id="fc6e7c82-329b-44f1-bf2b-30efaede7086" class="st0" d="M476.6,185.9l-1.1,1.1l0.1,1.7l1.3,1.8l4.7,5.1l-0.7,2h-0.8l-0.4,2
	l2.6,3.4l2.4,0.2l4.9,6.7l2.7,0.2l2.1,1.5l0.1,3.1l8.4,4.9h3.1l1.9-1.6l2.4-0.1l1.4,3.3l9.1,1.3l0.3-3.3l3-1.1l0.1-1.2l-2.4-3.3
	l-5.3-4.3l2.8-2.6l-0.2-1.1l-3.5-0.5l-1.5-11.8l-0.2-2.7l-9.5-3.6l-4.2,1l-2.4,2.9l-2.1-0.1l-0.6,0.5l-4.7-0.3l-5.9-4.3l-2.2-2.4
	l-1,0.2l-1.8,2.1L476.6,185.9L476.6,185.9z"/>
<path id="_x33_52663dc-969d-4063-9867-75fd77e94ee0" class="st0" d="M335.5,98.9l-1.7-1l-2.3,1.4l-2,1.8l0,1l2.5,0.3l-0.2,1.8
	l-0.9,0.9l0.2,0.6l2.5,0.2v3l3.7,0.6l2.2,1.2l2.4,0.1l4.2-2.1l3.2-4.3l0-2.9l-2-1.7l-1.6-1.4l-0.7,0.5l-1.1,1.4l-1.3-0.2l-1.3-1.4
	l-1.6,0.2l-2.4,2l-1.4,1.6l-0.8-0.7l0-1.7l0.8-0.5L335.5,98.9L335.5,98.9z"/>
<g id="beb9fcfd-5796-499b-bae7-b383c15499e8">
	<path class="st0" d="M392.5,167.8l-0.5,1.4l0.1,1.5l2.1,2.4l3.2-0.1l7.2,8.3l4.5,1.3l2.6,2.5l0.6,5.7l1.4-0.8l1.2-3.1l-0.3-2.2
		l2.1-0.2l0.3-1.3l-5.9-2.8l-5.6-5.5l-2.2-3.3l-0.5-3.1l2.9-0.7l-0.7-2.1l-1.8-1.5l-1.5-0.1l-2.1,0.6l-2,2.8l-1.2,0.8l-1.9-1.1
		L392.5,167.8L392.5,167.8z"/>
	<path class="st0" d="M409.9,190.3l-1.2-0.7l-4.3,0.7l0.1,1.2l3.9,1.9l0.6,0.6l1,0.1L409.9,190.3L409.9,190.3z"/>
	<path class="st0" d="M397,182l-2.3,1.2l0.3,4.5l1.8,0.3l1.4-1.3v-4.2L397,182z"/>
</g>
<path id="a7221084-4293-42ca-a9a3-261a91d7d517" class="st0" d="M190.8,239.2l-3,0.8v0.8l1.8,1h1.8l1.2-1.4L190.8,239.2L190.8,239.2
	z"/>
<path id="ec497d1f-38f7-455f-9efc-ce87bd0863d0" class="st0" d="M458.7,205.7l-2.1,7.4l-0.1,1.1h3.4l3.7-3.3l0.1-1.2l-1.5-1.6
	l2.7-2.3l-0.4-2.1l-0.8,0.2l-2.3,1.6L458.7,205.7L458.7,205.7z"/>
<g id="_x34_3fca8e3-4e03-4822-97d0-a0d8135547f1">
	<path class="st0" d="M678.5,184.6l-1.4,1.4l0.6,2l1.2,0.1l0.8,4.3l1,1.1l1.7-1.6l0.2-4.8l-2-2.1L678.5,184.6L678.5,184.6z"/>
	<path class="st0" d="M685.9,180.6l-2.7,2.2l-0.6,2.7l1.8,1.2l2.6-2.8l0.4-3.1L685.9,180.6z"/>
	<path class="st0" d="M682.8,176.4l-4.2,4.8v2.3l2.6-0.3l4.1-3.6l2.7-0.5l0.7,0.8v2.4l0.7,1.2h1.3l1.8-2.2l0.7-2.8l3.5-0.1l3.5-4.2
		l-1.8-6.9l-0.8-3.7l1.8-1.5l-4.1-6.3l-0.9-0.7l-1.9,0.7l-0.5,2.6v2.1l1,1.2l0.3,5.5l-2.6,3.2l-1.5-0.9l-1.2,2.6l-0.2,2.4l0.9,1.4
		l-0.6,1.1l-1.9-1.6h-1.3l-1.2,0.7L682.8,176.4L682.8,176.4z"/>
	<path class="st0" d="M690,138.8l-1.4,1.2l0.7,2.5l1.2,1.2l-0.1,3.8l-1.5,0.6l-1.2,2.6l3.4,4.7l2.2-0.8l0.4-1.2l-2.4-2.2l1.5-1.9
		l1.6,0.2l3.4,2.3l0.4-2.6l1.6-3l2.3-2.3l-2.5-1.1l-0.9-1.8l-1.2,0.8l-1.1,1.3l-2.3-0.5l-2.4-1.6L690,138.8z"/>
	<path class="st0" d="M702.4,136.2l-2.3,3.2l0.2,1.6l1.2-0.5l2.7-3.4L702.4,136.2L702.4,136.2z"/>
	<path class="st0" d="M705.5,131.5l-0.8,2.2l0.1,1.5l1.4-0.9l1.3-2.7v-1L705.5,131.5L705.5,131.5z"/>
</g>
<path id="dbdba7b2-486e-4908-b196-51a78f8b2198" class="st0" d="M460.4,279.8l2.3,4.5l-2.7,5.8l-0.4,1.8l13.8,8.5l4.3-6.7l-2.2-1.8
	V283l2.7-3l-4.3,1.4h-3.3l-5.1-4.3l-1.6-0.7l-3,0.3l-0.5,0.9l0.1,2.1L460.4,279.8z"/>
<path id="c68a1b63-a4d6-4673-bec5-0edaba6f545e" class="st0" d="M534.7,169.7l-0.3,2.2l0.2,1.4l7.5,2.5l-6.6,2.7l-0.8-0.6l-1.4,0.9
	l0.1,0.5l0.8,0.4l4.6,0.1l2.3-0.7l3-3.8l3.8,0.7l4.6-6.3l-12.2-1.7l-1.7,4.1l-2.1-2.3L534.7,169.7L534.7,169.7z"/>
<path id="eeaed8f9-1e4c-4a18-a77d-54ac1e233d2b" class="st0" d="M624.3,256.4l3.5,3.8l6.6-4.9l0.6-7.7l-3.4,2.3l-1.8-1l-2.4-0.3
	l-1.3-0.9h-0.7l-1.8,2.9l0.3,1.3l1.8,1l-0.2,2.7L624.3,256.4L624.3,256.4z"/>
<path id="_x38_f4a2312-6983-4f6d-976a-2bd38eb5d45d" class="st0" d="M483.6,318.4l0.4,1.3l1.7,0.3l0.7-1.7L483.6,318.4L483.6,318.4z
	"/>
<path id="_x37_a0dd14b-4fbd-4151-82e4-9c7a15600212" class="st0" d="M657,165.5l1.6,0.7l0.5,5.6l3.2,0.2l3-3.5l-1-0.9l0.1-3.7
	l2.7-3.3l-1.4-2.5l0.9-1l0.5-2.6l-1.6-0.7l-1.3,0.7l-1.7,5.1l-2.7-0.2l-3.1,3.7L657,165.5L657,165.5z"/>
<path id="_x39_53c886a-2e33-41a5-a76e-79054f8ff66f" class="st0" d="M665.7,168.9l5.3,4.4l0.9,4.2l-0.2,2.3l-2.6,2.9l-2.2,0.1
	l-2.5-5.5l-1-2.6l1-0.8l-0.2-1.1l-1.3-0.6L665.7,168.9L665.7,168.9z"/>
<path id="_x33_33507ef-717b-44eb-86de-5109899a7342" class="st0" d="M488.4,211.2l-2-1.1l-1.4,1.4l0.1,2.7l3.1,1.2L488.4,211.2
	L488.4,211.2z"/>
<path id="_x31_38bf32a-a82f-4b7e-b1f4-3831e31b3444" class="st0" d="M482.7,160.6l3.5-1.5l4-0.1l0.3,6.1h-2.3l-1.8,2.9l2.3,3.9
	l3.4,1.9l0.3,2.2l1.3-0.4l1.2-1.4l1.9,0.4l1,1.9h2.5v-2.5l-1.5-4.4l-0.7-3.6l4.4-1.9l5.9,1l3.7,3.7l8.3-0.8l4.6,6.6l5.5,0.3l1.5-2.5
	l1.9-0.4l0.3-2.8l2.9-0.1l1.5,1.8l1.5-3.6l13,1.8l2.2-2.9l-3.7-4.5l4.9-10.7l4,0.3l2.7-6.6l-5.6-0.6l-3.1-3l-8.6,1l-11.1-10.8
	l-3.9,3.5l-11.9-5.4l-14.6,7.1l-0.4,5.1l3.4,4l-6.7,3.8l-8.6-0.2l-1.8-2.6l-6.7-0.5l-6.4,4.1l-0.1,5.6L482.7,160.6L482.7,160.6z"/>
<path id="_x38_0602106-0569-4840-a7dc-fe25e50203c1" class="st0" d="M620,224.8l-2.1,1.1l-1.7,5.1l2.9,3.7l-0.5,4.1l0.5,0.2l4.8-2.3
	l6.5,7.2l-0.2,4.6l1.4,0.8l3.5-2.8l-0.3-2.2l-10-9.6l0.1-1.5l1.2-0.9l-0.9-2.4l-4.2-0.7L620,224.8L620,224.8z"/>
<path id="af419e69-fa46-4b1e-a0f9-8e42162071df" class="st0" d="M456.4,198.4l0,1.7l-0.7,2.6l2.4,0.2l0.2-3.6L456.4,198.4
	L456.4,198.4z"/>
<path id="_x30_8eb3947-8462-4b12-b19e-d4db2803ffc7" class="st0" d="M228,251.7l-0.6,1.3l1,1.1l1.3-0.7L228,251.7z"/>
<path id="_x33_65eac99-4be1-4bbd-a817-a02583be7ef5" class="st0" d="M572.5,263.8l0.2,2.4l0.2,1.7l-1.3,0.2l0.6,3.9l1.9,1.1l3-1.7
	l-0.8-4l0.2-1.5l-2.8-2.6L572.5,263.8L572.5,263.8z"/>
<path id="ae753421-6f78-454a-a87b-d3b2742ab9df" class="st0" d="M347.4,273.4l9.5,6.3l-0.2-4.8l-2.9-3.4l-2.8-2.5L347.4,273.4z"/>
<path id="d4aa72cd-e46c-42f7-8ce3-98ceb23fecbf" class="st0" d="M440.1,365.2l2.6-2l1.2,0l1.5,1.9l-0.1,1.9l-2.5,0.9v0.7l-2.8-0.2
	l-0.7-2L440.1,365.2L440.1,365.2z"/>
<path id="_x30_ddadbac-3d59-42b9-9cf1-01836205747b" class="st0" d="M421.4,133.6l-2.1,0.4l0.2,2l3.4,0.2l1.3,1l0.3,1.8l1,1.4
	l3.1-0.1l2.9-3.7l-0.2-2.2l-5.5-0.9L421.4,133.6z"/>
<path id="_x31_38f6fe2-5c81-4d98-9510-dd0a13b643a3" class="st0" d="M389.7,156l0.8,0.7l0.9,0.1l0.2-1.7l-0.2-1l-1.2,0.6L389.7,156z
	"/>
<path id="_x38_f850770-918d-4f09-a670-c23d050819ee" class="st0" d="M432.1,128.4l-6.4-1l-1.1,2.8l-1.8,0.6l-1-1.2l-1-1.8l-1,0.8
	l-0.6,3.1v1.7l2.2-0.4l4.7,0.1l5.6,1l2.2-0.7l-0.1-2.5L432.1,128.4L432.1,128.4z"/>
<path id="db33a7e4-ecd2-43b0-a351-cde1f6da5618" class="st0" d="M399.2,211.9l1.4-0.2l0.4-3.1h0.7l2.8-4.5l6.8,2l1.9,2.9l6.7,3.1
	l3.5-1.5l-0.3-1.5l-1.5-1.5l0.2-1l2.5-2.1h4.9l1.9,2.5l3.9,0.6l0.5,31.9l-2.9-0.1l-17.6-9.2l-1.9,1.1l-7.2-1.8l-2-2.6l-2.9-0.4
	l-1.5-2.6L399.2,211.9L399.2,211.9z"/>
<path id="_x34_cfdea97-6d7a-42d7-8e99-694b1ec7093b" class="st0" d="M371.7,198.3h-10l-2,4.3l-4.5,2.2l-3.7,10.1l-7.2,4.3L334.2,236
	l10-0.2l0.4-4.9h2.5v-6.7h8.8l0.2-8.7l8.4-2l3.5-5.7l5.5-0.2L371.7,198.3L371.7,198.3z"/>
<path id="_x39_e10ec8d-3f82-4d0e-b9bc-43484301a16e" class="st0" d="M434.4,159.8l2.7,4.1l-0.2,2.3h1l2.3-3.9l-2.8-3.4l-1.5-0.6
	L434.4,159.8L434.4,159.8z"/>
<path id="a828c363-5769-491e-afbd-ab2d2228bc9d" class="st0" d="M418.9,175.1l-1.3,1.8l0.4,1.1l1.5,0.3l1.2-1.6L418.9,175.1z"/>
<path id="a9432970-43ce-4e55-bbf9-69682c41f265" class="st0" d="M496.2,319.9l-1.8,4.4l-3.1,5.6l-5.5,0.4l-2.4,2.8l0.4,8.5l-3.4,4
	l0.4,6.8l2.9,3.3l3.4-0.4l3.4-2.5l-0.8-4l7.9-13.6l-1.5-1.7l1.6-3.3l1.7,0.5l0.5-1.3l-1.6-6.8l-0.9-2.8L496.2,319.9L496.2,319.9z"/>
<path id="_x31_87b0f48-bf41-48ee-8849-b3b93c8813e5" class="st0" d="M425.9,177.3l-2.9,1l0.1,2.5l0.7,0.9l3.5-1.6L425.9,177.3
	L425.9,177.3z"/>
<path id="e4335422-0c8e-405c-920c-7f9c6576f873" class="st0" d="M346.8,253.2l2.7-1.8l14.8-0.1l-3.4-23.8l3.9-0.1l18.9,14.4l2.5,0.4
	l-1,8l-11.9,1.1l-9.2,6.9l-1.7,4.7l-6.4,0.3l-1.6-4.7l-4.9,0.4l0.2-1.5L346.8,253.2L346.8,253.2z"/>
<path id="_x32_4d92738-6dbc-4475-98ff-002f0df8d84e" class="st0" d="M614.8,260l-2.4-3.8l1.7-2.4l-1.6-3l-1.5-0.3l-0.3-5.1l-2.3-4.5
	l-0.7,1.1l-1.5,2.6l-1.9,0.3l-1-1.3l-0.5-3.4l-1.5-2.7l-5.9-5.6l1.5-1l0.3-4l2.2-3.6l0.9-9l3.1-2.1l0.1-3.3l1.9,0.6l3,4.3l-2.2,4.7
	l1.5,3.7l3.7,1.4l0.7,4l4.9,0.8l-1.4,2.3l-6.2,2.4l-0.7,4l4.5,5.8l0.2,3.1l-1.1,1.1l0.1,1l3.4,5l0.1,5.2L614.8,260L614.8,260z"/>
<path id="c862e93b-f3d3-45cf-858a-5bb48be264df" class="st0" d="M566.7,144.6l5-6.7l6,2.8l4.1,1.1l5-4.6l-3.4-2.5l2.2-3.2l6.7,2.4
	l2.3,3.8l4.2,0.1l2.2-1.6l4.5-0.2l1,1.7l7.5,0.4l4.8-4.9l6.6,0.7l-0.4,6.6l2.9,0.7l3.5-1.6l3.7,1.9l-0.1,0.9l-2.7,0.1l-2.8,5.9
	l-2.2,0.2l-8.5,11.2l-8.7,3.9l-5.5,0.4l-4.5-2.9l-5.8,3.1l-5.7-1.8l-1.6-4.1l-10.8-0.8l-5.5-9.4L568,148L566.7,144.6L566.7,144.6z"
	/>
<path id="fee0324b-21af-4152-a13d-947ffdae63d4" class="st0" d="M334.2,236.7l1.9,2.5l-0.4,10.6l2.7-2l2-0.4l2.7,1l3.1,4.3l2.9-2
	l14.3-0.2l-3.6-23.8h3.8l-7-5.4v3.5h-8.9v6.7h-2.6l-0.3,4.9L334.2,236.7L334.2,236.7z"/>
<path id="_x39_d25a715-86f1-4567-9816-9e17f6fc5bbc" class="st0" d="M410,196.8l-1.4,0.3l0,1.6l1.3,0.4l0.6-0.5L410,196.8L410,196.8
	z"/>
<path id="_x35_cf16ce0-b314-412c-8f1e-374493434883" class="st0" d="M514.1,342.4l-1.3,1.7l0.3,1.9l2.8-2.3L514.1,342.4L514.1,342.4
	z"/>
<g id="_x34_a8ff2d8-ebb4-48ce-b0db-ebb83dc8a2f0">
	<path class="st0" d="M551.6,274.8l0.3,2.3l1.4,0.5l0.3-2L551.6,274.8L551.6,274.8z"/>
	<path class="st0" d="M553.5,279.6l-0.1,2.8l1,0.5l0.9-1.9L553.5,279.6L553.5,279.6z"/>
	<path class="st0" d="M553.7,285l-0.9,0.9l1.1,0.9l1.3-0.9L553.7,285L553.7,285z"/>
</g>
<path id="_x36_6a8b752-3190-4d79-b786-86dedb493bf5" class="st0" d="M457.2,325.5l2.7,2.8l0,3.6l0.5,1.5l3.6-3.9l-0.4-4.9l-1.9-1.5
	l-1.7-8.6l-3-0.1l1.3,6.2L457.2,325.5L457.2,325.5z"/>
<path id="_x30_075f702-8aa4-44b2-a26e-900a0b2c7599" class="st0" d="M103.1,192.4l4.2,13.1l-1.9,1.1l0.2,2.6l3.7,2.8v5.2l4.5,4.4
	l-1.9-12.9l-2.6-8.5l0.7-5.9l2.2,0.2l0.9,2l-0.9,5l11.2,22v7.8l9.1,10.7l9.9,4.6l4.1-2.4l5.8,4.8l3.5-3.5l-1.5-3.9l5-1.5l1.5,0.9
	l1.5-1.5h2.4l4.3-7.6l-2.2-2l-8.4,2l-1.9,5.7l-5,0.9l-5.8-2.4l-2.6-8.3l2-10.4l-4-2.5l-1.9-10l-1.6-0.7l-2.9,3l-3.4-1.8l-1.3-6.7
	l-13.3-1.4l-6.9-5.3L103.1,192.4L103.1,192.4z"/>
<g id="b7009294-4854-4ddb-be1f-ad2dc8b57329">
	<path class="st0" d="M617.6,270.2l1.7,3.9l0.4,5.1l2.3,3.6l5.1,3.1l1-0.8l1.5-0.3l-0.2-1.9l-1.8-4.5l-2.7-5.7l-0.2,1l-3.2-0.1
		l-2.4-3.3L617.6,270.2L617.6,270.2z"/>
	<path class="st0" d="M644.8,285.3l2.6,3l10-3.5l2-7.6l4.5-0.3l4.1-3l-5.3-3.9l-1.2-2l-2.6,4.8l1,2.8l-1.6,2.3l-3-0.8l-7.3,5.3
		l0.2,3.1L644.8,285.3L644.8,285.3z"/>
</g>
<path id="a7534a91-fe0f-44c1-abf8-43610d5cad1d" class="st0" d="M452,354.8l2.3,1.9l5.5-3.3l0.9-5v-8.2l8.8-7.2l1.5,0l5.3-5.1
	l-0.8-10.5l-13.8,1.7l0.5,3.3l2,1.8l0.6,5.7l-4.8,4.7l-1.1-2.6l0.2-3.4l-2.7-3l-6.7,3.1l6.3,3.2l0.2,9.3l-4.1,6.1V354.8L452,354.8z"
	/>
<path id="b4e6adb1-0604-4c5f-a831-614b9ba3c8fb" class="st0" d="M413.5,362.3l2.9,0.2l1.7,1.7l4,0l1-11.5v-7.5l2.6-0.5l1-7.9
	l6.6-0.2l2.3-1.9l-3.9-0.2l-5.3,0.7l-5.7-2.1h-16.1l0.4,4.6l5.4,7.9l-0.9,4.1l0,2.1L413.5,362.3L413.5,362.3z"/>
<path id="e9522856-46e5-4f60-8811-9daf5eee43b7" class="st0" d="M767.9,361l-0.3,1.5l4,5.6l2.2,0.9l0.3-2.2L767.9,361z"/>
<path id="_x31_b2263df-2f12-4903-9dd6-4580867c71a6" class="st0" d="M382.6,258.6l2.2,0l2-3l3.3-0.6l3.5,2.2l7.6,0.2l5.9-2.4
	l2.2-1.9l0.2-2.5l4.1-4.1l1.1-9.1l-2.7-5.6l-6.9-1.7l-15.9,12.4l-2.3-0.2l-1,8.6l-8.1,0.8L382.6,258.6L382.6,258.6z"/>
<path id="_x32_7030240-66e2-429d-a039-3a4f356db8ec" class="st0" d="M383.2,273.6l3.4,0.2l4.1,4.6l2,0.5l1.6-0.8l2.4-0.3l0.8-3.3
	l3.2-2.1l3.5-0.2l6.4-11.8l-0.1-2.6l-3-2.3l-5.9,2.6l-7.9-0.1l-3.8-2.4l-2.7,0.6l-1.4,2.4l-0.1,6.9l-2.3,3.2L383.2,273.6
	L383.2,273.6z"/>
<path id="_x38_d854584-b661-43cf-ab02-77298401bc5d" class="st0" d="M172.4,250l1.9,0.4l0.1,3.9l-2.2,6.3l-5.9-0.6l-1.3-3l1.8-3.7
	l3.4-3.1L172.4,250L172.4,250z"/>
<path id="a630b438-6f4a-4952-8f3a-211efdc935e9" class="st0" d="M390.6,143l-3.9,1.9l0.8,0.8l0.1,1.9l-0.8-0.2l-0.9-1.4l-2.2,3.5
	l3.4,0.7l1.2,1.3h0.7l0.4-3l2.1-0.9L390.6,143L390.6,143z"/>
<g id="_x35_107b365-e68d-4a76-b4d0-5ac49301ec13">
	<path class="st0" d="M429.8,85.8l1.8-1.3l-0.2-1.4l-1.1-0.6l0.2-1.8h1v-1l-4.1-1.1l-6.2,0.6l-0.7,2.8l-1.5-0.5l-1-1.6l-3,0.2
		l-0.3,3l-1.4,0.6l-0.8-1.6l-6.4,5.1l1.3,1.4l-2.4,1.1l-5.4,10.7l-1.9,1.3l0.1,1l1.9,1l-0.5,2.1l-3.2-0.2l-1-1.1l-2.1,2.4l-1.3,1
		l-0.3,2.2l-1.1,0.6l-2.9,0.6l-1.4,4.5l1,7.3l1.1,3.3l1.3,1.3l2.9-0.2l4.1-4l1.6-2.7l0.5,4l2.7-4.8l0.1-13.4l2.2-1.4l0.7-7.4
		l6.6-9.6l3.2-1.1l1.4-1.8l4.8,1.1l2.5,1.3l0.8-4l4-2.4L429.8,85.8L429.8,85.8z"/>
	<path class="st0" d="M406.3,44.2l-1.4-1.4l-3.2,1.5h-5.8l-0.9,3.4l3.3,2.9l1.4-0.2l2-3.5l1.7,1.2l-1.2,2.5l-0.6,3.6l1.4,2.3
		l3.1-5.1l4-4.8l-1.5-1.3L406.3,44.2L406.3,44.2z"/>
	<path class="st0" d="M408,38l-2.5,2.4l1.5,2.4h2.8l1.1,1.5l3.4,1.7l3.9-2.3l2.6-2.3l-0.9-1.8l-2.6-1.5l-1.9,1.8l-1.3-1.6l-1,0.1
		l-1.3,2.9l-1.9-2l-0.2-1.3L408,38z"/>
	<path class="st0" d="M413.8,48.6l-2,1.8l-1.7,1.3l0.8,1.4l1.6,0.5l2.6-1.2l1.2-1.5l-1.1-1.8L413.8,48.6L413.8,48.6z"/>
</g>
<path id="_x31_d394a36-33a3-43e8-aa9c-58260099b1fc" class="st0" d="M564.4,207.2l0.4,3.7l7,3.2l11.2,0.8l-0.4-2.7l-7.5-2.1
	l-6.3-3.8L564.4,207.2L564.4,207.2z"/>
<g id="b4b41985-c0b5-4cd6-adde-64eb5858508b">
	<path class="st0" d="M773.5,414.1l0.9,10.2l-1.2,4.7l-4.6,3.4l0.3,4v4.3l1.2,1.5l12.6-10.8V429h-3.1l-4.3-14.5L773.5,414.1
		L773.5,414.1z"/>
	<path class="st0" d="M764.3,436.4l2.5,4.6l-6.7,6.5l-0.6,3.4l-4.6,0.6l-7.7,7.1l-7-3.4l-0.6-2.5l12.9-5.6L764.3,436.4L764.3,436.4z
		"/>
</g>
<path id="f5eb3b5a-2906-4d9d-8295-27b167cf8031" class="st0" d="M501.5,240.3l6.4-3.7l1.1-5.4l-1.4-0.8l0.6-5.8l1.2-0.7l1.3,2
	l7.8,4.1v2.3l-9.4,13.9l-4.3,0.1L501.5,240.3L501.5,240.3z"/>
<path id="a940c463-b026-4da1-8967-bc2e590dd417" class="st0" d="M174.9,265.2l-1.3,3.9l4.2,1.1l2.6,0.5l0.4-3l2.8-1.4l2.5,1.3l1,1.5
	l1.2-0.1l0.9-2.8l-3.1-1.3l-2.3-1.3l-2.3,1.6l-2.8,1.4l-2.8-1.1L174.9,265.2L174.9,265.2z"/>
<path id="d6ff04eb-298f-4de3-9de6-f95083c0f545" class="st0" d="M178.8,299.6l-1.7,1.7l0.1,2.7l14.6,26.7l15.2,9.8l2.4-3.9l0.6-8.7
	l-1.2-5.4l-4.1-7l-2.5,0.8l-1.1,1.3l-4.9-5.6l1.2-6.6l5.7-3.7l-0.4-3.5l-5.8-0.2l-3-5.1l-1.7-0.6l0.1,3l-7.5,8.9l-5.6-1.4
	L178.8,299.6L178.8,299.6z"/>
<g id="b8b21606-5bfa-4477-bc01-78364320fe45">
	<path class="st0" d="M721.4,298.6l-0.4,21.1l3-0.2l4-4.7l3.4,0.2l2.2,1.9l0.7,6l6.9,3.6l1.8-0.6v-2.2l-5.5-4.6l-2.7-6.3l2.2-1
		l-1.6-3.5l-3.2-0.1l-0.8-3.7l-8.5-5.7l-1.5-0.2L721.4,298.6z"/>
	<path class="st0" d="M747.4,304.4l-0.8,0.2l-0.5,2.2l-1.6,1l-4.7,0.8l0.2,1.8l5-0.2l3.2-2l-0.2-3.4L747.4,304.4L747.4,304.4z"/>
	<path class="st0" d="M745.3,299.2l-0.8,1.1l4.2,3.7l0.6,2.2l1.1-0.1l0.1-2.2l-1.3-1.1L745.3,299.2L745.3,299.2z"/>
</g>
<g id="f65e87b3-d3e9-4827-841f-e9a0266763fd">
	<path class="st0" d="M666.6,254.7l-0.7,1.4l-0.4,1.8l-4.1,5.2l0.2,1.1l1.7-0.2l5.4-6L666.6,254.7L666.6,254.7z"/>
	<path class="st0" d="M673.3,252.7l-0.1,4.3l1.6,1.6l0.6,3.1l1.6,0.3l0.7-1.9l-1.2-0.9l-0.3-5.4L673.3,252.7L673.3,252.7z"/>
	<path class="st0" d="M677.7,254.4l-0.1,3.8l0.9,1.5l1.6-1.8l-0.4-3.3L677.7,254.4L677.7,254.4z"/>
	<path class="st0" d="M678.7,251l1.6,2.1l0.7,2h1.4l-0.2-3.4l-1.6-1.1L678.7,251L678.7,251z"/>
	<path class="st0" d="M681.8,258.9l0.3,2.5l-2.9,2.3l-2.4,0.2l-2.6,2.8l0.1,1.2l2.4-0.8l1.7-1.1l1.4,3.6l2.5,1.8l1-0.3l0.9-1.1l-2-2
		l1.2-0.9l1.3,1.1l0.9-1.5l-0.9-1.8l-0.2-4.1L681.8,258.9L681.8,258.9z"/>
	<path class="st0" d="M668.3,233.5l-2.2,1.6l-0.2,5l3.5,6.7l1.2,0.9l1.5-1l2.6,0.4l0.5,2.2l1.9,0.2l0.9-1.2l-1.2-1.6l-1.4-1.3
		l-3-0.3l-1.6-2.6l1.8-2.8l0.2-2.4l-1.2-3.1L668.3,233.5L668.3,233.5z"/>
	<path class="st0" d="M669.5,248.4l0.7,2.3l1.2,0.8l0.8-1.1l-1.3-1.8L669.5,248.4L669.5,248.4z"/>
</g>
<path id="_x30_e7e3a58-5a6a-421a-82df-3e0896f79618" class="st0" d="M522.9,213.5l2.2,3.3l-0.2,1.7l-3,1.2l-0.2,2.8h3.4l1.2-1h6.5
	l5.9,5.2l0.8-2.5h4.4l0.1-3.1l-4.5-4.3l1-2.4l4.6-0.3l6.2-12.9l-3.4-2.7l-1.3-4.5l8.3-0.8l-4.9-7l-2.6-0.7l-1.1,1.3l-0.8,0.1
	l-4.9,3.1l1.6,2.7l-1.8,1.9L538,203l-5.6,3.6l-0.8,3.9L522.9,213.5L522.9,213.5z"/>
<path id="_x38_b702057-5bdb-4b36-8801-4302487889bf" class="st0" d="M426.3,148.6l0.7,1.4l0.2,1.4l-0.6,1.4l-1.4,2.7l-1.2,0.5
	l-1.5-0.7h-0.9l-2.2,0.8l-2.5-0.7l-4.1-2.9l-4-2.1l-1.6-2.4l-0.3-5.8l3.1-2.7l4.1-1.4l1.3-0.1l0.3,1l1.7,0.7l4.8,0.1h1.5l2.4,3.7
	l-0.6,1.5l0.3,1.8L426.3,148.6L426.3,148.6z"/>
<path id="a4899d1f-6f37-465b-bc06-e20d546b5012" class="st0" d="M218.5,240.5l-2.3-0.8l-1.8,1.1l0.9,1.1l3.1,0.5L218.5,240.5
	L218.5,240.5z"/>
<g id="_x38_5da4cc9-18c7-466a-b3b8-375477f612ed">
	<path class="st0" d="M356.7,180.1l-0.5,7.5l-1.5,1.4l0.2,0.9l1.1,1.8l-0.7,2.2l1.1,0.4l2.7-0.3l-0.1-2.2l1.8-10l-0.4-1.4
		L356.7,180.1L356.7,180.1z"/>
	<path class="st0" d="M337.1,201.9l-0.9,1.2l0.9,1.2l1.4-0.7L337.1,201.9L337.1,201.9z"/>
	<path class="st0" d="M306.3,185.1l-1.2,1.2l2.1,1.2l0.2-1.6L306.3,185.1L306.3,185.1z"/>
	<path class="st0" d="M312.7,184.4l-1.4,0.9l1.2,0.9l1.9-0.5L312.7,184.4L312.7,184.4z"/>
	<path class="st0" d="M313.6,187.7l-0.7,1.9l0.9,1.2l1.2-0.9L313.6,187.7L313.6,187.7z"/>
	<path class="st0" d="M319.2,191.5l-0.5,1.2l0.7,0.7l1.9-1.2L319.2,191.5L319.2,191.5z"/>
</g>
<path id="_x30_21df01f-36c4-4ea9-b8bc-ea66507a76df" class="st0" d="M236.4,342.9l1.9,2.1l-0.2,4.4l5.5-0.3l4.1,5.3l-0.3,4.7l-2.7,4
	l-5.5,0.2L239,361l1.6-3.7l-5.4-3.4h-4.5l-3.4-3.6l2.4-7L236.4,342.9L236.4,342.9z"/>
<path id="_x31_75a7b15-7718-4e65-b84d-3f84e20e5172" class="st0" d="M496.5,221.4l-0.5,3.5l1.3,1l1.2-0.1l0.5-4.4l-1-0.8
	L496.5,221.4L496.5,221.4z"/>
<path id="_x35_04e6d64-59c9-4355-9da5-be3f8f3476d4" class="st0" d="M427,159.7l-0.2,1.3l-5,4.2l4.2,6.1l2.7,1.9h4.8l1.6-1.3
	l2.1-0.3l1.6,1l2.8-3.2l-0.5-1.6l-2.9-0.7l-2-0.1l0.1-2.8l-2.6-4.1L427,159.7L427,159.7z"/>
<path id="f7f1192b-a52d-404b-951f-50be38e065c0" class="st0" d="M421.2,165.7l-1.8,1.3h-0.9l-0.6,1.8l2.1,2.4l0.1,1.9l-0.9,1.2
	l3.1,3.2l3.3-1l-0.3-4.7L421.2,165.7L421.2,165.7z"/>
<g id="f3e4c19f-af34-4108-9e42-994689cf6f07">
	<path class="st0" d="M691.3,60.6l1.5,5.3l3,0.9l3-4.8l-1.7-3.3l0.7-2.8h4.6l-1.1,2.2l0.4,7.9L695.2,82l0.7,3.5l-0.2,5.9l12.2,17.7
		l2.4,0.7l0.2-14.4l2.4-2.2l-2.6-5.7l2.2-2.4l-4.8-6.3L705,79l-0.9-10.5l6.7-1.8l0.4-3.1l3.5-0.9l2,1.8l2.4-9.6l4.1-7l3.3-1.8
		l2.8,0.2v-3.3l-4.6-0.9l-6.3-5.3l3-3.5l-2.6-5.9l2.1-2.2l2.6,3.5l6.5,2.4l7.2,0.7l0.9-3.1l-3.7-3.7l4.1-5.7l-9.3-3.3l-2.4,4.8
		l-3-3.9l-17.2-5.9L690.4,14l-2.4,1.3v1.3l3.5,1.8l-0.5,4.2l-6.3-2.6l-13.9,5.5l-2.4-5h-9.5l-4.3,4.6l-15.4-3.5L625,24.2l-1.7,4.4
		l2.2,0.7l-0.2,3.3l-13.7,1.5l0.9,4.4l-12.6-2.2l3-5.7L590,29.9l1.1,5.9l-4.1,2l-3.5-3.3L569.4,37l-5.4,5l-0.2,3l-3.5,0.2l-0.4-3.5
		l11.1-9.6v-6.5l-7.2-2l-9.3,3.1l-3.9-3.9h-1.7l-2.2,4.4l1.7,2L536,35.8l-10.6,8.1l-6.5,9v3.7l7,2.8l-3.5,2.6l-7.4-2.6l-3,2.6
		l-4.6-5.3l-0.9,2l5,15.8l1.3,0.4l3.5-1.8l1.7,1.3v2.8l-3.3-1.3l-2,1.5l1.2,2.8l-1.1,7.4l-6.7,0.7l-0.4-2.4l3.9-2.4l0.9-6.6
		l-4.3-5.7l-1.5-9.8l-7-1.1l-0.6,3.5l1.3,1.8l-2.8,2.4l1.1,6.6l4.1,1.8l0.9,4.8l-4.1-2.6l-10.6-2l-1.3,3.5l-8.5,3.1l-1.3-2.2
		l-11.1,6.1l-0.2,4.2l-4.4,0.7l1.3-3v-3l-4.4-1.5l-2.8,1.1l2.4,4.6l1.7,3.1v2.4l-3.3-0.7l-0.6-0.7l-3.3,3.5l1.7,3.1l-7.4-0.2l2.4,3
		l-0.6,1.3h-3.9l-2.8-2l-0.6-5.5l-4.6-1.8v-2.2l9.6,2l5.2,0.4l2.2-3.3l-2-3.5l-13.9-5.5l-4.8,1.2l-1.7,1.4l0.5,3.2l2,0.3l-0.5,5.1
		l6.3,14.8l-4.5,7.2l-0.3,1.6l2.3,1.6l-2.1,1.4h-1.4l0.3,6.4l1.9,2.7v2.6l2.5,0.2l3.7,1.4l4,5.4v1.4l-1.3,2.2l3-0.2l2.9,0.8l3.9,5.5
		l9.6,0.9l-0.4,6.6l-3.3,2.8l0.7,1.1l-3.3,3.5l-0.9,3.3l2,2.9l6.3,2.2l2.6-1.5l16.7,6.4l0.6-1.8l-3.5-3.3v-4.2l-2.2-0.7l0.4-3.5
		l3.5-4.2l-6.2-4.7l0.4-6.5l6.7-4.4l7.8,0.4l1.3,2.4l8,0.4l5.9-3.3l-3-3.2l0.6-6.1l15.2-7.4l11.7,5.3l3.9-3.5l11.5,10.9l8.7-0.9
		l3,3.1l8.3,0.9l5.4-7.4l7,3.1l3.7,0.7l3.7-3.3l-3.3-2.2l2.8-4.4l8,2.6l1.7,3.5l3.5,0.2l2.2-1.5l5.9-0.2l0.7,1.5l6.7,0.4l4.6-4.8
		l9.3,1.1l2.8-1.1l0.9-5.3l-2.8-6.3l2.8-2.4h8.9l8.5,10.1l10.9,6.1h3.3l0.4-2.6l3.9-2.4l0.4,14.2l-3.5,0.2v3.5l2,2.4l-0.4,3.1
		l1.4,0.6l0.9-2.2l1.3,0.4l0.9,0.9l3.9-0.9l3.9-11.4l0.4-14.2l-5-11.4l-6.3-7.7l-3,0.4v2.4l-7.4-2.8l2.8-6.1l2.4-16.2l10-3.1
		l4.8-3.1h5.2l-1.3,1.8l1.3,2.2l4.6-4.8l2.6,0.2l-0.4-2.8l-4.1-0.9l2.8-10.3L691.3,60.6L691.3,60.6z"/>
	<path class="st0" d="M419.3,136.7l-1.3,2.4h4.7h1l-0.2-1.4l-0.7-0.9L419.3,136.7z"/>
	<path class="st0" d="M710.4,111.7l-1.1,1.3l0.1,2.1l1-0.1l1.7-2.9L710.4,111.7L710.4,111.7z"/>
	<path class="st0" d="M746,30.7l-2,1.3l-0.5,1.7l1,1.1l2.2-0.7l2.2,0.7l1.2,0.4l-0.1-4L746,30.7z"/>
	<path class="st0" d="M457.8,31.1l1.5,0.6l-1,1.8V36l-2.3,1.3h-2.4l-1.3-1.7l0.1-1.8l1-1.3h2.1L457.8,31.1L457.8,31.1z"/>
	<path class="st0" d="M463.4,29.4v1.8l1.5,1.2l2.1-0.2l1.8-1.6v-1.2h-1.6l-1.3,0.5l-1-1.2L463.4,29.4L463.4,29.4z"/>
	<path class="st0" d="M471.9,29.6l1,2.2L475,32l1.5-0.6l-0.7-2.1l-1.9-0.5L471.9,29.6L471.9,29.6z"/>
	<path class="st0" d="M480.4,26.6l-1.6-0.3l-1.5,1.5l0.7,1.4l0.5,2.1l1.9-1.5l0.5-1.6L480.4,26.6L480.4,26.6z"/>
	<path class="st0" d="M489.5,42.5l-0.5,2.1l-3.4,3l-7.3,1.7l-6,9.9l-1,2.8l6,1.5l0.9-3.6l1.8-5.5l4.6-2.4l3.9-3l2.8-1.2h1.5v-4
		L489.5,42.5L489.5,42.5z"/>
	<path class="st0" d="M470.3,64.4l4,0.4l1.3,4.7l3.4,3.6l-1.2,2.4h-2.1l-1.9-2.2l-4.3-0.2l-1.8-2.4V69l2.7-0.8L470.3,64.4
		L470.3,64.4z"/>
	<path class="st0" d="M533.1,13.2l-1.9-1.2h-2.2l-0.5,1.4l-2.4,1.4l-1.8,0.6l-0.3,1.8l4.2,0.3L533.1,13.2L533.1,13.2z"/>
	<path class="st0" d="M537.7,13.7l-1,2.2l-2.1-0.1l-3.3,2.4l-0.9,3h2.1l1.2-2l2.8,2.1l2.7-1.2l1.9-1.6l-0.7-2.6l-1-1.8L537.7,13.7
		L537.7,13.7z"/>
	<path class="st0" d="M542,15.3l1,4.2l1.6,3.9l1.8-3.1l3.4-0.8v-2.2l-2.2-1.6L542,15.3L542,15.3z"/>
	<path class="st0" d="M623.7,8.6l2.3,2l1.7-0.7l0.5-2.7l-3.4-2.3l-2.2,1.5l-5.4,0.5v2.4l-5.7,0.1v4l6.7,5l1.7-1.3l-0.4-3.5l4.3-1.1
		l-0.9-1.7l-1.5-1.6L623.7,8.6L623.7,8.6z"/>
	<path class="st0" d="M629.9,6.2l1.5,2.9l6-0.7l1.7-2.2l-0.4-1.9L637,3.8L635.5,5l-4.5,1L629.9,6.2L629.9,6.2z"/>
	<path class="st0" d="M629.5,17.7l-3-0.8l-1.7,1.9l-0.8,2.5l4.1-0.4l3.1-1.6L629.5,17.7L629.5,17.7z"/>
	<path class="st0" d="M707.5,0.8L704.9,0L702,1.1l-1.5,2.2l1.8,2.4l4.8-2.2l1-1.1L707.5,0.8z"/>
	<path class="st0" d="M708.4,116.7v3.7l1.2,0.4l0.8-1.3v-2.8L708.4,116.7L708.4,116.7z"/>
	<path class="st0" d="M674.6,103.5l-0.1,5.3l6.7,10.3l2.4,9l4.2,8l1.7,0.6l1.4-1.2l0.7-1.9l-6-6.6l0.2-3.4l1.3-0.6l0.3-2l-11.8-16.7
		L674.6,103.5L674.6,103.5z"/>
	<path class="st0" d="M721.2,86.9l-1.7,0.2l1,1.4l2.1,1.4l0.6-0.7L721.2,86.9z"/>
	<path class="st0" d="M724.4,87.9l0.2,1.4l2.6,0.8l0.2-1L724.4,87.9z"/>
	<path class="st0" d="M738.5,93.4l1.1,1.9l1.8-0.1l0.4-1.3L738.5,93.4L738.5,93.4z"/>
	<path class="st0" d="M756.6,96.4l1.4,2.7l1.1-1.2V96L756.6,96.4L756.6,96.4z"/>
</g>
<path id="_x36_79ce923-4346-4eaf-8285-6ce686cd0749" class="st0" d="M449.1,291.3l2.4,2.2l-0.1,2.4l-3.8,0.1v-2.6L449.1,291.3
	L449.1,291.3z"/>
<path id="_x38_5ecbb85-5767-4af3-ae85-fc7eebacc7ac" class="st0" d="M489,216.4l6.1,8.4l2,1.6l0.9,3.8l9.3,0.7l1,0.6l-1,4.7
	l-6.1,3.6l-9,2.7l-4.8,4.7l-5.7-3.3l-3.4,3l-4.8-7.8l-3.3-1.5l-1.2-1.8v-3.9l-12-14.4l-0.5-2.6h3.5l4.2-3.6l0.1-1.8l-1.2-1.2l2.4-2
	l5.1,0.3l8.7,7.2l5.1-0.2l0.3,1.3L489,216.4L489,216.4z"/>
<g id="_x36_6852264-5989-40ce-9947-bc58437e76cc">
	<path class="st0" d="M753,308.3l1.1,3l1.9,1.8l0.6-0.5l-0.2-2l-2.2-2.6L753,308.3L753,308.3z"/>
	<path class="st0" d="M758.2,312.7l0.1,2l1.2,1.1l1.1-0.7l-1-2.1L758.2,312.7L758.2,312.7z"/>
	<path class="st0" d="M759.8,317.6l-1,1.1l1.1,2l1.3,0.4l-0.1-1.3L759.8,317.6L759.8,317.6z"/>
	<path class="st0" d="M762.2,316.5l0.9,2.2l1.7,2l0.9-1.5l-1.3-2.1L762.2,316.5L762.2,316.5z"/>
	<path class="st0" d="M766.6,319.7l0.5,2.7l1.2,1.6l1-2.1L766.6,319.7L766.6,319.7z"/>
	<path class="st0" d="M768,325.7l-0.4,0.8l1.5,1.9l1,0.1l-0.6-2.5L768,325.7z"/>
	<path class="st0" d="M764.8,329.5l-1.5,0.7l1.3,1.8l1.1-0.6L764.8,329.5z"/>
</g>
<g id="b62b1eae-4615-4e6f-9537-82cfe50765f6">
	<path class="st0" d="M504.9,307.3l-0.5,1.1l1.4,1.2l1.1-1.2L504.9,307.3L504.9,307.3z"/>
	<path class="st0" d="M512.3,299.3l-1.6,1.1l1.2,1.9h1.6L512.3,299.3L512.3,299.3z"/>
	<path class="st0" d="M512.9,304l-1,1.2l0.8,1.2l1.4,0.3l0.1-2.5L512.9,304L512.9,304z"/>
</g>
<path id="_x35_de93f23-35f1-4eaf-9abf-b5d3511d6bdb" class="st0" d="M435.4,263.4l-2.5-1.5l-2.3-4.6l0.1-4.3l3.2-2.8l0,0l0.1-10.2
	l2.1,0.1l-0.2-5.7l22.3,0.2l3.2-3.2l6.9,11l-3.8,4.4v6.8l-4.6,9.9l-1,2.3l-3.7-5.3l-2.7,3.5l-3.1,0.8l-9.9-1l-4.3,1.5L435.4,263.4z"
	/>
<g id="_x34_f215948-44b0-44c6-b422-f73aa8c87e67">
	<path class="st0" d="M414.5,87.9l1.7,1.6h3.2l1.8,3.3l0.5,5.8l-4.3,3v3l-3,4.2l-1.8,0.2l-2.4,4l0.1,3.8l4.1,3l-0.3,1.8l-1.6,2.4
		l-2.4,2.1l0.1,6.9l-3.6,1.3l-1.3,2.7h-1.8l-1-4.8l-4-6.1l3.3-5.4l0.2-13.5l2.2-1.2l0.5-7.7l6.4-9.2L414.5,87.9L414.5,87.9z"/>
	<path class="st0" d="M415.1,127.3l-1.8,1.4l0.9,2.1l1.6-1.6L415.1,127.3L415.1,127.3z"/>
</g>
<path id="a9532c0a-3cb3-4e5a-b51f-e2608c669f10" class="st0" d="M627.5,286.1l0.7,0.4l1.5-0.1l-0.1-1.2l-1.3,0.2L627.5,286.1z"/>
<path id="e0e79990-645e-4639-833e-8122cc6da457" class="st0" d="M411.9,163.5l-2.2,1.3l-4.1,0.9l0.8,2.4h2.9l2.6-2.2L411.9,163.5
	L411.9,163.5z"/>
<path id="_x34_fbd11cb-8b29-49f1-bcf3-84e72e76f729" class="st0" d="M412.8,159.3l0.6,0.5l0.1,0.9l6.6-0.1l4.9-2.1l-0.1-2.1
	l-0.9,0.4l-1.3-0.7h-0.8l-2.2,0.9l-2.9-0.7L412.8,159.3L412.8,159.3z"/>
<path id="_x39_0296c6c-8d55-443a-9372-be623a0cbb78" class="st0" d="M342,268.2l4.9,4.7l3.5-4.2l-2.2-3.4l-3,0.3L342,268.2z"/>
<path id="b203086f-2224-4216-943e-cf569f34ad13" class="st0" d="M341.7,257.2l-5.8-0.1l0,0l1.1,2.6l0.6-1.6l7.3,0.8h0.8l3.4,0.1
	l0.1-1.5l-3.1-3.8l-3.4-4.6l-2.1-0.9l-1.7,0.4l0,0l-3.4,2.5l-0.8,1.4l-0.2,1.4l1.2,0.9l4.2-0.1l2.7-0.7l0.3,1.3l-0.2,1.8
	L341.7,257.2z"/>
<path id="_x36_1cf0e18-d815-40ed-a2e5-beb35e0ffc40" class="st0" d="M495.9,260.4l3.8-1.5l1.3,0.8l-0.1,3.4l-3.5,10l-18.9,20.2
	l-2.2-1.5l-0.1-8.5l2.8-3.3l6-1.9l8.8-9.3l2.3-2.1l0.6-3L495.9,260.4L495.9,260.4z"/>
<path id="_x36_cffaac0-d34c-4d22-a070-cf5c397722be" class="st0" d="M237.6,275.1l1.8,1.6l2.7-1.7l2.5,0.1l-0.3,1l-1,2.2l-0.2,5.4
	l-5,2l0.2-3.5l-3.2-3l0.2-1.5L237.6,275.1L237.6,275.1z"/>
<path id="ae4ba152-89ec-46b6-9e3e-f45693108c2f" class="st0" d="M458.6,266.4l-2,0.9l0.6,3.5h2.5l3.5,5l-2.8,0.4l-0.7,1.3l-0.1,1.9
	l-8.3-0.1l-0.9-1.3l-5.8-0.3l-10.6-11l1.1-0.6l4.5-1.4l9.9,0.8l3.4-0.8l2.2-3L458.6,266.4z"/>
<g id="_x32_e977706-c25d-44ca-b821-da7a2fa994c3">
	<path class="st0" d="M391.1,289l1-0.5l0.7,0.6l-0.7,1.1l-0.9-0.4L391.1,289L391.1,289z"/>
	<path class="st0" d="M393.1,285.8l1.5-0.2l0.5,1l-0.7,0.8l-0.7-0.1L393.1,285.8L393.1,285.8z"/>
</g>
<path id="a5646137-e21b-4b57-a6f7-95814b3d828b" class="st0" d="M158.5,253.6l4.1,2l-0.1-3.2l-2.1-1.3L158.5,253.6L158.5,253.6z"/>
<path id="_x33_0200424-35a4-4ce2-ac48-fcce419eae5b" class="st0" d="M456.8,195.6l-0.3,2.2l2.4,1l-0.1,6.1l2.4-0.1l2.4-1.8l0.9-0.1
	l5.5-4.4l1.1-6.4l-11.1,1.1l-1.2,2.6L456.8,195.6L456.8,195.6z"/>
<path id="_x35_469733d-1f60-42ee-80bc-ffe4b4a7c8ce" class="st0" d="M451.8,355.4l-2.2,0.4l-0.9,2.5l1.7,1.5h2l1.7-2.5L451.8,355.4
	L451.8,355.4z"/>
<path id="_x31_20ea93c-8729-40d3-b563-3587d03166e5" class="st0" d="M410.2,253.4l0.1-2.6l4.1-4l1.1-9.8l-2.7-5.2l1.9-1l18.5,9.6
	l-0.1,9.5l-3.3,2.8v4.9l2.1,4.1h-3.8l-6.2,6.2l-0.2,1.9l-4.6-0.1l-0.1,0.9l-2.6-0.4l-1.8-3.4l-1.4-0.7l0.2-1l1.7-1.3v-6.1l-2.3-0.4
	l-2.9-2.1L410.2,253.4L410.2,253.4z"/>
<path id="_x36_e84ef1d-8774-48c6-a44b-8607b69f2e93" class="st0" d="M377.7,275.2l2.3-1.4l0-9l-1.5-2.4l-1,0.8L377.7,275.2
	L377.7,275.2z"/>
<path id="d26597a9-17ea-4451-9fef-02716cb87ae6" class="st0" d="M615.3,231.3l2.8,3.6v4.4l1,0.5l4.5-2.1l0.9,0.3l5.3,6.1l-0.2,4.2
	l-1.7-0.3l-1.5-1l-1.2,0.1l-2,3.4l0.4,1.9l1.6,0.9l-0.1,2l-1.2,0.6l-4-2.7v-2.4l-1.6-0.1l-0.7,1.1l-0.3,10.9l2.6,4.7l4.5,4.4
	l-0.2,1.3l-2.4-0.1l-2.2-3.3h-2.3l-2.9-2.4l-0.9-2.4l1.2-2l0.4-1.9l1.4-2.4l-0.1-5.6L613,248l-0.1-0.6l1.1-1.1l-0.2-3.8l-4.4-5.6
	l0.5-3.2L615.3,231.3L615.3,231.3z"/>
<path id="_x34_c55fda0-25fa-42e5-a1ca-1a0781b4ae94" class="st0" d="M529,180.6l3.5-4.4h1.3l0.5,1l-1.6,1.2v1l1.1,0.8l5.2,0.3
	l1.7-0.7l0.8,0.1l0.5,1.7l3.1,0.3l1.5,3.3l-0.5,1l-0.6,0.1l-0.6-1.2l-1.3-0.1l-2.3,0.3l-0.2,2.2l-2.3-0.1l0.1-2.8l-1.7-1.7l-2.6,2.1
	l0,1.4l-2.3,0.8H531l0.1-4.8L529,180.6z"/>
<path id="_x34_c1bd9d1-57c3-484b-9312-104c48226db1" class="st0" d="M497.6,177l-0.5,2.3h-3.6v3.1l3.9,2.5l-1.2,3.5v1.6l1.6,0.3
	l2.1-2.8l4.8-1.1l10.2,3.9l0.1,2.7l5.7,0.5l6.4-6.7l-0.8-2.1l-4.2-0.9l-12-7.8l-0.5-2.8H505l-2,3.8H497.6L497.6,177z"/>
<path id="a3f9f01e-3257-4608-a981-5d2e6a0665e7" class="st0" d="M394.8,194l4.8-1.9l1.6,1l0.1,1.2l-0.7,1l0.1,1.7l0.7,0.4v3.1
	l-0.9,1.4l0.1,0.9l3.2,1.1l-2.6,4l-1-0.1l-0.2,3.2l-1.1,0.2l-1-0.9l0.2-3.3l-3.1-3l-0.4-2.7l1.5-1.2L394.8,194z"/>
<path id="_x33_121f348-e8a2-4e91-ae85-18a70c57685a" class="st0" d="M442,180.3l-2.3-1.4l-1.3-1l-2.1,0.9l0,0l-1.5,3.7l2.2-0.5
	l1.6-1.2l3.4,0.9l-2,1.9l-5.2-0.2l-1.9,2.1v1l1.2,1v1.1l-0.5,1.3l0.5,1.1l1.6-0.8l1.6,1.7l-0.4,1.2l-0.6,0.8l0.9,1l4.5,0.9l3.2-1.3
	v-1.9l1.5,0.3l3.6,2.1l4-0.6l1.7-1.6l1.1,0.4v1.8h1.5l1.3-2.6l11.5-1.2l5-0.6l-1.3-1.8v-2.4l1-1.2l-3.7-3l0.2-2.6h-2l-3.4-1.6l0,0
	l-1.9,2l-7.1-0.2l-4.2-2.6l-4.1,0.4l-4.5,2.7L442,180.3z"/>
<path id="_x30_4b98a67-aedb-438a-992b-59beece42936" class="st0" d="M228.2,261l-0.9,0.9l-1,0.1v1.2l1.8,1.7l0.8-1.2l0.5-1.4
	l-0.2-1.1L228.2,261L228.2,261z"/>
<path id="_x36_8b365b1-41d4-4c78-a473-583ee2cda93b" class="st0" d="M664.9,212.2l-3.1,2.3l-0.2,4.5l2.7,3.1l0.7-0.6L664.9,212.2
	L664.9,212.2z"/>
<path id="_x34_2ea66f6-1535-4cb6-b871-85a59d31ed45" class="st0" d="M461.5,318.4l13.8-1.7l-3.4-6.6l-0.2-6.3l1.1-3l-14.4-9
	l-4.5,0.7l-1.6,1.2l-0.1,2.6l-1,3.7l-1,1.2l-1.5,0.1l2.8,9.4l4.8,2.8l4.2,0.1L461.5,318.4z"/>
<path id="_x31_497fbcc-2d02-4b63-b87a-6434dc6b9ad8" class="st0" d="M429.9,147.2l-2.5,1.4l0.6,2.7l-2.3,4.9v2.1l1.1,0.7l7,0.4
	l2-1.6l2.1,0.7l3,4l-2.2,3.9l2.6,0.8l3.4-3.9l2,0.4l1.8,1.3l-1.6,2.1l2.1,3.4h2.3l1.2-2.2l2.4-0.5l0.1-1.8l-4.5-0.7l0.1-2h4.4
	l4.7-3.8l2.1-1.8l0.4-5.8l-9.3-0.8l-3.8-5.4l-2.6-0.9l-3.2,0.1l-1.4,3.6l-6.6,0.1l-2.1-1L429.9,147.2L429.9,147.2z"/>
<path id="d5fb64d3-c324-4374-ae31-1fcec07b4db0" class="st0" d="M449.5,290.6l2.6,2.5l1.6-1l4.4-0.7l0.8,0.1l0.3-1.7l2.5-5.3
	l-2.1-4.5h-6.8v1.8l0.9,0.9l-0.1,1.8L449.5,290.6L449.5,290.6z"/>
<g id="_x38_627558a-dd68-4096-9a37-d2a93dacc8ef">
	<path class="st1" d="M112.8,134.4l-0.9,3.5l-3-2h-1.5l-0.9,3.7L96,163.3l2.8,20.6l3.4,1.7l0.7,5.6h7.1l6.9,5.2l13.6,1.3l1.5,6.9
		l2.1,1.5l3-3l2.4,1.1l2.1,10l3.7,2.4l3-5.6l9.3-6.7l6,2.8l5.2,0.4l0.2-3.2l10.8,0.2l2.1,2.4l0.4,5.4l-1.3,3l1.5,5.2h3.2l3.2-5
		l-1.3-2.4l-1.3-5.2l1.9-5.9l8.8-7.6l6.7-2l-0.9-6.3l9.3-10l9.3-1.5l-1.5-5.2l9-5.2v-6.9l-0.9-0.4l-3.1,1.1l-0.4,4.2l-10.7,0.1
		l-8.4,5.6l-13.2,4.3l-2.1-2.6l6-9.1l-3-2.8l-2-3.8l-4.2-3.4l-4.5-0.4l-8.6-5.9L112.8,134.4L112.8,134.4z"/>
	<path class="st0" d="M44,43.6l3,5.6l1.9-0.4v-1.9L44,43.6z"/>
	<path class="st0" d="M27.2,92.8L27,95.4l1.9-0.4v-1.2L27.2,92.8L27.2,92.8z"/>
	<path class="st0" d="M24.3,94l-3.7,1.9l0.6,2l1.4-1.2l2.9-1.3L24.3,94z"/>
	<path class="st0" d="M8.8,96.4l-2.6-0.6L5.8,97L6,99.2L8.8,96.4L8.8,96.4z"/>
	<path class="st0" d="M3.3,96.3l-2.5-1L0,96.9l1.6,1.6L3.3,96.3z"/>
	<path class="st0" d="M64.7,36.3l-7.2,1.7l1.5,8.2l7.9,2.2l0.4,1.7l-11.8,3.7l-6.6,11l2.3,11.6l3.8,2.6l3-2.8l0.9,1.7l-3.6,4.3
		l-14.1,6.4l-9,2.2L32,94l20.7-6l8.5-2.4l7.9-9.7l8.8-5.8l-4.4,7.5l4.9,0.7l8.3-3.7l1.5,6l5.8,1.3l6,5.8l0.4,4.3l-0.8,1.1l1.1,4.1
		h1.4l0.2-6.9h1.8l0.4,17l4.3-3.7l-3-17.6h-4.5l-4.9-6.2l24.1-40.8L96.5,20.2l-26.7,5.2l-1.1,8.2l5.7,3.5l-2.1,5.6L64.7,36.3
		L64.7,36.3z"/>
</g>
<path id="_x34_c34f35d-6472-49ce-a166-6053266fcc28" class="st0" d="M243.9,370.9l-1.8,1.9l0.7,10.2l5.6,1.6l7.1-7.1L243.9,370.9
	L243.9,370.9z"/>
<path id="_x36_14ae071-8d08-4e5a-a764-ce0974f69d79" class="st0" d="M527.9,186.9l2.7,0.1v-4.6L528,181l4.2-5.4h1.8l1.7,2l4.5-1.7
	l-6.2-2.1l-0.2-1.3l-1.5,0.4l-1.5,2.5l-6.3-0.2l-4.6-6.5l-8.1,0.8l-3.9-3.8l-5.4-0.9l-3.9,1.6l2.3,7.5v2.5h1.6l2-3.8l5.4,0.1
	l0.8,2.9l11.5,7.6l4.4,1L527.9,186.9L527.9,186.9z"/>
<g id="_x30_8aca43e-616f-419c-82d6-bfdb1bd45b38">
	<path class="st0" d="M228.1,255l-1.1,0.8l0.8,1.5l1.4-0.8L228.1,255z"/>
	<path class="st0" d="M226.8,258l-1,1l0.4,0.6h1.2l0.4-1L226.8,258L226.8,258z"/>
</g>
<path id="e36dda36-b6d3-407a-9bd5-d8314af9ceee" class="st0" d="M200.7,262l0.4,2.2l2.8,0.9l0.6-4.1l3-3.1l3,3.5l6.8,1.9l5.8-1.2
	l3.9,4.9l3,1.9l-3.2,5l1.1,3.8l-1.9,2.3l-2.1,1.5l-4.2-2.1l-1,1v3l3.1,1.5l-2.2,2.4l-2.2,2.4l-3-0.2l-3-3.3l-0.6-12.3l-10.2-3.5
	l-1.9-5.4l1.9-2.8L200.7,262z"/>
<path id="_x31_b75d514-ff80-45f8-be36-a60f13f5a553" class="st0" d="M628.3,260.7l1,1.6l0.2,1.9l2.7,0.3l3.3-4.4l3.1-0.9l1.6-4.5
	l-0.8-7.2l-3.2-4.4l-3.4-2.7l-4.3-7.4l3.1-5.1l-4.4-5l-3.5-0.1l-3.2,1.7l0.9,4.1l4.2,0.7l1.1,3.1l-1.5,1l0.1,0.8l9.9,9.7l0.4,2.8
	l-0.6,9L628.3,260.7L628.3,260.7z"/>
<g id="ce202387-ee08-43bd-a105-4b0a10b3b472">
	<path class="st0" d="M780.2,340.9l-1.1,1.4l0.5,1.6l0.5,0.4l1-1.3L780.2,340.9L780.2,340.9z"/>
	<path class="st0" d="M780.8,345.3l0.1,1.2l1.2,0.4l0.8-0.5l-0.8-1.3L780.8,345.3L780.8,345.3z"/>
	<path class="st0" d="M782.5,355.7l-0.5,0.8l0.8,0.9l1.3-0.5L782.5,355.7L782.5,355.7z"/>
</g>
<g id="_x36_a7dd482-cb5c-4b3c-9579-b5a18fc9440e">
	<path class="st0" d="M478.7,247.5l1.2,3.7v3.6l3,2.7L504,249l0.2-2.4l-3.4-6.1l-8.5,2.7l-4.9,4.8l-5.6-3.3L478.7,247.5L478.7,247.5
		z"/>
	<path class="st0" d="M502.5,256.5l1.8,2.1l2.5-1.5l0.9-0.3l-1.1-1.1l-2.2,0.7L502.5,256.5L502.5,256.5z"/>
</g>
<path id="_x38_abea2d1-cf26-46bf-a818-2fbb6e691485" class="st0" d="M446,346.4l-6.8,6.3l-1.6,3.9l-5.5-0.6l-4.5,4l-3-0.3l0.2-5.5
	l-1.1-0.4l-0.8,11.3l-5.3,0l-1.6-1.9h-2.3l2.1,6.1l3.8,3.6L417,376l1.8,4l4.1,1.6l3.2-2.8l9.3,0l0.7-0.8l4.1-0.7l14-13.9l0-4.4
	l-1.5,1.9h-2.2l-2.7-2.3l1.4-3.4l2.4-0.5l-0.2-7.1L446,346.4z M442.7,362.4l1.3,0l2.1,2.3l-0.1,2.7l-2.5,1.2l-0.1,0.9h-3.8l-1.2-2.9
	l1.1-2.1L442.7,362.4L442.7,362.4z"/>
<path id="eea91191-016b-44a6-a972-e378bdd2bb99" class="st0" d="M429,330.1l2.7,3.8l4.2,0.3l1.5,0.8l4.4,0l3.8-5.4l10.7-4.8l0.9-4.2
	l-1.2-6l-5.6-3.2l-3.7,0.3l-1.8,4.1l0,1.9l4.4,2.1l0.3,4.6l-3.8,0.2l-0.9-1.6l-10.5-4.5l-0.3,3.4l-5,0.2L429,330.1L429,330.1z"/>
<path id="f002fca3-9c55-4982-92f2-3600158fdb6d" class="st0" d="M437.8,336.6l7.8,8.8l6,1.5l4-6.2l-0.3-8.3l-6.5-3.4l-2.4,1.1
	l-3.6,5.5l-5,0L437.8,336.6L437.8,336.6z"/>
<g id="_x38_587d72b-35b7-4d2a-921f-c209fad965bd">
	<rect x="584.1" y="201.7" class="st2" width="74.6" height="23.1"/>
	<rect x="38.2" y="227.1" class="st2" width="74.6" height="23.1"/>
	<rect x="269.7" y="146.9" class="st2" width="74.6" height="23.1"/>
	<rect x="431.9" y="164.6" class="st2" width="74.6" height="23.1"/>
	<line class="st3" x1="696.3" y1="174.2" x2="651.1" y2="213.5"/>
	<ellipse transform="matrix(0.7543 -0.6566 0.6566 0.7543 19.9331 479.9961)" class="st4" cx="651.2" cy="213.4" rx="2" ry="2"/>
	<path class="st5" d="M649.7,211.7c0.9-0.8,2.3-0.7,3.2,0.2c0.8,0.9,0.7,2.3-0.2,3.2c-0.9,0.8-2.3,0.7-3.2-0.2c0,0,0,0,0,0
		C648.7,214,648.8,212.5,649.7,211.7z M652.3,214.7c0.7-0.6,0.8-1.7,0.2-2.4s-1.7-0.8-2.4-0.2c-0.7,0.6-0.8,1.7-0.2,2.4c0,0,0,0,0,0
		C650.5,215.3,651.6,215.3,652.3,214.7z"/>
	<ellipse transform="matrix(0.9095 -0.4158 0.4158 0.9095 -68.3212 109.199)" class="st4" cx="216.6" cy="211.5" rx="2" ry="2"/>
	<line class="st3" x1="373.2" y1="148.4" x2="337.2" y2="158.6"/>
	<ellipse transform="matrix(0.9627 -0.2707 0.2707 0.9627 -30.4199 96.9666)" class="st4" cx="336.2" cy="158.7" rx="2" ry="2"/>
	<path class="st5" d="M336.7,156.4c1.2-0.3,2.4,0.3,2.8,1.5c0.3,1.2-0.3,2.4-1.5,2.8s-2.4-0.3-2.8-1.5c0,0,0,0,0,0
		C334.8,158,335.5,156.7,336.7,156.4z M337.8,160.2c0.9-0.3,1.4-1.2,1.2-2.1c-0.3-0.9-1.2-1.4-2.1-1.2c-0.9,0.3-1.4,1.2-1.2,2.1
		c0,0,0,0,0,0C335.9,159.9,336.9,160.5,337.8,160.2z"/>
	<line class="st3" x1="397.1" y1="154" x2="440.1" y2="175.4"/>
	<ellipse transform="matrix(0.446 -0.895 0.895 0.446 86.7523 490.9062)" class="st4" cx="439.9" cy="175.4" rx="2" ry="2"/>
	<path class="st5" d="M439,177.4c-1.1-0.6-1.6-1.9-1-3c0.6-1.1,1.9-1.6,3-1s1.6,1.9,1,3c0,0,0,0,0,0
		C441.4,177.5,440.1,177.9,439,177.4z M440.8,173.9c-0.8-0.4-1.9-0.1-2.3,0.8s-0.1,1.9,0.8,2.3c0.8,0.4,1.9,0.1,2.3-0.8
		C442,175.3,441.6,174.3,440.8,173.9C440.8,173.9,440.8,173.9,440.8,173.9z"/>
	<ellipse transform="matrix(0.9639 -0.2664 0.2664 0.9639 -87.2592 190.969)" class="st4" cx="660.3" cy="417.1" rx="2" ry="2"/>
	<line class="st3" x1="151.2" y1="196.8" x2="100.1" y2="237.3"/>
	<ellipse transform="matrix(0.7834 -0.6216 0.6216 0.7834 -125.7575 113.6702)" class="st4" cx="100.2" cy="237.2" rx="2" ry="2"/>
	<path class="st5" d="M98.8,235.5c1-0.8,2.4-0.6,3.1,0.4c0.8,1,0.6,2.4-0.4,3.1c-1,0.8-2.4,0.6-3.1-0.4c0,0,0,0,0,0
		C97.7,237.7,97.8,236.3,98.8,235.5z M101.3,238.6c0.7-0.6,0.9-1.7,0.3-2.4c-0.6-0.7-1.7-0.9-2.4-0.3c-0.7,0.6-0.9,1.7-0.3,2.4
		c0,0,0,0,0,0C99.4,239,100.5,239.2,101.3,238.6z"/>
	<path class="st5" d="M700.7,165.2c-2-1.9-5.1-1.9-7.1,0c-0.9,0.9-1.5,2.2-1.5,3.5c0,1.4,0.5,2.7,1.5,3.7l3.5,3.7l3.5-3.7
		c0.9-1,1.5-2.3,1.5-3.7C702.1,167.3,701.6,166.1,700.7,165.2z M697.1,170.4c-0.9-0.1-1.6-0.9-1.5-1.8c0.1-0.8,0.7-1.5,1.5-1.5l0,0
		c0.9,0.1,1.6,0.9,1.5,1.8C698.6,169.7,697.9,170.4,697.1,170.4z"/>
	<path class="st5" d="M378.2,139.5c-2-1.9-5.1-1.9-7.1,0c-0.9,0.9-1.5,2.2-1.5,3.5c0,1.4,0.5,2.7,1.5,3.7l3.5,3.7l3.5-3.7
		c0.9-1,1.5-2.3,1.5-3.7C379.7,141.7,379.1,140.5,378.2,139.5z M374.7,144.8c-0.9-0.1-1.6-0.9-1.5-1.8c0.1-0.8,0.7-1.5,1.5-1.5l0,0
		c0.9,0.1,1.6,0.9,1.5,1.8C376.2,144.1,375.5,144.7,374.7,144.8z"/>
	<path class="st5" d="M400.2,145.6c-2-1.9-5.1-1.9-7.1,0c-0.9,0.9-1.5,2.2-1.5,3.5c0,1.4,0.5,2.7,1.5,3.7l3.5,3.7l3.5-3.7
		c0.9-1,1.5-2.3,1.5-3.7C401.7,147.7,401.2,146.5,400.2,145.6z M396.7,150.8c-0.9-0.1-1.6-0.9-1.5-1.8c0.1-0.8,0.7-1.5,1.5-1.5l0,0
		c0.9,0.1,1.6,0.9,1.5,1.8C398.2,150.1,397.5,150.7,396.7,150.8z"/>
	<path class="st5" d="M154.8,189.2c-2-1.9-5.1-1.9-7.1,0c-0.9,0.9-1.5,2.2-1.5,3.5c0,1.4,0.5,2.7,1.5,3.7l3.5,3.7l3.5-3.7
		c0.9-1,1.5-2.3,1.5-3.7C156.2,191.3,155.7,190.1,154.8,189.2z M151.2,194.4c-0.9-0.1-1.6-0.9-1.5-1.8c0.1-0.8,0.7-1.5,1.5-1.5l0,0
		c0.9,0.1,1.6,0.9,1.5,1.8C152.7,193.7,152.1,194.4,151.2,194.4z"/>
</g>
<text transform="matrix(1 0 0 1 264.65 216.58)" class="st6 st7">t</text>
<text transform="matrix(1 0 0 1 280.95 161.73)" class="st6 st7">L</text>
<text transform="matrix(1 0 0 1 285.63 161.73)" class="st6 st7">ondon</text>
<text transform="matrix(1 0 0 1 452.71 179.46)" class="st6 st7">F</text>
<text transform="matrix(1 0 0 1 457.71 179.46)" class="st6 st7">r</text>
<text transform="matrix(1 0 0 1 461.21 179.46)" class="st6 st7">ankfurt</text>
<text transform="matrix(1 0 0 1 48.99 241.96)" class="st6 st7">Da</text>
<text transform="matrix(1 0 0 1 60.38 241.96)" class="st6 st7">l</text>
<text transform="matrix(1 0 0 1 63.04 241.96)" class="st6 st7">las</text>
<text transform="matrix(1 0 0 1 594.87 216.58)" class="st6 st7">T</text>
<text transform="matrix(1 0 0 1 599.54 216.58)" class="st6 st7">o</text>
<text transform="matrix(1 0 0 1 604.62 216.58)" class="st6 st7">k</text>
<text transform="matrix(1 0 0 1 609.77 216.58)" class="st6 st7">y</text>
<text transform="matrix(1 0 0 1 614.5 216.58)" class="st6 st7">o</text>
</svg>
