<svg id="_83f4f5ec-2379-4569-9c2d-58c6b5478579" data-name="83f4f5ec-2379-4569-9c2d-58c6b5478579" xmlns="http://www.w3.org/2000/svg" viewBox="0 0 784.1 458.6"><defs><style>.cls-1{fill:#ede9e7;}.cls-2{fill:#b9b4b4;}.cls-3{fill:#edf5ff;stroke:#000f5e;stroke-dasharray:1 1;}.cls-3,.cls-4{stroke-miterlimit:10;stroke-width:0.75px;}.cls-4{fill:none;stroke:#6e177d;}.cls-5{fill:#fff;}.cls-6{fill:#6e177d;}.cls-7{isolation:isolate;font-size:9px;font-family:IBMPlexSans-Bold, IBM Plex Sans;font-weight:700;}.cls-8{letter-spacing:0em;}.cls-9{letter-spacing:0em;}.cls-10{letter-spacing:-0.01em;}.cls-11{letter-spacing:-0.01em;}</style></defs><title>world-map_min</title><path id="_3989d687-79c1-4f58-8e49-7e4ea1b7c4ea" data-name="3989d687-79c1-4f58-8e49-7e4ea1b7c4ea" class="cls-1" d="M481.9,261.2l3.5,2.4h1l8.8-3,1,3.2-.7,2.7-1.9,1.5-4.7-.3-6.8-4.2-.2-2.3Z"/><path id="_410a01f2-9ae7-4c0b-9d4d-f7439b25a87b" data-name="410a01f2-9ae7-4c0b-9d4d-f7439b25a87b" class="cls-1" d="M497.7,226.5l.8,3,8.5.8.6-6.2,1.6-.9.5-2.3-2.7.8-3,4.5-6.3.3Z"/><path id="_2ab57ef6-5a6f-42dd-867e-5074112947b5" data-name="2ab57ef6-5a6f-42dd-867e-5074112947b5" class="cls-1" d="M515.1,193.8l1.4,10.8,3.4.8.3,1.9-2.5,2,4.6,3.7,8.9-3.2.7-3.8,5.6-3.5,2.2-8.1,1.6-1.7-1.7-2.9,5.4-3.4-.7-1-2.5.1-.2,2.3h-3.3l-.1-3.1-1.1-1.3-1.8,1.6v1.5l-2.7,1-5.1-.3-6.5,7-5.9-.4Z"/><path id="_7447d8fb-7d84-4b4d-82ba-d39cc833b6e0" data-name="7447d8fb-7d84-4b4d-82ba-d39cc833b6e0" class="cls-1" d="M419.9,178.9v4L421,185l.8-.1,1.4-2.6-.8-1.1-.3-2.8-1.1-1-1.1,1.5Z"/><path id="_42d060e2-6456-424a-9270-aecc18fdb196" data-name="42d060e2-6456-424a-9270-aecc18fdb196" class="cls-1" d="M476.7,179l4.1,5.4-1.2,1.4-2.9-.5L473,182l.2-2.1,3.5-.9Z"/><g id="_743f2cec-dcd3-444c-b098-6cc57cfd0359" data-name="743f2cec-dcd3-444c-b098-6cc57cfd0359"><path class="cls-1" d="M406.6,305.9l3,11-.1,3.5-4.3,4.6-.6,7.5,16.6.1,5.4,2,4.5-.7-2.6-3.2v-9.2l5.1-.2v-3.6l-4.1-.2-.8-8.6h-1.8l-.9-.9h-1l-1.4,2.6h-5.3l-1.2-1.2.4-1.7-1.4-2.1-9.5.3Z"/><path class="cls-1" d="M404.8,302.9l1.5,2,2-1.8-.6-1.9h-.5l-2.4,1.7Z"/></g><g id="_9524258e-8447-4a98-ab6c-a67d26f2ccc6" data-name="9524258e-8447-4a98-ab6c-a67d26f2ccc6"><path class="cls-1" d="M248.3,359l1.7,1.6-6.4,9.5-2.2,2.5.8,10.8,4.9,6-4.1,7.2-3.1,1.4h-3.6l1,5.6-5.6,1.9,1.3,4.7-3.4,10.7,4.1,3.4-2.2,5.5-3.8,6,2,4.2-4.9.8-4-5-.7-15.4-6.3-26.2,1.9-9.2-4-11.7,2.7-15.2,2.5-2.9-.6-2.2,3.1-2.9,7.1.5,3.9,4.2,4.6.1,4.7,2.9-1.4,3.2.3,3.2,6.6-.3,3.1-4.9Z"/><path class="cls-1" d="M234,446l.2,5,3.8-.3,3.2-2.1-5.5-1.1Z"/></g><path id="_264a7099-cb34-4856-b0bb-75e734e5a4c3" data-name="264a7099-cb34-4856-b0bb-75e734e5a4c3" class="cls-1" d="M399.7,161.9l-.6,1.2.5.8,2-.4h1.7l1.9,1.6,4-.7,2.9-1.7.7-1.2-.1-1.5-2.6-2h-3.5l-.3,2-3.7,1.8-2.9.1Z"/><g id="d09bb008-d794-4d36-8892-fe930a1ffa6c"><path class="cls-2" d="M642.2,367.5l-.3,21.9-3.4,2.5-.3,2.2,4.6,3.1,11.3-2.1h5.8l2.2-3.1,12.8-2.5,9.2,2.8-.6,3.7,1.2,3.7,7-1.2.3,1.9-4.6,3.4,1.5,1.2,3.4-1.2-.9,10.2,6.4,4.9,3.7-1.2,1.8,1.9,10.7-1.5,10.1-16.4,3.7-.9,7.4-13.6,1.8-11.7-4.6-5.9,1.8-1.2L730.5,357l-4-2.8.6-15.5-3.7-2.8-.9-8.6H721l-6.1,20.4-3.4.3-7.6-7.7,4.3-11.4-8-1.5-8.9,2.5-2.5,7.1-4,.9-.3-4.9-16.2,9.9.3,3.7-2.5,3.4H660l-13.2,5.6-4.6,11.9Z"/><path class="cls-2" d="M698,426.5l-1.5,6.2.3,4.3,4.6-.3,5.2-8Z"/></g><path id="f98b420b-237b-4fc6-8083-f4e2d5fc0e4e" class="cls-1" d="M478.2,177.1l-.9,1.5,4.1,5.3,1.4-.5,2.3,2.4,1-4.3,2.5.4-.1-1.2-4.2-3.6-.8,2.1-5.3-2.1Z"/><path id="_7d37e6ae-e568-4e86-99f2-3b32634fec11" data-name="7d37e6ae-e568-4e86-99f2-3b32634fec11" class="cls-1" d="M411.9,169.5l-.3.5,5.8,6,2.1-3.1-.1-1.2-1.9-2.3-5.6.1Z"/><path id="_34abe1eb-ee22-4506-90fb-e8ea8dd3766d" data-name="34abe1eb-ee22-4506-90fb-e8ea8dd3766d" class="cls-1" d="M585.5,216.3l-1.1,2,2.9,5.6.1,4.4.5,1.2,3.5.1,2-1.9,1.4.9.3,2.6,1.1-.7.1-3.4-1-.1-.6-2.9-2.4-.1-.6-1.6,1.5-2v-1H589l-3.4-3.1Z"/><path id="_9283bd24-f5a0-4538-99fc-78b845fd6161" data-name="9283bd24-f5a0-4538-99fc-78b845fd6161" class="cls-1" d="M383.2,150.1l-.5,1.4,6,3.9.4.1.4-1.1.8-.6-1.3-1.5h-1l-1.3-1.4-3.5-.8Z"/><path id="cc55204a-0e53-4333-abd1-5412939bf805" class="cls-1" d="M373.7,251.9l3.1-.2,5.1,7.4-4.8,3.6-3.5-.9-4.7.1-.8,2.7-3.9.2-1.1-1.5,1.4-4.4,9.2-7Z"/><path id="_2537239f-e14c-45f3-93e4-c8cd216388e5" data-name="2537239f-e14c-45f3-93e4-c8cd216388e5" class="cls-1" d="M426.3,172.5l.1,4.3,1.5,3,5.5.1,2.5-1.7,2.4-1-.6-2.8.5-1.5-1.2-.6-1.7.1-1.3,1.4h-5.5l-2.2-1.3Z"/><path id="_878ae025-8197-4f41-96f4-d84cb79cbcf7" data-name="878ae025-8197-4f41-96f4-d84cb79cbcf7" class="cls-1" d="M447.7,296.8l3.7-.1-1,3.2-.9.8h-1.1l-.8-2.2.1-1.7Z"/><path id="_8213aa95-7eed-4a5e-9438-ddd22a023ea8" data-name="8213aa95-7eed-4a5e-9438-ddd22a023ea8" class="cls-1" d="M380.7,273.7h1.8l.1-5.2,2.3-3.4-.1-5.9h-2.1l-3.6,2.8,1.5,2.9.1,8.8Z"/><path id="_7e600809-58ab-41d3-a1e7-d95bdd46fcd5" data-name="7e600809-58ab-41d3-a1e7-d95bdd46fcd5" class="cls-1" d="M658.3,273.5l-2.5,3,2,.6,1.2-1.6-.7-2Z"/><path id="_3f7d6a64-7d7b-44a6-80be-1f0abee9f9ff" data-name="3f7d6a64-7d7b-44a6-80be-1f0abee9f9ff" class="cls-1" d="M207.9,319.8l7.1-3.1,2.4.2,1.6,6.5,10.8,3.6,1.8,5.5,4.5.6,1.9,4.7-1.3,4.3-7.3.6-2.7,6.9-5.7-.1-1.8-.3-3.3,3.2-1.6-.2-5.6-13,1.6-2.3.5-9.2-1.4-5.5-1.5-2.4Z"/><path id="f867b9c0-6857-40d2-8ee3-a8324e0b1489" class="cls-1" d="M255.9,376.9l5.4-10.4.2-8.7,10.1-6.5h5.6l4.4-7.5.8-14.4-1.8-3.9,10.7-9.8.4-10.7-14.5-7.1-17.5-5.5-8.3-.8,2.2-4.7-.6-7.1-1.8-.6-2.7,5.3-1.4,1.8-3.6-1.6L231.4,289l-4-5.1.6-5.3-3.8,3.9-4.2-2.3-.4.6v1.8l3.6,2-5.4,5.7h-3.4l-3.5-3.5-3.9.1-.5,4.2,2.3,2.7-2.7,8.5-3.1.2-5,3.1-1.2,6.1,4.3,4.6.8-.9,3-.8,2.6,4.2,7.4-3.2,2.9.2,2,7,10.5,3.3,1.8,5.6,4.5.5,2.1,5.3-1.4,4.7,1.9,2.5-.3,3.7,5-.5,4.6,5.8-.4,4.1,2.7,2.3-6.6,10,11.7,6.8Z"/><g id="c93db297-84e1-497c-9bee-9a9999df6707"><path class="cls-1" d="M191.4,221.5l-1.1-.3-.1,2.1,1.3,1.4.9-1.4-1-1.8Z"/><path class="cls-1" d="M193.5,224.8l-1.5.8,1.4,2,.8-1-.7-1.8Z"/><path class="cls-1" d="M198.4,226.3l-1.6-.1.2,1,1.2,1.7,1-1.1-.8-1.5Z"/><path class="cls-1" d="M197.6,224.3l-2.6-1.1-.5-2.6,1-.4,1,2,1,.8.1,1.3Z"/><path class="cls-1" d="M195.1,219l-1.3-.3-.2-1.7-1.4-.5.9-.9,1.7.6,1.2.8-.9,2Z"/></g><path id="_0a75cd8e-fc62-466b-8e32-1a44fbfa26e0" data-name="0a75cd8e-fc62-466b-8e32-1a44fbfa26e0" class="cls-1" d="M585.3,212l1.3,1.8h4.5l-.5-2.5-5.3.7Z"/><path id="e5f080c7-c4c3-435a-b099-3b9099e0ca8d" class="cls-1" d="M423.8,353l1.9.6-.3,5.3,1.9.3,4.4-4,5.3.6,1.4-3.5,6.7-6.1-8-9.2-.1-1.5-.9-.3-2.4,2.2-6.3.1-.9,7.9-2.5.6-.2,7Z"/><path id="c6e4b45a-ed55-44e8-94b8-3916c80f1050" class="cls-1" d="M425.6,141.3l1.3,2.1-.5,1.7.1,1.4.5,1.6,2.7-1.5,3.3.1,2.3,1h5.9l1.7-4.1,1-1.6v-1l-3.7-5.2-3.3-1.3-2.7-.3-2.3.7.1,2.4-3.2,4.1-3.2.1Z"/><path id="_0b11c039-ac3f-41f8-82ae-e510008b5918" data-name="0b11c039-ac3f-41f8-82ae-e510008b5918" class="cls-1" d="M161.1,241.6v3.1h.7l2.5-4.6h-1.7l-1.5,1.5Z"/><g id="_7ee91148-0bd9-4518-b8e4-2e8cde8d00c8" data-name="7ee91148-0bd9-4518-b8e4-2e8cde8d00c8"><path class="cls-1" d="M121,39.6l1.7,2.6.9,3.5,4.3,1.1,3-3.2,2.6,1.3,7.3.7,5.2-2.2.9,7.2h3v-3l3,.2,7.5,8.9,5,3-2.6,4.1,1.1,1.1,9.7,2,.2,4.3,2.6.4L177,65l4.1-1.1,3,4.6,6.5,3,3.2.7,2.1-2.6.2-4.1L200,63l1.3,3.5-3.4,6.1.4,3,1.9-3,3.9-3.5.2-4.6L202.2,61l.6-2.8,5.2-2.6,2.4,1.7.4,15.2,3.7-3.2,2.1,1.3-3,5.2,3.9.9L223,68l4.7,5-1.9,8.9-4.7,2.6-4.5-2.2L208.4,84l.9,2.8-2.1,3.5-6.7,1.5L193,97.7l-6.7,8.9-.9,2.8,4.5,1.7,1.7,4.3,6.2,6.3,9.9,4.3-2.1,10-.2,2.8,2.6,1.7,3.4-4.6.4-8.7,5.4-.2,2.6-5,.4-7.6,6.9-13.4,8.6,3,4.5,6.3-1.9,6.3,3.4,2,8.4-5.7,2.4,15.4,7.8,9.3.2,4.8-8.6,2.2-4.1,4.3-8.6-2-4.3-.2-7.5,5.9,4.5-1.1,5.6-1.1,1.1,1.3-1.5,4.8.2,4.3,2.6,1.7,2.6-.6,1.3-2h1.7l-2.8,5.2-5.4.2-2.4,3.5h-3l-.9-2.6,4.3-4.3-5.2,1.7-.2-7.4-1.5-.9-4.5,2-.4,3.7H213.2l-8.8,6.1L192.6,171l-1.3-1.7,6-8.9-3.4-3.3-2.1-4.1-4.4-3.4-4.7-.4-8.4-5.9-61.2-10-1-4.1-5.6-5.2v-4.3l.9-3.9-.4-2.2-2.2-2.2-.4-3.5L110,104l-3.4-18.7-4.7-.2-4.3-5.6Z"/><path class="cls-1" d="M99.9,108.5l-1.5,2.8.5,2,1,.6-.2.8-1,.3.3,3,1.1,1.1.9-1-1.1-2.9.7-2.3,1.6-2.2-1.2-2-1.1-.2Z"/><path class="cls-1" d="M104.8,125.4l-1.3.5,2.4,2.8.6,3.3,2.4,2.6,2.1-.4v-3.4l-2.5-1.6-3.7-3.8Z"/><path class="cls-1" d="M237.4,54.2l-1.5,1.5,1.3,2.1,6.3.8-4-4.2-2.1-.2Z"/><path class="cls-1" d="M160.3,28.5l.2,3.5-6.9,7.2,1.7,5.8,5-1.3,2.9-4.2,7.3-2.7,5.9-.4-4.6-5-2.3,1.7-1.7-.6-1-2.1-2.1-2.1-4.4.2Z"/><path class="cls-1" d="M169.4,18.3,167.9,21l7.5,2.7,2.7-4,1.1,2.7h1.9l3.6-4-4.4-1.2-1.7-1.4-2.3,2.3-6.9.2Z"/><path class="cls-1" d="M182.4,23.7l-5.9,2.5v1.9l7.7,2.9-1.7,1.9,1.1,2.5,4.8-2.1h4l1.9,3.1,3.3-3.3-.8-3.1-2.7,1-.4-3.9,1.3-2.4h-1.3l-2.1,1.4-1,.8.6,2.7-1.5,1.2-2.3-.2-.6-3.5-4.4-3.4Z"/><path class="cls-1" d="M190.2,17.7l-.6,1.9,3.6,1.7,2.7-1.5-.2-1.2-5.5-.9Z"/><path class="cls-1" d="M193.1,14.4l-2.7,1,.2,1.3,5.9-.4-.2-1.4-3.2-.5Z"/><path class="cls-1" d="M206,17.7l-.4,1.4-1,1.4v1.9l3.6-.6,3.8,3.3h1.3V21.8l-3.8-4.2-3.5.1Z"/><path class="cls-1" d="M215.7,21.6l1.5,1.7-1.3,2.3,1,2.5,4.2-2.3V24.1l-2.5-2.9-2.9.4Z"/><path class="cls-1" d="M221.3,17.2l.2,3.1h5.2l1.3,1.1-.2,1.4-4.6.6,3.3,4.4,4.4.8,6.1-2.7-8.8-13.3-2.7,1.7.2,2.3-3.1-1.2-1.3,1.8Z"/><path class="cls-1" d="M176.6,39l-7.3,1.9-4.2,3.7.4,4,7.7,2.4-1.7,3.9-5.6-3.5-1.5,2.9,3.6,2.5-.2,4,5.6,1.5,6.7-.4,1.1-2.1,5,5.6,3.4-1.2.6-3.9,2.5,1.7.4-3.9L190,56.2l.2-12.2-2.7-2.1-2.9,3.9-8-6.8Z"/><path class="cls-1" d="M200,47.5l-2.5-1.2L196.2,48l2.7,4.2.2,4,5.8-3.5v-5l2.1-2.1-2.1-1.5h-3.4Z"/><path class="cls-1" d="M212.3,45.7l-4,3.3,1,4h2.5l1.1-2.1,1.7,1.7,1.7-.2,4.6-3.9-8.6-2.8Z"/><path class="cls-1" d="M211.9,39.4l-1,1.9,4.2,1.5,1.1-1.7-4.3-1.7Z"/><path class="cls-1" d="M209.4,32l-4.2.6-2.5,2.3,4.6.2L206,38.6l1,1.5,1.3-.2,3.3-5.2Z"/><path class="cls-1" d="M216.7,30.7l-2.3.8.4,3.1,3.8,2.5.2,1.9-1.1,1.2.6,3.9L233.1,49l4,1.3,4-3.5-4.8-3.9-4.4,1.2-6.1-.6-2.3-2.3-.6-6.4-3.8-1.9Z"/><path class="cls-1" d="M228.8,50.8l-4.2-.4-5,1.9L216.9,56l.8,10,8.2.4,7.9,3.9,5.6,6.4,4.2-.2-1.1,6-3.8,6.4-4.2,1.9-3.1-.6-1.5-1.3L227.6,92l1,3.1,3.3.2,4-1.9,3.4,8.9,8.6,5.6,5.9-7.5-5-8.1,2.9-3.3,4,6.8,7.3-6.4-1.3-2.9-5,1.6-3.4-9.5,3.3-5.4-6.5-7-3.6,2.5-3.4-7.5-7.3,1-1.9-9.1-5.9,4-.6,5h-3.2l.4-4.4,4.2-6.9Z"/><path class="cls-1" d="M231.2,32.4v1.7l-4.2,1,1.1,1.8,4.8,2,5.4.6,3.8,2.7,3.8-2.2-2.7-2.7h3.4l2.1-2.3,5.2-.8V33L251,31.1l.4-2.1,8,1.4,11.9-4.6-4.4-1.4,1.1-1.5h9.2l1.6-1.5-18.6-6.6-4.4-1.5L251,16.8l-5.4-4.4-2.9-.2-.6,3.7-3.6-3.3L234.3,14l.8,2.1,6.3,1.4-.4,3.1,3.4,2.1,8.4-2.1.2,2.9-6.9,3.3-4.2-3.3-3.8.4,3.8,5.4-1.9,1-2.9-2.5L235,29.2l1.9,3.7h3.3l-.8,3.5-2.7-.4-3.5-3.7-2,.1Z"/><path class="cls-1" d="M214.2,85.6l-3.7,4.6-.2,5.1,3.2-1.8h3.9l2.7,2.5,2.5-2.1-8.4-8.3Z"/><path class="cls-1" d="M258.7,145.4l-9.1,8.8.9,2.1,11.2,4.1,1.6-2.8-.9-4.6-3.7.5-2.1-2.3,3.4-3.4-1.3-2.4Z"/></g><path id="c376e1c9-c9ac-4ff6-bdf9-c1292b95ef03" class="cls-1" d="M407.3,305l8.9-.2,1.8,2.6-.1,1.9.7.6H423l1.3-2.5h1.8l.7.7,2.5-.1.7,8.7,4.3.1v.7l11.5,5.2.5,1h2.4l-.3-3.6L444,318l.3-2.8,1.9-4.4,4.3-.1-3.7-12.2.1-5.2,5.8-9.1.1-1.3-.9-.5V280l-1.1-.1-1.1-1.4-17.6-.8-3.2,3.1-5.3-3.5-1.9,1.1-1.4,11.4-3.3,2.6-1,2.3.2,3.4-6,4.9-1.6-.7.2.9-1.5,1.8Z"/><path id="c353c7c5-0f9a-41e4-bb42-23c88841bb67" class="cls-1" d="M412.7,277.6l4,4.4,1.6-2.1,2.5.1.5-2,2.5-1.6,5.2,3.5,3-3,11.6.5-10.7-11.1,1.4-.9.2-2-2.4-1.1h-3.6l-5.8,5.7-.2,2.4-4.6-.1-.1,1-3-.3-2.7,5.1.6,1.4Z"/><path id="_59482471-5acc-477d-a6cc-ea34b19ee481" data-name="59482471-5acc-477d-a6cc-ea34b19ee481" class="cls-1" d="M408.7,285v1.3l4.1.1.1,10.7-3.8-.1-2.2-1.7-1.7,1-.1.5.9.4.2,2.2-2.3,2,.5,1.1,2.6-2h1.2l.4,1.2,1.6.7,5.3-4.5-.1-3.3,1.1-2.6,3.4-2.5.9-8.5h-2.4l-2.8,3.8-6.9.2Z"/><path id="d110e63f-f5a2-4f5c-bc18-dc5f6110ea68" class="cls-1" d="M393,161.2l-3.8,4,.1.4,1.5-.5,1.4,1.9,2.4-.8,1.6,1.3.7-.4,2-3.1-.5-.5-2-.1-1-2-2.4-.2Z"/><path id="e2183f42-e9d8-42b5-b8a5-d323f0ba284e" class="cls-1" d="M357.7,280l3.7-2.6,4.6-.8,4.7,1-2.4-3.6-.7-2.2.7-6.5-4.2.2-1.9-1.8-4,.1-1.9.3.2,4.4-1,.4-1.2,2.2,3.1,3.6.3,5.3Z"/><g id="f78bc219-ad94-4eee-a05d-63efb07c691e"><path class="cls-1" d="M230.6,441.9l-3.7,8.1,6.4.7.1-5.4-2.8-3.4Z"/><path class="cls-1" d="M229.4,440.6l-2.8,3.1-.3,3.6-5.4-3-5.7-8.2-1.7-2.9,2.4-3-.2-3.8-2.6-1.2-2.1-1.6.4-2.1,2.8-.8.6-12.4-4.4-2.5-2.8-64.5.7-1.3,5.6,12.8h1.8l.6,2-2.4,2.9-2.8,15.5,3.9,11.9-1.8,9,6.3,26.5.7,15.5,4.5,5.2,4.7-.7Z"/><path class="cls-1" d="M210.9,408.2l-1.1,1.7.6,2.9,1.1.1.6-3.7-1.2-1Z"/></g><path id="_4538208a-9580-4099-90a1-601d5a71b819" data-name="4538208a-9580-4099-90a1-601d5a71b819" class="cls-1" d="M397.3,277.8l2.7,2.6-.2,4,15.3-.4,1.2-1.4-4.3-4.8-.6-1.7,2.8-5.2-1.9-3.5-1.6-.9v-1.8l1.8-1.2.1-5.5-1.5-.2v2.9l-6.4,12-3.9.2-2.7,1.8-.8,3.1Z"/><g id="_984ede72-833e-4908-8531-f1f376ef8bcf" data-name="984ede72-833e-4908-8531-f1f376ef8bcf"><path class="cls-1" d="M563.7,144.5l-3,7.5-4.1-.2-4.3,9.5L556,166l-7.6,10.5-3.9-.7-2.6,3.3.7,2,3,.2,1.5,3.5,3,.7,9.3,12v6.1l4.6,2.8,5-.9,6.3,3.7,7.6,2.2,3.7-.4,4.1-.4,8.7-5.7,2.8.4,1.1,2.6,2.4.7,3.3,4.8-2.2,4.8,1.3,3.3,3.8,1.4.7,3.9,4.3.4.7-2,6.3-3.3,3.9.2,4.6,5,3-1.3,2,.2.9,2.4,1.5.2,2.2-3.1,8.7-3.3,7.8-9.4,2.6-9-.2-5.9-3.3-.7,2-2.2-.4-3.5-8.3-8.3V179l2.4-3.1,2.4-1.1.2-2.4h-6.1l-1.1,3.3-2.8-.7-3.5-3.7,2.2-5.7,3-3.3,2.8.2-.4,5,1.5,1.3,3.7-3.7,1.3-.2-.4-2.8,3.5-4.2,2.6.2,1.5-4.8,1.8-.9.2-3-1.8-1.8-.2-4.7,3.3-.2-.2-12.2-2.3,1.4-.9,3.1h-3.9l-11.3-6.4-8.2-9.8-8.3-.1-2.1,1.9,2.7,6.1-.9,5.8-3.3,1.4-1.9-.1-.1,5.7,2,.4,3.5-1.5,4.6,2.2v2.2l-3.3.2-2.7,5.7-2.4.2-8.5,11.2-8.9,3.9-6.1.4-4.1-2.8-5.9,3.1-6.3-2-1.5-4.2-10.6-.7-5.7-9.2H568l-1.9-4.3Z"/><path class="cls-1" d="M641,231.1l-2.1.6-1.5,1.8,1.2,2.4,1.8.2,2.1-1.8.5-2.4Z"/></g><path id="_401fb69f-6b99-400e-8707-b8fc972372c3" data-name="401fb69f-6b99-400e-8707-b8fc972372c3" class="cls-1" d="M203.6,256.7l-1.8-.2L190,266.2l-1.2,3.4-1.6.2.7,7.5-4.1,10.1,4.5,3.8,5.7.4,3.9,5.8,5.7.2-.2,4.3h2.1l2.3-7.9-2.1-2.7.5-5,4.5-.4-.5-11.7-10-3.2-2.3-6.3,5.7-8Z"/><path id="adb4c2dc-7aff-4915-86ab-a1910fc53151" class="cls-1" d="M172.1,261.1l1.2,2.4,1,1.3-1.3,3.9-2.5-1.8-4.1-3.8v-2.5l5.7.5Z"/><path id="_040efa95-23b3-473c-ae5b-cbc413ddb842" data-name="040efa95-23b3-473c-ae5b-cbc413ddb842" class="cls-1" d="M175.1,228.3v1.1l4.6.1,2.2-1.3.3.9,4.5,1.1,4,3.6-.9,1.3.2,1.4,3.4.8,3.4-1.5,1.5-1.5-2.2-1.1-11.2-6.6-3.9-.4-5.9,2.1Z"/><g id="_839992b2-f2f5-4c0c-9991-4dd62b7e5771" data-name="839992b2-f2f5-4c0c-9991-4dd62b7e5771"><path class="cls-1" d="M319.2,248.7l-1.6.9,1.2.9,1.4-.7Z"/><path class="cls-1" d="M323.3,250.6l-1.1,1,.8,1.4,1.8-.8-1.5-1.6Z"/><path class="cls-1" d="M320.9,253.2l-1.4.8,1.5,2,1.2-.6-1.3-2.2Z"/></g><path id="d51dcace-7ccd-4f2a-8522-4c403f1aece0" class="cls-1" d="M453.8,196.2l1.1.8-3.3,3.1L450,200l-1.2-.8.2-1.5,2.4-.1,2.4-1.4Z"/><path id="a4127af9-5bf3-4dce-954e-7115856e335a" class="cls-1" d="M406.4,157.3h3.8l2,1.5,3.8-3.1-3.6-2.6-3.6-1.8-2.5.4-3.4,2.2,3.5,3.4Z"/><path id="_0e2fcbdb-018f-4e9c-8dce-d04aa1282b2c" data-name="0e2fcbdb-018f-4e9c-8dce-d04aa1282b2c" class="cls-2" d="M391.5,142.6l3.1-.5V140l2.6-.4,1.4,1.4,1.5.2,2.3-1,2.1.6,1.8,1.6.2,6,1.8,2.4-2.3.2-4,2.5.3.8,3.6,3.4-.2,1.7-3.3,1.7-3.1.1-.8,1.6h-1.6l-.8-1.7-2.8-.7-.1-2.8-1.4-.8v-1.9l-.4-1.3-2-1.8.4-2.9,2.2-1-.5-5.3Z"/><g id="_3edc1686-1507-4871-85f1-f4da849da7a0" data-name="3edc1686-1507-4871-85f1-f4da849da7a0"><path class="cls-1" d="M396.4,128.5l-3.6,4-.1,2.6,1.6,4.3,2.6-.5-.3-3.5,1.8-2v-1.6l-1.3-3.2Z"/><path class="cls-1" d="M398.2,135.8l-1.1.2v1.6l1.1.9,1-.2-.2-1.5Z"/><path class="cls-1" d="M401.5,134.3l-1,.2-1.1,1,.5,2,1.3.5-1.3.5-.3.7h2l.6-1.1-.8-.4.2-1,.9-1.2-.2-1Z"/></g><path id="bcf72535-7242-41a1-9e41-e8484053267e" class="cls-1" d="M478.2,258.2l-.5,2.9h3.4v-4.3L480,256l-1.8,2.2Z"/><path id="_5e49de5a-3adb-4f20-b9c3-736de756e952" data-name="5e49de5a-3adb-4f20-b9c3-736de756e952" class="cls-1" d="M225.5,243.8l-.8,1.6.9,1.2,1.1-1-1.2-1.8Z"/><path id="da73d97f-c79f-418d-b450-983a3fd50c42" class="cls-1" d="M211.7,239.9l-4.6-3-2.9-1-.6,5.5h.6l.8,1.5,1-1.1,2.9-.8,2.5.5.3-1.6Z"/><path id="_296a9759-a6cb-44c4-bc1a-cf6320b493f4" data-name="296a9759-a6cb-44c4-bc1a-cf6320b493f4" class="cls-1" d="M393.9,194.2l-3.5-1.2-14.7,2.8-3.2,2.4,2,10.1-5.8.2-3.5,5.6-8.4,2v4.1l27.5,21,4.7.4,15.6-12.2-1.6-2-2.9-.4-1.8-3V211.9l-1.2-1.2.2-3.1-3.1-3.1-.4-3.4,1.4-1-.6-3.6-.7-2.3Z"/><g id="e6797df3-d0d1-4f7d-a4d1-455c4ec6542d"><path class="cls-1" d="M183.2,287.8l-4.1,2.5-.3,3.8-.8,1.2,2.6,2.5-1.1,1.2.3,3.1,4.6,1.1,7-8.3V292l-3.4-.2-4.8-4Z"/><path class="cls-1" d="M152.8,289.9l-.5,2.4-1,1,.7,1.2,1.8-.7.8-1.5-.5-1.5-1.3-.9Z"/></g><g id="f7879d00-13fe-41b5-a092-3672b13f15f8"><path class="cls-1" d="M431.8,121.7l-4.8-.2-3.1,1.9v1.4l2,1.9,6.2,1-.3-6Z"/><path class="cls-1" d="M421.5,122.4l-1.3.4,1.3.2.6.7.7-.8-.7-1.2Z"/><path class="cls-1" d="M422,124.2l-1.9.8-.6,1.1.6.7,2.4-.9,1.1-.8Z"/></g><path id="_20006b6a-affa-4945-883a-86a2241c091e" data-name="20006b6a-affa-4945-883a-86a2241c091e" class="cls-1" d="M435.4,207.6l2.3.1,4.5,1.2,2.1.1,2.6-2.2h1.2l2.2,1.2h3.4l1.8,5.2.5,1.7.5,2.5-.9.6-1.5-.7-1.7-5.5-1.5-.1-.1,1.9,1,3.2,8.1,10,.2,4.3-2.4,2.7-22.2-.2-.1-26Z"/><path id="_3def12ed-9fb2-4524-8ba9-b73811d3dd80" data-name="3def12ed-9fb2-4524-8ba9-b73811d3dd80" class="cls-1" d="M465.5,252.3l-.2-5.1,3.4-4,.9.7,1.7,5.6,8.1,6-1.5,1.8-5.9-5.1h-6.5Z"/><g id="_764c4599-1b26-44cc-8036-69307c423ed1" data-name="764c4599-1b26-44cc-8036-69307c423ed1"><path class="cls-1" d="M371.8,174.7h-11l-2.2-1-1.1.1-1.3,2.7.5,2.8,4.2.4.5,1.8-1.8,10.3.1,1.9,3,1.6,3.4.2,6.9-1.7,3.4-4.2.1-4.3,6-5.4.3-2.4-5.4-.1-5.6-2.7Z"/><path class="cls-1" d="M343.5,216.9l-1.5.9.7.7Z"/><path class="cls-1" d="M338.2,217l-1.9.5.9,1.4h1.4l-.4-1.9Z"/><path class="cls-1" d="M333.8,215.6l-1.2,1.2,1.6,1.4.9-2.1-1.3-.5Z"/><path class="cls-1" d="M382.8,185.3l-1.4.5.3,1.2h2l.8-.9-1.7-.8Z"/></g><path id="_12328aa0-5a3b-47e1-8c3f-6569953611ec" data-name="12328aa0-5a3b-47e1-8c3f-6569953611ec" class="cls-1" d="M459.2,267l6.3-14h6.2l5.5,4.8-.4,4h4.3l.4,2.4,7,4.2,4.3.2-8.1,8.8-11.2,3.5h-2.8l-4.9-4.2-2-.8-3.8-5.6h-2.5l-.3-2.6,2-.7Z"/><path id="a37b7494-efbd-41b9-96a1-98765bbc5daf" class="cls-1" d="M422.3,98.6l1.8.8,1.1,2.1-1.1,1.4-5.5,6.1-1,3.2,1.3,4.6,4.3,3.2,5.7-2.7,4.6-.6,4.3-6.9-3.2-7.5-3-7.2.5-4.6-1.9-.3-.5-3.4-2.6-4.2-2.8,2-1.1,4.6-3-1.8-4.2-1-.9,1,1.6,1.4,2.9-.1,2.4,3.8.3,6.1Z"/><g id="_0f6edc2f-f97b-47e9-820b-d92f298df984" data-name="0f6edc2f-f97b-47e9-820b-d92f298df984"><path class="cls-1" d="M250.4,436.8l-2.3-.2-2.3,1.5,1.6,1.8,3-3.1Z"/><path class="cls-1" d="M252.7,435.7l-.8,2.4-2.1,1.9.1.6,3.6-1.4,1.5-1.9-2.3-1.6Z"/></g><g id="a4974755-c441-49d6-a5d8-64cb7f6bba76"><path class="cls-1" d="M382.2,152l-1.9.5-3.8,4.2-1.1.1-1.5-1.1-1,.2-.8,2.4-5.6.1.2,1.2,3.8,2.5,4.4,3.5-.1,4.2-2.4,4.2,5.1,2.5,5.2.1,1.6-1.9,3.3.1.9.9,3.3-.2,1.7-2.2-2.1-2.5-.1-1.6.5-1.8-1.1-1.5-1.8.5-.2-1.4,4-4.5v-2.7l-2.4-.8-1.4-1Z"/><path class="cls-1" d="M245.4,275.7l5.1,3.1-2.6,5.3-1,1.2-2.8-1.6.1-5.7,1.2-2.3Z"/><path class="cls-1" d="M509.3,345.3l-2,.1-.1,1.7,1.3.3,2-.9-1.2-1.2Z"/><path class="cls-1" d="M486.1,321.1l.7,1.5h1l.5-1.9Z"/><path class="cls-1" d="M228.1,248.2l-.9.9.7,1.4,1.3-.4Z"/><path class="cls-1" d="M397.3,176.4l-1.7,1.7-.1,1.5,1.4.9.5-.1.3-2.2-.4-1.8Z"/><path class="cls-1" d="M223.3,242.5l-1.3.5.5,1.1,1.5-1-.3-.3-.4-.3Z"/></g><path id="b9f9552c-3fbb-48dd-8bb5-a520ace19a07" class="cls-1" d="M404.7,285l-.1,2.1-4.9-.1-3,5.8,7,7.7,1.7-1.5v-1.5l-1.2-.5v-1l2.7-1.7,2.4,1.8h2.6V287l-4.2-.2v-1.9l-3,.1Z"/><g id="_85887794-1f0a-4365-bdd9-42e8767bef36" data-name="85887794-1f0a-4365-bdd9-42e8767bef36"><path class="cls-2" d="M369.9,126.4l-1.6,2.4.6,1h3.6v1.6l-1,1.3.6,3.4,2.1,4,1.6,3.7,2.5,1,1.1,1.9-.1,1.8-1.6,1-.2.8,1.1.6-1,1.3-2.2,1-4.3-.5-6.7,3-2.2-1.1,6.4-3.7-.8-.5-3.3-.3,2.1-3,.3-2.6,2.7-.3-.5-5L366,139l-1-1.1.1-3.7-1.9.2,1.9-6.4,3.5-2.6,1.1,1.1Z"/><path class="cls-2" d="M363.2,137.1l-2.9.3-.2,2.6,1.9,1.3,2.1-.5.8-1.4-1.7-2.3Z"/></g><path id="_71de5f75-72f0-4671-bf7c-b1b741261024" data-name="71de5f75-72f0-4671-bf7c-b1b741261024" class="cls-1" d="M464.4,174l2.8,3.7,3.5,1.6h2.2l3.7-1,.9-1.5-11-4.1Z"/><path id="f0c28bbe-e75a-43d7-87ca-90a782916152" class="cls-1" d="M368.3,271.6l1,2.3,2.5,4h1.4l3.8-2.2-.3-12.4-3-.9-4.1.1-1.3,9.1Z"/><g id="_8ef12abc-7b82-464f-8a82-38af6e0f4118" data-name="8ef12abc-7b82-464f-8a82-38af6e0f4118"><path class="cls-1" d="M261.8,40.8l-1.2,1.9,2.1,2.1-.9,2.1,3.1,4,3.8-1.2,4.9-.5,5.6,6.1L283,65.4l-3,6.3,4.2-.7,2.4,1.4.2,3.1-5.2.2,2.8,2.8,3.5.7-7.8,10.3-1,6.3,1.6,5.2-1.2,3.1,2.1,6.6,4,4.5,1.2-.2,2.6-.7.2,3.8,1.6,2.3,3-.2,2.4-8.7,7-8.7,10.6-4.2,6.6-8.2,3,1.4h6.4l5.2-5.2,6.4-2.5.7-4-4-3.5L335,75.4l-1.9-4.9,4.5-2.6,7,3.8,2.3-2.6L343.1,67l8-10.8-1.4-4.7-3.8-.2,1.4-4.2L352,45l9.6-8.5-2.8-3-10.8.9-5.6,5.7,3.3-7.3-3.8-.9-2.1,3.8-3.1-2.6-8.5.9,2.4-3.8,13.9-.5L341,25l-15-2.8-6.1.9.2,3.1-6.4-2.1.2-2.1-4.5.9-.9,2.4,4.7,1.6-4.9,3.5-3.5-4L299.9,25l-.7,3.8h-4.9l-1.9-4-7.8-1.2-4.2,2.1-.2,2.8-5.4-.7-3.3,1.4.2,3.3V34l-6.1,1.2-2.8-1.9-1.9,3,2.8,3.1,5.9-.7.5,1.9-4.5,2.1-3.8-1.9Z"/><path class="cls-1" d="M280.6,77.5l1.4,2.1-.7,2.6h-1.4L278,80.1l.5-1.6,2.1-1Z"/><path class="cls-1" d="M339.4,71.6l4,1.2-.2,3.3L339,74l-.9-1.2,1.3-1.2Z"/></g><path id="d0a67419-a8f5-417d-9a81-73d161ff6001" class="cls-1" d="M336,255.4l-.1,1,6-.1.3-.9-.1-.9-1.7.7-4.4.2Z"/><path id="_07c53fee-bec2-4385-89e1-bfa771710d98" data-name="07c53fee-bec2-4385-89e1-bfa771710d98" class="cls-1" d="M339,263.7l2.6,4,3.4-3,3.5-.1,2.9,3.9,2.5,1.6.9-1.8.8-.5-.1-4-1.7-4.7-5.1.6-6.3-.5v1.6Z"/><g id="cc527a12-260a-4820-9f3d-6a3e0e825de3"><path class="cls-1" d="M396.4,280.5l-.4,1.7,1.2.6,1.1-.9-.4-1.8-1.5.4Z"/><path class="cls-1" d="M400,285.1v1.2l3.9.2v-1.4Z"/></g><g id="_984786bc-a7bc-4488-9c2a-ef00ff613e7c" data-name="984786bc-a7bc-4488-9c2a-ef00ff613e7c"><path class="cls-1" d="M422.2,185.6l-.1,1.1,4,2,1.9.7-1,1.1-2.2.2-.3,1,.8,1.7,2.5,1.3,1.1.1.1-3,1.6-2-4.5-5.3.6-1.8h1l1.6,1.3,1-.5.3-1.8,3.7.5,1.1-3.2-2,1.4-5.7-.1-3.7,1.9-1.9,3.3Z"/><path class="cls-1" d="M430.9,196.9h1.4l.6.9h2l1.4-.5.5.6-.9,1.2-4,.1-.7-1-.8-.5.5-.8Z"/></g><path id="f6f91a9c-2156-4160-a057-66c14b35726a" class="cls-1" d="M152.7,249.5l5.1,3.8,5.2-6.4-.9-1.3-1.8-.1v-3.8l-1.3-.8-4,1.2,1.5,3.5-3.8,3.9Z"/><path id="eac54f62-29be-47db-9e4d-7a98735382c0" class="cls-1" d="M337.4,260.8l1.2,2.4,3.4-2.9v-.9l-4-.6-.6,2Z"/><path id="dfdcd345-2763-41ce-9854-35354943c4e8" class="cls-1" d="M230.6,269.1l6.2,5.6-2.5,2.9-.2,1.7,3.3,3.4-.1,3.2-5.7,2.1-3.4-4.6.7-5.5-1.4-4.1,3.1-4.7Z"/><path id="_4a481305-18be-4706-951c-91a29f386dc1" data-name="4a481305-18be-4706-951c-91a29f386dc1" class="cls-1" d="M163.6,247.1l8-.3,2.4,2.8-1.5-.3-2.8.1-3.7,3.5-1.6,3.5-1-.6V252l-2.3-1.5,2.6-3.4Z"/><path id="d5cf4c94-1678-46f2-803c-c2a6c901304e" class="cls-1" d="M412.6,166.2l-3,2.5h-3.1l-.4,2.2,1.4.4.7-1.1,1.1,1,.9,3.1,6.1,2.9.6-.7-6.2-6.4.6-1.2,5.9-.2.6-1.9-3.8.1-1.4-.7Z"/><path id="_7adb9b0b-6f5b-4943-bf55-8b4d2622a614" data-name="7adb9b0b-6f5b-4943-bf55-8b4d2622a614" class="cls-1" d="M201.1,235.6l3,.3-.4,3.6-.3,1.9-3.5-.2-.6.9-1.1-.1-.4-2,3.7-.3-.2-2.1-1.7-.7,1.5-1.3Z"/><path id="adeddce2-2600-4cfa-bb1d-15bd46d57e82" class="cls-1" d="M413.6,161.4l-1,1.6.1,2.4,1.6.8,4.9.1,6.9-5.8v-1.3l-.7-.4-5,2.2-6.8.4Z"/><g id="bea58a68-37e0-4fc2-8f27-0518d2d33c77"><path class="cls-1" d="M608.8,272l-.2,2,5.9,9.9h1.7l12.2,20.5,4.9.5,2.5-7.1-3.9-2.5-.7-3.9Z"/><path class="cls-1" d="M666.7,299.3l2,2.4-1.3,3.6v.7h2.9l1-9,.9.3,1.7,8.2,1.6.4,1.5-3.5-1.5-5.3-1.3-2.3,4-2.9-.9-1.3-3.8,2.4h-1l-1.9-2.7.6-1.2,3.2-1.5,4.8,1.5,1.4-.1,3.6-3.3-1.4-1.5-3.3,2.6h-2.1l-3.3-1.5-2.3.1-2.5,4.1-1.6,7.1-1,2.7Z"/><path class="cls-1" d="M688,283.2l-1.6,3.9,2.5,3.3h.8l1.1-2.2.6-.8-1.1-1.2-1.6-.6-.7-2.4Z"/><path class="cls-1" d="M693,296.1l-3.5.8-1,1.1.8,1.5,2.3-.9,1.4-.9,2.1,1.7.9-.8-1.7-2.1-1.3-.4Z"/><path class="cls-1" d="M635.3,307.3l-2.4,1.6.5,1.4,7.6,1.8,3.8.7,1.6,1.7,4.3.3,2,1.7,1.9-.4,1.7-1.5-3.1-1.5-2.7-2.3-7-1.7-8.2-1.8Z"/><path class="cls-1" d="M660,314.7l-1.9,1,1.1,1.2,2.7-1-1.9-1.2Z"/><path class="cls-1" d="M663.2,313.9l.3,1.6,2,.5.8-.9-.8-1.3-2.3.1Z"/><path class="cls-1" d="M667.9,318.2l-2.4.4,2.1,1.8h1.7l-1.4-2.2Z"/><path class="cls-1" d="M668.6,315.4l-.5,1,3.8.6,3-1.7-1.7-.5-2.7.8-1-.9-.9.7Z"/><path class="cls-1" d="M681.1,316l-4.4,3.7.4.9,1.9-.3,2.2-2.1,4.3-.6-.8-1.5-3.6-.1Z"/><path class="cls-1" d="M703.4,290.9l-3.6.4-2.3,1.7,1,1.9,3.9.7v.7l-2.5,2,1.2,4.2,1.2.1,1-4.1h1.9l.8,4,9.4,7.8.2,6,3.2,3.5,1.4-.1.3-21.4-5.4-3.8L710,298l-1.8,1.1-3-1.9-.1-6.1-1.7-.2Z"/><path class="cls-1" d="M659.9,277.9l-2,7.5-10.8,3.7-3.2-3.8-1.6.4,2.9,11.3,4.4.5,5.9,2.2v2.2l2.7-.5,3.9-5.4v-4.4l2.2-4.4,2.5.5-2.9-6.2-.5-4-3.5.4Z"/></g><path id="_7fdcd1ff-50d0-4e7e-8723-4eddf9e5a12e" data-name="7fdcd1ff-50d0-4e7e-8723-4eddf9e5a12e" class="cls-1" d="M364.1,141.5l-.8,5.2-7,2.6h-2.2l-1.6-1.1v-1L356,145l-1-1.9.2-2.7,3,.1,1.4-3.2-.2,2.9,2.3,1.9,2.4-.6Z"/><path id="_7990086e-cfb9-4e9f-9686-25dca0a2fe8e" data-name="7990086e-cfb9-4e9f-9686-25dca0a2fe8e" class="cls-1" d="M455.6,203.3l-1.4,4.4,1.8,5.2,2-7.6v-1.6l-2.4-.4Z"/><path id="_322e3fa2-3326-48bb-8e07-5d9f39295e51" data-name="322e3fa2-3326-48bb-8e07-5d9f39295e51" class="cls-1" d="M564.2,268.1l4-1.9,2.3-8.5-.1-10.4,13.5-14.5v-3.4l2.8-1.1-.1-4-3-5.8,1.7-3.1,3.7,3.4,4.8.2v1.9l-1.5,1.6.3.9,2.6.1.5,2.9h.8l1.9-3.4,1-9,3.2-2.3.1-3.1-1.4-2.4-2-.1-8,5.3.5,3.4h-5.6l-2-2.4-1.1.1.4,3.4-12.1-.9-7.5-3.3-.4-4.1-5-3.1-.1-6.4-3.4-3.9-7.9.8.8,3.4,3.8,3.1L545,215.1l-4.5.3-.7,1.6,4.4,4.1-.2,4.1-4.5-.1-.5,2,3.7-.2.1,1.6-2.7,1.4,1.7,3.2,3.3,1.1,2-1.5,1-2.7,1.2-.5,1.4,1.4-.4,3.4-1,1.6.2,2.8,14.7,29.4Z"/><path id="_4ddd6d10-b62c-4f5e-90b0-5a7fa6cd1860" data-name="4ddd6d10-b62c-4f5e-90b0-5a7fa6cd1860" class="cls-1" d="M472,192l-1.4,6.7-5.6,4.6.4,2.2,5.5.4,8.7,7.1,4.9-.1.1-1.6,1.8-1.9,2.5,1.4.3-.3-4.8-6.4-2.3-.1-3-3.9.6-2.9.9-.1.3-1.3-4.1-4.4Z"/><path id="fc6e7c82-329b-44f1-bf2b-30efaede7086" class="cls-1" d="M476.6,185.9l-1.1,1.1.1,1.7,1.3,1.8,4.7,5.1-.7,2h-.8l-.4,2,2.6,3.4,2.4.2,4.9,6.7,2.7.2,2.1,1.5.1,3.1,8.4,4.9H506l1.9-1.6,2.4-.1,1.4,3.3,9.1,1.3.3-3.3,3-1.1.1-1.2-2.4-3.3-5.3-4.3,2.8-2.6-.2-1.1-3.5-.5-1.5-11.8-.2-2.7-9.5-3.6-4.2,1-2.4,2.9-2.1-.1-.6.5-4.7-.3-5.9-4.3-2.2-2.4-1,.2-1.8,2.1-2.9-.7Z"/><path id="_352663dc-969d-4063-9867-75fd77e94ee0" data-name="352663dc-969d-4063-9867-75fd77e94ee0" class="cls-1" d="M335.5,98.9l-1.7-1-2.3,1.4-2,1.8v1l2.5.3-.2,1.8-.9.9.2.6,2.5.2v3l3.7.6,2.2,1.2,2.4.1,4.2-2.1,3.2-4.3v-2.9l-2-1.7-1.6-1.4-.7.5-1.1,1.4-1.3-.2-1.3-1.4-1.6.2-2.4,2-1.4,1.6-.8-.7v-1.7l.8-.5-.4-.7Z"/><g id="beb9fcfd-5796-499b-bae7-b383c15499e8"><path class="cls-1" d="M392.5,167.8l-.5,1.4.1,1.5,2.1,2.4,3.2-.1,7.2,8.3,4.5,1.3,2.6,2.5.6,5.7,1.4-.8,1.2-3.1-.3-2.2,2.1-.2.3-1.3-5.9-2.8-5.6-5.5-2.2-3.3-.5-3.1,2.9-.7-.7-2.1-1.8-1.5-1.5-.1-2.1.6-2,2.8-1.2.8-1.9-1.1-2,.6Z"/><path class="cls-1" d="M409.9,190.3l-1.2-.7-4.3.7.1,1.2,3.9,1.9.6.6,1,.1-.1-3.8Z"/><path class="cls-1" d="M397,182l-2.3,1.2.3,4.5,1.8.3,1.4-1.3v-4.2Z"/></g><path id="a7221084-4293-42ca-a9a3-261a91d7d517" class="cls-1" d="M190.8,239.2l-3,.8v.8l1.8,1h1.8l1.2-1.4-1.8-1.2Z"/><path id="ec497d1f-38f7-455f-9efc-ce87bd0863d0" class="cls-1" d="M458.7,205.7l-2.1,7.4-.1,1.1h3.4l3.7-3.3.1-1.2-1.5-1.6,2.7-2.3-.4-2.1-.8.2-2.3,1.6-2.7.2Z"/><g id="_43fca8e3-4e03-4822-97d0-a0d8135547f1" data-name="43fca8e3-4e03-4822-97d0-a0d8135547f1"><path class="cls-1" d="M678.5,184.6l-1.4,1.4.6,2,1.2.1.8,4.3,1,1.1,1.7-1.6.2-4.8-2-2.1-2.1-.4Z"/><path class="cls-1" d="M685.9,180.6l-2.7,2.2-.6,2.7,1.8,1.2,2.6-2.8.4-3.1Z"/><path class="cls-1" d="M682.8,176.4l-4.2,4.8v2.3l2.6-.3,4.1-3.6,2.7-.5.7.8v2.4l.7,1.2h1.3l1.8-2.2.7-2.8,3.5-.1,3.5-4.2-1.8-6.9-.8-3.7,1.8-1.5-4.1-6.3-.9-.7-1.9.7-.5,2.6v2.1l1,1.2.3,5.5-2.6,3.2-1.5-.9-1.2,2.6-.2,2.4.9,1.4-.6,1.1-1.9-1.6h-1.3l-1.2.7-.9.3Z"/><path class="cls-1" d="M690,138.8l-1.4,1.2.7,2.5,1.2,1.2-.1,3.8-1.5.6-1.2,2.6,3.4,4.7,2.2-.8.4-1.2-2.4-2.2,1.5-1.9,1.6.2,3.4,2.3.4-2.6,1.6-3,2.3-2.3-2.5-1.1-.9-1.8-1.2.8-1.1,1.3-2.3-.5-2.4-1.6Z"/><path class="cls-1" d="M702.4,136.2l-2.3,3.2.2,1.6,1.2-.5,2.7-3.4-1.8-.9Z"/><path class="cls-1" d="M705.5,131.5l-.8,2.2.1,1.5,1.4-.9,1.3-2.7v-1l-2,.9Z"/></g><path id="dbdba7b2-486e-4908-b196-51a78f8b2198" class="cls-1" d="M460.4,279.8l2.3,4.5-2.7,5.8-.4,1.8,13.8,8.5,4.3-6.7-2.2-1.8V283l2.7-3-4.3,1.4h-3.3l-5.1-4.3-1.6-.7-3,.3-.5.9.1,2.1Z"/><path id="c68a1b63-a4d6-4673-bec5-0edaba6f545e" class="cls-1" d="M534.7,169.7l-.3,2.2.2,1.4,7.5,2.5-6.6,2.7-.8-.6-1.4.9.1.5.8.4,4.6.1,2.3-.7,3-3.8,3.8.7,4.6-6.3L540.3,168l-1.7,4.1-2.1-2.3-1.8-.1Z"/><path id="eeaed8f9-1e4c-4a18-a77d-54ac1e233d2b" class="cls-1" d="M624.3,256.4l3.5,3.8,6.6-4.9.6-7.7-3.4,2.3-1.8-1-2.4-.3-1.3-.9h-.7l-1.8,2.9.3,1.3,1.8,1-.2,2.7-1.2.8Z"/><path id="_8f4a2312-6983-4f6d-976a-2bd38eb5d45d" data-name="8f4a2312-6983-4f6d-976a-2bd38eb5d45d" class="cls-1" d="M483.6,318.4l.4,1.3,1.7.3.7-1.7-2.8.1Z"/><path id="_7a0dd14b-4fbd-4151-82e4-9c7a15600212" data-name="7a0dd14b-4fbd-4151-82e4-9c7a15600212" class="cls-1" d="M657,165.5l1.6.7.5,5.6,3.2.2,3-3.5-1-.9.1-3.7,2.7-3.3-1.4-2.5.9-1,.5-2.6-1.6-.7-1.3.7-1.7,5.1-2.7-.2-3.1,3.7.3,2.4Z"/><path id="_953c886a-2e33-41a5-a76e-79054f8ff66f" data-name="953c886a-2e33-41a5-a76e-79054f8ff66f" class="cls-1" d="M665.7,168.9l5.3,4.4.9,4.2-.2,2.3-2.6,2.9-2.2.1-2.5-5.5-1-2.6,1-.8-.2-1.1-1.3-.6,2.8-3.3Z"/><path id="_333507ef-717b-44eb-86de-5109899a7342" data-name="333507ef-717b-44eb-86de-5109899a7342" class="cls-1" d="M488.4,211.2l-2-1.1-1.4,1.4.1,2.7,3.1,1.2.2-4.2Z"/><path id="_138bf32a-a82f-4b7e-b1f4-3831e31b3444" data-name="138bf32a-a82f-4b7e-b1f4-3831e31b3444" class="cls-1" d="M482.7,160.6l3.5-1.5,4-.1.3,6.1h-2.3l-1.8,2.9,2.3,3.9,3.4,1.9.3,2.2,1.3-.4,1.2-1.4,1.9.4,1,1.9h2.5V174l-1.5-4.4-.7-3.6,4.4-1.9,5.9,1,3.7,3.7,8.3-.8,4.6,6.6,5.5.3,1.5-2.5,1.9-.4.3-2.8,2.9-.1,1.5,1.8,1.5-3.6,13,1.8,2.2-2.9-3.7-4.5,4.9-10.7,4,.3,2.7-6.6-5.6-.6-3.1-3-8.6,1-11.1-10.8-3.9,3.5L519,129.4l-14.6,7.1-.4,5.1,3.4,4-6.7,3.8-8.6-.2-1.8-2.6-6.7-.5-6.4,4.1-.1,5.6,5.6,4.8Z"/><path id="_80602106-0569-4840-a7dc-fe25e50203c1" data-name="80602106-0569-4840-a7dc-fe25e50203c1" class="cls-1" d="M620,224.8l-2.1,1.1-1.7,5.1,2.9,3.7-.5,4.1.5.2,4.8-2.3,6.5,7.2-.2,4.6,1.4.8,3.5-2.8-.3-2.2-10-9.6.1-1.5,1.2-.9-.9-2.4-4.2-.7-1-4.4Z"/><path id="af419e69-fa46-4b1e-a0f9-8e42162071df" class="cls-1" d="M456.4,198.4v1.7l-.7,2.6,2.4.2.2-3.6-1.9-.9Z"/><path id="_08eb3947-8462-4b12-b19e-d4db2803ffc7" data-name="08eb3947-8462-4b12-b19e-d4db2803ffc7" class="cls-1" d="M228,251.7l-.6,1.3,1,1.1,1.3-.7Z"/><path id="_365eac99-4be1-4bbd-a817-a02583be7ef5" data-name="365eac99-4be1-4bbd-a817-a02583be7ef5" class="cls-1" d="M572.5,263.8l.2,2.4.2,1.7-1.3.2.6,3.9,1.9,1.1,3-1.7-.8-4,.2-1.5-2.8-2.6-1.2.5Z"/><path id="ae753421-6f78-454a-a87b-d3b2742ab9df" class="cls-1" d="M347.4,273.4l9.5,6.3-.2-4.8-2.9-3.4L351,269Z"/><path id="d4aa72cd-e46c-42f7-8ce3-98ceb23fecbf" class="cls-1" d="M440.1,365.2l2.6-2h1.2l1.5,1.9-.1,1.9-2.5.9v.7l-2.8-.2-.7-2,.8-1.2Z"/><path id="_0ddadbac-3d59-42b9-9cf1-01836205747b" data-name="0ddadbac-3d59-42b9-9cf1-01836205747b" class="cls-1" d="M421.4,133.6l-2.1.4.2,2,3.4.2,1.3,1,.3,1.8,1,1.4,3.1-.1,2.9-3.7-.2-2.2-5.5-.9Z"/><path id="_138f6fe2-5c81-4d98-9510-dd0a13b643a3" data-name="138f6fe2-5c81-4d98-9510-dd0a13b643a3" class="cls-1" d="M389.7,156l.8.7.9.1.2-1.7-.2-1-1.2.6Z"/><path id="_8f850770-918d-4f09-a670-c23d050819ee" data-name="8f850770-918d-4f09-a670-c23d050819ee" class="cls-1" d="M432.1,128.4l-6.4-1-1.1,2.8-1.8.6-1-1.2-1-1.8-1,.8-.6,3.1v1.7l2.2-.4,4.7.1,5.6,1,2.2-.7-.1-2.5-1.7-2.5Z"/><path id="db33a7e4-ecd2-43b0-a351-cde1f6da5618" class="cls-1" d="M399.2,211.9l1.4-.2.4-3.1h.7l2.8-4.5,6.8,2,1.9,2.9,6.7,3.1,3.5-1.5-.3-1.5-1.5-1.5.2-1,2.5-2.1h4.9l1.9,2.5,3.9.6.5,31.9-2.9-.1L415,230.2l-1.9,1.1-7.2-1.8-2-2.6-2.9-.4-1.5-2.6-.3-12Z"/><path id="_4cfdea97-6d7a-42d7-8e99-694b1ec7093b" data-name="4cfdea97-6d7a-42d7-8e99-694b1ec7093b" class="cls-1" d="M371.7,198.3h-10l-2,4.3-4.5,2.2-3.7,10.1-7.2,4.3L334.2,236l10-.2.4-4.9h2.5v-6.7h8.8l.2-8.7,8.4-2,3.5-5.7,5.5-.2-1.8-9.3Z"/><path id="_9e10ec8d-3f82-4d0e-b9bc-43484301a16e" data-name="9e10ec8d-3f82-4d0e-b9bc-43484301a16e" class="cls-1" d="M434.4,159.8l2.7,4.1-.2,2.3h1l2.3-3.9-2.8-3.4-1.5-.6-1.5,1.5Z"/><path id="a828c363-5769-491e-afbd-ab2d2228bc9d" class="cls-1" d="M418.9,175.1l-1.3,1.8.4,1.1,1.5.3,1.2-1.6Z"/><path id="a9432970-43ce-4e55-bbf9-69682c41f265" class="cls-1" d="M496.2,319.9l-1.8,4.4-3.1,5.6-5.5.4-2.4,2.8.4,8.5-3.4,4,.4,6.8,2.9,3.3,3.4-.4,3.4-2.5-.8-4,7.9-13.6-1.5-1.7,1.6-3.3,1.7.5.5-1.3-1.6-6.8-.9-2.8-1.2.1Z"/><path id="_187b0f48-bf41-48ee-8849-b3b93c8813e5" data-name="187b0f48-bf41-48ee-8849-b3b93c8813e5" class="cls-1" d="M425.9,177.3l-2.9,1,.1,2.5.7.9,3.5-1.6-1.4-2.8Z"/><path id="e4335422-0c8e-405c-920c-7f9c6576f873" class="cls-1" d="M346.8,253.2l2.7-1.8,14.8-.1-3.4-23.8,3.9-.1,18.9,14.4,2.5.4-1,8-11.9,1.1-9.2,6.9-1.7,4.7-6.4.3-1.6-4.7-4.9.4.2-1.5-2.9-4.2Z"/><path id="_24d92738-6dbc-4475-98ff-002f0df8d84e" data-name="24d92738-6dbc-4475-98ff-002f0df8d84e" class="cls-1" d="M614.8,260l-2.4-3.8,1.7-2.4-1.6-3-1.5-.3-.3-5.1-2.3-4.5-.7,1.1-1.5,2.6-1.9.3-1-1.3-.5-3.4-1.5-2.7-5.9-5.6,1.5-1,.3-4,2.2-3.6.9-9,3.1-2.1.1-3.3,1.9.6,3,4.3-2.2,4.7,1.5,3.7,3.7,1.4.7,4,4.9.8-1.4,2.3-6.2,2.4-.7,4,4.5,5.8.2,3.1-1.1,1.1.1,1,3.4,5,.1,5.2-1.1,1.7Z"/><path id="c862e93b-f3d3-45cf-858a-5bb48be264df" class="cls-1" d="M566.7,144.6l5-6.7,6,2.8,4.1,1.1,5-4.6-3.4-2.5,2.2-3.2,6.7,2.4,2.3,3.8,4.2.1,2.2-1.6,4.5-.2,1,1.7,7.5.4,4.8-4.9,6.6.7-.4,6.6,2.9.7,3.5-1.6,3.7,1.9-.1.9-2.7.1-2.8,5.9-2.2.2-8.5,11.2-8.7,3.9-5.5.4-4.5-2.9-5.8,3.1-5.7-1.8-1.6-4.1-10.8-.8-5.5-9.4L568,148l-1.3-3.4Z"/><path id="fee0324b-21af-4152-a13d-947ffdae63d4" class="cls-1" d="M334.2,236.7l1.9,2.5-.4,10.6,2.7-2,2-.4,2.7,1,3.1,4.3,2.9-2,14.3-.2-3.6-23.8h3.8l-7-5.4v3.5h-8.9v6.7h-2.6l-.3,4.9-10.6.3Z"/><path id="_9d25a715-86f1-4567-9816-9e17f6fc5bbc" data-name="9d25a715-86f1-4567-9816-9e17f6fc5bbc" class="cls-1" d="M410,196.8l-1.4.3v1.6l1.3.4.6-.5-.5-1.8Z"/><path id="_5cf16ce0-b314-412c-8f1e-374493434883" data-name="5cf16ce0-b314-412c-8f1e-374493434883" class="cls-1" d="M514.1,342.4l-1.3,1.7.3,1.9,2.8-2.3-1.8-1.3Z"/><g id="_4a8ff2d8-ebb4-48ce-b0db-ebb83dc8a2f0" data-name="4a8ff2d8-ebb4-48ce-b0db-ebb83dc8a2f0"><path class="cls-1" d="M551.6,274.8l.3,2.3,1.4.5.3-2-2-.8Z"/><path class="cls-1" d="M553.5,279.6l-.1,2.8,1,.5.9-1.9-1.8-1.4Z"/><path class="cls-1" d="M553.7,285l-.9.9,1.1.9,1.3-.9-1.5-.9Z"/></g><path id="_66a8b752-3190-4d79-b786-86dedb493bf5" data-name="66a8b752-3190-4d79-b786-86dedb493bf5" class="cls-1" d="M457.2,325.5l2.7,2.8v3.6l.5,1.5,3.6-3.9-.4-4.9-1.9-1.5-1.7-8.6-3-.1,1.3,6.2-1.1,4.9Z"/><path id="_0075f702-8aa4-44b2-a26e-900a0b2c7599" data-name="0075f702-8aa4-44b2-a26e-900a0b2c7599" class="cls-1" d="M103.1,192.4l4.2,13.1-1.9,1.1.2,2.6,3.7,2.8v5.2l4.5,4.4-1.9-12.9-2.6-8.5.7-5.9,2.2.2.9,2-.9,5,11.2,22v7.8l9.1,10.7,9.9,4.6,4.1-2.4,5.8,4.8,3.5-3.5-1.5-3.9,5-1.5,1.5.9,1.5-1.5h2.4l4.3-7.6-2.2-2-8.4,2-1.9,5.7-5,.9-5.8-2.4-2.6-8.3,2-10.4-4-2.5-1.9-10-1.6-.7-2.9,3-3.4-1.8-1.3-6.7-13.3-1.4-6.9-5.3-6.7.4Z"/><g id="b7009294-4854-4ddb-be1f-ad2dc8b57329"><path class="cls-1" d="M617.6,270.2l1.7,3.9.4,5.1,2.3,3.6,5.1,3.1,1-.8,1.5-.3-.2-1.9-1.8-4.5-2.7-5.7-.2,1-3.2-.1-2.4-3.3-1.5-.1Z"/><path class="cls-1" d="M644.8,285.3l2.6,3,10-3.5,2-7.6,4.5-.3,4.1-3-5.3-3.9-1.2-2-2.6,4.8,1,2.8-1.6,2.3-3-.8-7.3,5.3.2,3.1-3.4-.2Z"/></g><path id="a7534a91-fe0f-44c1-abf8-43610d5cad1d" class="cls-1" d="M452,354.8l2.3,1.9,5.5-3.3.9-5v-8.2l8.8-7.2H471l5.3-5.1-.8-10.5-13.8,1.7.5,3.3,2,1.8.6,5.7-4.8,4.7-1.1-2.6.2-3.4-2.7-3-6.7,3.1,6.3,3.2.2,9.3-4.1,6.1v7.5Z"/><path id="b4e6adb1-0604-4c5f-a831-614b9ba3c8fb" class="cls-1" d="M413.5,362.3l2.9.2,1.7,1.7h4l1-11.5v-7.5l2.6-.5,1-7.9,6.6-.2,2.3-1.9-3.9-.2-5.3.7-5.7-2.1H404.6l.4,4.6,5.4,7.9-.9,4.1v2.1l4,10.5Z"/><path id="e9522856-46e5-4f60-8811-9daf5eee43b7" class="cls-1" d="M767.9,361l-.3,1.5,4,5.6,2.2.9.3-2.2Z"/><path id="_1b2263df-2f12-4903-9dd6-4580867c71a6" data-name="1b2263df-2f12-4903-9dd6-4580867c71a6" class="cls-1" d="M382.6,258.6h2.2l2-3,3.3-.6,3.5,2.2,7.6.2,5.9-2.4,2.2-1.9.2-2.5,4.1-4.1,1.1-9.1-2.7-5.6-6.9-1.7-15.9,12.4-2.3-.2-1,8.6-8.1.8,4.8,6.9Z"/><path id="_27030240-66e2-429d-a039-3a4f356db8ec" data-name="27030240-66e2-429d-a039-3a4f356db8ec" class="cls-1" d="M383.2,273.6l3.4.2,4.1,4.6,2,.5,1.6-.8,2.4-.3.8-3.3,3.2-2.1,3.5-.2,6.4-11.8-.1-2.6-3-2.3-5.9,2.6-7.9-.1-3.8-2.4-2.7.6-1.4,2.4-.1,6.9-2.3,3.2-.2,4.9Z"/><path id="_8d854584-b661-43cf-ab02-77298401bc5d" data-name="8d854584-b661-43cf-ab02-77298401bc5d" class="cls-1" d="M172.4,250l1.9.4.1,3.9-2.2,6.3-5.9-.6-1.3-3,1.8-3.7,3.4-3.1,2.2-.2Z"/><path id="a630b438-6f4a-4952-8f3a-211efdc935e9" class="cls-1" d="M390.6,143l-3.9,1.9.8.8.1,1.9-.8-.2-.9-1.4-2.2,3.5,3.4.7,1.2,1.3h.7l.4-3,2.1-.9-.9-4.6Z"/><g id="_5107b365-e68d-4a76-b4d0-5ac49301ec13" data-name="5107b365-e68d-4a76-b4d0-5ac49301ec13"><path class="cls-1" d="M429.8,85.8l1.8-1.3-.2-1.4-1.1-.6.2-1.8h1v-1l-4.1-1.1-6.2.6-.7,2.8-1.5-.5-1-1.6-3,.2-.3,3-1.4.6-.8-1.6-6.4,5.1,1.3,1.4L405,89.7l-5.4,10.7-1.9,1.3.1,1,1.9,1-.5,2.1-3.2-.2-1-1.1-2.1,2.4-1.3,1-.3,2.2-1.1.6-2.9.6-1.4,4.5,1,7.3,1.1,3.3,1.3,1.3,2.9-.2,4.1-4,1.6-2.7.5,4,2.7-4.8.1-13.4,2.2-1.4.7-7.4,6.6-9.6,3.2-1.1,1.4-1.8,4.8,1.1,2.5,1.3.8-4,4-2.4,2.4,4.5Z"/><path class="cls-1" d="M406.3,44.2l-1.4-1.4-3.2,1.5h-5.8l-.9,3.4,3.3,2.9,1.4-.2,2-3.5,1.7,1.2-1.2,2.5-.6,3.6,1.4,2.3,3.1-5.1,4-4.8-1.5-1.3-2.3-1.1Z"/><path class="cls-1" d="M408,38l-2.5,2.4,1.5,2.4h2.8l1.1,1.5,3.4,1.7,3.9-2.3,2.6-2.3-.9-1.8-2.6-1.5-1.9,1.8-1.3-1.6-1,.1-1.3,2.9-1.9-2-.2-1.3Z"/><path class="cls-1" d="M413.8,48.6l-2,1.8-1.7,1.3.8,1.4,1.6.5,2.6-1.2,1.2-1.5-1.1-1.8-1.4-.5Z"/></g><path id="_1d394a36-33a3-43e8-aa9c-58260099b1fc" data-name="1d394a36-33a3-43e8-aa9c-58260099b1fc" class="cls-1" d="M564.4,207.2l.4,3.7,7,3.2,11.2.8-.4-2.7-7.5-2.1-6.3-3.8-4.4.9Z"/><g id="b4b41985-c0b5-4cd6-adde-64eb5858508b"><path class="cls-1" d="M773.5,414.1l.9,10.2-1.2,4.7-4.6,3.4.3,4v4.3l1.2,1.5,12.6-10.8V429h-3.1l-4.3-14.5-1.8-.4Z"/><path class="cls-1" d="M764.3,436.4l2.5,4.6-6.7,6.5-.6,3.4-4.6.6-7.7,7.1-7-3.4-.6-2.5,12.9-5.6,11.8-10.7Z"/></g><path id="f5eb3b5a-2906-4d9d-8295-27b167cf8031" class="cls-1" d="M501.5,240.3l6.4-3.7,1.1-5.4-1.4-.8.6-5.8,1.2-.7,1.3,2,7.8,4.1v2.3l-9.4,13.9-4.3.1-3.3-6Z"/><path id="a940c463-b026-4da1-8967-bc2e590dd417" class="cls-1" d="M174.9,265.2l-1.3,3.9,4.2,1.1,2.6.5.4-3,2.8-1.4,2.5,1.3,1,1.5,1.2-.1.9-2.8-3.1-1.3-2.3-1.3-2.3,1.6-2.8,1.4-2.8-1.1-1-.3Z"/><path id="d6ff04eb-298f-4de3-9de6-f95083c0f545" class="cls-1" d="M178.8,299.6l-1.7,1.7.1,2.7,14.6,26.7,15.2,9.8,2.4-3.9.6-8.7-1.2-5.4-4.1-7-2.5.8-1.1,1.3-4.9-5.6,1.2-6.6,5.7-3.7-.4-3.5-5.8-.2-3-5.1-1.7-.6.1,3-7.5,8.9-5.6-1.4-.4-3.2Z"/><g id="b8b21606-5bfa-4477-bc01-78364320fe45"><path class="cls-1" d="M721.4,303.9,721,321l3-.16,4-3.81,3.4.16,2.2,1.54.7,4.86,6.9,2.92L743,326v-1.78l-5.5-3.73-2.7-5.1,2.2-.81-1.6-2.84-3.2-.08-.8-3-8.5-4.62-1.5-.16Z"/><path class="cls-1" d="M747.4,308.6l-.8.16-.5,1.78-1.6.81-4.7.65.2,1.46,5-.16,3.2-1.62-.2-2.75-.6-.32Z"/><path class="cls-1" d="M745.3,304.39l-.8.89,4.2,3,.6,1.78,1.1-.08.1-1.78-1.3-.89-3.9-2.92Z"/></g><g id="f65e87b3-d3e9-4827-841f-e9a0266763fd"><path class="cls-1" d="M666.6,254.7l-.7,1.4-.4,1.8-4.1,5.2.2,1.1,1.7-.2,5.4-6-2.1-3.3Z"/><path class="cls-1" d="M673.3,252.7l-.1,4.3,1.6,1.6.6,3.1,1.6.3.7-1.9-1.2-.9-.3-5.4-2.9-1.1Z"/><path class="cls-1" d="M677.7,254.4l-.1,3.8.9,1.5,1.6-1.8-.4-3.3-2-.2Z"/><path class="cls-1" d="M678.7,251l1.6,2.1.7,2h1.4l-.2-3.4-1.6-1.1-1.9.4Z"/><path class="cls-1" d="M681.8,258.9l.3,2.5-2.9,2.3-2.4.2-2.6,2.8.1,1.2,2.4-.8,1.7-1.1,1.4,3.6,2.5,1.8,1-.3.9-1.1-2-2,1.2-.9,1.3,1.1.9-1.5-.9-1.8-.2-4.1-2.7-1.9Z"/><path class="cls-1" d="M668.3,233.5l-2.2,1.6-.2,5,3.5,6.7,1.2.9,1.5-1,2.6.4.5,2.2,1.9.2.9-1.2-1.2-1.6-1.4-1.3-3-.3-1.6-2.6,1.8-2.8.2-2.4-1.2-3.1-3.3-.7Z"/><path class="cls-1" d="M669.5,248.4l.7,2.3,1.2.8.8-1.1-1.3-1.8-1.4-.2Z"/></g><path id="_0e7e3a58-5a6a-421a-82df-3e0896f79618" data-name="0e7e3a58-5a6a-421a-82df-3e0896f79618" class="cls-1" d="M522.9,213.5l2.2,3.3-.2,1.7-3,1.2-.2,2.8h3.4l1.2-1h6.5l5.9,5.2.8-2.5h4.4l.1-3.1-4.5-4.3,1-2.4,4.6-.3,6.2-12.9-3.4-2.7-1.3-4.5,8.3-.8-4.9-7-2.6-.7-1.1,1.3-.8.1-4.9,3.1,1.6,2.7-1.8,1.9L538,203l-5.6,3.6-.8,3.9-8.7,3Z"/><path id="_8b702057-5bdb-4b36-8801-4302487889bf" data-name="8b702057-5bdb-4b36-8801-4302487889bf" class="cls-1" d="M426.3,148.6l.7,1.4.2,1.4-.6,1.4-1.4,2.7-1.2.5-1.5-.7h-.9l-2.2.8-2.5-.7-4.1-2.9-4-2.1-1.6-2.4-.3-5.8,3.1-2.7,4.1-1.4,1.3-.1.3,1,1.7.7,4.8.1h1.5l2.4,3.7-.6,1.5.3,1.8.5,1.8Z"/><path id="a4899d1f-6f37-465b-bc06-e20d546b5012" class="cls-1" d="M218.5,240.5l-2.3-.8-1.8,1.1.9,1.1,3.1.5.1-1.9Z"/><g id="_85da4cc9-18c7-466a-b3b8-375477f612ed" data-name="85da4cc9-18c7-466a-b3b8-375477f612ed"><path class="cls-1" d="M356.7,180.1l-.5,7.5-1.5,1.4.2.9,1.1,1.8-.7,2.2,1.1.4,2.7-.3-.1-2.2,1.8-10-.4-1.4-3.7-.3Z"/><path class="cls-1" d="M337.1,201.9l-.9,1.2.9,1.2,1.4-.7-1.4-1.7Z"/><path class="cls-1" d="M306.3,185.1l-1.2,1.2,2.1,1.2.2-1.6-1.1-.8Z"/><path class="cls-1" d="M312.7,184.4l-1.4.9,1.2.9,1.9-.5-1.7-1.3Z"/><path class="cls-1" d="M313.6,187.7l-.7,1.9.9,1.2,1.2-.9-1.4-2.2Z"/><path class="cls-1" d="M319.2,191.5l-.5,1.2.7.7,1.9-1.2-2.1-.7Z"/></g><path id="_021df01f-36c4-4ea9-b8bc-ea66507a76df" data-name="021df01f-36c4-4ea9-b8bc-ea66507a76df" class="cls-1" d="M236.4,342.9l1.9,2.1-.2,4.4,5.5-.3,4.1,5.3-.3,4.7-2.7,4-5.5.2L239,361l1.6-3.7-5.4-3.4h-4.5l-3.4-3.6,2.4-7,6.7-.4Z"/><path id="_175a7b15-7718-4e65-b84d-3f84e20e5172" data-name="175a7b15-7718-4e65-b84d-3f84e20e5172" class="cls-1" d="M496.5,221.4l-.5,3.5,1.3,1,1.2-.1.5-4.4-1-.8-1.5.8Z"/><path id="_504e6d64-59c9-4355-9da5-be3f8f3476d4" data-name="504e6d64-59c9-4355-9da5-be3f8f3476d4" class="cls-1" d="M427,159.7l-.2,1.3-5,4.2,4.2,6.1,2.7,1.9h4.8l1.6-1.3,2.1-.3,1.6,1,2.8-3.2-.5-1.6-2.9-.7-2-.1.1-2.8-2.6-4.1-6.7-.4Z"/><path id="f7f1192b-a52d-404b-951f-50be38e065c0" class="cls-1" d="M421.2,165.7l-1.8,1.3h-.9l-.6,1.8,2.1,2.4.1,1.9-.9,1.2,3.1,3.2,3.3-1-.3-4.7-4.1-6.1Z"/><g id="f3e4c19f-af34-4108-9e42-994689cf6f07"><path class="cls-1" d="M691.3,60.6l1.5,5.3,3,.9,3-4.8-1.7-3.3.7-2.8h4.6l-1.1,2.2.4,7.9-6.5,16,.7,3.5-.2,5.9,12.2,17.7,2.4.7.2-14.4,2.4-2.2-2.6-5.7,2.2-2.4-4.8-6.3L705,79l-.9-10.5,6.7-1.8.4-3.1,3.5-.9,2,1.8,2.4-9.6,4.1-7,3.3-1.8,2.8.2V43l-4.6-.9-6.3-5.3,3-3.5-2.6-5.9,2.1-2.2,2.6,3.5,6.5,2.4,7.2.7.9-3.1L734.4,25l4.1-5.7L729.2,16l-2.4,4.8-3-3.9L706.6,11l-16.2,3L688,15.3v1.3l3.5,1.8-.5,4.2L684.7,20l-13.9,5.5-2.4-5h-9.5l-4.3,4.6-15.4-3.5L625,24.2l-1.7,4.4,2.2.7-.2,3.3-13.7,1.5.9,4.4-12.6-2.2,3-5.7L590,29.9l1.1,5.9-4.1,2-3.5-3.3L569.4,37,564,42l-.2,3-3.5.2-.4-3.5L571,32.1V25.6l-7.2-2-9.3,3.1-3.9-3.9h-1.7l-2.2,4.4,1.7,2L536,35.8l-10.6,8.1-6.5,9v3.7l7,2.8L522.4,62,515,59.4,512,62l-4.6-5.3-.9,2,5,15.8,1.3.4,3.5-1.8,1.7,1.3v2.8l-3.3-1.3-2,1.5,1.2,2.8-1.1,7.4-6.7.7-.4-2.4,3.9-2.4.9-6.6-4.3-5.7-1.5-9.8-7-1.1-.6,3.5,1.3,1.8L495.6,68l1.1,6.6,4.1,1.8.9,4.8-4.1-2.6-10.6-2-1.3,3.5-8.5,3.1L475.9,81l-11.1,6.1-.2,4.2-4.4.7,1.3-3V86l-4.4-1.5-2.8,1.1,2.4,4.6,1.7,3.1v2.4l-3.3-.7-.6-.7-3.3,3.5,1.7,3.1-7.4-.2,2.4,3-.6,1.3h-3.9l-2.8-2-.6-5.5-4.6-1.8V93.5l9.6,2,5.2.4,2.2-3.3-2-3.5-13.9-5.5-4.8,1.2L430,86.2l.5,3.2,2,.3-.5,5.1,6.3,14.8-4.5,7.2-.3,1.6,2.3,1.6-2.1,1.4h-1.4l.3,6.4,1.9,2.7v2.6l2.5.2,3.7,1.4,4,5.4v1.4l-1.3,2.2,3-.2,2.9.8,3.9,5.5,9.6.9-.4,6.6-3.3,2.8.7,1.1-3.3,3.5-.9,3.3,2,2.9,6.3,2.2,2.6-1.5,16.7,6.4.6-1.8-3.5-3.3v-4.2l-2.2-.7.4-3.5,3.5-4.2-6.2-4.7.4-6.5,6.7-4.4,7.8.4,1.3,2.4,8,.4,5.9-3.3-3-3.2.6-6.1,15.2-7.4,11.7,5.3,3.9-3.5,11.5,10.9,8.7-.9,3,3.1,8.3.9,5.4-7.4,7,3.1,3.7.7,3.7-3.3-3.3-2.2,2.8-4.4,8,2.6,1.7,3.5,3.5.2,2.2-1.5,5.9-.2.7,1.5,6.7.4,4.6-4.8,9.3,1.1,2.8-1.1.9-5.3-2.8-6.3,2.8-2.4h8.9l8.5,10.1,10.9,6.1H663l.4-2.6,3.9-2.4.4,14.2-3.5.2V147l2,2.4-.4,3.1,1.4.6.9-2.2,1.3.4.9.9,3.9-.9,3.9-11.4.4-14.2-5-11.4-6.3-7.7-3,.4v2.4l-7.4-2.8,2.8-6.1L662,84.3l10-3.1,4.8-3.1H682l-1.3,1.8,1.3,2.2,4.6-4.8,2.6.2-.4-2.8-4.1-.9,2.8-10.3,3.8-2.9Z"/><path class="cls-1" d="M419.3,136.7l-1.3,2.4h5.7l-.2-1.4-.7-.9Z"/><path class="cls-1" d="M710.4,111.7l-1.1,1.3.1,2.1,1-.1,1.7-2.9-1.7-.4Z"/><path class="cls-1" d="M746,30.7,744,32l-.5,1.7,1,1.1,2.2-.7,2.2.7,1.2.4-.1-4Z"/><path class="cls-1" d="M457.8,31.1l1.5.6-1,1.8V36L456,37.3h-2.4l-1.3-1.7.1-1.8,1-1.3h2.1l2.3-1.4Z"/><path class="cls-1" d="M463.4,29.4v1.8l1.5,1.2,2.1-.2,1.8-1.6V29.4h-1.6l-1.3.5-1-1.2-1.5.7Z"/><path class="cls-1" d="M471.9,29.6l1,2.2,2.1.2,1.5-.6-.7-2.1-1.9-.5-2,.8Z"/><path class="cls-1" d="M480.4,26.6l-1.6-.3-1.5,1.5.7,1.4.5,2.1,1.9-1.5.5-1.6-.5-1.6Z"/><path class="cls-1" d="M489.5,42.5l-.5,2.1-3.4,3-7.3,1.7-6,9.9-1,2.8,6,1.5.9-3.6,1.8-5.5,4.6-2.4,3.9-3,2.8-1.2h1.5v-4l-3.3-1.3Z"/><path class="cls-1" d="M470.3,64.4l4,.4,1.3,4.7,3.4,3.6-1.2,2.4h-2.1l-1.9-2.2-4.3-.2-1.8-2.4V69l2.7-.8-.1-3.8Z"/><path class="cls-1" d="M533.1,13.2,531.2,12H529l-.5,1.4-2.4,1.4-1.8.6-.3,1.8,4.2.3,4.9-4.3Z"/><path class="cls-1" d="M537.7,13.7l-1,2.2-2.1-.1-3.3,2.4-.9,3h2.1l1.2-2,2.8,2.1,2.7-1.2,1.9-1.6-.7-2.6-1-1.8-1.7-.4Z"/><path class="cls-1" d="M542,15.3l1,4.2,1.6,3.9,1.8-3.1,3.4-.8V17.3l-2.2-1.6-5.6-.4Z"/><path class="cls-1" d="M623.7,8.6l2.3,2,1.7-.7.5-2.7-3.4-2.3-2.2,1.5-5.4.5V9.3l-5.7.1v4l6.7,5,1.7-1.3-.4-3.5,4.3-1.1-.9-1.7-1.5-1.6,2.3-.6Z"/><path class="cls-1" d="M629.9,6.2l1.5,2.9,6-.7,1.7-2.2-.4-1.9L637,3.8,635.5,5,631,6l-1.1.2Z"/><path class="cls-1" d="M629.5,17.7l-3-.8-1.7,1.9-.8,2.5,4.1-.4,3.1-1.6-1.7-1.6Z"/><path class="cls-1" d="M707.5.8,704.9,0,702,1.1l-1.5,2.2,1.8,2.4,4.8-2.2,1-1.1Z"/><path class="cls-1" d="M708.4,116.7v3.7l1.2.4.8-1.3v-2.8Z"/><path class="cls-1" d="M674.6,103.5l-.1,5.3,6.7,10.3,2.4,9,4.2,8,1.7.6,1.4-1.2.7-1.9-6-6.6.2-3.4,1.3-.6.3-2-11.8-16.7-1-.8Z"/><path class="cls-1" d="M721.2,86.9l-1.7.2,1,1.4,2.1,1.4.6-.7Z"/><path class="cls-1" d="M724.4,87.9l.2,1.4,2.6.8.2-1Z"/><path class="cls-1" d="M738.5,93.4l1.1,1.9,1.8-.1.4-1.3-3.3-.5Z"/><path class="cls-1" d="M756.6,96.4l1.4,2.7,1.1-1.2V96l-2.5.4Z"/></g><path id="_679ce923-4346-4eaf-8285-6ce686cd0749" data-name="679ce923-4346-4eaf-8285-6ce686cd0749" class="cls-1" d="M449.1,291.3l2.4,2.2-.1,2.4-3.8.1v-2.6l1.5-2.1Z"/><path id="_85ecbb85-5767-4af3-ae85-fc7eebacc7ac" data-name="85ecbb85-5767-4af3-ae85-fc7eebacc7ac" class="cls-1" d="M489,216.4l6.1,8.4,2,1.6.9,3.8,9.3.7,1,.6-1,4.7-6.1,3.6-9,2.7-4.8,4.7-5.7-3.3-3.4,3-4.8-7.8-3.3-1.5-1.2-1.8v-3.9l-12-14.4-.5-2.6H460l4.2-3.6.1-1.8-1.2-1.2,2.4-2,5.1.3,8.7,7.2,5.1-.2.3,1.3,4.3,1.5Z"/><g id="_66852264-5989-40ce-9947-bc58437e76cc" data-name="66852264-5989-40ce-9947-bc58437e76cc"><path class="cls-1" d="M753,308.3l1.1,3,1.9,1.8.6-.5-.2-2-2.2-2.6-1.2.3Z"/><path class="cls-1" d="M758.2,312.7l.1,2,1.2,1.1,1.1-.7-1-2.1-1.4-.3Z"/><path class="cls-1" d="M759.8,317.6l-1,1.1,1.1,2,1.3.4-.1-1.3-1.3-2.2Z"/><path class="cls-1" d="M762.2,316.5l.9,2.2,1.7,2,.9-1.5-1.3-2.1-2.2-.6Z"/><path class="cls-1" d="M766.6,319.7l.5,2.7,1.2,1.6,1-2.1-2.7-2.2Z"/><path class="cls-1" d="M768,325.7l-.4.8,1.5,1.9,1,.1-.6-2.5Z"/><path class="cls-1" d="M764.8,329.5l-1.5.7,1.3,1.8,1.1-.6Z"/></g><g id="b62b1eae-4615-4e6f-9537-82cfe50765f6"><path class="cls-1" d="M504.9,307.3l-.5,1.1,1.4,1.2,1.1-1.2-2-1.1Z"/><path class="cls-1" d="M512.3,299.3l-1.6,1.1,1.2,1.9h1.6l-1.2-3Z"/><path class="cls-1" d="M512.9,304l-1,1.2.8,1.2,1.4.3.1-2.5-1.3-.2Z"/></g><path id="_5de93f23-35f1-4eaf-9abf-b5d3511d6bdb" data-name="5de93f23-35f1-4eaf-9abf-b5d3511d6bdb" class="cls-1" d="M435.4,263.4l-2.5-1.5-2.3-4.6.1-4.3,3.2-2.8h0L434,240l2.1.1-.2-5.7,22.3.2,3.2-3.2,6.9,11-3.8,4.4v6.8l-4.6,9.9-1,2.3-3.7-5.3-2.7,3.5-3.1.8-9.9-1-4.3,1.5Z"/><g id="_4f215948-44b0-44c6-b422-f73aa8c87e67" data-name="4f215948-44b0-44c6-b422-f73aa8c87e67"><path class="cls-1" d="M414.5,87.9l1.7,1.6h3.2l1.8,3.3.5,5.8-4.3,3v3l-3,4.2-1.8.2-2.4,4,.1,3.8,4.1,3-.3,1.8-1.6,2.4-2.4,2.1.1,6.9-3.6,1.3-1.3,2.7h-1.8l-1-4.8-4-6.1,3.3-5.4.2-13.5,2.2-1.2.5-7.7,6.4-9.2,3.4-1.2Z"/><path class="cls-1" d="M415.1,127.3l-1.8,1.4.9,2.1,1.6-1.6-.7-1.9Z"/></g><path id="a9532c0a-3cb3-4e5a-b51f-e2608c669f10" class="cls-1" d="M627.5,286.1l.7.4,1.5-.1-.1-1.2-1.3.2Z"/><path id="e0e79990-645e-4639-833e-8122cc6da457" class="cls-1" d="M411.9,163.5l-2.2,1.3-4.1.9.8,2.4h2.9l2.6-2.2v-2.4Z"/><path id="_4fbd11cb-8b29-49f1-bcf3-84e72e76f729" data-name="4fbd11cb-8b29-49f1-bcf3-84e72e76f729" class="cls-1" d="M412.8,159.3l.6.5.1.9,6.6-.1,4.9-2.1-.1-2.1-.9.4-1.3-.7h-.8l-2.2.9-2.9-.7-4,3Z"/><path id="_90296c6c-8d55-443a-9372-be623a0cbb78" data-name="90296c6c-8d55-443a-9372-be623a0cbb78" class="cls-1" d="M342,268.2l4.9,4.7,3.5-4.2-2.2-3.4-3,.3Z"/><path id="b203086f-2224-4216-943e-cf569f34ad13" class="cls-1" d="M341.7,257.2l-5.8-.1h0l1.1,2.6.6-1.6,7.3.8h.8l3.4.1.1-1.5-3.1-3.8-3.4-4.6-2.1-.9-1.7.4h0l-3.4,2.5-.8,1.4-.2,1.4,1.2.9,4.2-.1,2.7-.7.3,1.3-.2,1.8Z"/><path id="_61cf0e18-d815-40ed-a2e5-beb35e0ffc40" data-name="61cf0e18-d815-40ed-a2e5-beb35e0ffc40" class="cls-1" d="M495.9,260.4l3.8-1.5,1.3.8-.1,3.4-3.5,10-18.9,20.2-2.2-1.5-.1-8.5L479,280l6-1.9,8.8-9.3,2.3-2.1.6-3-.8-3.3Z"/><path id="_6cffaac0-d34c-4d22-a070-cf5c397722be" data-name="6cffaac0-d34c-4d22-a070-cf5c397722be" class="cls-1" d="M237.6,275.1l1.8,1.6,2.7-1.7,2.5.1-.3,1-1,2.2-.2,5.4-5,2,.2-3.5-3.2-3,.2-1.5,2.3-2.6Z"/><path id="ae4ba152-89ec-46b6-9e3e-f45693108c2f" class="cls-1" d="M458.6,266.4l-2,.9.6,3.5h2.5l3.5,5-2.8.4-.7,1.3-.1,1.9-8.3-.1-.9-1.3-5.8-.3-10.6-11,1.1-.6,4.5-1.4,9.9.8,3.4-.8,2.2-3Z"/><g id="_2e977706-c25d-44ca-b821-da7a2fa994c3" data-name="2e977706-c25d-44ca-b821-da7a2fa994c3"><path class="cls-1" d="M391.1,289l1-.5.7.6-.7,1.1-.9-.4-.1-.8Z"/><path class="cls-1" d="M393.1,285.8l1.5-.2.5,1-.7.8-.7-.1-.6-1.5Z"/></g><path id="a5646137-e21b-4b57-a6f7-95814b3d828b" class="cls-1" d="M158.5,253.6l4.1,2-.1-3.2-2.1-1.3-1.9,2.5Z"/><path id="_30200424-35a4-4ce2-ac48-fcce419eae5b" data-name="30200424-35a4-4ce2-ac48-fcce419eae5b" class="cls-1" d="M456.8,195.6l-.3,2.2,2.4,1-.1,6.1,2.4-.1,2.4-1.8.9-.1,5.5-4.4,1.1-6.4L460,193.2l-1.2,2.6-2-.2Z"/><path id="_5469733d-1f60-42ee-80bc-ffe4b4a7c8ce" data-name="5469733d-1f60-42ee-80bc-ffe4b4a7c8ce" class="cls-1" d="M451.8,355.4l-2.2.4-.9,2.5,1.7,1.5h2l1.7-2.5-2.3-1.9Z"/><path id="_120ea93c-8729-40d3-b563-3587d03166e5" data-name="120ea93c-8729-40d3-b563-3587d03166e5" class="cls-1" d="M410.2,253.4l.1-2.6,4.1-4,1.1-9.8-2.7-5.2,1.9-1,18.5,9.6-.1,9.5-3.3,2.8v4.9l2.1,4.1h-3.8l-6.2,6.2-.2,1.9-4.6-.1-.1.9-2.6-.4-1.8-3.4-1.4-.7.2-1,1.7-1.3v-6.1l-2.3-.4-2.9-2.1,2.3-1.8Z"/><path id="_6e84ef1d-8774-48c6-a44b-8607b69f2e93" data-name="6e84ef1d-8774-48c6-a44b-8607b69f2e93" class="cls-1" d="M377.7,275.2l2.3-1.4v-9l-1.5-2.4-1,.8.2,12Z"/><path id="d26597a9-17ea-4451-9fef-02716cb87ae6" class="cls-1" d="M615.3,231.3l2.8,3.6v4.4l1,.5,4.5-2.1.9.3,5.3,6.1-.2,4.2-1.7-.3-1.5-1-1.2.1-2,3.4.4,1.9,1.6.9-.1,2-1.2.6-4-2.7v-2.4l-1.6-.1-.7,1.1-.3,10.9,2.6,4.7,4.5,4.4-.2,1.3-2.4-.1-2.2-3.3h-2.3l-2.9-2.4-.9-2.4,1.2-2,.4-1.9,1.4-2.4-.1-5.6-3.4-5-.1-.6,1.1-1.1-.2-3.8-4.4-5.6.5-3.2,5.4-2.4Z"/><path id="_4c55fda0-25fa-42e5-a1ca-1a0781b4ae94" data-name="4c55fda0-25fa-42e5-a1ca-1a0781b4ae94" class="cls-1" d="M529,180.6l3.5-4.4h1.3l.5,1-1.6,1.2v1l1.1.8,5.2.3,1.7-.7.8.1.5,1.7,3.1.3,1.5,3.3-.5,1-.6.1-.6-1.2-1.3-.1-2.3.3-.2,2.2-2.3-.1.1-2.8-1.7-1.7-2.6,2.1v1.4l-2.3.8H531l.1-4.8Z"/><path id="_4c1bd9d1-57c3-484b-9312-104c48226db1" data-name="4c1bd9d1-57c3-484b-9312-104c48226db1" class="cls-1" d="M497.6,177l-.5,2.3h-3.6v3.1l3.9,2.5-1.2,3.5V190l1.6.3,2.1-2.8,4.8-1.1,10.2,3.9.1,2.7,5.7.5,6.4-6.7-.8-2.1-4.2-.9-12-7.8-.5-2.8H505l-2,3.8Z"/><path id="a3f9f01e-3257-4608-a981-5d2e6a0665e7" class="cls-1" d="M394.8,194l4.8-1.9,1.6,1,.1,1.2-.7,1,.1,1.7.7.4v3.1l-.9,1.4.1.9,3.2,1.1-2.6,4-1-.1L400,211l-1.1.2-1-.9.2-3.3-3.1-3-.4-2.7,1.5-1.2Z"/><path id="_3121f348-e8a2-4e91-ae85-18a70c57685a" data-name="3121f348-e8a2-4e91-ae85-18a70c57685a" class="cls-1" d="M442,180.3l-2.3-1.4-1.3-1-2.1.9h0l-1.5,3.7,2.2-.5,1.6-1.2,3.4.9-2,1.9-5.2-.2-1.9,2.1v1l1.2,1v1.1l-.5,1.3.5,1.1,1.6-.8,1.6,1.7-.4,1.2-.6.8.9,1,4.5.9,3.2-1.3v-1.9l1.5.3L450,195l4-.6,1.7-1.6,1.1.4V195h1.5l1.3-2.6,11.5-1.2,5-.6-1.3-1.8v-2.4l1-1.2-3.7-3,.2-2.6h-2l-3.4-1.6h0l-1.9,2-7.1-.2-4.2-2.6-4.1.4-4.5,2.7Z"/><path id="_04b98a67-aedb-438a-992b-59beece42936" data-name="04b98a67-aedb-438a-992b-59beece42936" class="cls-1" d="M228.2,261l-.9.9-1,.1v1.2l1.8,1.7.8-1.2.5-1.4-.2-1.1-1-.2Z"/><path id="_68b365b1-41d4-4c78-a473-583ee2cda93b" data-name="68b365b1-41d4-4c78-a473-583ee2cda93b" class="cls-1" d="M664.9,212.2l-3.1,2.3-.2,4.5,2.7,3.1.7-.6-.1-9.3Z"/><path id="_42ea66f6-1535-4cb6-b871-85a59d31ed45" data-name="42ea66f6-1535-4cb6-b871-85a59d31ed45" class="cls-1" d="M461.5,318.4l13.8-1.7-3.4-6.6-.2-6.3,1.1-3-14.4-9-4.5.7-1.6,1.2-.1,2.6-1,3.7-1,1.2-1.5.1,2.8,9.4,4.8,2.8,4.2.1Z"/><path id="_1497fbcc-2d02-4b63-b87a-6434dc6b9ad8" data-name="1497fbcc-2d02-4b63-b87a-6434dc6b9ad8" class="cls-1" d="M429.9,147.2l-2.5,1.4.6,2.7-2.3,4.9v2.1l1.1.7,7,.4,2-1.6,2.1.7,3,4-2.2,3.9,2.6.8,3.4-3.9,2,.4,1.8,1.3-1.6,2.1,2.1,3.4h2.3l1.2-2.2,2.4-.5.1-1.8-4.5-.7.1-2H455l4.7-3.8,2.1-1.8.4-5.8-9.3-.8-3.8-5.4-2.6-.9-3.2.1-1.4,3.6-6.6.1-2.1-1-3.3-.4Z"/><path id="d5fb64d3-c324-4374-ae31-1fcec07b4db0" class="cls-1" d="M449.5,290.6l2.6,2.5,1.6-1,4.4-.7.8.1.3-1.7,2.5-5.3-2.1-4.5h-6.8v1.8l.9.9-.1,1.8-4.1,6.1Z"/><g id="_8627558a-dd68-4096-9a37-d2a93dacc8ef" data-name="8627558a-dd68-4096-9a37-d2a93dacc8ef"><path class="cls-2" d="M112.8,134.4l-.9,3.5-3-2h-1.5l-.9,3.7L96,163.3l2.8,20.6,3.4,1.7.7,5.6H110l6.9,5.2,13.6,1.3,1.5,6.9,2.1,1.5,3-3,2.4,1.1,2.1,10,3.7,2.4,3-5.6,9.3-6.7,6,2.8,5.2.4.2-3.2,10.8.2,2.1,2.4.4,5.4-1.3,3,1.5,5.2h3.2l3.2-5-1.3-2.4-1.3-5.2,1.9-5.9,8.8-7.6,6.7-2-.9-6.3,9.3-10,9.3-1.5-1.5-5.2,9-5.2v-6.9l-.9-.4-3.1,1.1-.4,4.2-10.7.1-8.4,5.6-13.2,4.3-2.1-2.6,6-9.1-3-2.8-2-3.8-4.2-3.4-4.5-.4-8.6-5.9-61-9.8Z"/><path class="cls-1" d="M44,43.6l3,5.6,1.9-.4V46.9Z"/><path class="cls-1" d="M27.2,92.8,27,95.4l1.9-.4V93.8l-1.7-1Z"/><path class="cls-1" d="M24.3,94l-3.7,1.9.6,2,1.4-1.2,2.9-1.3Z"/><path class="cls-1" d="M8.8,96.4l-2.6-.6L5.8,97,6,99.2l2.8-2.8Z"/><path class="cls-1" d="M3.3,96.3l-2.5-1L0,96.9l1.6,1.6Z"/><path class="cls-1" d="M64.7,36.3,57.5,38,59,46.2l7.9,2.2.4,1.7L55.5,53.8l-6.6,11,2.3,11.6L55,79l3-2.8.9,1.7-3.6,4.3L41.2,88.6l-9,2.2L32,94l20.7-6,8.5-2.4,7.9-9.7,8.8-5.8-4.4,7.5,4.9.7,8.3-3.7,1.5,6L94,81.9l6,5.8.4,4.3-.8,1.1,1.1,4.1h1.4l.2-6.9h1.8l.4,17,4.3-3.7-3-17.6h-4.5l-4.9-6.2L120.5,39l-24-18.8L69.8,25.4l-1.1,8.2,5.7,3.5-2.1,5.6-7.6-6.4Z"/></g><path id="_4c34f35d-6472-49ce-a166-6053266fcc28" data-name="4c34f35d-6472-49ce-a166-6053266fcc28" class="cls-1" d="M243.9,370.9l-1.8,1.9.7,10.2,5.6,1.6,7.1-7.1-11.6-6.6Z"/><path id="_614ae071-8d08-4e5a-a764-ce0974f69d79" data-name="614ae071-8d08-4e5a-a764-ce0974f69d79" class="cls-1" d="M527.9,186.9l2.7.1v-4.6L528,181l4.2-5.4H534l1.7,2,4.5-1.7-6.2-2.1-.2-1.3-1.5.4-1.5,2.5-6.3-.2-4.6-6.5-8.1.8-3.9-3.8-5.4-.9-3.9,1.6,2.3,7.5v2.5h1.6l2-3.8,5.4.1.8,2.9,11.5,7.6,4.4,1,1.3,2.7Z"/><g id="_08aca43e-616f-419c-82d6-bfdb1bd45b38" data-name="08aca43e-616f-419c-82d6-bfdb1bd45b38"><path class="cls-1" d="M228.1,255l-1.1.8.8,1.5,1.4-.8Z"/><path class="cls-1" d="M226.8,258l-1,1,.4.6h1.2l.4-1-1-.6Z"/></g><path id="e36dda36-b6d3-407a-9bd5-d8314af9ceee" class="cls-1" d="M200.7,262l.4,2.2,2.8.9.6-4.1,3-3.1,3,3.5,6.8,1.9,5.8-1.2L227,267l3,1.9-3.2,5,1.1,3.8L226,280l-2.1,1.5-4.2-2.1-1,1v3l3.1,1.5-2.2,2.4-2.2,2.4-3-.2-3-3.3-.6-12.3-10.2-3.5-1.9-5.4,1.9-2.8Z"/><path id="_1b75d514-ff80-45f8-be36-a60f13f5a553" data-name="1b75d514-ff80-45f8-be36-a60f13f5a553" class="cls-1" d="M628.3,260.7l1,1.6.2,1.9,2.7.3,3.3-4.4,3.1-.9,1.6-4.5-.8-7.2-3.2-4.4-3.4-2.7-4.3-7.4,3.1-5.1-4.4-5-3.5-.1-3.2,1.7.9,4.1,4.2.7,1.1,3.1-1.5,1,.1.8,9.9,9.7.4,2.8-.6,9-6.7,5Z"/><g id="ce202387-ee08-43bd-a105-4b0a10b3b472"><path class="cls-1" d="M780.2,340.9l-1.1,1.4.5,1.6.5.4,1-1.3-.9-2.1Z"/><path class="cls-1" d="M780.8,345.3l.1,1.2,1.2.4.8-.5-.8-1.3-1.3.2Z"/><path class="cls-1" d="M782.5,355.7l-.5.8.8.9,1.3-.5-1.6-1.2Z"/></g><g id="_6a7dd482-cb5c-4b3c-9579-b5a18fc9440e" data-name="6a7dd482-cb5c-4b3c-9579-b5a18fc9440e"><path class="cls-1" d="M478.7,247.5l1.2,3.7v3.6l3,2.7L504,249l.2-2.4-3.4-6.1-8.5,2.7-4.9,4.8-5.6-3.3-3.1,2.8Z"/><path class="cls-1" d="M502.5,256.5l1.8,2.1,2.5-1.5.9-.3-1.1-1.1-2.2.7-1.9.1Z"/></g><path id="_8abea2d1-cf26-46bf-a818-2fbb6e691485" data-name="8abea2d1-cf26-46bf-a818-2fbb6e691485" class="cls-1" d="M446,346.4l-6.8,6.3-1.6,3.9-5.5-.6-4.5,4-3-.3.2-5.5-1.1-.4-.8,11.3h-5.3l-1.6-1.9h-2.3l2.1,6.1,3.8,3.6L417,376l1.8,4,4.1,1.6,3.2-2.8h9.3l.7-.8,4.1-.7,14-13.9V359l-1.5,1.9h-2.2l-2.7-2.3,1.4-3.4,2.4-.5-.2-7.1Zm-3.3,16H444l2.1,2.3-.1,2.7-2.5,1.2-.1.9h-3.8l-1.2-2.9,1.1-2.1,3.2-2.1Z"/><path id="eea91191-016b-44a6-a972-e378bdd2bb99" class="cls-1" d="M429,330.1l2.7,3.8,4.2.3,1.5.8h4.4l3.8-5.4,10.7-4.8.9-4.2-1.2-6-5.6-3.2-3.7.3-1.8,4.1v1.9l4.4,2.1.3,4.6-3.8.2-.9-1.6-10.5-4.5-.3,3.4-5,.2-.1,8Z"/><path id="f002fca3-9c55-4982-92f2-3600158fdb6d" class="cls-1" d="M437.8,336.6l7.8,8.8,6,1.5,4-6.2-.3-8.3-6.5-3.4-2.4,1.1-3.6,5.5h-5v1Z"/><g id="_8587d72b-35b7-4d2a-921f-c209fad965bd" data-name="8587d72b-35b7-4d2a-921f-c209fad965bd"><rect class="cls-3" x="584.1" y="201.7" width="74.6" height="23.1"/><rect class="cls-3" x="38.2" y="227.1" width="74.6" height="23.1"/><rect class="cls-3" x="269.7" y="146.9" width="74.6" height="23.1"/><rect class="cls-3" x="431.9" y="164.6" width="74.6" height="23.1"/><line class="cls-4" x1="696.3" y1="174.2" x2="651.1" y2="213.5"/><circle class="cls-5" cx="651.25" cy="213.39" r="2" transform="matrix(0.75, -0.66, 0.66, 0.75, 19.93, 480.03)"/><path class="cls-6" d="M649.7,211.7a2.27,2.27,0,1,1-.2,3.2h0A2.33,2.33,0,0,1,649.7,211.7Zm2.6,3a1.7,1.7,0,1,0-2.4-.2h0A1.64,1.64,0,0,0,652.3,214.7Z"/><circle class="cls-5" cx="216.62" cy="211.5" r="2" transform="translate(-68.32 109.21) rotate(-24.57)"/><line class="cls-4" x1="373.2" y1="148.4" x2="337.2" y2="158.6"/><circle class="cls-5" cx="336.2" cy="158.74" r="2" transform="translate(-30.42 96.93) rotate(-15.71)"/><path class="cls-6" d="M336.7,156.4a2.25,2.25,0,0,1,1.3,4.3,2.22,2.22,0,0,1-2.8-1.5h0A2.18,2.18,0,0,1,336.7,156.4Zm1.1,3.8a1.71,1.71,0,1,0-2.1-1.2h0A1.66,1.66,0,0,0,337.8,160.2Z"/><line class="cls-4" x1="397.1" y1="154" x2="440.1" y2="175.4"/><circle class="cls-5" cx="439.93" cy="175.42" r="2" transform="translate(86.71 490.93) rotate(-63.51)"/><path class="cls-6" d="M439,177.4a2.24,2.24,0,1,1,3-1h0A2.3,2.3,0,0,1,439,177.4Zm1.8-3.5a1.71,1.71,0,0,0-2.3.8,1.68,1.68,0,0,0,.8,2.3,1.71,1.71,0,0,0,2.3-.8,1.77,1.77,0,0,0-.8-2.3Z"/><circle class="cls-5" cx="660.32" cy="417.11" r="2" transform="translate(-87.25 190.97) rotate(-15.45)"/><line class="cls-4" x1="151.2" y1="196.8" x2="100.1" y2="237.3"/><circle class="cls-5" cx="100.18" cy="237.21" r="2" transform="translate(-125.74 113.66) rotate(-38.43)"/><path class="cls-6" d="M98.8,235.5a2.21,2.21,0,1,1-.4,3.1h0A2.23,2.23,0,0,1,98.8,235.5Zm2.5,3.1a1.71,1.71,0,1,0-2.4-.3h0A1.72,1.72,0,0,0,101.3,238.6Z"/><path class="cls-6" d="M700.7,165.2a5.06,5.06,0,0,0-7.1,7.2l3.5,3.7,3.5-3.7a5.58,5.58,0,0,0,1.5-3.7A4.83,4.83,0,0,0,700.7,165.2Zm-3.6,5.2a1.67,1.67,0,0,1-1.5-1.8,1.61,1.61,0,0,1,1.5-1.5h0a1.67,1.67,0,0,1,1.5,1.8A1.54,1.54,0,0,1,697.1,170.4Z"/><path class="cls-6" d="M378.2,139.5a5.06,5.06,0,0,0-7.1,7.2l3.5,3.7,3.5-3.7a5.58,5.58,0,0,0,1.5-3.7A4.75,4.75,0,0,0,378.2,139.5Zm-3.5,5.3a1.67,1.67,0,0,1-1.5-1.8,1.61,1.61,0,0,1,1.5-1.5h0a1.67,1.67,0,0,1,1.5,1.8A1.61,1.61,0,0,1,374.7,144.8Z"/><path class="cls-6" d="M400.2,145.6a5.06,5.06,0,0,0-7.1,7.2l3.5,3.7,3.5-3.7a5.58,5.58,0,0,0,1.5-3.7A4.15,4.15,0,0,0,400.2,145.6Zm-3.5,5.2a1.67,1.67,0,0,1-1.5-1.8,1.61,1.61,0,0,1,1.5-1.5h0a1.67,1.67,0,0,1,1.5,1.8A1.61,1.61,0,0,1,396.7,150.8Z"/><path class="cls-6" d="M154.8,189.2a5.06,5.06,0,0,0-7.1,7.2l3.5,3.7,3.5-3.7a5.58,5.58,0,0,0,1.5-3.7A4.83,4.83,0,0,0,154.8,189.2Zm-3.6,5.2a1.67,1.67,0,0,1-1.5-1.8,1.61,1.61,0,0,1,1.5-1.5h0a1.67,1.67,0,0,1,1.5,1.8A1.47,1.47,0,0,1,151.2,194.4Z"/><path class="cls-6" d="M726.6,388.23a5.4,5.4,0,0,0-7.1,0,4.51,4.51,0,0,0,0,6.72l3.5,3.45,3.5-3.45a5,5,0,0,0,1.5-3.45A4.36,4.36,0,0,0,726.6,388.23Zm-3.6,4.85a1.59,1.59,0,0,1-1.5-1.68A1.56,1.56,0,0,1,723,390h0a1.59,1.59,0,0,1,1.5,1.68A1.49,1.49,0,0,1,723,393.08Z"/><rect class="cls-3" x="601.1" y="424.7" width="74.6" height="21.1"/></g><text class="cls-7" transform="translate(264.65 216.58)">t</text><text class="cls-7" transform="translate(280.95 161.73)">L</text><text class="cls-7" transform="translate(285.63 161.73)">ondon</text><text class="cls-7" transform="translate(452.71 179.46)">F</text><text class="cls-7" transform="translate(457.71 179.46)">r</text><text class="cls-7" transform="translate(461.21 179.46)">ankfu<tspan class="cls-8" x="24.29" y="0">r</tspan><tspan class="cls-9" x="27.96" y="0">t</tspan></text><text class="cls-7" transform="translate(48.99 241.96)">Da</text><text class="cls-7" transform="translate(60.38 241.96)">l</text><text class="cls-7" transform="translate(63.04 241.96)">las</text><text class="cls-7" transform="translate(594.87 216.58)">T</text><text class="cls-7" transform="translate(599.54 216.58)">o</text><text class="cls-7" transform="translate(604.62 216.58)">k</text><text class="cls-7" transform="translate(609.77 216.58)">y</text><text class="cls-7" transform="translate(614.5 216.58)">o</text><text class="cls-7" transform="translate(621.54 438.58)">S<tspan class="cls-10" x="5.62" y="0">y</tspan><tspan x="10.35" y="0">dn</tspan><tspan class="cls-11" x="21.19" y="0">e</tspan><tspan x="26.18" y="0">y</tspan></text><line class="cls-4" x1="719.5" y1="394.95" x2="674.3" y2="434.25"/></svg>